<svg width="63" height="46" viewBox="0 0 63 46" fill="none" xmlns="http://www.w3.org/2000/svg">
<path fill-rule="evenodd" clip-rule="evenodd" d="M10.5314 1H62V35.5731C61.9983 38.0747 60.9932 40.4732 59.2059 42.241C57.4185 44.0089 54.9952 45.0013 52.4689 45H10.5314C8.00511 45.0014 5.5817 44.009 3.79424 42.2412C2.00679 40.4733 1.00169 38.0747 1 35.5731V10.4302C1.00048 9.19126 1.2474 7.96456 1.72667 6.82011C2.20595 5.67565 2.90818 4.63586 3.79326 3.76017C4.67835 2.88448 5.72895 2.19001 6.88509 1.71642C8.04123 1.24282 9.28025 0.999392 10.5314 1V1Z" stroke="#48B066" stroke-width="1.38751"/>
<path fill-rule="evenodd" clip-rule="evenodd" d="M18.8646 1H61.5098V35.5731C61.5082 38.0747 60.5031 40.4732 58.7157 42.241C56.9283 44.0089 54.505 45.0013 51.9788 45H28.1782C25.6519 45.0013 23.2286 44.0089 21.4412 42.241C19.6539 40.4732 18.6488 38.0747 18.6471 35.5731V10.4302L18.8646 1Z" stroke="#48B066" stroke-width="1.38751"/>
<path fill-rule="evenodd" clip-rule="evenodd" d="M1.31787 27.7466V26.8022H61.6818V27.7466H1.31787Z" fill="#48B066"/>
<path fill-rule="evenodd" clip-rule="evenodd" d="M19.0557 26.6831V25.709H60.7181V26.6831H19.0557Z" fill="#48B066"/>
<path fill-rule="evenodd" clip-rule="evenodd" d="M18.5654 28.6246V27.6538H61.6968V28.6246H18.5654Z" fill="#48B066"/>
<path fill-rule="evenodd" clip-rule="evenodd" d="M24.9374 27.6472H22.9706V1.91455H24.9381V27.6472H24.9374Z" fill="#48B066"/>
<path fill-rule="evenodd" clip-rule="evenodd" d="M56.7998 27.6472H54.8323V1.91455H56.7998V27.6472Z" fill="#48B066"/>
<path fill-rule="evenodd" clip-rule="evenodd" d="M43.5653 27.6472H41.5974V1.91455H43.5653V27.6472Z" fill="#48B066"/>
<path fill-rule="evenodd" clip-rule="evenodd" d="M39.1534 27.6472H37.1855V1.91455H39.1534V27.6472Z" fill="#48B066"/>
<path fill-rule="evenodd" clip-rule="evenodd" d="M47.0037 35.6029L42.8746 34.188V37.0177L47.0037 35.6029Z" fill="#48B066"/>
<path fill-rule="evenodd" clip-rule="evenodd" d="M52.2695 35.6029L56.399 34.188V37.0177L52.2695 35.6029Z" fill="#48B066"/>
<path fill-rule="evenodd" clip-rule="evenodd" d="M49.6291 37.2397L48.1963 41.3286L51.0512 41.3319L49.6291 37.2397Z" fill="#48B066"/>
<path fill-rule="evenodd" clip-rule="evenodd" d="M49.1516 33.4789L47.7295 29.3867L50.5841 29.39L49.1516 33.4789Z" fill="#48B066"/>
<path fill-rule="evenodd" clip-rule="evenodd" d="M27.3962 35.6029L23.2667 34.188V37.0177L27.3962 35.6029Z" fill="#48B066"/>
<path fill-rule="evenodd" clip-rule="evenodd" d="M32.1724 35.6029L36.3018 34.188V37.0177L32.1724 35.6029Z" fill="#48B066"/>
<path fill-rule="evenodd" clip-rule="evenodd" d="M30.0212 37.2397L28.5887 41.3286L31.4433 41.3319L30.0212 37.2397Z" fill="#48B066"/>
<path fill-rule="evenodd" clip-rule="evenodd" d="M29.544 33.4789L28.1216 29.3867L30.9765 29.39L29.544 33.4789Z" fill="#48B066"/>
<path fill-rule="evenodd" clip-rule="evenodd" d="M39.6413 42.2233L38.1624 38.33L41.1093 38.3267L39.6413 42.2233Z" fill="#48B066"/>
<path fill-rule="evenodd" clip-rule="evenodd" d="M39.6413 29.105L38.1624 32.995L41.1093 32.9983L39.6413 29.105Z" fill="#48B066"/>
</svg>
