<svg width="63" height="46" viewBox="0 0 63 46" fill="none" xmlns="http://www.w3.org/2000/svg">
<path fill-rule="evenodd" clip-rule="evenodd" d="M14.983 15.3188H11.3227V15.2824L12.0401 14.444C12.8094 13.5763 13.4929 12.6375 14.0812 11.6406C14.5684 10.7913 14.8222 9.8304 14.8174 8.8537C14.8468 7.9676 14.5531 7.10064 13.9899 6.41146C13.4378 5.75866 12.561 5.43171 11.3595 5.43061C10.4179 5.41238 9.4912 5.66565 8.69231 6.15962L9.13368 7.99876C9.66344 7.64662 10.2805 7.44491 10.9178 7.41554C11.1272 7.40236 11.3369 7.43468 11.5324 7.51024C11.7278 7.5858 11.9042 7.7028 12.0492 7.85298C12.3267 8.18392 12.468 8.60638 12.4447 9.03597C12.4428 9.44977 12.3777 9.86093 12.2516 10.2554C12.0915 10.7339 11.8688 11.1895 11.5894 11.6108C11.2765 12.1045 10.9975 12.5154 10.7529 12.8501C10.5083 13.1848 10.1335 13.6719 9.63057 14.3181L8.4534 15.8093V17.4131H14.9834V15.3188H14.983ZM13.1068 27.4273L15.4244 21.3267H13.0152L12.3898 23.5668C12.3282 23.8087 12.1505 24.4781 11.8564 25.5683H11.8196C11.6969 25.1077 11.513 24.4526 11.2678 23.6032L10.5317 21.3267H8.03012L10.2556 27.3179L7.93811 33.6008H10.3292L10.9914 31.3773C11.0651 31.1122 11.1662 30.7178 11.2949 30.1943C11.4238 29.674 11.5124 29.3261 11.5626 29.1571H11.6178C11.7771 29.79 11.998 30.5157 12.28 31.3441L13.0526 33.6008H15.5542L13.1068 27.4273Z" fill="#4AB166"/>
<path fill-rule="evenodd" clip-rule="evenodd" d="M10.5314 1H62V35.5724C61.9995 36.8112 61.7525 38.0379 61.2732 39.1822C60.7939 40.3265 60.0916 41.366 59.2066 42.2415C58.3215 43.117 57.2709 43.8112 56.1148 44.2845C54.9588 44.7578 53.7199 45.001 52.4689 45H10.5314C9.28043 45.001 8.04153 44.7578 6.88546 44.2845C5.72938 43.8112 4.67876 43.117 3.79365 42.2416C2.90854 41.3661 2.20626 40.3265 1.72692 39.1822C1.24757 38.0379 1.00057 36.8112 1 35.5724V10.4276C1.00169 7.92575 2.00679 5.52704 3.79424 3.75905C5.5817 1.99105 8.00511 0.998595 10.5314 1V1Z" stroke="#48B066" stroke-width="1.38757"/>
<path fill-rule="evenodd" clip-rule="evenodd" d="M1.31787 37.4577V36.5166H61.6818V37.4577H1.31787Z" fill="#48B066"/>
<path fill-rule="evenodd" clip-rule="evenodd" d="M52.3829 44.6519H50.4312V1.91113H52.3829V44.6519Z" fill="#48B066"/>
<path fill-rule="evenodd" clip-rule="evenodd" d="M42.2565 37.4577H40.3492V1.94092H42.2565V37.4577Z" fill="#48B066"/>
<path fill-rule="evenodd" clip-rule="evenodd" d="M32.9421 37.4577H31.0348V1.94092H32.9421V37.4577Z" fill="#48B066"/>
<path fill-rule="evenodd" clip-rule="evenodd" d="M21.9899 43.681H20.0381V1.91113H21.9899V43.681Z" fill="#48B066"/>
<path fill-rule="evenodd" clip-rule="evenodd" d="M24.3003 5.79834H25.0786C25.3005 5.79834 25.5132 5.88564 25.6701 6.04101C25.827 6.19637 25.9151 6.40706 25.9151 6.62678V7.39559C25.9151 7.61531 25.827 7.826 25.6701 7.98136C25.5132 8.13672 25.3005 8.22403 25.0786 8.22403H24.3006C24.0788 8.22403 23.866 8.13672 23.7091 7.98136C23.5522 7.826 23.4641 7.61531 23.4641 7.39559V6.62678C23.4641 6.40712 23.5522 6.19648 23.709 6.04113C23.8658 5.88577 24.0785 5.79843 24.3003 5.79834Z" fill="#48B066"/>
<path fill-rule="evenodd" clip-rule="evenodd" d="M24.3003 15.5107H25.0786C25.3005 15.5107 25.5132 15.598 25.6701 15.7534C25.827 15.9087 25.9151 16.1195 25.9151 16.3392V17.108C25.9151 17.3277 25.827 17.5384 25.6701 17.6938C25.5132 17.8491 25.3005 17.9364 25.0786 17.9364H24.3006C24.0788 17.9364 23.866 17.8491 23.7091 17.6938C23.5522 17.5384 23.4641 17.3277 23.4641 17.108V16.3392C23.4641 16.1195 23.5522 15.9088 23.709 15.7535C23.8658 15.5981 24.0785 15.5108 24.3003 15.5107Z" fill="#48B066"/>
<path fill-rule="evenodd" clip-rule="evenodd" d="M28.222 10.6528H29C29.2219 10.6528 29.4346 10.7401 29.5915 10.8955C29.7484 11.0508 29.8365 11.2616 29.8365 11.4813V12.2534C29.8365 12.4731 29.7484 12.6838 29.5915 12.8392C29.4346 12.9945 29.2219 13.0818 29 13.0818H28.222C28.0002 13.0818 27.7874 12.9945 27.6305 12.8392C27.4736 12.6838 27.3855 12.4731 27.3855 12.2534V11.4813C27.3855 11.2616 27.4736 11.0508 27.6305 10.8955C27.7874 10.7401 28.0002 10.6528 28.222 10.6528Z" fill="#48B066"/>
<path fill-rule="evenodd" clip-rule="evenodd" d="M28.222 20.3657H29C29.2219 20.3657 29.4346 20.453 29.5915 20.6083C29.7484 20.7637 29.8365 20.9744 29.8365 21.1942V21.9662C29.8365 22.186 29.7484 22.3967 29.5915 22.552C29.4346 22.7074 29.2219 22.7947 29 22.7947H28.222C28.0002 22.7947 27.7874 22.7074 27.6305 22.552C27.4736 22.3967 27.3855 22.186 27.3855 21.9662V21.1942C27.3855 20.9744 27.4736 20.7637 27.6305 20.6083C27.7874 20.453 28.0002 20.3657 28.222 20.3657Z" fill="#48B066"/>
<path fill-rule="evenodd" clip-rule="evenodd" d="M24.3003 15.5107H25.0786C25.3005 15.5107 25.5132 15.598 25.6701 15.7534C25.827 15.9087 25.9151 16.1195 25.9151 16.3392V17.108C25.9151 17.3277 25.827 17.5384 25.6701 17.6938C25.5132 17.8491 25.3005 17.9364 25.0786 17.9364H24.3006C24.0788 17.9364 23.866 17.8491 23.7091 17.6938C23.5522 17.5384 23.4641 17.3277 23.4641 17.108V16.3392C23.4641 16.1195 23.5522 15.9088 23.709 15.7535C23.8658 15.5981 24.0785 15.5108 24.3003 15.5107Z" fill="#48B066"/>
<path fill-rule="evenodd" clip-rule="evenodd" d="M24.3003 25.2236H25.0786C25.3005 25.2236 25.5133 25.3109 25.6701 25.4663C25.827 25.6217 25.9151 25.8324 25.9151 26.0521V26.8209C25.9154 26.9297 25.894 27.0376 25.852 27.1382C25.8101 27.2389 25.7485 27.3303 25.6707 27.4073C25.593 27.4842 25.5007 27.5452 25.3991 27.5868C25.2974 27.6283 25.1885 27.6496 25.0786 27.6493H24.3006C24.1907 27.6496 24.0818 27.6283 23.9802 27.5868C23.8786 27.5452 23.7863 27.4842 23.7085 27.4073C23.6308 27.3303 23.5692 27.2389 23.5273 27.1382C23.4853 27.0376 23.4638 26.9297 23.4641 26.8209V26.0521C23.4641 25.8324 23.5522 25.6218 23.709 25.4664C23.8658 25.3111 24.0785 25.2237 24.3003 25.2236Z" fill="#48B066"/>
<path fill-rule="evenodd" clip-rule="evenodd" d="M28.222 20.3657H29C29.2219 20.3657 29.4346 20.453 29.5915 20.6083C29.7484 20.7637 29.8365 20.9744 29.8365 21.1942V21.9662C29.8365 22.186 29.7484 22.3967 29.5915 22.552C29.4346 22.7074 29.2219 22.7947 29 22.7947H28.222C28.0002 22.7947 27.7874 22.7074 27.6305 22.552C27.4736 22.3967 27.3855 22.186 27.3855 21.9662V21.1942C27.3855 20.9744 27.4736 20.7637 27.6305 20.6083C27.7874 20.453 28.0002 20.3657 28.222 20.3657Z" fill="#48B066"/>
<path fill-rule="evenodd" clip-rule="evenodd" d="M28.222 30.0781H29C29.2219 30.0781 29.4346 30.1654 29.5915 30.3208C29.7484 30.4761 29.8365 30.6868 29.8365 30.9066V31.6787C29.8365 31.8984 29.7484 32.1091 29.5915 32.2645C29.4346 32.4198 29.2219 32.5071 29 32.5071H28.222C28.0002 32.5071 27.7874 32.4198 27.6305 32.2645C27.4736 32.1091 27.3855 31.8984 27.3855 31.6787V30.9066C27.3855 30.6868 27.4736 30.4761 27.6305 30.3208C27.7874 30.1654 28.0002 30.0781 28.222 30.0781Z" fill="#48B066"/>
<path fill-rule="evenodd" clip-rule="evenodd" d="M47.8301 5.79834H48.608C48.8299 5.79834 49.0426 5.88564 49.1995 6.04101C49.3564 6.19637 49.4445 6.40706 49.4445 6.62678V7.39559C49.4445 7.61531 49.3564 7.826 49.1995 7.98136C49.0426 8.13672 48.8299 8.22403 48.608 8.22403H47.8301C47.6082 8.22403 47.3954 8.13672 47.2385 7.98136C47.0816 7.826 46.9935 7.61531 46.9935 7.39559V6.62678C46.9935 6.40706 47.0816 6.19637 47.2385 6.04101C47.3954 5.88564 47.6082 5.79834 47.8301 5.79834Z" fill="#48B066"/>
<path fill-rule="evenodd" clip-rule="evenodd" d="M47.8301 15.5107H48.608C48.8299 15.5107 49.0426 15.598 49.1995 15.7534C49.3564 15.9087 49.4445 16.1195 49.4445 16.3392V17.108C49.4445 17.3277 49.3564 17.5384 49.1995 17.6938C49.0426 17.8491 48.8299 17.9364 48.608 17.9364H47.8301C47.6082 17.9364 47.3954 17.8491 47.2385 17.6938C47.0816 17.5384 46.9935 17.3277 46.9935 17.108V16.3392C46.9935 16.1195 47.0816 15.9087 47.2385 15.7534C47.3954 15.598 47.6082 15.5107 47.8301 15.5107Z" fill="#48B066"/>
<path fill-rule="evenodd" clip-rule="evenodd" d="M43.9085 10.6528H44.6871C44.909 10.6528 45.1218 10.7401 45.2786 10.8955C45.4355 11.0508 45.5237 11.2616 45.5237 11.4813V12.2534C45.5237 12.4731 45.4355 12.6838 45.2786 12.8392C45.1218 12.9945 44.909 13.0818 44.6871 13.0818H43.9092C43.6873 13.0818 43.4745 12.9945 43.3176 12.8392C43.1608 12.6838 43.0726 12.4731 43.0726 12.2534V11.4813C43.0726 11.2617 43.1607 11.051 43.3174 10.8957C43.4741 10.7404 43.6867 10.653 43.9085 10.6528Z" fill="#48B066"/>
<path fill-rule="evenodd" clip-rule="evenodd" d="M43.9085 20.3657H44.6871C44.909 20.3657 45.1218 20.453 45.2786 20.6083C45.4355 20.7637 45.5237 20.9744 45.5237 21.1942V21.9662C45.5237 22.186 45.4355 22.3967 45.2786 22.552C45.1218 22.7074 44.909 22.7947 44.6871 22.7947H43.9092C43.6873 22.7947 43.4745 22.7074 43.3176 22.552C43.1608 22.3967 43.0726 22.186 43.0726 21.9662V21.1942C43.0726 20.9746 43.1607 20.7639 43.3174 20.6086C43.4741 20.4532 43.6867 20.3659 43.9085 20.3657Z" fill="#48B066"/>
<path fill-rule="evenodd" clip-rule="evenodd" d="M47.8301 15.5112H48.608C48.8299 15.5112 49.0426 15.5985 49.1995 15.7539C49.3564 15.9092 49.4445 16.12 49.4445 16.3397V17.1084C49.4445 17.3282 49.3564 17.5389 49.1995 17.6943C49.0426 17.8496 48.8299 17.9369 48.608 17.9369H47.8301C47.6082 17.9369 47.3954 17.8496 47.2385 17.6943C47.0816 17.5389 46.9935 17.3282 46.9935 17.1084V16.3397C46.9935 16.12 47.0816 15.9092 47.2385 15.7539C47.3954 15.5985 47.6082 15.5112 47.8301 15.5112Z" fill="#48B066"/>
<path fill-rule="evenodd" clip-rule="evenodd" d="M47.8301 25.2236H48.608C48.8299 25.2236 49.0427 25.3109 49.1995 25.4663C49.3564 25.6217 49.4445 25.8324 49.4445 26.0521V26.8209C49.4445 27.0406 49.3564 27.2513 49.1995 27.4067C49.0427 27.562 48.8299 27.6493 48.608 27.6493H47.8301C47.7201 27.6496 47.6112 27.6283 47.5096 27.5868C47.408 27.5452 47.3157 27.4842 47.238 27.4073C47.1602 27.3303 47.0986 27.2389 47.0567 27.1382C47.0147 27.0376 46.9933 26.9297 46.9935 26.8209V26.0521C46.9935 25.8324 47.0816 25.6217 47.2385 25.4663C47.3954 25.3109 47.6082 25.2236 47.8301 25.2236Z" fill="#48B066"/>
<path fill-rule="evenodd" clip-rule="evenodd" d="M43.9084 20.3657H44.687C44.9089 20.3657 45.1216 20.453 45.2785 20.6083C45.4354 20.7637 45.5235 20.9744 45.5235 21.1942V21.9662C45.5235 22.186 45.4354 22.3967 45.2785 22.552C45.1216 22.7074 44.9089 22.7947 44.687 22.7947H43.909C43.6872 22.7947 43.4744 22.7074 43.3175 22.552C43.1606 22.3967 43.0725 22.186 43.0725 21.9662V21.1942C43.0725 20.9746 43.1605 20.7639 43.3173 20.6086C43.474 20.4532 43.6866 20.3659 43.9084 20.3657Z" fill="#48B066"/>
<path fill-rule="evenodd" clip-rule="evenodd" d="M43.9084 30.0786H44.687C44.9089 30.0786 45.1216 30.1659 45.2785 30.3212C45.4354 30.4766 45.5235 30.6873 45.5235 30.9071V31.6791C45.5235 31.8989 45.4354 32.1096 45.2785 32.265C45.1216 32.4203 44.9089 32.5076 44.687 32.5076H43.909C43.6872 32.5076 43.4744 32.4203 43.3175 32.265C43.1606 32.1096 43.0725 31.8989 43.0725 31.6791V30.9071C43.0725 30.6875 43.1605 30.4768 43.3173 30.3215C43.474 30.1661 43.6866 30.0788 43.9084 30.0786Z" fill="#48B066"/>
</svg>
