<svg width="63" height="47" viewBox="0 0 63 47" fill="none" xmlns="http://www.w3.org/2000/svg">
<path fill-rule="evenodd" clip-rule="evenodd" d="M10.5128 1H61.8846V36.3555C61.8824 38.9141 60.8788 41.3671 59.0945 43.1751C57.3102 44.9831 54.8914 45.998 52.3698 45.9966H10.5128C7.99144 45.998 5.57276 44.983 3.78879 43.175C2.00483 41.367 1.00168 38.9139 1 36.3555V10.6412C1.00168 8.08268 2.00483 5.62966 3.78879 3.82163C5.57276 2.01359 7.99144 0.998653 10.5128 1Z" stroke="#48B066" stroke-width="1.40185"/>
<path fill-rule="evenodd" clip-rule="evenodd" d="M1.31726 38.2837V37.3213H61.5657V38.2837H1.31726Z" fill="#48B066"/>
<path fill-rule="evenodd" clip-rule="evenodd" d="M44.1242 45.6781H42.2239V1.9624H44.1242V45.6781Z" fill="#48B066"/>
<path fill-rule="evenodd" clip-rule="evenodd" d="M54.908 45.6781H53.0044V1.9624H54.908V45.6781Z" fill="#48B066"/>
<path fill-rule="evenodd" clip-rule="evenodd" d="M49.5176 38.2837H47.614V1.9624H49.5176V38.2837Z" fill="#48B066"/>
<path fill-rule="evenodd" clip-rule="evenodd" d="M43.4894 37.8025L39.3682 36.3555V39.2495L43.4894 37.8025Z" fill="#48B066"/>
<path fill-rule="evenodd" clip-rule="evenodd" d="M53.6388 37.8025L57.76 36.3555V39.2495L53.6388 37.8025Z" fill="#48B066"/>
<path fill-rule="evenodd" clip-rule="evenodd" d="M19.5191 26.6704H21.7233V23.0071H19.5191V9.39426H15.1808L7.84814 23.529V26.6704H15.5248V32.0789H19.5191V26.6704ZM11.7042 22.9359L14.0787 18.1543C14.8134 16.548 15.33 15.3732 15.6283 14.63H15.7686C15.605 16.5379 15.5237 17.7827 15.5248 18.3644V23.0071H11.7042V22.9359ZM24.8941 10.7565C24.2924 11.2952 23.8163 11.963 23.5004 12.7115C23.1844 13.46 23.0365 14.2704 23.0673 15.0841C23.0702 16.0458 23.3065 16.992 23.7553 17.8392C24.2419 18.7529 24.9543 19.5225 25.8226 20.0724V20.1436C23.5716 21.5872 22.4473 23.6001 22.4495 26.1824C22.4495 28.0429 23.0517 29.5373 24.2562 30.6658C25.4608 31.7943 27.0393 32.3591 28.992 32.3602C30.754 32.4142 32.4685 31.7756 33.7778 30.5777C35.0602 29.3916 35.7025 27.7752 35.7048 25.7283C35.7242 24.4967 35.395 23.2853 34.7563 22.2378C34.1358 21.2241 33.2641 20.3933 32.2281 19.8284V19.7234C34.2019 18.5169 35.1882 16.8417 35.1871 14.6977C35.213 13.9435 35.0772 13.1925 34.7888 12.4968C34.5005 11.8011 34.0666 11.1772 33.5172 10.6685C32.3961 9.62912 30.9207 9.07256 29.4027 9.11636H29.3693C27.727 9.06968 26.128 9.65567 24.8941 10.7565ZM27.4223 28.2598C26.9977 27.4752 26.79 26.5889 26.8211 25.6944C26.8211 23.9492 27.4635 22.623 28.7482 21.716C30.4715 22.6682 31.3331 24.0757 31.3331 25.9384C31.3666 26.7808 31.1627 27.6155 30.7453 28.3445C30.585 28.6352 30.3501 28.8763 30.0654 29.0422C29.7808 29.2081 29.4571 29.2926 29.1289 29.2866H29.0921C28.7474 29.289 28.4088 29.1943 28.114 29.013C27.8192 28.8317 27.5797 28.5709 27.4223 28.2598ZM30.6084 13.0406C30.9006 13.674 31.0534 14.3643 31.0563 15.0636C31.0592 15.7629 30.9121 16.4544 30.6251 17.0902C30.4059 17.6318 30.0112 18.0813 29.5063 18.3644C28.0368 17.5715 27.302 16.443 27.302 14.979C27.2774 14.2831 27.4452 13.594 27.7863 12.9898C27.9312 12.7339 28.1429 12.5235 28.398 12.3818C28.6532 12.2401 28.9419 12.1726 29.2324 12.1866H29.2658C29.5475 12.1797 29.8249 12.2569 30.0637 12.4087C30.3024 12.5606 30.4918 12.7803 30.6084 13.0406Z" fill="#48B066"/>
</svg>
