<svg width="63" height="47" viewBox="0 0 63 47" fill="none" xmlns="http://www.w3.org/2000/svg">
<path fill-rule="evenodd" clip-rule="evenodd" d="M10.5132 1H61.8833V36.3588C61.8816 38.9173 60.8784 41.3703 59.0945 43.1784C57.3105 44.9864 54.8918 46.0013 52.3704 46H10.5132C7.99171 46.0014 5.57293 44.9865 3.7889 43.1785C2.00486 41.3705 1.00168 38.9174 1 36.3588V10.6445C1.00048 9.37743 1.24693 8.12281 1.72528 6.95235C2.20364 5.78188 2.90452 4.7185 3.78792 3.82291C4.67131 2.92731 5.7199 2.21706 6.87383 1.7327C8.02775 1.24834 9.26441 0.999378 10.5132 1Z" stroke="#48B066" stroke-width="1.40185"/>
<path fill-rule="evenodd" clip-rule="evenodd" d="M1.31726 38.2871V37.3213H61.5657V38.2871H1.31726Z" fill="#48B066"/>
<path fill-rule="evenodd" clip-rule="evenodd" d="M44.1258 45.6781H42.2222V1.96582H44.1258V45.6781Z" fill="#48B066"/>
<path fill-rule="evenodd" clip-rule="evenodd" d="M54.9069 45.6781H53.0033V1.96582H54.9069V45.6781Z" fill="#48B066"/>
<path fill-rule="evenodd" clip-rule="evenodd" d="M49.5164 38.2871H47.6128V1.96582H49.5164V38.2871Z" fill="#48B066"/>
<path fill-rule="evenodd" clip-rule="evenodd" d="M43.4908 38.3752L39.3696 36.9282V39.8222L43.4908 38.3752Z" fill="#48B066"/>
<path fill-rule="evenodd" clip-rule="evenodd" d="M53.6392 38.3752L57.7607 36.9282V39.8222L53.6392 38.3752Z" fill="#48B066"/>
<path fill-rule="evenodd" clip-rule="evenodd" d="M19.5418 26.6703H21.746V23.007H19.5418V9.39752H15.2035L7.86951 23.5323V26.6703H15.5478V32.0822H19.5418V26.6703ZM11.7269 22.9358L14.1027 18.1576C14.8375 16.5513 15.3539 15.3754 15.652 14.6299H15.79C15.629 16.5378 15.5488 17.7849 15.5488 18.3643V23.007H11.7259V22.9358H11.7269ZM33.5048 29.4119C34.7098 27.4464 35.3124 24.5207 35.3126 20.6348C35.3201 19.2562 35.228 17.879 35.0371 16.514C34.8563 15.2721 34.5387 14.0547 34.0903 12.8846C33.6964 11.7968 33.0105 10.8425 32.1101 10.1295C31.1961 9.44089 30.0804 9.08403 28.9424 9.11626C26.7382 9.11626 25.0795 10.2041 23.9662 12.3797C22.853 14.5553 22.2964 17.3771 22.2964 20.8449C22.2883 22.2824 22.4035 23.7179 22.6407 25.1352C22.8491 26.3914 23.208 27.6171 23.7094 28.7849C24.1423 29.8265 24.844 30.7303 25.7406 31.4011C26.6335 32.0476 27.7085 32.384 28.8052 32.3601H28.8385C30.7433 32.3601 32.2984 31.3774 33.5038 29.4119H33.5048ZM26.8077 20.7399C26.7854 15.5957 27.4855 13.0247 28.908 13.027C29.5967 13.027 30.0845 13.6663 30.3715 14.945C30.6585 16.2237 30.802 18.1554 30.802 20.7399C30.802 23.39 30.6527 25.3385 30.3541 26.5856C30.0555 27.8327 29.5735 28.4551 28.908 28.4528H28.8746C27.4274 28.4528 26.7388 25.8819 26.8087 20.7399H26.8077Z" fill="#48B066"/>
</svg>
