<svg width="64" height="47" viewBox="0 0 64 47" fill="none" xmlns="http://www.w3.org/2000/svg">
<path fill-rule="evenodd" clip-rule="evenodd" d="M11.0818 1H62.9091V36.3588C62.9077 38.9172 61.8958 41.3701 60.0961 43.1782C58.2964 44.9862 55.8564 46.0013 53.3126 46H11.0818C8.5377 46.0014 6.09718 44.9865 4.29695 43.1785C2.49672 41.3705 1.48417 38.9175 1.48193 36.3588V10.6445C1.48345 8.08536 2.49567 5.63157 4.29596 3.82291C6.09626 2.01424 8.53717 0.998832 11.0818 1V1Z" stroke="#48B066" stroke-width="1.4081"/>
<path fill-rule="evenodd" clip-rule="evenodd" d="M1.89624 12.8677V10.8784H62.6057V12.8677H1.89624Z" fill="#48B066"/>
<path fill-rule="evenodd" clip-rule="evenodd" d="M3.37549 42.1672V41.1709H60.6311V42.1672H3.37549Z" fill="#48B066"/>
<path fill-rule="evenodd" clip-rule="evenodd" d="M12 25H2V34H12C14.2091 34 16 32.2091 16 30V29C16 26.7909 14.2091 25 12 25ZM1 24V35H12C14.7614 35 17 32.7614 17 30V29C17 26.2386 14.7614 24 12 24H1Z" fill="#48B066"/>
<path d="M48 34L63 34L63 35L48 35C45.2386 35 43 32.7614 43 30C43 27.2386 45.5 24.5 48 23L62.5 14L62.5 15.5L48 24C46 25.5 44 27.7909 44 30C44 32.2091 45.7909 34 48 34Z" fill="#48B066"/>
<path fill-rule="evenodd" clip-rule="evenodd" d="M17 30H16V12H17V30Z" fill="#48B066"/>
<path fill-rule="evenodd" clip-rule="evenodd" d="M43.9907 29.876H43V12H43.9907V29.876Z" fill="#48B066"/>
</svg>
