<svg width="63" height="46" viewBox="0 0 63 46" fill="none" xmlns="http://www.w3.org/2000/svg">
<path fill-rule="evenodd" clip-rule="evenodd" d="M10.5326 1H62V35.5698C61.9985 38.0721 60.9934 40.4714 59.2057 42.2398C57.418 44.0083 54.9942 45.0011 52.4674 45H10.5326C8.00579 45.0011 5.58198 44.0083 3.79431 42.2398C2.00664 40.4714 1.00151 38.0721 1 35.5698V10.4269C1.00222 7.92514 2.00767 5.52663 3.79529 3.75884C5.58291 1.99105 8.00631 0.998682 10.5326 1V1Z" stroke="#48B066" stroke-width="1.38748"/>
<path d="M1.64587 38.5948C1.64587 15.6753 18.7504 19.5753 31.6356 19.6747C44.5042 19.7742 60.0394 19.2738 59.6948 1.78516" stroke="#48B066" stroke-width="1.38748"/>
<path fill-rule="evenodd" clip-rule="evenodd" d="M25.7767 15.1319C26.7198 15.1296 27.6424 15.4044 28.4277 15.9216C29.2131 16.4387 29.8258 17.175 30.1884 18.0372C30.551 18.8994 30.6471 19.8487 30.4647 20.765C30.2822 21.6814 29.8294 22.5235 29.1634 23.1848C28.4975 23.8461 27.6484 24.297 26.7236 24.4802C25.7988 24.6635 24.8399 24.5709 23.9683 24.2143C23.0967 23.8576 22.3515 23.2529 21.827 22.4767C21.3026 21.7004 21.0224 20.7876 21.0221 19.8536C21.0209 18.6033 21.5211 17.4036 22.4126 16.5182C23.3042 15.6329 24.5141 15.1342 25.7767 15.1319Z" fill="#48B066"/>
<path fill-rule="evenodd" clip-rule="evenodd" d="M26 28C21.0295 28 17 23.9707 17 19H15C15 25.0752 19.9248 30 26 30C32.0752 30 37 25.0752 37 19H35C35 23.9707 30.9704 28 26 28ZM25 32C24.4477 32 24 32.4478 24 33V37C24 37.5522 24.4477 38 25 38C25.5522 38 26 37.5522 26 37V33C26 32.4478 25.5522 32 25 32ZM18.2009 30.5181C18.477 30.0396 19.0886 29.8755 19.5669 30.1519C20.0451 30.4282 20.2092 31.0396 19.9328 31.5181L17.9328 34.9819C17.6567 35.4604 17.0451 35.624 16.5669 35.3481C16.0886 35.0718 15.9248 34.4604 16.2009 33.9819L18.2009 30.5181ZM15.696 25.8662C15.4199 25.3877 14.8083 25.2236 14.3301 25.5L10.8659 27.5C10.3877 27.7764 10.2236 28.3877 10.5 28.8662C10.7761 29.3442 11.3877 29.5083 11.8659 29.2319L15.3301 27.2319C15.8083 26.9561 15.9721 26.3442 15.696 25.8662ZM30.5 32.3662C30.2239 31.8877 30.3877 31.2764 30.8659 31C31.3442 30.7236 31.9558 30.8877 32.2319 31.3662L34.2319 34.8301C34.5083 35.3086 34.3442 35.9199 33.8659 36.1963C33.3877 36.4722 32.7761 36.3086 32.5 35.8301L30.5 32.3662ZM35.5 26.7319C35.2239 27.2104 35.3877 27.8218 35.8659 28.0981L39.3301 30.0981C39.8083 30.3745 40.4199 30.2104 40.696 29.7319C40.9724 29.2539 40.8083 28.6421 40.3301 28.3662L36.8659 26.3662C36.3877 26.0898 35.7761 26.2539 35.5 26.7319Z" fill="#48B066"/>
<path fill-rule="evenodd" clip-rule="evenodd" d="M25.0001 4C25.0001 3.44775 25.4479 3 26.0001 3C26.5524 3 27.0001 3.44775 27.0001 4V7.64404L30.9449 5.36621C31.4232 5.08984 32.0348 5.25391 32.3109 5.73193C32.587 6.21045 32.4232 6.82178 31.9449 7.09814L27.3663 9.7417C27.2499 9.80859 27.1256 9.84961 27.0001 9.8667V18C27.0001 18.5522 26.5524 19 26.0001 19C25.4479 19 25.0001 18.5522 25.0001 18V10.1997L19.8502 7.1084C19.7125 7.02588 19.6017 6.91553 19.5204 6.78857C19.4449 6.6709 19.3951 6.53906 19.3734 6.40186C19.3563 6.29395 19.3563 6.18311 19.3751 6.07373C19.3946 5.95898 19.4344 5.8457 19.496 5.73926C19.7745 5.25732 20.3912 5.0918 20.8736 5.37012L24.4496 7.43506C24.6573 7.55518 24.8414 7.70117 25.0001 7.86719V4ZM35.1554 8.44629C35.1554 7.89404 35.6031 7.44629 36.1554 7.44629C36.7076 7.44629 37.1554 7.89404 37.1554 8.44629V12.1367L39.9906 10.5C40.4689 10.2236 41.0804 10.3877 41.3566 10.8662C41.4706 11.0635 41.5096 11.2842 41.4823 11.4941C41.4437 11.7925 41.2714 12.0698 40.9906 12.2319L38.0441 13.9331L41.6949 16.041C42.1732 16.3169 42.337 16.9287 42.0609 17.4067C41.7848 17.8853 41.1732 18.0493 40.6949 17.7729L36.1163 15.1294C36.0926 15.1157 36.0697 15.1011 36.0475 15.0859L28.8661 19.2319C28.3878 19.5083 27.7762 19.3442 27.5001 18.8662C27.224 18.3877 27.3878 17.7764 27.8661 17.5L35.1554 13.2915V8.44629ZM12.1424 18.3335C11.6642 18.6099 11.0526 18.4458 10.7765 17.9673C10.5004 17.4893 10.6642 16.8774 11.1424 16.6016L15.0382 14.3521L11.3661 12.2319C10.8878 11.9561 10.724 11.3442 11.0001 10.8662C11.2762 10.3877 11.8878 10.2236 12.3661 10.5L15.6818 12.4141V8.00684C15.6818 7.45459 16.1295 7.00684 16.6818 7.00684C17.234 7.00684 17.6818 7.45459 17.6818 8.00684V13.5688L24.4906 17.5C24.9689 17.7764 25.1327 18.3877 24.8566 18.8662C24.5804 19.3442 23.9689 19.5083 23.4906 19.2319L16.9816 15.4741C16.9095 15.5581 16.8224 15.6313 16.7211 15.6899L12.1424 18.3335Z" fill="#4AB167"/>
</svg>
