<svg width="60" height="44" viewBox="0 0 60 44" fill="none" xmlns="http://www.w3.org/2000/svg">
<path fill-rule="evenodd" clip-rule="evenodd" d="M10.0607 1H58.9969V33.8884C58.9966 35.067 58.762 36.234 58.3064 37.3228C57.8509 38.4115 57.1834 39.4007 56.342 40.2338C55.5006 41.0669 54.5019 41.7276 53.4028 42.1782C52.3037 42.6288 51.1258 42.8605 49.9363 42.86H10.0607C8.87126 42.8605 7.69337 42.6288 6.59428 42.1782C5.49518 41.7276 4.49644 41.0669 3.65506 40.2338C2.81369 39.4007 2.14615 38.4115 1.69061 37.3228C1.23508 36.234 1.00046 35.067 1.00012 33.8884V9.96845C1.00147 7.58864 1.95682 5.30682 3.656 3.62493C5.35517 1.94304 7.65899 0.99883 10.0607 1V1Z" stroke="#48B066" stroke-width="1.31962"/>
<path fill-rule="evenodd" clip-rule="evenodd" d="M29.5 42.5L27.396 42.8003L0.603516 10.6443L1 8.5L29.5 42.5Z" fill="#48B066"/>
<path fill-rule="evenodd" clip-rule="evenodd" d="M58.5102 27.202V29.5L34.5 1.1416H36.8036L58.5102 27.202Z" fill="#48B066"/>
<path fill-rule="evenodd" clip-rule="evenodd" d="M48.0604 0.999984L50.3584 0.999984L42 9L41 7.5L48.0604 0.999984Z" fill="#48B066"/>
<path fill-rule="evenodd" clip-rule="evenodd" d="M59 11L59.298 13L52 20L51 18.5L59 11Z" fill="#48B066"/>
<path fill-rule="evenodd" clip-rule="evenodd" d="M56.702 1.5L59 1.5L47 14L46 12.5L56.702 1.5Z" fill="#48B066"/>
<path fill-rule="evenodd" clip-rule="evenodd" d="M10.2377 43L7.9397 43L19.2981 31L20.2981 32.5L10.2377 43Z" fill="#48B066"/>
<path fill-rule="evenodd" clip-rule="evenodd" d="M1.2981 30L1.00011 28L9.2981 20L10.2981 21.5L1.2981 30Z" fill="#48B066"/>
<path fill-rule="evenodd" clip-rule="evenodd" d="M3.5 39L2.2981 37.5L14.2981 26L15.2981 27.5L3.5 39Z" fill="#48B066"/>
<path fill-rule="evenodd" clip-rule="evenodd" d="M22.5413 29.9137V8.80877H18.7682L13.8816 11.3086L14.6038 14.6532L18.2115 12.8028H18.2783V29.9137H22.5413ZM34.5447 8.77725C32.5242 9.12472 30.6781 10.1297 29.2986 11.6333C26.9794 14.0795 25.8203 17.3485 25.8214 21.4402C25.8214 24.0787 26.4004 26.194 27.5584 27.7859C28.0854 28.5472 28.7973 29.1648 29.6285 29.5819C30.4597 29.9989 31.3834 30.2019 32.3146 30.1722C34.2616 30.1722 35.7654 29.4314 36.8258 27.9498C37.9059 26.4017 38.4628 24.5542 38.4165 22.6728C38.4165 20.7026 37.9732 19.1222 37.0867 17.9317C36.6992 17.3708 36.1772 16.9141 35.5674 16.6027C34.9577 16.2912 34.2794 16.1348 33.5935 16.1474C32.944 16.1385 32.3023 16.2879 31.7247 16.5826C31.1472 16.8772 30.6516 17.308 30.2817 17.8371H30.1513C30.8289 14.6122 32.4249 12.7398 34.9392 12.2196C35.525 12.1102 36.1167 12.0344 36.7113 11.9926V8.55029C35.6169 8.63856 34.8947 8.71421 34.5447 8.77725ZM30.7398 25.822C30.3285 24.7557 30.1391 23.618 30.183 22.4773C30.1502 21.8437 30.2168 21.2088 30.3803 20.5954C30.7748 19.6654 31.3633 19.1989 32.1523 19.1989C32.47 19.1973 32.7808 19.291 33.0437 19.4676C33.3066 19.6443 33.5093 19.8957 33.6253 20.1887C33.9825 20.9684 34.1617 21.8166 34.1502 22.6728C34.1502 25.6171 33.5383 27.0892 32.3146 27.0892H32.2828C31.6274 27.0892 31.1131 26.6668 30.7398 25.822Z" fill="#48B066"/>
</svg>
