<svg width="60" height="44" viewBox="0 0 60 44" fill="none" xmlns="http://www.w3.org/2000/svg">
<path fill-rule="evenodd" clip-rule="evenodd" d="M10.0638 1.14014H59V34.0317C58.9979 36.4118 58.0419 38.6937 56.3422 40.3755C54.6425 42.0573 52.3383 43.0014 49.9362 43.0001H10.0638C7.66174 43.0014 5.35751 42.0573 3.65781 40.3755C1.95812 38.6937 1.00211 36.4118 1 34.0317V10.1117C1.00143 7.73109 1.95713 5.44853 3.65688 3.76607C5.35664 2.08361 7.66124 1.13905 10.0638 1.14014V1.14014Z" stroke="#48B066" stroke-width="1.31962"/>
<path fill-rule="evenodd" clip-rule="evenodd" d="M29.5 42.8956H27.2154L1.08984 11.533L1.5 9.5L29.5 42.8956Z" fill="#48B066"/>
<path fill-rule="evenodd" clip-rule="evenodd" d="M58.3288 27.2982L58.5001 30.5L34.5001 1.23779H36.6221L58.3288 27.2982Z" fill="#48B066"/>
<path fill-rule="evenodd" clip-rule="evenodd" d="M48.0604 0.999984L50.3584 0.999984L42 9L41 7.5L48.0604 0.999984Z" fill="#48B066"/>
<path fill-rule="evenodd" clip-rule="evenodd" d="M59 11L59.298 13L52 20L51 18.5L59 11Z" fill="#48B066"/>
<path fill-rule="evenodd" clip-rule="evenodd" d="M56.702 1.5L59 1.5L47 14L46 12.5L56.702 1.5Z" fill="#48B066"/>
<path fill-rule="evenodd" clip-rule="evenodd" d="M10.2377 43L7.9397 43L19.2981 31L20.2981 32.5L10.2377 43Z" fill="#48B066"/>
<path fill-rule="evenodd" clip-rule="evenodd" d="M1.2981 30L1.00011 28L9.2981 20L10.2981 21.5L1.2981 30Z" fill="#48B066"/>
<path fill-rule="evenodd" clip-rule="evenodd" d="M3.5 39L2.2981 37.5L14.2981 26L15.2981 27.5L3.5 39Z" fill="#48B066"/>
<path fill-rule="evenodd" clip-rule="evenodd" d="M22.6846 30.0532V8.95145H18.9114L14.0248 11.4512L14.747 14.7959L18.3547 12.9455H18.4183V30.0532H22.6846ZM37.3285 27.5692C38.477 25.7408 39.0507 23.0193 39.0496 19.4046C39.0557 18.1234 38.9685 16.8434 38.7888 15.5745C38.6155 14.4193 38.3124 13.2869 37.8852 12.1984C37.5099 11.1856 36.8565 10.2969 35.9987 9.63237C35.1283 8.99268 34.066 8.66176 32.9827 8.69293C30.883 8.69293 29.3029 9.70484 28.2424 11.7286C27.182 13.7524 26.6518 16.3763 26.6518 19.6001C26.6438 20.9383 26.7534 22.2747 26.9794 23.5941C27.1781 24.7616 27.52 25.9007 27.9975 26.986C28.4087 27.9554 29.0771 28.7963 29.9317 29.4196C30.7814 30.0218 31.8047 30.3359 32.8491 30.3149H32.8841C34.6975 30.3149 36.1789 29.3996 37.3285 27.5692ZM30.9498 19.5023C30.9275 14.7202 31.5935 12.3286 32.9477 12.3276C33.6063 12.3276 34.0718 12.9224 34.3443 14.1118C34.6169 15.3013 34.7526 17.0981 34.7516 19.5023C34.7516 21.9706 34.6095 23.7832 34.3253 24.9401C34.0421 26.1002 33.584 26.6771 32.9477 26.6771H32.9159C31.5384 26.6771 30.883 24.2855 30.9498 19.5023Z" fill="#48B066"/>
</svg>
