<svg width="61" height="43" viewBox="0 0 61 43" fill="none" xmlns="http://www.w3.org/2000/svg">
<mask id="mask0" mask-type="alpha" maskUnits="userSpaceOnUse" x="0" y="0" width="61" height="44">
<path fill-rule="evenodd" clip-rule="evenodd" d="M9.53087 1.28268e-06H61V33.7866C60.9978 36.2317 59.9923 38.5759 58.2046 40.3037C56.417 42.0314 53.9935 43.0013 51.4671 43H9.53087C7.00469 43.0013 4.58142 42.0313 2.79408 40.3035C1.00673 38.5757 0.0016856 36.2316 0 33.7866V9.21334C0.0016856 6.7684 1.00673 4.42422 2.79408 2.69642C4.58142 0.968618 7.00469 -0.00128747 9.53087 1.28268e-06Z" fill="#C4C4C4"/>
</mask>
<g mask="url(#mask0)">
<path d="M9.53087 0.700926H9.53051C7.18295 0.699729 4.93545 1.60127 3.28124 3.20037C1.62787 4.79866 0.702547 6.96213 0.700925 9.21357V33.7864L9.53087 0.700926ZM9.53087 0.700926H60.2991V33.786C60.297 36.0377 59.3713 38.2013 57.7175 39.7997C56.063 41.3987 53.8153 42.3003 51.4675 42.2991H51.4671M9.53087 0.700926L51.4671 42.2991M51.4671 42.2991H9.53087H9.53051M51.4671 42.2991H9.53051M9.53051 42.2991C7.18295 42.3003 4.93545 41.3987 3.28124 39.7996M9.53051 42.2991L3.28124 39.7996M3.28124 39.7996C1.62793 38.2014 0.702609 36.038 0.700925 33.7866L3.28124 39.7996Z" stroke="#48B066" stroke-width="1.40185"/>
<path fill-rule="evenodd" clip-rule="evenodd" d="M0.688218 0.0576172L-5.83032 11.5079L0.688218 22.9001H6.5862L-0.118257 11.5079L6.5862 0.0576172H0.688218ZM10.6215 0.0576172L4.10295 11.5079L10.6834 22.9001H16.5192L9.8147 11.5079L16.5192 0.0576172H10.6215ZM35.2045 42.4664H43.1511L35.0183 0.742566H25.2725L16.2079 42.4664H24.0923L25.9549 32.9352H33.4668L35.2045 42.4664ZM28.3132 17.8922C28.3956 17.5594 28.8923 14.4017 29.803 8.41918H29.9893C30.6507 13.3732 31.1059 16.5309 31.3551 17.8922L32.7209 26.6189H26.7614L28.3132 17.8922ZM45.8199 42.098H51.7179L58.2364 30.7059L51.6557 19.2524H45.8212L52.5256 30.7059L45.8199 42.098ZM55.7532 42.098H61.6508L68.1697 30.7059L61.589 19.2524H55.7545L62.4589 30.7059L55.7532 42.098Z" fill="#48B066"/>
</g>
</svg>
