<?xml version="1.0" encoding="UTF-8" standalone="no"?>
<svg
   xmlns:dc="http://purl.org/dc/elements/1.1/"
   xmlns:cc="http://creativecommons.org/ns#"
   xmlns:rdf="http://www.w3.org/1999/02/22-rdf-syntax-ns#"
   xmlns:svg="http://www.w3.org/2000/svg"
   xmlns="http://www.w3.org/2000/svg"
   xmlns:sodipodi="http://sodipodi.sourceforge.net/DTD/sodipodi-0.dtd"
   xmlns:inkscape="http://www.inkscape.org/namespaces/inkscape"
   width="61"
   height="43"
   viewBox="0 0 61 43"
   fill="none"
   version="1.1"
   id="svg841"
   sodipodi:docname="base-A.svg"
   inkscape:version="0.92.3 (2405546, 2018-03-11)">
  <metadata
     id="metadata847">
    <rdf:RDF>
      <cc:Work
         rdf:about="">
        <dc:format>image/svg+xml</dc:format>
        <dc:type
           rdf:resource="http://purl.org/dc/dcmitype/StillImage" />
        <dc:title></dc:title>
      </cc:Work>
    </rdf:RDF>
  </metadata>
  <defs
     id="defs845" />
  <sodipodi:namedview
     pagecolor="#ffffff"
     bordercolor="#666666"
     borderopacity="1"
     objecttolerance="10"
     gridtolerance="10"
     guidetolerance="10"
     inkscape:pageopacity="0"
     inkscape:pageshadow="2"
     inkscape:window-width="1920"
     inkscape:window-height="996"
     id="namedview843"
     showgrid="false"
     inkscape:zoom="8"
     inkscape:cx="5.0562046"
     inkscape:cy="-3.9681707"
     inkscape:window-x="-8"
     inkscape:window-y="-8"
     inkscape:window-maximized="1"
     inkscape:current-layer="svg841" />
  <mask
     id="mask0"
     mask-type="alpha"
     maskUnits="userSpaceOnUse"
     x="0"
     y="0"
     width="61"
     height="44">
    <path
       fill-rule="evenodd"
       clip-rule="evenodd"
       d="M9.53087 1.28268e-06H61V33.7866C60.9978 36.2317 59.9923 38.5759 58.2046 40.3037C56.417 42.0314 53.9935 43.0013 51.4671 43H9.53087C7.00469 43.0013 4.58142 42.0313 2.79408 40.3035C1.00673 38.5757 0.0016856 36.2316 0 33.7866V9.21334C0.0016856 6.7684 1.00673 4.42422 2.79408 2.69642C4.58142 0.968618 7.00469 -0.00128747 9.53087 1.28268e-06Z"
       fill="#C4C4C4"
       id="path832" />
  </mask>
  <path
     style="stroke:#48b066;stroke-width:1.40184999"
     inkscape:connector-curvature="0"
     id="path835"
     d="M 0.70091195,33.787805 V 9.2149753 c 0.0016,-2.25144 0.92694505,-4.41491 2.58031505,-6.0132 1.65421,-1.5991 3.90171,-2.49944406 6.24927,-2.49944406 h 1.8e-4 c 1.087984,-0.0062 50.768411,0 50.768411,0 V 33.787405 c -0.0021,2.2517 -0.9278,4.4153 -2.5816,6.0137 -1.6545,1.599 -3.9022,2.5006 -6.25,2.4994 h -2e-4 -41.936431 -3.6e-4 m 0,0 c -2.3475601,0.0012 -4.59506,-0.9004 -6.24927,-2.4995 m 0,0 c -1.65331,-1.5982 -2.57863105,-3.7616 -2.58031505,-6.013"
     sodipodi:nodetypes="ccsscccccccccccc" />
  <path
     style="clip-rule:evenodd;fill:#48b066;fill-rule:evenodd"
     d="M 10.621094 0.05859375 L 4.1035156 11.507812 L 10.683594 22.900391 L 16.519531 22.900391 L 9.8144531 11.507812 L 16.519531 0.05859375 L 10.621094 0.05859375 z M 25.273438 0.7421875 L 16.207031 42.466797 L 24.091797 42.466797 L 25.955078 32.935547 L 33.466797 32.935547 L 35.205078 42.466797 L 43.150391 42.466797 L 35.017578 0.7421875 L 25.273438 0.7421875 z M 5.7460938 1.4921875 L 1.0859375 6.1210938 C 1.0823614 6.1239323 1.0857602 6.1240181 1.0820312 6.1269531 L 1.0683594 6.140625 L 0.6875 6.5175781 L 0.6875 10.130859 L 5.7460938 1.4921875 z M 29.802734 8.4199219 L 29.990234 8.4199219 C 30.651634 13.373942 31.106269 16.531278 31.355469 17.892578 L 32.720703 26.619141 L 26.761719 26.619141 L 28.3125 17.892578 C 28.3949 17.559778 28.892034 14.402442 29.802734 8.4199219 z M 0.6875 12.878906 L 0.6875 22.900391 L 6.5859375 22.900391 L 0.6875 12.878906 z M 45.820312 19.251953 L 52.525391 30.705078 L 45.820312 42.097656 L 51.71875 42.097656 L 58.236328 30.705078 L 51.65625 19.251953 L 45.820312 19.251953 z M 55.753906 19.251953 L 60.75 27.785156 L 60.75 19.251953 L 55.753906 19.251953 z M 58.544922 41.324219 C 58.555252 41.352119 58.571444 41.37892 58.583984 41.40625 C 58.585084 41.40295 58.58459 41.399884 58.585938 41.396484 C 58.580438 41.369294 58.561132 41.343039 58.544922 41.324219 z M 58.822266 41.537109 C 58.802296 41.543709 58.745656 41.575497 58.708984 41.591797 C 58.801224 41.546507 58.881403 41.517549 58.822266 41.537109 z "
     id="path837" />
</svg>
