<svg width="43" height="43" viewBox="0 0 43 43" xmlns="http://www.w3.org/2000/svg">
<path d="M42.7729 18.0609L35.8491 12.0251V2.60311C35.8491 2.2391 35.5528 1.94281 35.1888 1.94281H29.8309C29.4669 1.94281 29.1707 2.2391 29.1707 2.60311V6.19244L22.2722 0.165075C22.0267 -0.0550251 21.6543 -0.0550251 21.4003 0.165075L0.891129 18.0609C0.679519 18.2387 0.611804 18.535 0.704912 18.789C0.798021 19.0429 1.05195 19.2207 1.32281 19.2207H6.54534V31.6733L1.04349 36.16C0.476374 36.6086 0.112405 37.252 0.0192965 37.9631C-0.0653474 38.6742 0.129334 39.3768 0.586411 39.9525L2.22004 41.9757C2.75329 42.6529 3.54895 43 4.36153 43C4.95404 43 5.54654 42.8138 6.05441 42.4244L6.62152 41.9672C6.73156 42.1873 6.95163 42.3482 7.21403 42.3482H36.4585C36.8225 42.3482 37.1187 42.0519 37.1187 41.6879V19.2207H42.3413C42.6206 19.2207 42.866 19.0514 42.9592 18.789C43.0523 18.535 42.9845 18.2472 42.7729 18.0609ZM30.4911 7.34373V3.26341H34.5286V10.8653L33.6568 10.1035L30.4911 7.34373ZM5.23336 41.3916C4.62393 41.8656 3.73516 41.764 3.25269 41.1545L1.61907 39.1313C1.39053 38.8435 1.28896 38.4879 1.33128 38.1324C1.3736 37.7684 1.55982 37.4467 1.873 37.2097L11.4293 29.413C11.497 29.5739 11.5563 29.7262 11.6324 29.8786C11.971 30.6236 12.4112 31.3516 12.9444 32.0288C13.1984 32.359 13.4692 32.6637 13.757 32.96C13.8501 33.0532 13.9601 33.1378 14.0617 33.2309C14.2479 33.4087 14.4342 33.5865 14.6373 33.7473L5.23336 41.3916ZM16.3725 33.3579C16.2794 33.2987 16.1863 33.2394 16.0678 33.1547C15.8816 33.0362 15.7123 32.9008 15.5345 32.7653C14.9589 32.3082 14.4426 31.7833 13.9855 31.1992C13.52 30.6067 13.1306 29.9717 12.8344 29.3199C12.6566 28.922 12.4958 28.5157 12.3688 28.1009L12.2673 27.7284C12.2419 27.6184 12.208 27.4998 12.1826 27.3559C12.1657 27.2544 12.1403 27.1528 12.1234 27.0258C11.4801 23.5634 12.809 20.0672 15.5768 17.8916C17.312 16.5287 19.3774 15.8684 21.4257 15.8684C24.2359 15.8684 27.0207 17.1128 28.8913 19.4831C32.1163 23.5973 31.3968 29.5739 27.2831 32.7992C24.3121 35.1272 20.2577 35.4743 16.9227 33.6711C16.8042 33.6119 16.6941 33.5441 16.5672 33.468C16.5079 33.4426 16.4487 33.4087 16.3725 33.3579ZM36.4585 17.9001C36.0945 17.9001 35.7983 18.1964 35.7983 18.5604V41.0191H7.87425V40.9429L15.7546 34.5261C15.7969 34.5515 15.8477 34.5854 15.89 34.6108C16.0339 34.7039 16.1863 34.7886 16.3217 34.8563C17.9299 35.7282 19.6905 36.1515 21.4427 36.1515C23.8127 36.1515 26.1658 35.3727 28.1041 33.8489C32.7934 30.1749 33.6145 23.3687 29.9325 18.6789C26.2589 13.9975 19.4535 13.1764 14.7643 16.8588C11.5986 19.3392 10.0919 23.3264 10.8199 27.2544C10.8368 27.3898 10.8622 27.5168 10.896 27.6438C10.9214 27.7877 10.9553 27.9316 10.9891 28.067L7.87425 30.6067V18.5604C7.87425 18.1964 7.578 17.9001 7.21403 17.9001H3.09187L21.832 1.54494L33.3013 11.551L34.7572 12.8208L40.5722 17.9001H36.4585Z"/>
<path d="M20.2416 29.7694C19.4705 29.7694 18.5517 29.3269 17.4294 28.0516C17.2013 27.7927 17.2013 27.3724 17.4294 27.1133C17.6574 26.854 18.0273 26.8538 18.2554 27.1133C20.0871 29.1946 20.8007 28.4606 21.8803 27.3504C22.9852 26.2141 24.4981 24.6578 27.117 27.6335C27.3452 27.8927 27.3452 28.3128 27.117 28.5719C26.8889 28.8312 26.5192 28.8312 26.2911 28.5719C24.458 26.4894 23.7445 27.2231 22.6641 28.3339C22.0333 28.9833 21.269 29.7694 20.2416 29.7694Z"/>
<path d="M18.7293 25.3408C17.9492 25.3408 17.0189 24.8935 15.8825 23.6024C15.6544 23.3431 15.6544 22.9232 15.8825 22.6639C16.1107 22.4047 16.4804 22.4047 16.7087 22.6639C18.5673 24.7757 19.2915 24.0375 20.3879 22.9207C21.4893 21.7983 22.9978 20.2614 25.5701 23.1841C25.7983 23.4434 25.7983 23.8633 25.5701 24.1228C25.3419 24.3818 24.9724 24.3818 24.7442 24.1228C22.9541 22.0888 22.2432 22.8125 21.1677 23.9088C20.532 24.5564 19.7625 25.3408 18.7293 25.3408Z"/>
<path d="M22.2636 3.87259C22.0181 3.65249 21.6457 3.65249 21.3918 3.87259L9.60088 14.1665C9.32156 14.4036 9.29616 14.8268 9.53316 15.0977C9.66013 15.2501 9.84635 15.3263 10.0326 15.3263C10.1849 15.3263 10.3457 15.2755 10.4642 15.1654L21.8319 5.24399L29.3906 11.847C29.67 12.084 30.0847 12.0586 30.3217 11.7793C30.5587 11.4999 30.5333 11.0851 30.254 10.8481L22.2636 3.87259Z"/>
<path d="M32.5392 12.8376C32.2683 12.6006 31.8451 12.626 31.6081 12.9054C31.3711 13.1847 31.3965 13.5995 31.6758 13.8365L33.1994 15.1656C33.3264 15.2757 33.4787 15.3265 33.6311 15.3265C33.8173 15.3265 33.9951 15.2503 34.1305 15.0979C34.3675 14.8185 34.3421 14.4037 34.0628 14.1667L32.5392 12.8376Z"/>
</svg>
