<svg width="55" height="55" viewBox="0 0 55 55" fill="none" xmlns="http://www.w3.org/2000/svg">
<path fill-rule="evenodd" clip-rule="evenodd" d="M27.5 0C42.6905 0 55 12.3094 55 27.4998C55 42.6901 42.6905 54.9995 27.5 54.9995C12.3095 55.0868 0 42.6901 0 27.4998C0 12.3094 12.3095 0 27.5 0Z" fill="#A43C8A"/>
<path d="M50.4603 21.3013C50.9841 23.3092 51.3333 25.4044 51.3333 27.4996C51.3333 40.6821 40.6825 51.3328 27.5 51.3328C19.0318 51.3328 11.6111 46.9677 7.42064 40.3329C8.11905 36.0551 12.2222 27.5869 27.5 27.5869C42.7778 27.4996 47.5794 24.9679 50.4603 21.3013Z" stroke="white" stroke-width="2.12823" stroke-miterlimit="2.6131" stroke-linecap="round" stroke-linejoin="round"/>
<path d="M27.5 2.70654C34.3968 2.70654 40.5952 5.50017 45.0476 9.95251C49.5 14.4049 52.2937 20.6905 52.2937 27.5C52.2937 34.3968 49.5 40.5951 45.0476 45.0475C40.5952 49.5871 34.3968 52.3807 27.5 52.3807C20.6032 52.3807 14.4048 49.5871 9.95239 45.1348C5.50001 40.6824 2.70636 34.3968 2.70636 27.5873C2.70636 20.6905 5.50001 14.4922 9.95239 10.0398C14.4048 5.41287 20.6905 2.70654 27.5 2.70654ZM27.5 4.80176C21.2143 4.80176 15.5397 7.33349 11.4365 11.4366C7.33334 15.5398 4.8016 21.2143 4.8016 27.5C4.8016 33.7856 7.33334 39.4602 11.4365 43.5633C15.5397 47.6665 21.2143 50.1982 27.5 50.1982C33.7857 50.1982 39.4603 47.6665 43.5635 43.5633C47.6667 39.4602 50.1984 33.7856 50.1984 27.5C50.1984 21.2143 47.6667 15.5398 43.5635 11.4366C39.4603 7.33349 33.7857 4.80176 27.5 4.80176Z" fill="white"/>
<path d="M27.5 3.75391C38.5 3.75391 47.754 11.1745 50.4603 21.3014C47.5794 24.968 42.7778 27.4997 27.5 27.4997C12.2222 27.4997 8.03174 36.0552 7.42062 40.2457C5.06348 36.579 3.66666 32.214 3.66666 27.4997C3.75396 14.4046 14.4048 3.75391 27.5 3.75391ZM32.7381 21.5633C36.0555 24.4442 36.4048 29.4204 33.5238 32.7378L32.7381 21.5633ZM12.1349 23.0474H14.9286C15.5397 23.0474 16.1508 23.5712 16.1508 24.2696V33.2616C16.1508 33.8727 15.627 34.4838 14.9286 34.4838H12.1349C11.5238 34.4838 10.9127 33.96 10.9127 33.2616V24.2696C11 23.5712 11.5238 23.0474 12.1349 23.0474Z" stroke="white" stroke-width="2.12823" stroke-miterlimit="2.6131" stroke-linecap="round" stroke-linejoin="round"/>
<path fill-rule="evenodd" clip-rule="evenodd" d="M12.1349 23.0474H14.9286C15.5397 23.0474 16.1508 23.5712 16.1508 24.2696V29.6822C13.9683 30.6425 12.3095 31.952 11 33.2616V24.2696C11 23.5712 11.5238 23.0474 12.1349 23.0474Z" fill="white" stroke="white" stroke-width="2.12823" stroke-miterlimit="2.6131" stroke-linecap="round" stroke-linejoin="round"/>
<path d="M27.8492 10.3013C28.8968 10.3013 29.7698 10.8251 29.7698 11.5235V45.92C29.7698 46.6184 28.8968 47.1422 27.8492 47.1422L18.5952 34.4836V23.0472L27.8492 10.3013Z" stroke="white" stroke-width="2.12823" stroke-miterlimit="2.6131" stroke-linecap="round" stroke-linejoin="round"/>
<path fill-rule="evenodd" clip-rule="evenodd" d="M27.8492 10.3013C28.8968 10.3013 29.7698 10.8251 29.7698 11.5235V27.4995C29.0714 27.4995 28.2857 27.4995 27.5 27.4995C23.9206 27.4995 21.0397 27.936 18.5952 28.7218V23.0472L27.8492 10.3013Z" fill="white" stroke="white" stroke-width="2.12823" stroke-miterlimit="2.6131" stroke-linecap="round" stroke-linejoin="round"/>
<path d="M34.3095 16.4126C34.6587 16.6745 35.0079 16.9364 35.3571 17.2856C37.9762 19.5555 39.4603 22.6983 39.7222 26.0157M36.9286 12.6587C37.4524 13.0079 37.8889 13.3571 38.4127 13.7936C41.8174 16.6745 43.8254 20.6904 44.2619 24.7935L36.9286 12.6587Z" stroke="white" stroke-width="2.12823" stroke-miterlimit="2.6131" stroke-linecap="round" stroke-linejoin="round"/>
</svg>
