<svg width="55" height="55" viewBox="0 0 55 55" fill="none" xmlns="http://www.w3.org/2000/svg">
<path fill-rule="evenodd" clip-rule="evenodd" d="M27.5 0C42.6905 0 55 12.3094 55 27.4998C55 42.6901 42.6905 54.9995 27.5 54.9995C12.3095 55.0868 0 42.6901 0 27.4998C0 12.3094 12.3095 0 27.5 0Z" fill="#F19000"/>
<path d="M27.5873 3.75391C40.7698 3.75391 51.4206 14.4046 51.4206 27.587C51.4206 40.7695 40.7698 51.4202 27.5873 51.4202C14.4921 51.4202 3.75397 40.7695 3.75397 27.587C3.75397 14.4046 14.4048 3.75391 27.5873 3.75391ZM27.5873 3.75391C38.5873 3.75391 47.8413 11.1745 50.5476 21.3014C47.6667 24.968 42.8651 27.4997 27.5873 27.4997C12.3095 27.4997 8.11905 36.0552 7.50794 40.2457C5.15079 36.579 3.75397 32.214 3.75397 27.4997C3.75397 14.4046 14.4048 3.75391 27.5873 3.75391Z" stroke="white" stroke-width="2.12823" stroke-miterlimit="2.6131" stroke-linecap="round" stroke-linejoin="round"/>
<path fill-rule="evenodd" clip-rule="evenodd" d="M27.5873 20.1665C31.6032 20.1665 34.8333 23.3093 34.9206 27.2379C32.7381 27.4125 30.381 27.4998 27.5873 27.4998C24.7937 27.4998 22.3492 27.7617 20.254 28.2855C20.254 28.0236 20.254 27.7617 20.254 27.4998C20.1667 23.4839 23.4841 20.1665 27.5873 20.1665Z" fill="white" stroke="white" stroke-width="2.12823" stroke-miterlimit="2.6131" stroke-linecap="round" stroke-linejoin="round"/>
<path d="M27.5 27.4997L41.119 13.9681M27.5873 8.38086V27.4997V8.38086ZM27.5873 36.9282V46.7932V36.9282ZM13.9683 13.9681L27.5 27.4997L13.9683 13.9681ZM34.2222 34.2219L41.119 41.1187L34.2222 34.2219ZM8.38095 27.4997H46.7936H8.38095ZM13.9683 41.1187L20.9524 34.1346L13.9683 41.1187Z" stroke="white" stroke-width="2.12823" stroke-miterlimit="2.6131" stroke-linecap="round" stroke-linejoin="round"/>
<path d="M51.5952 21.0392C51.6825 21.3011 51.7698 21.6503 51.8571 21.9122C51.9444 22.1741 52.0317 22.5233 52.0317 22.7852C52.2937 24.2693 52.4683 25.928 52.4683 27.4994C52.4683 34.3962 49.6746 40.5946 45.2222 45.0469C40.6825 49.5866 34.4841 52.3802 27.5873 52.3802C23.1349 52.3802 19.0317 51.2453 15.4524 49.2374C14.8413 48.8882 14.3175 48.539 13.7063 48.1898C10.8254 46.2691 8.46825 43.8247 6.54762 40.8565C6.37302 40.5946 6.37302 40.3327 6.37302 40.1581V40.0708C6.46032 39.4597 6.63492 38.7613 6.89683 37.9756C7.15873 37.1898 7.50794 36.3168 8.03175 35.5311C10.4762 31.2534 15.9762 26.5391 27.5 26.5391C35.0079 26.5391 39.8968 25.928 43.3016 24.8804C46.5317 23.8328 48.2778 22.436 49.6746 20.7773C50.0238 20.3408 50.7222 20.2535 51.1587 20.6027C51.4206 20.6027 51.5079 20.7773 51.5952 21.0392ZM50.2857 27.4994C50.2857 26.1026 50.1984 24.7931 49.9365 23.4836C48.5397 24.7931 46.7064 25.928 44 26.801C40.4206 27.936 35.2698 28.6344 27.5873 28.6344C17.1111 28.6344 12.1349 32.7375 9.95238 36.5787C9.51587 37.2771 9.25397 38.0629 8.99206 38.674C8.81746 39.1978 8.73016 39.6343 8.64286 40.0708C10.3016 42.6025 12.4841 44.6977 14.9286 46.4437C15.4524 46.7929 15.9762 47.0548 16.5 47.404C19.8175 49.2374 23.5714 50.285 27.5873 50.285C33.873 50.285 39.5476 47.7532 43.6508 43.6501C47.754 39.4597 50.2857 33.7851 50.2857 27.4994Z" fill="white"/>
<path d="M32.4762 11.873L27.5873 16.5L22.6984 11.873M19.9048 13.008L19.6429 19.7301L12.9206 19.992M11.7857 22.6984L16.4127 27.5872L11.7857 32.476M43.2143 22.6984L38.5873 27.5872M35.1825 13.008L35.4444 19.7301L42.1667 19.992" stroke="white" stroke-width="2.12823" stroke-miterlimit="2.6131" stroke-linecap="round" stroke-linejoin="round"/>
<path fill-rule="evenodd" clip-rule="evenodd" d="M22.1746 39.0234C22.9603 39.0234 23.6587 39.7218 23.6587 40.5076C23.6587 41.2933 22.9603 41.9044 22.1746 41.9044C21.3889 41.9044 20.6905 41.206 20.6905 40.4202C20.6905 39.6345 21.3016 39.0234 22.1746 39.0234Z" fill="white" stroke="white" stroke-width="0.188571" stroke-miterlimit="2.6131"/>
<path fill-rule="evenodd" clip-rule="evenodd" d="M31.8651 39.4598C32.4762 38.8487 33.3492 38.8487 33.9603 39.4598C34.5714 40.0709 34.5714 40.9439 33.9603 41.555C33.3492 42.1661 32.4762 42.1661 31.8651 41.555C31.254 40.9439 31.254 39.9836 31.8651 39.4598Z" fill="white" stroke="white" stroke-width="0.188571" stroke-miterlimit="2.6131"/>
<path fill-rule="evenodd" clip-rule="evenodd" d="M38.9365 32.9123C38.9365 32.1266 39.6349 31.4282 40.4206 31.4282C41.2064 31.4282 41.9048 32.1266 41.9048 32.9123C41.9048 33.698 41.2064 34.3965 40.4206 34.3965C39.6349 34.3965 38.9365 33.698 38.9365 32.9123Z" fill="white" stroke="white" stroke-width="0.188571" stroke-miterlimit="2.6131"/>
<path fill-rule="evenodd" clip-rule="evenodd" d="M15.627 31.8651C16.2381 32.4762 16.2381 33.3492 15.627 33.9603C15.0159 34.5714 14.1429 34.5714 13.5318 33.9603C12.9206 33.3492 12.9206 32.4762 13.5318 31.8651C14.1429 31.254 15.0159 31.254 15.627 31.8651Z" fill="white" stroke="white" stroke-width="0.188571" stroke-miterlimit="2.6131"/>
<path d="M37.0159 27.0635C37.0159 27.2381 37.0159 27.3254 37.0159 27.5C37.0159 32.738 32.8254 36.9285 27.5873 36.9285C22.873 36.9285 18.9444 33.4364 18.246 28.8095C20.7778 27.9365 23.8333 27.5 27.5873 27.5C31.254 27.5 34.3968 27.4127 37.0159 27.0635Z" stroke="white" stroke-width="2.12823" stroke-miterlimit="2.6131" stroke-linecap="round" stroke-linejoin="round"/>
</svg>
