<svg width="55" height="55" viewBox="0 0 55 55" fill="none" xmlns="http://www.w3.org/2000/svg">
<path fill-rule="evenodd" clip-rule="evenodd" d="M27.5 0C42.6905 0 55 12.3094 55 27.4998C55 42.6901 42.6905 54.9995 27.5 54.9995C12.3095 55.0868 0 42.6901 0 27.4998C0 12.3094 12.3095 0 27.5 0Z" fill="#C5AA0C"/>
<path d="M50.373 21.3013C50.8968 23.3092 51.246 25.4044 51.246 27.4996C51.246 40.6821 40.5952 51.3328 27.4127 51.3328C18.9444 51.3328 11.5238 46.9677 7.33333 40.3329C8.03174 36.0551 12.1349 27.5869 27.4127 27.5869C42.6905 27.4996 47.4921 24.9679 50.373 21.3013Z" stroke="white" stroke-width="2.12823" stroke-miterlimit="2.6131" stroke-linecap="round" stroke-linejoin="round"/>
<path d="M27.4127 2.70654C29.5079 2.70654 31.5159 2.96845 33.4365 3.49225C34.8333 3.84145 36.2302 4.36526 37.5397 4.88906C44.2619 7.85729 49.4127 13.7938 51.4206 21.0397C51.5079 21.3889 51.4206 21.8254 51.1587 22.0873C49.5873 24.0079 47.4921 25.6667 43.8254 26.8889C40.246 28.0238 35.0952 28.7222 27.4127 28.7222C25.3175 28.7222 23.4841 28.8968 21.8254 29.1587C20.1667 29.4206 18.6825 29.8571 17.4603 30.3809C11 32.9126 8.90476 37.8015 8.46826 40.5951C8.38095 41.2062 7.85714 41.5554 7.24603 41.4681C6.89683 41.3808 6.63492 41.2062 6.54762 40.9443V40.857C6.19841 40.3332 5.93651 39.8094 5.5873 39.2856C5.2381 38.6745 4.97619 38.1507 4.71429 37.5396C3.40476 34.4841 2.61905 31.1666 2.61905 27.5873C2.61905 20.6905 5.4127 14.4922 9.86508 10.0398C14.3175 5.41287 20.5159 2.70654 27.4127 2.70654ZM27.4127 4.80176C21.127 4.80176 15.4524 7.33349 11.3492 11.4366C7.24603 15.5398 4.71429 21.2143 4.71429 27.5C4.71429 30.7301 5.4127 33.7857 6.63492 36.5793C6.80953 36.9285 6.89683 37.1904 7.07143 37.4523C8.29365 34.3095 11 30.4682 16.6746 28.1984C18.0714 27.6746 19.6429 27.1508 21.4762 26.8889C23.2222 26.5397 25.2302 26.3651 27.4127 26.3651C34.9206 26.3651 39.8095 25.754 43.2143 24.7064C46.1825 23.746 47.9286 22.4365 49.2381 20.9524C47.3175 14.6668 42.6905 9.42871 36.6667 6.80968C35.4444 6.28588 34.2222 5.84937 32.9127 5.50017C31.1667 5.06367 29.3333 4.80176 27.4127 4.80176Z" fill="white"/>
<path d="M27.4127 2.70654C34.3095 2.70654 40.5079 5.50017 44.9603 9.95251C49.4127 14.4049 52.2063 20.6905 52.2063 27.5C52.2063 34.3968 49.4127 40.5951 44.9603 45.0475C40.5079 49.5871 34.3095 52.3807 27.4127 52.3807C20.5159 52.3807 14.3175 49.5871 9.86508 45.1348C5.4127 40.6824 2.61905 34.3968 2.61905 27.5873C2.61905 20.6905 5.4127 14.4922 9.86508 10.0398C14.3175 5.41287 20.5159 2.70654 27.4127 2.70654ZM27.4127 4.80176C21.127 4.80176 15.4524 7.33349 11.3492 11.4366C7.24603 15.5398 4.71429 21.2143 4.71429 27.5C4.71429 33.7856 7.24603 39.4602 11.3492 43.5633C15.4524 47.6665 21.127 50.1982 27.4127 50.1982C33.6984 50.1982 39.373 47.6665 43.4762 43.5633C47.5794 39.4602 50.1111 33.7856 50.1111 27.5C50.1111 21.2143 47.5794 15.5398 43.4762 11.4366C39.373 7.33349 33.6984 4.80176 27.4127 4.80176Z" fill="white"/>
<path d="M31.9524 10.7378L27.5 27.4996M27.4127 18.5076C32.3889 18.5076 36.4921 22.5235 36.4921 27.5869C36.4921 32.5631 32.4762 36.6662 27.4127 36.6662C22.4365 36.6662 18.3333 32.6504 18.3333 27.5869C18.3333 22.5235 22.4365 18.5076 27.4127 18.5076ZM27.4127 44.6106V36.5789V44.6106ZM27.4127 27.4996V7.42041V27.4996ZM27.4127 27.4996L22.9603 10.7378L27.4127 27.4996ZM27.4127 27.4996L18.7698 12.4839L27.4127 27.4996ZM39.4603 39.6344L33.7857 33.9599L39.4603 39.6344ZM27.3254 27.4996L13.0952 13.2696L27.3254 27.4996ZM27.3254 27.4996L12.3095 18.8568L27.3254 27.4996ZM27.2381 27.4996L10.6508 23.0473L27.2381 27.4996ZM47.5794 27.5869H7.24603H47.5794ZM44.2619 23.0473L27.6746 27.4996L44.2619 23.0473ZM13.0079 31.4281L10.6508 32.0393L13.0079 31.4281ZM42.5159 18.8568L27.5 27.4996L42.5159 18.8568ZM41.7302 13.2696L27.5 27.4996L41.7302 13.2696ZM21.0397 33.9599L15.4524 39.5471L21.0397 33.9599ZM36.1429 12.4839L27.5 27.4996L36.1429 12.4839Z" stroke="white" stroke-width="2.12823" stroke-miterlimit="2.6131" stroke-linecap="round" stroke-linejoin="round"/>
<path fill-rule="evenodd" clip-rule="evenodd" d="M27.4127 18.5078C32.3016 18.5078 36.2302 22.349 36.4921 27.1506C33.9603 27.4125 30.9921 27.5871 27.4127 27.5871C24.0952 27.5871 21.3016 28.0236 18.9444 28.6347C18.4206 28.8093 18.5079 28.8966 18.4206 28.2855C18.4206 28.0236 18.4206 27.7617 18.4206 27.4998C18.3333 22.5237 22.4365 18.5078 27.4127 18.5078Z" fill="white" stroke="white" stroke-width="2.12823" stroke-miterlimit="2.6131" stroke-linecap="round" stroke-linejoin="round"/>
</svg>
