<svg width="55" height="55" viewBox="0 0 55 55" fill="none" xmlns="http://www.w3.org/2000/svg">
<path fill-rule="evenodd" clip-rule="evenodd" d="M27.5 0C42.6905 0 55 12.3094 55 27.4998C55 42.6901 42.6905 54.9995 27.5 54.9995C12.3095 55.0868 0 42.6901 0 27.4998C0 12.3094 12.3095 0 27.5 0Z" fill="#E271A8"/>
<path d="M27.5 3.75391C38.5 3.75391 47.754 11.1745 50.4603 21.3014C47.5794 24.968 42.7778 27.4997 27.5 27.4997C12.2222 27.4997 8.03174 36.0552 7.42062 40.2457C5.06348 36.579 3.66666 32.214 3.66666 27.4997C3.75396 14.4046 14.4048 3.75391 27.5 3.75391Z" stroke="white" stroke-width="2.12823" stroke-miterlimit="2.6131" stroke-linecap="round" stroke-linejoin="round"/>
<path d="M50.5476 21.3012C50.6349 21.5631 50.7222 21.9123 50.7222 22.1742C50.8095 22.4361 50.8095 22.7853 50.8968 23.0472C51.1587 24.5313 51.3333 26.0154 51.3333 27.5868C51.3333 34.2217 48.627 40.1582 44.3492 44.4359C39.9841 48.8009 34.0476 51.42 27.5 51.42C23.2222 51.42 19.2936 50.2851 15.8016 48.3644C15.2778 48.0152 14.6667 47.7533 14.1429 47.3168C11.4365 45.4835 9.07936 43.0391 7.33333 40.3328C7.42063 39.7216 7.59523 39.0232 7.85714 38.3248C8.11904 37.6264 8.46825 36.8407 8.90476 36.055C11.2619 31.9519 16.5 27.5868 27.5 27.5868C35.0952 27.5868 40.1587 26.9757 43.5635 25.8408C46.9682 24.7059 48.8889 23.2218 50.373 21.3885L50.4603 21.2139L50.5476 21.3012ZM50.6349 22.1742C50.5476 21.9123 50.5476 21.7377 50.4603 21.4758C48.9762 23.2218 47.0555 24.7932 43.6508 25.8408C40.1587 26.9757 35.1825 27.5868 27.5 27.5868C16.5873 27.5868 11.3492 31.9519 9.07936 35.9677C8.64285 36.7534 8.29365 37.5391 8.03174 38.2375C7.76984 38.9359 7.59523 39.6343 7.50793 40.1582C9.25396 42.9518 11.6111 45.3089 14.3175 47.0549C14.8413 47.4041 15.3651 47.7533 15.9762 48.0152C19.3809 49.9358 23.3095 51.0708 27.5873 51.0708C34.1349 51.0708 40.0714 48.4517 44.3492 44.0867C48.627 39.809 51.3333 33.8725 51.3333 27.3249C51.3333 25.7535 51.1587 24.2694 50.8968 22.7853C50.7222 22.698 50.6349 22.4361 50.6349 22.1742Z" fill="white"/>
<path d="M27.5 2.70654C34.3968 2.70654 40.5952 5.50017 45.0476 9.95251C49.5 14.4049 52.2937 20.6905 52.2937 27.5C52.2937 34.3968 49.5 40.5951 45.0476 45.0475C40.5952 49.5871 34.3968 52.3807 27.5 52.3807C20.6032 52.3807 14.4048 49.5871 9.95239 45.1348C5.50001 40.6824 2.70636 34.3968 2.70636 27.5873C2.70636 20.6905 5.50001 14.4922 9.95239 10.0398C14.4048 5.41287 20.6905 2.70654 27.5 2.70654ZM27.5 4.80176C21.2143 4.80176 15.5397 7.33349 11.4365 11.4366C7.33334 15.5398 4.8016 21.2143 4.8016 27.5C4.8016 33.7856 7.33334 39.4602 11.4365 43.5633C15.5397 47.6665 21.2143 50.1982 27.5 50.1982C33.7857 50.1982 39.4603 47.6665 43.5635 43.5633C47.6667 39.4602 50.1984 33.7856 50.1984 27.5C50.1984 21.2143 47.6667 15.5398 43.5635 11.4366C39.4603 7.33349 33.7857 4.80176 27.5 4.80176Z" fill="white"/>
<path d="M13.4444 39.2853C16.9365 43.3885 22.0873 45.8329 27.5 45.8329C32.5635 45.8329 37.1032 43.7377 40.4206 40.4202C40.7698 40.071 41.2064 39.6345 41.4683 39.198M4.36508 32.9997C8.90476 25.3172 18.6825 22.0871 27.5 22.0871C32.5635 22.0871 36.2302 21.8251 39.0238 21.3013C43.3889 20.5156 45.0476 17.722 48.4524 16.3252" stroke="white" stroke-width="2.12823" stroke-miterlimit="2.6131" stroke-linecap="round" stroke-linejoin="round"/>
<path d="M14.9286 7.33348L15.2778 7.24618C19.2064 6.28587 23.4841 6.37317 27.5 6.37317C30.0317 6.37317 32.3016 5.76207 34.5714 4.80176" stroke="white" stroke-width="2.12823" stroke-miterlimit="2.6131"/>
<path d="M6.46031 16.4998C12.4841 13.0951 19.5556 11.4364 26.2778 11.2618C26.4524 11.2618 26.627 11.2618 26.8016 11.2618C27.1508 11.2618 27.3254 11.2618 27.5 11.2618C29.1587 11.2618 30.2063 11.2618 30.7302 11.2618C35.0079 11.1745 37.7143 9.60305 40.8571 7.94434" stroke="white" stroke-width="2.12823" stroke-miterlimit="2.6131" stroke-linecap="round" stroke-linejoin="round"/>
<path fill-rule="evenodd" clip-rule="evenodd" d="M27.5 35.4443C28.8968 35.4443 30.119 36.5792 30.119 38.0634V39.2856H24.881V38.0634C24.881 36.5792 26.1032 35.4443 27.5 35.4443Z" fill="white" stroke="white" stroke-width="0.188571" stroke-miterlimit="2.6131"/>
<path fill-rule="evenodd" clip-rule="evenodd" d="M37.5397 26.9761C37.5397 27.1507 37.627 27.3253 37.627 27.4999V29.9443C37.627 31.3411 36.4921 32.5633 35.0079 32.5633C33.6111 32.5633 32.3889 31.4284 32.3889 29.9443V27.4999V27.4126C34.3095 27.3253 35.9683 27.238 37.5397 26.9761Z" fill="white" stroke="white" stroke-width="0.188571" stroke-miterlimit="2.6131"/>
<path fill-rule="evenodd" clip-rule="evenodd" d="M22.7857 27.8491V30.0316C22.7857 31.4285 21.6508 32.6507 20.1667 32.6507C18.7698 32.6507 17.5476 31.5158 17.5476 30.0316V29.0713C19.0317 28.5475 20.7778 28.111 22.7857 27.8491Z" fill="white" stroke="white" stroke-width="0.188571" stroke-miterlimit="2.6131"/>
<path d="M3.84126 25.0553C9.86507 19.3807 18.5952 16.7617 26.8016 16.6744C27.0635 16.6744 27.3254 16.5871 27.5873 16.5871C32.4762 16.5871 37.7143 16.9363 41.8175 13.9681C42.8651 13.1824 44 12.3966 45.3968 11.6982" stroke="white" stroke-width="2.12823" stroke-miterlimit="2.6131" stroke-linecap="round" stroke-linejoin="round"/>
<path fill-rule="evenodd" clip-rule="evenodd" d="M31.5159 5.93652L35.9683 15.2777L25.754 17.0237C26.0159 10.6508 26.4524 9.77776 31.5159 5.93652Z" fill="white" stroke="white" stroke-width="2.12823" stroke-miterlimit="2.6131" stroke-linecap="round" stroke-linejoin="round"/>
<path fill-rule="evenodd" clip-rule="evenodd" d="M40.4206 24.5315L35.9683 15.1904L46.1825 13.4443C45.9206 19.8173 45.4841 20.6903 40.4206 24.5315Z" fill="white" stroke="white" stroke-width="2.12823" stroke-miterlimit="2.6131" stroke-linecap="round" stroke-linejoin="round"/>
</svg>
