<svg width="55" height="55" viewBox="0 0 55 55" fill="none" xmlns="http://www.w3.org/2000/svg">
<path fill-rule="evenodd" clip-rule="evenodd" d="M27.5 0C42.6905 0 55 12.3094 55 27.4998C55 42.6901 42.6905 54.9995 27.5 54.9995C12.3095 55.0868 0 42.6901 0 27.4998C0 12.3094 12.3095 0 27.5 0Z" fill="#0089AD"/>
<path d="M27.5 2.70654C29.5952 2.70654 31.6032 2.96845 33.5238 3.49225C34.9206 3.84145 36.3175 4.36526 37.627 4.88906C44.4365 7.85729 49.5873 13.7938 51.5079 21.0397C51.5952 21.3889 51.5079 21.8254 51.246 22.0873C49.6746 24.008 47.5794 25.6667 43.9127 26.8016C40.3333 27.9365 35.1825 28.6349 27.5 28.6349C25.4048 28.6349 23.5714 28.8095 21.9127 29.0714C20.254 29.3333 18.7699 29.7698 17.5476 30.2936C11.0873 32.8253 8.99207 37.7142 8.55557 40.5078C8.46826 41.1189 7.94445 41.4681 7.33334 41.3808C6.98414 41.2935 6.72223 41.1189 6.63493 40.857C6.63493 40.857 6.63493 40.857 6.63493 40.7697C6.28572 40.2459 6.02382 39.7221 5.67461 39.1983C5.32541 38.5872 5.0635 38.0634 4.8016 37.4523C3.49207 34.3968 2.70636 31.0793 2.70636 27.5C2.70636 20.6032 5.50001 14.4049 9.95239 9.95251C14.4048 5.41287 20.6905 2.70654 27.5 2.70654ZM27.5 4.80176C21.2143 4.80176 15.5397 7.33349 11.4365 11.4366C7.33334 15.5398 4.8016 21.2143 4.8016 27.5C4.8016 30.7301 5.50001 33.7857 6.72223 36.5793C6.89684 36.9285 6.98414 37.1904 7.15874 37.4523C8.38096 34.3095 11.0873 30.4682 16.7619 28.1984C18.1587 27.6746 19.7302 27.1508 21.5635 26.8889C23.3095 26.5397 25.3175 26.3651 27.5 26.3651C35.0079 26.3651 39.8968 25.754 43.3016 24.7064C46.2698 23.746 48.0159 22.4365 49.3254 20.9524C47.4048 14.6668 42.7778 9.42871 36.8413 6.80968C35.6191 6.28588 34.3968 5.84937 33.0873 5.50017C31.254 5.06367 29.4206 4.80176 27.5 4.80176Z" fill="white"/>
<path d="M51.5079 21.0392C51.5952 21.3011 51.6825 21.6503 51.7698 21.9122C51.8571 22.1741 51.9444 22.5233 51.9444 22.7852C52.2063 24.2693 52.3809 25.928 52.3809 27.4994C52.3809 34.3962 49.5873 40.5946 45.1349 45.0469C40.5952 49.5866 34.3968 52.3802 27.5 52.3802C23.0476 52.3802 18.9444 51.2453 15.3651 49.2374C14.754 48.8882 14.2302 48.539 13.619 48.1898C10.7381 46.2691 8.38094 43.8247 6.46031 40.8565C6.28571 40.5946 6.28571 40.3327 6.28571 40.1581V40.0708C6.37301 39.4597 6.54761 38.7613 6.80952 37.9756C7.07142 37.1898 7.42063 36.3168 7.94444 35.5311C10.3889 31.2534 15.8889 26.5391 27.4127 26.5391C34.9206 26.5391 39.8095 25.928 43.2143 24.8804C46.4444 23.8328 48.1905 22.436 49.5873 20.7773C49.9365 20.3408 50.6349 20.2535 51.0714 20.6027C51.3333 20.6027 51.4206 20.7773 51.5079 21.0392ZM50.2857 27.4994C50.2857 26.1026 50.1984 24.7931 49.9365 23.4836C48.5397 24.7931 46.7063 25.928 44 26.801C40.4206 27.936 35.2698 28.6344 27.5873 28.6344C17.1111 28.6344 12.1349 32.7375 9.95237 36.5787C9.51586 37.2771 9.25396 38.0629 8.99206 38.674C8.81745 39.1978 8.73015 39.6343 8.64285 40.0708C10.3016 42.6025 12.4841 44.6977 14.9286 46.4437C15.4524 46.7929 15.9762 47.0548 16.5 47.404C19.8175 49.2374 23.5714 50.285 27.5873 50.285C33.873 50.285 39.5476 47.7532 43.6508 43.6501C47.754 39.4597 50.2857 33.7851 50.2857 27.4994Z" fill="white"/>
<path fill-rule="evenodd" clip-rule="evenodd" d="M27.5 21.9126C30.5556 21.9126 33 24.357 33.0873 27.4126C31.4286 27.4999 29.5079 27.5872 27.5 27.5872C25.4048 27.5872 23.5714 27.7618 21.9127 28.0237C21.9127 27.8491 21.9127 27.7618 21.9127 27.5872C21.9127 24.4443 24.4445 21.9126 27.5 21.9126Z" fill="white" stroke="white" stroke-width="0.188571" stroke-miterlimit="2.6131"/>
<path d="M21.9127 27.936V32.1265H17.7222V29.0709C18.9445 28.5471 20.3413 28.1979 21.9127 27.936Z" stroke="white" stroke-width="1.74611" stroke-miterlimit="2.6131" stroke-linejoin="round"/>
<path d="M27.5 17.8091C32.7381 17.8091 36.9286 21.9122 37.1905 27.063C34.5714 27.4122 31.3413 27.4995 27.5 27.4995C23.6587 27.4995 20.5159 28.0233 17.8968 28.8963C17.8095 28.4598 17.8095 27.936 17.8095 27.4995C17.8095 22.1741 22.1746 17.8091 27.5 17.8091Z" stroke="white" stroke-width="1.74611" stroke-miterlimit="2.6131"/>
<path fill-rule="evenodd" clip-rule="evenodd" d="M46.1825 24.7933C44.873 16.1505 37.3651 9.51562 28.373 9.51562V10.6505L32.5635 12.1347L28.373 12.6585V13.968C35.4444 13.968 41.2063 19.3806 41.9048 26.2774C43.5635 25.8409 44.9603 25.3171 46.1825 24.7933Z" fill="white" stroke="white" stroke-width="0.188571" stroke-miterlimit="2.6131"/>
<path d="M33.1746 27.4126H37.3651V32.1268H33.1746V27.4126Z" stroke="white" stroke-width="1.74611" stroke-miterlimit="2.6131" stroke-linejoin="round"/>
<path d="M39.1984 32.1265C39.1984 32.3884 39.1984 32.6503 39.1984 32.9122V37.4518C39.1984 42.6026 34.9206 46.8803 29.7698 46.8803H25.2302C20.0794 46.8803 15.8016 42.6026 15.8016 37.4518V32.9122C15.8016 32.6503 15.8016 32.3884 15.8016 32.1265H39.1984V32.1265Z" stroke="white" stroke-width="2.12823" stroke-miterlimit="2.6131" stroke-linejoin="round"/>
<path fill-rule="evenodd" clip-rule="evenodd" d="M27.5 34.4839C29.0714 34.4839 30.381 35.7934 30.381 37.3648C30.381 38.2378 30.0317 38.9362 29.4206 39.46V42.5156C29.4206 43.5632 28.5476 44.4362 27.5 44.4362C26.4524 44.4362 25.5794 43.5632 25.5794 42.5156V39.46C24.9683 38.9362 24.619 38.1505 24.619 37.3648C24.7064 35.7061 25.9286 34.4839 27.5 34.4839Z" fill="white" stroke="white" stroke-width="0.188571" stroke-miterlimit="2.6131"/>
<path fill-rule="evenodd" clip-rule="evenodd" d="M10.3889 20.8649C12.3968 15.7141 16.8492 11.5237 22.6111 10.0396L22.873 11.0872L19.2063 13.6189L23.3968 13.0951L23.746 14.4046C19.3809 15.5395 16.0635 18.6823 14.5794 22.6109L10.3889 20.8649Z" fill="white" stroke="white" stroke-width="0.188571" stroke-miterlimit="2.6131"/>
<path fill-rule="evenodd" clip-rule="evenodd" d="M12.6587 14.4918L14.1428 12.9204C14.5794 12.4839 15.3651 12.3966 15.8016 12.9204L22.4365 19.2934C21.127 20.0791 20.0794 21.214 19.2936 22.4362L12.746 16.1506C12.2222 15.7141 12.2222 14.9283 12.6587 14.4918Z" fill="white" stroke="white" stroke-width="0.188571" stroke-miterlimit="2.6131"/>
</svg>
