<svg width="55" height="55" viewBox="0 0 55 55" fill="none" xmlns="http://www.w3.org/2000/svg">
<path fill-rule="evenodd" clip-rule="evenodd" d="M27.5 0C42.6905 0 55 12.3094 55 27.4998C55 42.6901 42.6905 54.9995 27.5 54.9995C12.3095 55.0868 0 42.6901 0 27.4998C0 12.3094 12.3095 0 27.5 0Z" fill="#009B48"/>
<path d="M50.4603 21.3013C50.9841 23.3092 51.3333 25.4044 51.3333 27.4996C51.3333 40.6821 40.6825 51.3328 27.5 51.3328C19.0318 51.3328 11.6111 46.9677 7.42064 40.3329C8.11905 36.0551 12.2222 27.5869 27.5 27.5869C42.7778 27.4996 47.5794 24.9679 50.4603 21.3013Z" stroke="white" stroke-width="2.12823" stroke-miterlimit="2.6131" stroke-linecap="round" stroke-linejoin="round"/>
<path d="M27.5 3.75391C38.5 3.75391 47.754 11.1745 50.4603 21.3014C47.5794 24.968 42.7778 27.4997 27.5 27.4997C12.2222 27.4997 8.03174 36.0552 7.42062 40.2457C5.06348 36.579 3.66666 32.214 3.66666 27.4997C3.75396 14.4046 14.4048 3.75391 27.5 3.75391Z" stroke="white" stroke-width="2.12823" stroke-miterlimit="2.6131" stroke-linecap="round" stroke-linejoin="round"/>
<path fill-rule="evenodd" clip-rule="evenodd" d="M42.6905 26.0155C39.373 26.8885 34.8333 27.4123 28.2857 27.4996V23.3965H42.6905V26.0155Z" fill="white" stroke="white" stroke-width="0.188571" stroke-miterlimit="2.6131"/>
<path d="M27.5 2.70654C34.3968 2.70654 40.5952 5.50017 45.0476 9.95251C49.5 14.4049 52.2937 20.6905 52.2937 27.5C52.2937 34.3968 49.5 40.5951 45.0476 45.0475C40.5952 49.5871 34.3968 52.3807 27.5 52.3807C20.6032 52.3807 14.4048 49.5871 9.95239 45.1348C5.50001 40.6824 2.70636 34.3968 2.70636 27.5873C2.70636 20.6905 5.50001 14.4922 9.95239 10.0398C14.4048 5.41287 20.6905 2.70654 27.5 2.70654ZM27.5 4.80176C21.2143 4.80176 15.5397 7.33349 11.4365 11.4366C7.33334 15.5398 4.8016 21.2143 4.8016 27.5C4.8016 33.7856 7.33334 39.4602 11.4365 43.5633C15.5397 47.6665 21.2143 50.1982 27.5 50.1982C33.7857 50.1982 39.4603 47.6665 43.5635 43.5633C47.6667 39.4602 50.1984 33.7856 50.1984 27.5C50.1984 21.2143 47.6667 15.5398 43.5635 11.4366C39.4603 7.33349 33.7857 4.80176 27.5 4.80176Z" fill="white"/>
<path fill-rule="evenodd" clip-rule="evenodd" d="M15.1905 18.8569H17.8095L18.4206 28.8092C16.9365 29.333 15.627 29.8568 14.4921 30.5552L15.1905 18.8569Z" fill="white" stroke="white" stroke-width="0.188571" stroke-miterlimit="2.6131"/>
<path fill-rule="evenodd" clip-rule="evenodd" d="M22.6111 22.2617H24.7936L25.1429 27.5871C24.0952 27.6744 23.1349 27.7617 22.2619 27.9363L22.6111 22.2617Z" fill="white" stroke="white" stroke-width="0.188571" stroke-miterlimit="2.6131"/>
<path fill-rule="evenodd" clip-rule="evenodd" d="M18.7698 8.29346C20.1667 8.29346 21.3016 9.25377 21.5635 10.476C21.2143 10.7379 20.8651 11.1744 20.6032 11.7855C19.9921 13.2696 19.2063 13.5315 17.5476 13.7061C16.5873 13.2696 15.9762 12.3093 15.9762 11.1744C15.8889 9.60297 17.1984 8.29346 18.7698 8.29346Z" fill="white" stroke="white" stroke-width="0.188571" stroke-miterlimit="2.6131"/>
<path d="M16.1508 17.373C16.1508 17.373 15.5397 13.5317 17.6349 13.2698C19.7302 13.0079 19.3809 12.4841 20.3413 11.2619C21.2143 10.127 22.9603 9.69048 23.9206 10.5635C24.8809 11.4365 26.1905 11.3492 26.9762 10.8254C27.7619 10.2143 27.8492 9.34128 29.5952 9.25398C31.4286 9.16668 33.3492 11.873 35.2698 9.77778C37.1905 7.68256 38.3254 8.38097 39.373 9.69048C40.6825 11.3492 42.1667 10.2143 43.5635 9.95239C45.5714 11.7857 47.2302 13.8809 48.4524 16.238C47.8413 17.4603 46.7936 18.3333 45.3968 16.1507C44.7857 15.5396 43.8254 13.7936 42.8651 13.619C40.1587 13.2698 40.1587 15.2777 37.8889 15.4523C36.3175 15.5396 36.0556 13.3571 34.8333 13.2698C33.5238 13.1825 32.6508 14.7539 31.5159 14.7539C30.2063 14.7539 29.4206 13.5317 27.5 13.7936C24.3571 14.3174 26.8016 16.1507 21.7381 15.8015C19.6429 15.7142 16.2381 15.5396 16.1508 17.373Z" stroke="white" stroke-width="1.74611" stroke-miterlimit="2.6131" stroke-linejoin="round"/>
<path fill-rule="evenodd" clip-rule="evenodd" d="M22.9603 20.952C22.3492 19.2933 20.5159 18.5076 21.3016 16.4997C21.8254 15.1902 23.3968 15.5394 24.5318 15.5394C26.5397 15.6267 25.4921 13.4442 27.5873 13.1823C29.4206 12.9204 30.2937 14.841 31.6032 14.841C32.6508 14.841 33.5238 13.2696 34.9206 13.3569C36.1429 13.4442 36.3175 15.6267 37.9762 15.5394C40.1587 15.4521 40.246 13.4442 42.9524 13.7061C44.7857 13.968 44.873 15.1029 46.0952 15.1029C46.5318 15.1029 46.9683 14.7537 47.4921 14.4045C48.3651 15.8013 49.1508 17.1981 49.7619 18.7695C45.2222 18.5949 40.246 17.7219 38.6746 18.0711C35.0952 18.8568 33.873 17.3727 30.7302 18.4203C28.0238 19.3806 23.9206 15.9759 22.9603 20.952Z" fill="white" stroke="white" stroke-width="0.188571" stroke-miterlimit="2.6131"/>
<path d="M45.8333 32.4755C43.6508 40.7691 36.0556 46.531 27.5 46.531C20.0794 46.531 13.4444 42.2532 10.3016 35.5311M38.2381 36.4914C35.6191 39.6342 31.6905 41.4675 27.5873 41.4675C21.3016 41.4675 15.7143 37.1898 14.1429 31.166M31.9524 35.1819C30.6429 35.9676 29.0714 36.4041 27.5 36.4041C23.2222 36.4041 19.5556 33.3485 18.7698 29.0708" stroke="white" stroke-width="2.12823" stroke-miterlimit="2.6131" stroke-linecap="round" stroke-linejoin="round"/>
</svg>
