<svg width="36" height="36" viewBox="0 0 36 36" xmlns="http://www.w3.org/2000/svg">
<path d="M18.4922 0.203906C18.3656 0.0773438 18.1828 0 18 0C17.8172 0 17.6344 0.0773438 17.5008 0.203906C17.3672 0.3375 17.2969 0.520312 17.2969 0.703125C17.2969 0.885938 17.3742 1.06875 17.5008 1.20234C17.6344 1.33594 17.8102 1.40625 18 1.40625C18.1828 1.40625 18.3656 1.32891 18.4992 1.20234C18.6328 1.06875 18.7031 0.892969 18.7031 0.703125C18.7031 0.513281 18.6258 0.3375 18.4922 0.203906Z" />
<path d="M13.7954 9.66777C13.6618 9.53418 13.486 9.46387 13.2961 9.46387C13.1133 9.46387 12.9305 9.54121 12.7969 9.66777C12.6633 9.80137 12.593 9.97715 12.593 10.167C12.593 10.3568 12.6704 10.5326 12.7969 10.6662C12.9305 10.7998 13.1063 10.8701 13.2961 10.8701C13.479 10.8701 13.6618 10.7928 13.7954 10.6662C13.929 10.5326 13.9993 10.3568 13.9993 10.167C14.0063 9.98418 13.929 9.80137 13.7954 9.66777Z" />
<path d="M11.8545 11.6085C11.5803 11.3343 11.1373 11.3343 10.8631 11.6085L4.59824 17.8733C4.32402 18.1476 4.32402 18.5905 4.59824 18.8647C4.73887 19.0054 4.91465 19.0687 5.09746 19.0687C5.28027 19.0687 5.45605 18.9983 5.59668 18.8647L11.8615 12.5999C12.1287 12.3327 12.1287 11.8897 11.8545 11.6085Z" />
<path d="M33.1875 33.1805H35.2969C35.6836 33.1805 36 32.8641 36 32.4773V4.64062C36 4.63359 36 4.62656 36 4.61953V0.703125C36 0.316406 35.6836 0 35.2969 0H21.5859C21.1992 0 20.8828 0.316406 20.8828 0.703125C20.8828 1.08984 21.1992 1.40625 21.5859 1.40625H34.5938V3.9375H1.40625V1.40625H14.6672C15.0539 1.40625 15.3703 1.08984 15.3703 0.703125C15.3703 0.316406 15.0539 0 14.6672 0H0.703125C0.316406 0 0 0.316406 0 0.703125V4.64062V32.4773C0 32.8641 0.316406 33.1805 0.703125 33.1805H24.4688V34.4672C24.4688 34.5094 24.4688 34.5516 24.4758 34.5938H10.1672C9.78047 34.5938 9.46406 34.9102 9.46406 35.2969C9.46406 35.6836 9.78047 36 10.1672 36H35.2969C35.6836 36 36 35.6836 36 35.2969C36 34.9102 35.6836 34.5938 35.2969 34.5938H33.1805C33.1805 34.5516 33.1875 34.5094 33.1875 34.4672V33.1805ZM17.2969 31.7742H1.40625V30.0094L14.5055 16.9102C14.7797 16.6359 14.7797 16.193 14.5055 15.9187C14.2312 15.6445 13.7883 15.6445 13.5141 15.9187L1.40625 28.0266V5.34375H17.2969V31.7742ZM31.7812 34.4672C31.7812 34.5375 31.725 34.5938 31.6547 34.5938H25.9945C25.9242 34.5938 25.868 34.5375 25.868 34.4672V27.5625H31.7742V34.4672H31.7812ZM27.5555 26.1562H26.9297C26.7398 25.2352 26.4797 24.3422 26.1562 23.4914C26.8945 24.1664 27.4078 25.1227 27.5555 26.1562ZM26.7258 19.3359C28.0477 20.2852 28.8703 21.818 28.8914 23.4703C28.7789 23.8781 28.6945 24.3 28.6242 24.7219C28.4484 24.2437 28.2094 23.7938 27.9211 23.3859C27.668 21.9937 27.2672 20.6367 26.7258 19.3359ZM30.0656 20.6508C29.9813 20.7984 29.8969 20.9461 29.8195 21.1008C29.7211 20.8547 29.6016 20.6086 29.475 20.3766C29.475 20.3625 29.482 20.3414 29.482 20.3273C29.482 20.2641 29.5453 19.0898 30.3328 18.1828C30.15 18.9563 30.0586 19.7508 30.0586 20.5383C30.0586 20.5805 30.0586 20.6156 30.0656 20.6508ZM31.6336 20.7914C31.1273 22.5211 30.7969 24.4336 30.7266 26.1562H29.9039C29.9602 24.2227 30.5789 22.3664 31.6336 20.7914ZM32.4844 26.1562H32.1398C32.2594 23.4 33.1242 20.032 34.2492 18.0703C34.2563 18.0562 34.2703 18.0352 34.2773 18.0141C34.4109 17.7258 34.3336 17.3742 34.0875 17.1703C33.8414 16.9664 33.4828 16.9523 33.2227 17.1422C32.6742 17.543 32.168 17.9859 31.7039 18.4711C31.8375 17.8945 32.0344 17.325 32.2805 16.7906C32.407 16.5164 32.3438 16.2 32.1328 15.9891C31.9148 15.7781 31.5984 15.7289 31.3313 15.8625L30.5789 16.2422C29.2852 16.8891 28.6594 17.993 28.357 18.8789C27.8367 18.3586 27.232 17.9297 26.557 17.5992L25.4531 17.0859C25.1789 16.9523 24.8484 17.0156 24.6375 17.2406C24.4266 17.4656 24.3844 17.7961 24.532 18.0633L24.6023 18.1969C25.2211 19.3219 25.7133 20.5031 26.0719 21.7195C25.9805 21.6703 25.8891 21.6211 25.7977 21.5789L24.8766 21.1359C24.6023 21.0023 24.2719 21.0656 24.0609 21.2906C23.85 21.5156 23.8078 21.8461 23.9555 22.1133L24.0188 22.2258C24.6656 23.4 25.1648 24.75 25.4812 26.1633H25.1719C24.7852 26.1633 24.4688 26.4797 24.4688 26.8664V31.7812H18.7031V5.34375H34.5938V31.7742H33.1875V26.8594C33.1875 26.4727 32.8711 26.1562 32.4844 26.1562Z" />
<path d="M7.39692 34.7977C7.26333 34.6641 7.08755 34.5938 6.89771 34.5938C6.71489 34.5938 6.53208 34.6711 6.39849 34.7977C6.26489 34.9312 6.19458 35.107 6.19458 35.2969C6.19458 35.4867 6.27192 35.6625 6.39849 35.7961C6.53208 35.9297 6.70786 36 6.89771 36C7.08755 36 7.26333 35.9227 7.39692 35.7961C7.53052 35.6625 7.60083 35.4867 7.60083 35.2969C7.60083 35.107 7.53052 34.9312 7.39692 34.7977Z" />
</svg>
