<svg width="36" height="36" viewBox="0 0 36 36" xmlns="http://www.w3.org/2000/svg">
<path d="M35.4 0H5.7C4.1888 0.00174678 2.74 0.602842 1.67142 1.67142C0.602842 2.74 0.00174678 4.1888 0 5.7V35.4C0 35.5591 0.0632141 35.7117 0.175736 35.8243C0.288258 35.9368 0.44087 36 0.6 36H10.8C10.9591 36 11.1117 35.9368 11.2243 35.8243C11.3368 35.7117 11.4 35.5591 11.4 35.4V26.9718L12.6144 29.0754L15.6144 34.272C15.6539 34.3402 15.7065 34.3999 15.769 34.4478C15.8316 34.4957 15.9031 34.5307 15.9792 34.551C16.0298 34.5648 16.0821 34.5719 16.1346 34.572C16.2399 34.5717 16.3433 34.544 16.4346 34.4916L25.2672 29.3916C25.3355 29.3523 25.3953 29.2998 25.4434 29.2374C25.4914 29.1749 25.5266 29.1035 25.5471 29.0274C25.5675 28.9513 25.5728 28.8719 25.5625 28.7938C25.5523 28.7156 25.5268 28.6403 25.4874 28.572L22.4874 23.3754L21.2736 21.2754L23.3736 22.4886L28.5702 25.4886C28.708 25.5682 28.8718 25.5897 29.0255 25.5485C29.1792 25.5074 29.3102 25.4068 29.3898 25.269L34.4898 16.4352C34.5694 16.2974 34.5909 16.1336 34.5497 15.9799C34.5086 15.8262 34.408 15.6952 34.2702 15.6156L29.0736 12.6156L26.9724 11.4H35.4C35.5591 11.4 35.7117 11.3368 35.8243 11.2243C35.9368 11.1117 36 10.9591 36 10.8V0.6C36 0.44087 35.9368 0.288258 35.8243 0.175736C35.7117 0.0632141 35.5591 0 35.4 0ZM18 1.2H22.8V10.2H18V1.2ZM22.1556 11.4L18.2598 18.1482L14.103 15.7482L16.6134 11.4H22.1556ZM12 1.2H16.8V10.2H12V1.2ZM15.2274 11.4L13.0638 15.1476L12.6 14.88L8.9064 12.7476L9.6852 11.4H15.2274ZM6.3 12.6294L7.7868 13.4874L11.1 15.4002L7.3548 17.5602L7.086 17.1L4.9548 13.4076L6.3 12.6294ZM4.3536 12.3672L3.6078 11.0742L5.1 11.9364L4.3536 12.3672ZM6.5718 11.4H8.2992L7.8672 12.1476L6.6 11.4162L6.5718 11.4ZM5.7 1.2H10.8V10.2H5.7C4.50653 10.2 3.36193 9.72589 2.51802 8.88198C1.67411 8.03807 1.2 6.89347 1.2 5.7C1.2 4.50653 1.67411 3.36193 2.51802 2.51802C3.36193 1.67411 4.50653 1.2 5.7 1.2ZM1.2 9.3048L2.0634 10.8H1.2V9.3048ZM1.2 12H2.7558L3.6144 13.4874L4.323 14.7144L5.5272 16.8H1.2V12ZM1.2 18H6.2202L6.6144 18.6834L8.9916 22.8H1.2V18ZM10.2 34.8H1.2V30H10.2V34.8ZM10.2 28.8H1.2V24H9.684L10.2 24.8934V28.8ZM10.368 22.7514L7.9578 18.6L12.3 16.0932L12.9828 16.4874L17.1 18.8646L10.368 22.7514ZM11.3232 24.4386L10.9632 23.7954L14.8974 21.5238L18.3 19.56L19.1946 20.076L21.147 23.4582L17.247 25.7082L13.3506 27.9582L11.3232 24.4386ZM21.7476 24.4956L24.1476 28.6518L16.3542 33.1518L13.9542 28.9956L17.8506 26.7456L21.7476 24.4956ZM33.1524 16.3536L28.6524 24.1482L24.495 21.7482L26.745 17.8482L28.995 13.9482L33.1524 16.3536ZM27.9558 13.3536L25.7058 17.2536L23.4558 21.1536L19.9356 19.1208L19.3002 18.7548L23.5416 11.4H24.5724L27.9558 13.3536ZM28.8 10.2H24V1.2H28.8V10.2ZM34.8 10.2H30V1.2H34.8V10.2Z" />
<path d="M4.9494 7.49988C5.3349 7.49988 5.71175 7.38558 6.0323 7.17143C6.35285 6.95728 6.60272 6.65289 6.7503 6.29676C6.89788 5.94062 6.93655 5.54872 6.86143 5.17061C6.78631 4.79249 6.60077 4.44514 6.32826 4.17247C6.05575 3.89979 5.70851 3.71403 5.33044 3.63868C4.95238 3.56333 4.56046 3.60176 4.20423 3.74912C3.848 3.89648 3.54346 4.14615 3.32912 4.46657C3.11477 4.78699 3.00024 5.16377 3 5.54928C3.00016 6.06635 3.20555 6.56222 3.57107 6.92796C3.93658 7.2937 4.43233 7.4994 4.9494 7.49988ZM4.9494 4.79988C5.09762 4.79988 5.24251 4.84383 5.36574 4.92617C5.48898 5.00852 5.58504 5.12556 5.64176 5.26249C5.69848 5.39943 5.71332 5.55011 5.6844 5.69548C5.65548 5.84085 5.58411 5.97438 5.47931 6.07918C5.3745 6.18399 5.24097 6.25536 5.0956 6.28428C4.95023 6.31319 4.79955 6.29835 4.66262 6.24163C4.52568 6.18491 4.40864 6.08886 4.3263 5.96562C4.24395 5.84238 4.2 5.69749 4.2 5.54928C4.2 5.45086 4.21938 5.35341 4.25704 5.26249C4.29471 5.17157 4.34991 5.08896 4.41949 5.01937C4.48908 4.94978 4.5717 4.89458 4.66262 4.85692C4.75354 4.81926 4.85099 4.79988 4.9494 4.79988Z" />
</svg>
