<svg width="37" height="264" viewBox="0 0 37 264" fill="none" xmlns="http://www.w3.org/2000/svg">
<g opacity="0.8">
<path d="M18.1367 93.85C25.7664 93.85 32.1851 99.0218 34.0623 106.08C32.064 108.635 28.7336 110.4 18.1367 110.4C7.53978 110.4 4.63321 116.363 4.20934 119.283C2.57439 116.728 1.60553 113.686 1.60553 110.4C1.60553 101.273 8.99307 93.85 18.1367 93.85Z" stroke="white" stroke-width="1.47973" stroke-miterlimit="2.6131" stroke-linecap="round" stroke-linejoin="round"/>
<path fill-rule="evenodd" clip-rule="evenodd" d="M28.6124 109.426C26.3114 110.035 23.1626 110.4 18.6211 110.461V107.601H28.6124V109.426Z" fill="white"/>
<path d="M20.6194 190.837L17.5311 202.52M34.3045 60.6284C34.6678 62.0279 34.91 63.4882 34.91 64.9484C34.91 74.1361 27.5225 81.5592 18.3789 81.5592C12.5052 81.5592 7.35813 78.517 4.45156 73.8927C4.93599 70.9113 7.78201 65.0093 18.3789 65.0093C28.9758 64.9484 32.3062 63.1231 34.3045 60.6284ZM18.3789 48.3985C26.0087 48.3985 32.4273 53.5704 34.3045 60.6284C32.3062 63.1839 28.9758 64.9484 18.3789 64.9484C7.78201 64.9484 4.87543 70.9113 4.45156 73.8319C2.81661 71.2764 1.84775 68.2341 1.84775 64.9484C1.9083 55.8216 9.29585 48.3985 18.3789 48.3985ZM18.1367 93.85C27.2803 93.85 34.6678 101.273 34.6678 110.461C34.6678 119.648 27.2803 127.072 18.1367 127.072C9.05363 127.072 1.60554 119.648 1.60554 110.461C1.60554 101.273 8.99308 93.85 18.1367 93.85ZM17.5311 185.97C26.6747 185.97 34.0623 193.393 34.0623 202.581C34.0623 211.768 26.6747 219.191 17.5311 219.191C8.4481 219.191 1 211.768 1 202.581C1 193.393 8.38754 185.97 17.5311 185.97ZM17.5311 185.97C25.1609 185.97 31.5796 191.142 33.4567 198.2C31.4585 200.755 28.128 202.52 17.5311 202.52C6.93426 202.52 4.02768 208.483 3.60381 211.403C1.96886 208.848 1 205.805 1 202.52C1 193.393 8.38754 185.97 17.5311 185.97ZM17.5311 196.253C20.9827 196.253 23.8287 199.052 23.8287 202.581C23.8287 206.049 21.0433 208.908 17.5311 208.908C14.0796 208.908 11.2336 206.11 11.2336 202.581C11.2336 199.052 14.0796 196.253 17.5311 196.253ZM17.5311 214.445V208.848V214.445ZM17.5311 202.52V188.464V202.52ZM17.5311 202.52L14.4429 190.837L17.5311 202.52ZM17.4706 202.52L11.4758 192.054L17.4706 202.52ZM25.8875 210.977L21.9516 207.022L25.8875 210.977ZM17.4706 202.52L7.60035 192.602L17.4706 202.52ZM17.4706 202.52L7.05536 196.496L17.4706 202.52ZM17.3495 202.52L5.84429 199.417L17.3495 202.52ZM31.519 202.581H3.4827H31.519ZM29.1574 199.417L17.6522 202.52L29.1574 199.417ZM7.47924 205.258L5.84429 205.684L7.47924 205.258ZM28.0069 196.496L17.5917 202.52L28.0069 196.496ZM27.4014 192.602L17.5311 202.52L27.4014 192.602ZM13.1107 207.022L9.23529 210.916L13.1107 207.022ZM23.526 192.054L17.5311 202.52L23.526 192.054Z" stroke="white" stroke-width="1.47973" stroke-miterlimit="2.6131" stroke-linecap="round" stroke-linejoin="round"/>
<path fill-rule="evenodd" clip-rule="evenodd" d="M17.5312 196.253C20.9222 196.253 23.6471 198.93 23.8288 202.276C22.0727 202.459 20.0139 202.581 17.5312 202.581C15.2301 202.581 13.2924 202.885 11.6575 203.311C11.2942 203.432 11.3547 203.493 11.2942 203.067C11.2942 202.885 11.2942 202.702 11.2942 202.52C11.2336 199.052 14.0796 196.253 17.5312 196.253Z" fill="white"/>
<path d="M33.4567 198.2C33.8201 199.599 34.0623 201.059 34.0623 202.52C34.0623 211.707 26.6747 219.131 17.5311 219.131C11.6574 219.131 6.51038 216.088 3.60381 211.464C4.08824 208.483 6.93426 202.581 17.5311 202.581C28.128 202.52 31.3979 200.755 33.4567 198.2ZM17.5311 229.778C26.6747 229.778 34.0623 237.202 34.0623 246.389C34.0623 255.577 26.6747 263 17.5311 263C8.4481 263 1 255.577 1 246.389C1 237.202 8.38754 229.778 17.5311 229.778ZM17.5311 229.778C25.1609 229.778 31.5796 234.95 33.4567 242.008C31.4585 244.564 28.128 246.328 17.5311 246.328C6.93426 246.328 4.02768 252.291 3.60381 255.212C1.96886 252.656 1 249.614 1 246.328C1 237.202 8.38754 229.778 17.5311 229.778ZM21.1038 242.191C23.4048 244.199 23.6471 247.667 21.6488 249.979L21.1038 242.191ZM33.4567 242.008C33.8201 243.408 34.0623 244.868 34.0623 246.328C34.0623 255.516 26.6747 262.939 17.5311 262.939C11.6574 262.939 6.51038 259.897 3.60381 255.273C4.08824 252.291 6.93426 246.389 17.5311 246.389C28.128 246.328 31.3979 244.564 33.4567 242.008ZM6.8737 243.225H8.81142C9.23529 243.225 9.65917 243.59 9.65917 244.077V250.344C9.65917 250.77 9.29585 251.196 8.81142 251.196H6.8737C6.44983 251.196 6.02595 250.831 6.02595 250.344V244.077C6.02595 243.651 6.38927 243.225 6.8737 243.225Z" stroke="white" stroke-width="1.47973" stroke-miterlimit="2.6131" stroke-linecap="round" stroke-linejoin="round"/>
<path fill-rule="evenodd" clip-rule="evenodd" d="M6.87369 243.225H8.81141C9.23529 243.225 9.65916 243.59 9.65916 244.077V247.849C8.14532 248.519 6.9948 249.431 6.0865 250.344V244.077C6.02594 243.651 6.38927 243.225 6.87369 243.225Z" fill="white"/>
<path d="M17.7734 234.342C18.5 234.342 19.1055 234.707 19.1055 235.194V259.167C19.1055 259.654 18.5 260.019 17.7734 260.019L11.3547 251.196V243.225L17.7734 234.342Z" stroke="white" stroke-width="1.47973" stroke-miterlimit="2.6131" stroke-linecap="round" stroke-linejoin="round"/>
<path fill-rule="evenodd" clip-rule="evenodd" d="M17.7734 234.342C18.5 234.342 19.1055 234.707 19.1055 235.194V246.328C18.6211 246.328 18.0761 246.328 17.5311 246.328C15.0484 246.328 13.0502 246.633 11.3547 247.18V243.225L17.7734 234.342Z" fill="white"/>
<path d="M24.3131 236.411C24.6765 236.654 24.9792 236.897 25.3426 237.202C27.7042 239.209 29.0969 242.008 29.3997 244.868L24.3131 236.411ZM22.4965 239.088C22.7388 239.27 22.981 239.453 23.2232 239.696C25.0398 241.278 26.0692 243.469 26.2509 245.781L22.4965 239.088ZM17.5311 139.971C26.6747 139.971 34.0623 147.394 34.0623 156.582C34.0623 165.769 26.6747 173.192 17.5311 173.192C8.4481 173.192 1 165.769 1 156.582C1 147.394 8.38754 139.971 17.5311 139.971ZM17.5311 139.971C25.1609 139.971 31.5796 145.143 33.4567 152.201C31.4585 154.756 28.128 156.521 17.5311 156.521C6.93426 156.521 4.02768 162.484 3.60381 165.404C1.96886 162.849 1 159.806 1 156.521C1 147.394 8.38754 139.971 17.5311 139.971Z" stroke="white" stroke-width="1.47973" stroke-miterlimit="2.6131" stroke-linecap="round" stroke-linejoin="round"/>
<path fill-rule="evenodd" clip-rule="evenodd" d="M17.5312 151.41C20.3166 151.41 22.5571 153.6 22.6177 156.338C21.1038 156.46 19.4689 156.521 17.5312 156.521C15.5934 156.521 13.8979 156.703 12.4446 157.068C12.4446 156.886 12.4446 156.703 12.4446 156.521C12.3841 153.722 14.6851 151.41 17.5312 151.41Z" fill="white"/>
<path d="M17.5312 143.196V156.521M17.5312 163.092V169.967M8.08479 147.09L17.4706 156.521L26.8564 147.09M22.1332 161.206L26.917 166.013M4.1488 156.521H30.7924M8.02424 166.013L12.8685 161.145M20.8616 145.629L17.4706 148.854L14.0796 145.629M12.1419 146.42L11.9602 151.105L7.29759 151.288M6.57095 153.174L9.78029 156.582L6.57095 159.989M28.3703 153.174L25.1609 156.582M22.7993 146.42L22.981 151.105L27.6436 151.288M33.4568 152.201C33.8201 153.6 34.0623 155.06 34.0623 156.521C34.0623 165.708 26.6748 173.131 17.5312 173.131C11.6575 173.131 6.5104 170.089 3.60382 165.465C4.08825 162.484 6.93427 156.582 17.5312 156.582C28.128 156.521 31.3979 154.756 33.4568 152.201Z" stroke="white" stroke-width="1.47973" stroke-miterlimit="2.6131" stroke-linecap="round" stroke-linejoin="round"/>
<path fill-rule="evenodd" clip-rule="evenodd" d="M13.7768 164.552C14.3218 164.552 14.8063 165.039 14.8063 165.587C14.8063 166.134 14.3218 166.621 13.7768 166.621C13.2319 166.621 12.7474 166.134 12.7474 165.587C12.7474 165.039 13.1713 164.552 13.7768 164.552Z" fill="white"/>
<path fill-rule="evenodd" clip-rule="evenodd" d="M20.4377 164.856C20.8616 164.431 21.4671 164.431 21.891 164.856C22.3149 165.282 22.3149 165.891 21.891 166.317C21.4671 166.743 20.8616 166.743 20.4377 166.317C20.0744 165.891 20.0744 165.222 20.4377 164.856Z" fill="white"/>
<path fill-rule="evenodd" clip-rule="evenodd" d="M25.4031 160.293C25.4031 159.745 25.8876 159.259 26.4325 159.259C26.9775 159.259 27.462 159.745 27.462 160.293C27.462 160.841 26.9775 161.327 26.4325 161.327C25.8876 161.327 25.4031 160.841 25.4031 160.293Z" fill="white"/>
<path fill-rule="evenodd" clip-rule="evenodd" d="M9.23531 159.563C9.65918 159.989 9.65918 160.597 9.23531 161.023C8.81143 161.449 8.20589 161.449 7.78202 161.023C7.35814 160.597 7.35814 159.989 7.78202 159.563C8.14534 159.198 8.81143 159.198 9.23531 159.563Z" fill="white"/>
<path d="M19.4688 1C28.6124 1 36 8.42313 36 17.6108C36 26.7984 28.6124 34.2216 19.4688 34.2216C10.3252 34.2216 2.93768 26.7984 2.93768 17.6108M19.4688 1C10.3858 1 2.93768 8.42313 2.93768 17.6108M19.4688 1C27.0986 1 33.5173 6.17185 35.3944 13.2299C33.3962 15.7854 30.0657 17.5499 19.4688 17.5499C8.87194 17.5499 5.96536 23.5128 5.54149 26.4333C3.90654 23.9387 2.93768 20.8964 2.93768 17.6108M9.71969 25.7641C12.1418 28.6238 15.7145 30.3275 19.4688 30.3275C22.9809 30.3275 26.1297 28.8672 28.4308 26.555C28.673 26.3117 28.9757 26.0074 29.1574 25.7032M24.0103 156.216C24.0103 156.338 24.0103 156.399 24.0103 156.521C24.0103 160.171 21.1038 163.092 17.4706 163.092C14.2007 163.092 11.4757 160.658 10.9913 157.433C12.7474 156.825 14.8667 156.521 17.4706 156.521C20.0744 156.521 22.2543 156.46 24.0103 156.216ZM3.42211 21.3832C6.5709 16.0288 13.3529 13.7775 19.4688 13.7775C22.9809 13.7775 25.5242 13.595 27.4619 13.2299C30.4896 12.6823 31.6401 10.7353 34.0017 9.76173L3.42211 21.3832Z" stroke="white" stroke-width="1.47973" stroke-miterlimit="2.6131" stroke-linecap="round" stroke-linejoin="round"/>
<path d="M10.7491 3.5555L10.9914 3.49466C13.7163 2.82536 16.6834 2.8862 19.4689 2.8862C21.2249 2.8862 22.7993 2.46029 24.3737 1.79099" stroke="white" stroke-width="1.47973" stroke-miterlimit="2.6131"/>
<path d="M4.87549 9.88342C9.05369 7.51046 13.9585 6.3544 18.6212 6.2327C18.7423 6.2327 18.8634 6.2327 18.9845 6.2327C19.2267 6.2327 19.3478 6.2327 19.4689 6.2327C20.6194 6.2327 21.3461 6.2327 21.7094 6.2327C24.6765 6.17186 26.5537 5.07664 28.7336 3.92058" stroke="white" stroke-width="1.47973" stroke-miterlimit="2.6131" stroke-linecap="round" stroke-linejoin="round"/>
<path fill-rule="evenodd" clip-rule="evenodd" d="M19.4688 23.0869C20.4377 23.0869 21.2854 23.8778 21.2854 24.9122V25.764H17.6522V24.9122C17.6522 23.9387 18.5 23.0869 19.4688 23.0869Z" fill="white"/>
<path fill-rule="evenodd" clip-rule="evenodd" d="M26.4325 17.2457C26.4325 17.3674 26.4931 17.4891 26.4931 17.6108V19.3144C26.4931 20.288 25.7059 21.1398 24.6765 21.1398C23.7076 21.1398 22.8599 20.3488 22.8599 19.3144V17.6108V17.5499C24.1315 17.4891 25.3426 17.3674 26.4325 17.2457Z" fill="white"/>
<path fill-rule="evenodd" clip-rule="evenodd" d="M16.1384 17.7933V19.3144C16.1384 20.288 15.3512 21.1398 14.3218 21.1398C13.3529 21.1398 12.5052 20.3488 12.5052 19.3144V18.6451C13.5952 18.2801 14.8062 17.9758 16.1384 17.7933Z" fill="white"/>
<path d="M3.05878 15.8463C7.23698 11.8913 13.2923 10.0659 18.9844 10.0051C19.166 10.0051 19.3477 9.94426 19.5294 9.94426C22.9204 9.94426 26.5536 10.1876 29.3996 8.1189C30.1263 7.57129 30.9134 7.02368 31.8823 6.53692" stroke="white" stroke-width="1.47973" stroke-miterlimit="2.6131" stroke-linecap="round" stroke-linejoin="round"/>
<path fill-rule="evenodd" clip-rule="evenodd" d="M22.2543 2.52113L25.3425 9.03158L18.2578 10.2485C18.4394 5.86762 18.7422 5.25917 22.2543 2.52113Z" fill="white"/>
<path fill-rule="evenodd" clip-rule="evenodd" d="M28.4308 15.542L25.3425 9.03158L32.4273 7.81467C32.1851 12.2564 31.8823 12.804 28.4308 15.542Z" fill="white"/>
<path fill-rule="evenodd" clip-rule="evenodd" d="M18.3789 61.0543C20.4983 61.0543 22.1938 62.758 22.2543 64.8876C21.1038 64.9484 19.7716 65.0093 18.3789 65.0093C16.9256 65.0093 15.654 65.131 14.5035 65.3135C14.5035 65.1918 14.5035 65.131 14.5035 65.0093C14.5035 62.8189 16.2595 61.0543 18.3789 61.0543Z" fill="white"/>
<path d="M14.5035 65.2527V68.1733H11.5969V66.0437C12.5052 65.6786 13.4135 65.4352 14.5035 65.2527Z" stroke="white" stroke-width="1.21405" stroke-miterlimit="2.6131" stroke-linejoin="round"/>
<path d="M18.3789 58.1946C22.0121 58.1946 24.9187 61.0543 25.1003 64.6442C23.2837 64.8876 21.0432 64.9484 18.3789 64.9484C15.7145 64.9484 13.5346 65.3135 11.718 65.922C11.6574 65.6177 11.6574 65.2527 11.6574 64.9484C11.6574 61.2369 14.6851 58.1946 18.3789 58.1946Z" stroke="white" stroke-width="1.21405" stroke-miterlimit="2.6131"/>
<path fill-rule="evenodd" clip-rule="evenodd" d="M31.3374 63.0622C30.4291 57.0386 25.2215 52.4143 18.9844 52.4143V53.2053L21.891 54.2397L18.9844 54.6047V55.5174C23.8893 55.5174 27.8858 59.2898 28.3703 64.0966C29.5208 63.7924 30.5502 63.4273 31.3374 63.0622Z" fill="white"/>
<path d="M22.3149 64.8876H25.2215V68.1733H22.3149V64.8876Z" stroke="white" stroke-width="1.21405" stroke-miterlimit="2.6131" stroke-linejoin="round"/>
<path d="M26.4931 68.1732C26.4931 68.3558 26.4931 68.5383 26.4931 68.7209V71.8848C26.4931 75.4747 23.526 78.4561 19.9533 78.4561H16.8045C13.2318 78.4561 10.2647 75.4747 10.2647 71.8848V68.7209C10.2647 68.5383 10.2647 68.3558 10.2647 68.1732H26.4931Z" stroke="white" stroke-width="1.47973" stroke-miterlimit="2.6131" stroke-linejoin="round"/>
<path fill-rule="evenodd" clip-rule="evenodd" d="M18.3789 69.8161C19.4689 69.8161 20.3772 70.7288 20.3772 71.824C20.3772 72.4324 20.1349 72.9192 19.7111 73.2843V75.4138C19.7111 76.144 19.1055 76.7524 18.3789 76.7524C17.6522 76.7524 17.0467 76.144 17.0467 75.4138V73.2843C16.6228 72.9192 16.3806 72.3716 16.3806 71.824C16.4412 70.6679 17.2889 69.8161 18.3789 69.8161Z" fill="white"/>
<path fill-rule="evenodd" clip-rule="evenodd" d="M6.51038 60.3242C7.90311 56.7343 10.9913 53.8138 14.9879 52.7794L15.1695 53.5095L12.6263 55.2132L15.5329 54.8481L15.7751 55.7608C12.7474 56.5518 10.4464 58.7422 9.41695 61.4803L6.51038 60.3242Z" fill="white"/>
<path fill-rule="evenodd" clip-rule="evenodd" d="M8.08477 55.8217L9.11418 54.7264C9.41695 54.4222 9.96193 54.3614 10.2647 54.7264L14.8668 59.1681C13.9585 59.7158 13.2318 60.5067 12.6868 61.3586L8.14532 56.9777C7.782 56.7343 7.782 56.1867 8.08477 55.8217Z" fill="white"/>
<path d="M34.0622 106.08C34.4256 107.479 34.6678 108.94 34.6678 110.4C34.6678 119.588 27.2802 127.011 18.1366 127.011C12.2629 127.011 7.11586 123.968 4.20929 119.344C4.69372 116.363 7.53974 110.461 18.1366 110.461C28.7335 110.461 32.064 108.635 34.0622 106.08Z" stroke="white" stroke-width="1.47973" stroke-miterlimit="2.6131" stroke-linecap="round" stroke-linejoin="round"/>
<path fill-rule="evenodd" clip-rule="evenodd" d="M9.59863 104.376H11.4152L11.8391 111.313C10.8097 111.678 9.90139 112.043 9.1142 112.529L9.59863 104.376Z" fill="white"/>
<path fill-rule="evenodd" clip-rule="evenodd" d="M14.7457 106.749H16.2595L16.5017 110.461C15.7751 110.522 15.109 110.582 14.5035 110.704L14.7457 106.749Z" fill="white"/>
<path fill-rule="evenodd" clip-rule="evenodd" d="M12.0208 97.0748C12.9896 97.0748 13.7768 97.7441 13.9585 98.5959C13.7163 98.7785 13.4741 99.0827 13.2924 99.5086C12.8685 100.543 12.3236 100.726 11.173 100.847C10.5069 100.543 10.0831 99.8737 10.0831 99.0827C10.0831 97.9266 10.9308 97.0748 12.0208 97.0748Z" fill="white" stroke="black" stroke-width="0.131111" stroke-miterlimit="2.6131"/>
<path d="M10.2647 103.342C10.2647 103.342 9.84081 100.665 11.2941 100.482C12.7474 100.3 12.5052 99.9345 13.1713 99.0827C13.7768 98.2917 14.9879 97.9875 15.654 98.5959C16.3201 99.2044 17.2284 99.1435 17.7733 98.7784C18.3183 98.3525 18.3789 97.7441 19.5899 97.6832C20.8616 97.6224 22.1938 99.5086 23.5259 98.0483C24.8581 96.588 25.6453 97.0748 26.372 97.9875C27.2803 99.1435 28.3097 98.3525 29.2785 98.17C30.6713 99.4477 31.8218 100.908 32.6695 102.551C32.1851 103.403 31.519 103.95 30.4896 102.49C30.0657 102.064 29.3996 100.847 28.7335 100.726C26.8564 100.482 26.8564 101.882 25.282 102.003C24.192 102.064 24.0104 100.543 23.1626 100.482C22.2543 100.421 21.6488 101.516 20.8616 101.516C19.9533 101.516 19.4083 100.665 18.0761 100.847C15.8962 101.212 17.5917 102.49 14.0796 102.247C12.6868 102.186 10.3252 102.064 10.2647 103.342Z" stroke="white" stroke-width="1.21405" stroke-miterlimit="2.6131" stroke-linejoin="round"/>
<path fill-rule="evenodd" clip-rule="evenodd" d="M14.9879 105.897C14.564 104.741 13.2924 104.194 13.8374 102.794C14.2007 101.882 15.2907 102.125 16.0779 102.125C17.4706 102.186 16.744 100.665 18.1973 100.482C19.4689 100.3 20.0744 101.638 20.9827 101.638C21.7094 101.638 22.3149 100.543 23.2838 100.604C24.1315 100.665 24.2526 102.186 25.4031 102.125C26.917 102.064 26.9775 100.665 28.8547 100.847C30.1263 101.03 30.1869 101.821 31.0346 101.821C31.3374 101.821 31.6402 101.577 32.0035 101.334C32.609 102.307 33.154 103.281 33.5779 104.376C30.4291 104.255 26.9775 103.646 25.8876 103.889C23.4049 104.437 22.5571 103.403 20.3772 104.133C18.5 104.802 15.654 102.429 14.9879 105.897Z" fill="white"/>
<path d="M30.8529 113.868C29.3391 119.648 24.0709 123.664 18.1366 123.664C12.9896 123.664 8.38751 120.683 6.20758 115.998M25.5242 116.667C23.7076 118.857 20.9827 120.135 18.1366 120.135C13.7768 120.135 9.90135 117.154 8.81139 112.955M21.2249 115.754C20.3166 116.302 19.2266 116.606 18.1366 116.606C15.1695 116.606 12.6263 114.477 12.0813 111.495" stroke="white" stroke-width="1.47973" stroke-miterlimit="2.6131" stroke-linecap="round" stroke-linejoin="round"/>
</g>
</svg>
