<svg width="31" height="39" viewBox="0 0 31 39" xmlns="http://www.w3.org/2000/svg">
<path d="M24.8568 25.3924C24.3876 25.5313 23.6991 25.547 22.9605 25.4395C22.1682 25.3239 21.3598 25.0807 20.5654 24.7223C21.9821 24.5153 23.0812 24.5789 24.0211 24.9136C24.2441 24.9929 24.6098 25.2047 24.8568 25.3924ZM16.9525 24.0873C16.8948 24.103 16.8382 24.1179 16.7817 24.1336C16.4003 24.2379 16.0294 24.3393 15.6722 24.4299L15.1902 24.5528C14.2206 24.7992 13.2293 25.0509 12.2505 25.3505C12.6226 24.4493 12.9683 23.5384 13.3067 22.6476C13.5573 21.9884 13.8132 21.3147 14.0778 20.6499C14.2122 20.8725 14.3521 21.0952 14.4981 21.3187C15.1621 22.3347 15.997 23.2742 16.9525 24.0873ZM14.4864 13.9261C14.5494 15.0379 14.3104 16.1075 13.9599 17.1335C13.5285 15.8646 13.3272 14.4637 13.8669 13.3325C14.0052 13.0425 14.1187 12.8875 14.1921 12.8066C14.3056 12.9829 14.4552 13.3768 14.4864 13.9261ZM9.42515 28.0107C9.18255 28.4464 8.93514 28.8544 8.68132 29.2393C8.06901 30.1659 7.06774 31.1582 6.55327 31.1582C6.50275 31.1582 6.4414 31.1501 6.35198 31.0551C6.29423 30.9943 6.28501 30.9508 6.28782 30.8916C6.30506 30.5509 6.75457 29.944 7.40577 29.3815C7.99683 28.8709 8.66488 28.4174 9.42515 28.0107ZM26.4952 25.4403C26.4166 24.3055 24.5144 23.5774 24.4955 23.5706C23.7601 23.3088 22.9613 23.1816 22.0535 23.1816C21.0815 23.1816 20.0337 23.3229 18.688 23.6387C17.4906 22.7861 16.4561 21.719 15.6834 20.5375C15.3421 20.0156 15.0354 19.4945 14.7679 18.9855C15.4207 17.4178 16.0086 15.7321 15.9019 13.8443C15.8157 12.3306 15.136 11.3138 14.2118 11.3138C13.5778 11.3138 13.0316 11.7853 12.5877 12.7168C11.7958 14.3767 12.0039 16.5005 13.2061 19.0346C12.773 20.0559 12.3708 21.1146 11.9815 22.1398C11.4971 23.4143 10.9978 24.7291 10.4352 25.9799C8.85735 26.6069 7.56136 27.3672 6.48109 28.3006C5.77335 28.9111 4.92045 29.8442 4.87153 30.8183C4.84787 31.277 5.00425 31.6978 5.32264 32.0348C5.66067 32.3928 6.08572 32.5813 6.55287 32.5817C8.09588 32.5817 9.58074 30.4526 9.86223 30.0258C10.4292 29.1676 10.9597 28.2104 11.4798 27.1063C12.7894 26.6311 14.1853 26.2763 15.5378 25.9332L16.0222 25.8096C16.3863 25.7166 16.7648 25.6139 17.153 25.5072C17.564 25.3956 17.9867 25.28 18.4161 25.1701C19.8051 26.0572 21.2988 26.6359 22.7556 26.8481C23.9826 27.0273 25.0725 26.9234 25.8099 26.5372C26.474 26.1901 26.5109 25.6545 26.4952 25.4403ZM29.4834 35.1984C29.4834 37.2767 27.6593 37.4048 27.2912 37.4092H3.75838C1.6965 37.4092 1.57219 35.5649 1.56818 35.1984V3.80151C1.56818 1.72119 3.39549 1.59514 3.75838 1.59071H19.6556L19.664 1.59917V7.82926C19.664 9.07963 20.4166 11.4467 23.2673 11.4467H29.4305L29.4834 11.4998V35.1984ZM28.0222 10.0264H23.2677C21.2062 10.0264 21.0815 8.19209 21.0787 7.82926V3.02471L28.0222 10.0264ZM30.8973 35.1984V10.9135L21.0787 1.01204V0.966135H21.0318L20.2434 0.17041H3.75838C2.51171 0.17041 0.154297 0.92949 0.154297 3.80151V35.1988C0.154297 36.4544 0.907755 38.8295 3.75838 38.8295H27.2936C28.5399 38.8291 30.8973 38.0704 30.8973 35.1984Z" />
</svg>
