<svg width="14" height="14" viewBox="0 0 14 14" xmlns="http://www.w3.org/2000/svg">
<path d="M12.7386 10.1692C12.747 9.82399 12.5064 9.54055 12.1847 9.49523C11.5209 9.40757 10.8707 9.24603 10.2457 9.01284C10.008 8.92363 9.74001 8.98069 9.56193 9.15647L8.4087 10.3077L7.99099 10.0706C6.28878 9.10437 4.87938 7.69742 3.91147 5.99819L3.67396 5.5812L4.01373 5.24202L4.8247 4.43249C5.00327 4.25222 5.06042 3.98469 4.97065 3.74628C4.73746 3.12347 4.57565 2.4744 4.48859 1.81731C4.44289 1.49456 4.16459 1.25563 3.83187 1.25887L1.91092 1.25887C1.72832 1.25904 1.5542 1.33582 1.43109 1.47045C1.30798 1.60507 1.24722 1.78516 1.26269 1.95688C1.46247 3.83494 2.10262 5.63961 3.13424 7.22933C4.068 8.69623 5.31384 9.93991 6.78821 10.8752C8.36888 11.8984 10.168 12.5373 12.0295 12.7393C12.212 12.7558 12.3929 12.6947 12.5279 12.5711C12.6628 12.4475 12.7393 12.2728 12.7386 12.0874V10.1692ZM13.9996 12.0849C14.0018 12.6222 13.7769 13.1355 13.3803 13.4987C12.9837 13.8619 12.4521 14.0414 11.9047 13.9919C9.83567 13.7675 7.84825 13.0617 6.107 11.9345C4.48129 10.9032 3.10297 9.52733 2.07291 7.9091C0.93659 6.15808 0.229432 4.16448 0.00776444 2.07999C-0.0405273 1.54653 0.138008 1.01737 0.499759 0.621773C0.86151 0.226175 1.37316 0.000568024 1.91033 6.33244e-05L3.82566 9.38041e-05C4.78512 -0.00933281 5.60291 0.692737 5.73795 1.64668C5.81332 2.21542 5.95208 2.77201 6.15143 3.30446C6.41402 4.00178 6.24607 4.78789 5.71885 5.3201L5.25387 5.78427C6.00972 6.97015 7.01732 7.97599 8.20528 8.73053L8.67276 8.26387C9.20339 7.74006 9.99088 7.5724 10.6883 7.83411C11.2228 8.03353 11.7804 8.17205 12.3555 8.24803C13.3137 8.38298 14.0193 9.21133 13.9996 10.1763L13.9996 12.0849Z"/>
</svg>
