<svg width="40" height="40" viewBox="0 0 40 40" xmlns="http://www.w3.org/2000/svg">
<path d="M38.0078 19.9843L36.1953 19.7578C35.6406 18.4062 34.8516 17.1562 33.8672 16.0781L35.2031 10.4219C35.2578 10.1875 35.2031 9.94531 35.0547 9.75781C34.9062 9.57031 34.6797 9.46094 34.4453 9.46094H34.2734C32.0547 9.46094 30.0625 10.8516 29.2734 12.8984C28.7188 12.6797 28.1484 12.4922 27.5625 12.3594C27.1406 12.2578 26.7188 12.5234 26.625 12.9375C26.5234 13.3594 26.7891 13.7812 27.2031 13.875C29.1953 14.3437 30.9688 15.3515 32.3672 16.75C32.4219 16.8281 32.4844 16.8906 32.5547 16.9453C33.5703 18.0156 34.3828 19.2968 34.8984 20.7343C35 21.0078 35.2422 21.2031 35.5391 21.2421L37.8203 21.5312C38.1797 21.5781 38.4453 21.8828 38.4453 22.2421V26.1796C38.4453 26.539 38.1797 26.8437 37.8203 26.8905L35.7109 27.1562C35.4062 27.1952 35.1562 27.4062 35.0625 27.6952C34.4375 29.6952 33.25 31.4687 31.6172 32.8124C31.4375 32.9608 31.3359 33.1796 31.3359 33.414V37.7342C31.3359 38.1249 31.0234 38.4374 30.6328 38.4374H26.1016C25.7109 38.4374 25.3984 38.1249 25.3984 37.7342V36.0858C25.3984 35.6561 25.0469 35.3046 24.6172 35.3046H18.0547C17.625 35.3046 17.2734 35.6561 17.2734 36.0858V37.7342C17.2734 38.1249 16.9609 38.4374 16.5703 38.4374H12.0391C11.6484 38.4374 11.3359 38.1249 11.3359 37.7342V34.6874C11.3359 34.3983 11.1797 34.1405 10.9297 33.9999C7.41406 32.0936 5.23438 28.4374 5.23438 24.4531C5.23438 18.4687 10.1016 13.5937 16.0938 13.5937H17.0703C17.5 13.5937 17.8516 13.2422 17.8516 12.8125C17.8516 12.3828 17.5 12.0312 17.0703 12.0312H16.0938C10.2969 12.0312 5.41406 16.0234 4.05469 21.4062H3.48438C2.42187 21.4062 1.5625 20.5546 1.5625 19.4921C1.5625 18.4296 2.42188 17.5781 3.47656 17.5781C3.90625 17.5781 4.25781 17.2265 4.25781 16.7968C4.25781 16.3672 3.90625 16.0156 3.47656 16.0156C1.5625 16.0156 0 17.5781 0 19.4921C0 21.4062 1.5625 22.9687 3.47656 22.9687H3.75781C3.70312 23.4531 3.67188 23.9452 3.67188 24.4452C3.67188 28.8437 5.99219 32.8983 9.76562 35.1327V37.7342C9.76562 38.9842 10.7812 39.9999 12.0312 39.9999H16.5625C17.8125 39.9999 18.8281 38.9842 18.8281 37.7342V36.8671H23.8281V37.7342C23.8281 38.9842 24.8438 39.9999 26.0938 39.9999H30.625C31.875 39.9999 32.8906 38.9842 32.8906 37.7342V33.7733C34.4766 32.3749 35.6719 30.6171 36.3828 28.6405L38.0078 28.4374C39.1406 28.2968 40 27.328 40 26.1796V22.2421C40 21.1015 39.1406 20.125 38.0078 19.9843ZM32.5469 14.8359C31.9609 14.3594 31.3359 13.9375 30.6797 13.5781C31.1094 12.3359 32.1641 11.4141 33.4219 11.125L32.5469 14.8359Z" />
<path d="M31.1016 19.8359C30.9531 19.6875 30.7578 19.6094 30.5469 19.6094C30.3359 19.6094 30.1406 19.6953 29.9922 19.8359C29.8437 19.9844 29.7656 20.1797 29.7656 20.3906C29.7656 20.6016 29.8516 20.7969 29.9922 20.9453C30.1406 21.0937 30.3359 21.1719 30.5469 21.1719C30.7578 21.1719 30.9531 21.0859 31.1016 20.9453C31.25 20.7969 31.3281 20.6016 31.3281 20.3906C31.3281 20.1797 31.2422 19.9844 31.1016 19.8359Z" />
<path d="M22.9065 4.55469C22.4768 4.55469 22.1252 4.90625 22.1252 5.33593V8.43748C22.1252 8.86717 22.4768 9.21873 22.9065 9.21873C23.3362 9.21873 23.6877 8.86717 23.6877 8.43748V5.33593C23.6877 4.90625 23.344 4.55469 22.9065 4.55469Z" />
<path d="M23.4612 1.95312C23.3127 1.80469 23.1174 1.72656 22.9065 1.72656C22.7034 1.72656 22.5002 1.8125 22.3518 1.95312C22.2034 2.10156 22.1252 2.29687 22.1252 2.50781C22.1252 2.71093 22.2112 2.91406 22.3518 3.06249C22.5002 3.21093 22.6956 3.28906 22.9065 3.28906C23.1096 3.28906 23.3127 3.20312 23.4612 3.06249C23.6096 2.91406 23.6877 2.71875 23.6877 2.50781C23.6877 2.29687 23.6096 2.10156 23.4612 1.95312Z" />
<path d="M16.5625 0C16.1328 0 15.7812 0.351561 15.7812 0.781246V2.10937C15.7812 2.53905 16.1328 2.89061 16.5625 2.89061C16.9922 2.89061 17.3438 2.53905 17.3438 2.10937V0.781246C17.3438 0.351561 16.9922 0 16.5625 0Z" />
<path d="M8.89844 24.4531C8.89844 24.0234 8.54688 23.6719 8.11719 23.6719C7.6875 23.6719 7.33594 24.0234 7.33594 24.4531V24.4922C7.33594 24.9219 7.6875 25.2656 8.11719 25.2656C8.11719 25.2656 8.11719 25.2656 8.125 25.2656C8.55469 25.2656 8.90625 24.9141 8.89844 24.4766V24.4531Z" />
<path d="M12.3598 30.6017C11.0004 29.7736 9.93793 28.508 9.37543 27.0236C9.21918 26.6174 8.76605 26.4221 8.36762 26.5705C7.96137 26.7267 7.76605 27.1799 7.91449 27.5783C8.60199 29.3752 9.89105 30.922 11.5473 31.9298C11.6723 32.008 11.8129 32.047 11.9536 32.047C12.2192 32.047 12.477 31.9142 12.6254 31.672C12.8442 31.3049 12.727 30.8205 12.3598 30.6017Z" />
<path d="M16.5625 3.75781C14.75 3.75781 13.2812 5.22656 13.2812 7.03905C13.2812 8.85154 14.75 10.3203 16.5625 10.3203C18.375 10.3203 19.8438 8.85154 19.8438 7.03905C19.8438 5.22656 18.375 3.75781 16.5625 3.75781ZM16.5625 8.75779C15.6172 8.75779 14.8438 7.98436 14.8438 7.03905C14.8438 6.09374 15.6172 5.32031 16.5625 5.32031C17.5078 5.32031 18.2812 6.09374 18.2812 7.03905C18.2812 7.98436 17.5078 8.75779 16.5625 8.75779Z" />
<path d="M26.4062 16.5625H25.7031C26.0156 16.0625 26.1875 15.4765 26.1875 14.8437C26.1875 13.0312 24.7188 11.5625 22.9063 11.5625C21.0938 11.5625 19.625 13.0312 19.625 14.8437C19.625 15.4765 19.8047 16.0625 20.1094 16.5625H16.25C15.8203 16.5625 15.4688 16.914 15.4688 17.3437C15.4688 17.7734 15.8203 18.125 16.25 18.125H26.4062C26.8359 18.125 27.1875 17.7734 27.1875 17.3437C27.1875 16.914 26.8359 16.5625 26.4062 16.5625ZM22.9063 16.5625C21.9609 16.5625 21.1875 15.789 21.1875 14.8437C21.1875 13.8984 21.9609 13.125 22.9063 13.125C23.8516 13.125 24.625 13.8984 24.625 14.8437C24.625 15.789 23.8594 16.5625 22.9063 16.5625Z" />
</svg>
