<svg width="38" height="38" viewBox="0 0 38 38" xmlns="http://www.w3.org/2000/svg">
<path d="M27.9062 32.0615C27.498 32.0615 27.1641 32.3956 27.1641 32.8039C27.1641 33.2121 27.498 33.5462 27.9062 33.5462C28.3145 33.5462 28.6484 33.2121 28.6484 32.8039C28.6484 32.3956 28.3145 32.0615 27.9062 32.0615Z" />
<path d="M10.0938 32.0615C9.68555 32.0615 9.35156 32.3956 9.35156 32.8039C9.35156 33.2121 9.68555 33.5462 10.0938 33.5462C10.502 33.5462 10.8359 33.2121 10.8359 32.8039C10.8359 32.3956 10.502 32.0615 10.0938 32.0615Z" />
<path d="M5.19531 30.5767C3.9707 30.5767 2.96875 31.5788 2.96875 32.8037C2.96875 34.0285 3.9707 35.0307 5.19531 35.0307C6.41992 35.0307 7.42188 34.0285 7.42188 32.8037C7.42188 31.5788 6.41992 30.5767 5.19531 30.5767ZM5.19531 33.546C4.78711 33.546 4.45312 33.2119 4.45312 32.8037C4.45312 32.3954 4.78711 32.0613 5.19531 32.0613C5.60352 32.0613 5.9375 32.3954 5.9375 32.8037C5.9375 33.2119 5.60352 33.546 5.19531 33.546Z" />
<path d="M32.8047 30.5767C31.5801 30.5767 30.5781 31.5788 30.5781 32.8037C30.5781 34.0285 31.5801 35.0307 32.8047 35.0307C34.0293 35.0307 35.0312 34.0285 35.0312 32.8037C35.0312 31.5788 34.0293 30.5767 32.8047 30.5767ZM32.8047 33.546C32.3965 33.546 32.0625 33.2119 32.0625 32.8037C32.0625 32.3954 32.3965 32.0613 32.8047 32.0613C33.2129 32.0613 33.5469 32.3954 33.5469 32.8037C33.5469 33.2119 33.2129 33.546 32.8047 33.546Z" />
<path d="M19 8.60352C17.3598 8.60352 16.0312 9.93229 16.0312 11.5729C16.0312 13.2134 17.3598 14.5422 19 14.5422C20.6402 14.5422 21.9688 13.2134 21.9688 11.5729C21.9688 9.93229 20.6402 8.60352 19 8.60352ZM19 13.0575C18.1836 13.0575 17.5156 12.3894 17.5156 11.5729C17.5156 10.7563 18.1836 10.0882 19 10.0882C19.8164 10.0882 20.4844 10.7563 20.4844 11.5729C20.4844 12.3894 19.8164 13.0575 19 13.0575Z" />
<path d="M36.3895 16.1532C35.959 15.7226 35.4246 15.4406 34.8457 15.3366L34.1777 13.3323C34.6973 12.924 35.0387 12.2931 35.0387 11.5804C35.0387 10.3556 34.0367 9.35342 32.8121 9.35342C31.8473 9.35342 31.016 9.97698 30.7117 10.8381H27.1641V10.0957C27.1641 9.68747 26.8301 9.35342 26.4219 9.35342H24.4773C24.2695 8.8412 24.0023 8.36611 23.6684 7.94298L24.6332 6.2653C24.7297 6.09457 24.7594 5.89414 24.7074 5.70113C24.6555 5.50812 24.5293 5.35223 24.3586 5.24831L22.1766 3.98634L22.6961 0.861108C22.6961 0.853685 22.6961 0.846261 22.6961 0.838838C22.6961 0.823991 22.6961 0.809145 22.7035 0.801721C22.7035 0.786875 22.7035 0.772028 22.7035 0.764605C22.7035 0.757181 22.7035 0.749758 22.7035 0.742335C22.7035 0.734911 22.7035 0.734911 22.7035 0.727488C22.7035 0.712641 22.7035 0.697794 22.7035 0.682948C22.7035 0.675524 22.7035 0.660678 22.7035 0.653254C22.7035 0.638408 22.6961 0.623561 22.6961 0.608714C22.6961 0.601291 22.6961 0.586444 22.6887 0.579021C22.6887 0.564174 22.6812 0.556751 22.6812 0.541904C22.6812 0.527058 22.6738 0.519634 22.6738 0.504788C22.6738 0.497364 22.6664 0.482517 22.659 0.475094C22.6516 0.460247 22.6516 0.452824 22.6441 0.437977C22.6367 0.430554 22.6367 0.415707 22.6293 0.408284C22.6219 0.393437 22.6145 0.386014 22.6145 0.371167C22.607 0.363744 22.607 0.348897 22.5996 0.341474C22.5922 0.334051 22.5848 0.319204 22.5773 0.311781C22.5699 0.304357 22.5625 0.28951 22.5551 0.282087C22.5477 0.274664 22.5402 0.259817 22.5328 0.252394C22.5254 0.24497 22.518 0.230124 22.5105 0.2227C22.5031 0.215277 22.4957 0.207854 22.4883 0.20043C22.4809 0.193007 22.466 0.185584 22.4586 0.170737C22.4512 0.163314 22.4437 0.15589 22.4363 0.148467C22.4289 0.141044 22.4141 0.13362 22.4066 0.126197C22.3992 0.118774 22.3918 0.11135 22.3844 0.11135C22.377 0.103927 22.3621 0.0965035 22.3473 0.0890801C22.3398 0.0816568 22.325 0.0816568 22.3176 0.0742335C22.3102 0.0668101 22.2953 0.0668101 22.2879 0.0593868C22.273 0.0519634 22.2656 0.0519634 22.2508 0.0445401C22.2434 0.0371167 22.2285 0.0371167 22.2211 0.0371167C22.2062 0.0296934 22.1914 0.0296934 22.184 0.02227C22.1766 0.02227 22.1617 0.0148467 22.1543 0.0148467C22.1395 0.0148467 22.1246 0.00742335 22.1098 0.00742335C22.1023 0.00742335 22.1023 0.00742335 22.0949 0.00742335C22.0875 0.00742335 22.0801 0.00742335 22.0727 0.00742335C22.0578 0.00742335 22.043 0.00742335 22.0355 0C22.0207 0 22.0059 0 21.9984 0C21.991 0 21.9836 0 21.9762 0H16.0387C16.0312 0 16.0238 0 16.0164 0C16.0016 0 15.9867 0 15.9719 0C15.957 0 15.9422 0 15.9348 0.00742335C15.9273 0.00742335 15.9199 0.00742335 15.9125 0.00742335C15.9051 0.00742335 15.9051 0.00742335 15.8977 0.00742335C15.8828 0.00742335 15.868 0.0148467 15.8531 0.0148467C15.8457 0.0148467 15.8309 0.02227 15.8234 0.02227C15.8086 0.0296934 15.7937 0.0296934 15.7863 0.0371167C15.7789 0.0371167 15.7641 0.0445401 15.7566 0.0519634C15.7418 0.0593868 15.7344 0.0593868 15.7195 0.0668101C15.7121 0.0742335 15.6973 0.0742335 15.6898 0.0816568C15.6824 0.0890801 15.6676 0.0890801 15.6602 0.0965035C15.6453 0.103927 15.6379 0.11135 15.623 0.118774C15.6156 0.126197 15.6082 0.13362 15.6008 0.13362C15.5859 0.141044 15.5785 0.148467 15.5711 0.15589C15.5637 0.163314 15.5562 0.170737 15.5488 0.17816C15.5414 0.185584 15.5266 0.193007 15.5191 0.207854C15.5117 0.215277 15.5043 0.2227 15.4969 0.230124C15.4895 0.237547 15.482 0.24497 15.4746 0.259817C15.4672 0.26724 15.4598 0.274664 15.4523 0.28951C15.4449 0.296934 15.4375 0.304357 15.4301 0.319204C15.4227 0.326627 15.4152 0.341474 15.4078 0.348897C15.4004 0.356321 15.393 0.363744 15.393 0.378591C15.3855 0.393437 15.3781 0.400861 15.3781 0.415707C15.3707 0.423131 15.3707 0.437977 15.3633 0.445401C15.3559 0.460247 15.3559 0.467671 15.3484 0.482517C15.341 0.489941 15.341 0.504788 15.3336 0.512211C15.3262 0.527058 15.3262 0.534481 15.3262 0.549328C15.3262 0.564174 15.3187 0.571598 15.3187 0.586444C15.3187 0.593868 15.3113 0.608714 15.3113 0.616138C15.3113 0.630984 15.3039 0.645831 15.3039 0.660678C15.3039 0.668101 15.3039 0.682948 15.3039 0.690371C15.3039 0.705218 15.3039 0.720065 15.3039 0.734911C15.3039 0.742335 15.3039 0.742335 15.3039 0.749758C15.3039 0.757181 15.3039 0.764605 15.3039 0.772028C15.3039 0.786875 15.3039 0.801721 15.3039 0.809145C15.3039 0.823991 15.3039 0.838838 15.3113 0.846261C15.3113 0.853685 15.3113 0.861108 15.3113 0.868531L15.8309 3.99376L13.6488 5.25573C13.4781 5.35223 13.352 5.51555 13.3 5.70855C13.248 5.90156 13.2777 6.10199 13.3742 6.27273L14.3391 7.9504C14.0051 8.38096 13.7379 8.84863 13.5301 9.36084H11.5781C11.1699 9.36084 10.8359 9.69489 10.8359 10.1032V10.8455H7.2957C6.99141 9.96955 6.16016 9.34599 5.19531 9.34599C3.9707 9.34599 2.96875 10.3481 2.96875 11.573C2.96875 12.2856 3.30273 12.924 3.82969 13.3249L3.16172 15.3292C2.57539 15.4406 2.04102 15.7226 1.61797 16.1458C1.05391 16.7174 0.742188 17.4597 0.742188 18.254C0.742188 19.0483 1.05391 19.7906 1.61055 20.3548C1.9 20.6443 2.36758 20.6443 2.65703 20.3548C2.94648 20.0653 2.94648 19.5976 2.65703 19.3081C2.375 19.026 2.21914 18.6549 2.21914 18.2614C2.21914 17.868 2.375 17.4894 2.65703 17.2147C2.93906 16.9327 3.31016 16.7842 3.70352 16.7768C4.09688 16.7768 4.46797 16.9327 4.75 17.2147C5.03203 17.4968 5.18789 17.868 5.18789 18.2614C5.18789 18.6549 5.03203 19.0335 4.75 19.3081C4.46055 19.5976 4.46055 20.0653 4.75 20.3548C4.89844 20.5033 5.08398 20.5701 5.27695 20.5701C5.46992 20.5701 5.65547 20.4959 5.80391 20.3548C6.36797 19.7906 6.67969 19.0483 6.67969 18.254C6.67969 17.4597 6.36797 16.7174 5.81133 16.1532C5.49219 15.834 5.10625 15.589 4.69062 15.448L5.23984 13.8C6.18984 13.7852 6.99883 13.169 7.2957 12.3153H10.8359V13.0577C10.8359 13.4659 11.1699 13.8 11.5781 13.8H13.5227C13.7305 14.3122 13.9977 14.7873 14.3316 15.2104L13.3668 16.8881C13.2703 17.0588 13.2406 17.2593 13.2926 17.4523C13.3445 17.6453 13.4707 17.8012 13.6414 17.9051L16.2094 19.3898C16.5656 19.5976 17.0184 19.4714 17.2262 19.1151L18.191 17.4449C18.7551 17.5339 19.2672 17.5339 19.8313 17.4449L20.7961 19.1151C20.9371 19.3527 21.182 19.4863 21.4418 19.4863C21.568 19.4863 21.6941 19.4566 21.8129 19.3898L24.3809 17.9051C24.5516 17.8086 24.6777 17.6453 24.7297 17.4523C24.7816 17.2593 24.752 17.0588 24.6555 16.8881L23.6758 15.2104C24.0098 14.7799 24.277 14.3122 24.4848 13.8H26.4219C26.8301 13.8 27.1641 13.4659 27.1641 13.0577V12.3153H30.7043C31.0086 13.169 31.8102 13.7852 32.7602 13.8L33.3094 15.448C32.8937 15.5964 32.5078 15.834 32.1887 16.1532C31.6246 16.7174 31.3203 17.4597 31.3203 18.254C31.3203 19.0483 31.632 19.7906 32.1887 20.3548C32.4781 20.6443 32.9457 20.6443 33.2352 20.3548C33.5246 20.0653 33.5246 19.5976 33.2352 19.3081C32.9531 19.026 32.7973 18.6549 32.7973 18.2614C32.7973 17.868 32.9531 17.4894 33.2352 17.2147C33.5172 16.9327 33.8883 16.7842 34.2816 16.7768C34.675 16.7768 35.0461 16.9327 35.3281 17.2147C35.6102 17.4968 35.766 17.868 35.766 18.2614C35.766 18.6549 35.6102 19.0335 35.3281 19.3081C35.0387 19.5976 35.0387 20.0653 35.3281 20.3548C35.4766 20.5033 35.6621 20.5701 35.8551 20.5701C36.048 20.5701 36.2336 20.4959 36.382 20.3548C36.9461 19.7906 37.2504 19.0483 37.2504 18.254C37.2504 17.4597 36.9461 16.7174 36.3895 16.1532ZM5.19531 12.3153C4.78711 12.3153 4.45312 11.9813 4.45312 11.573C4.45312 11.1647 4.78711 10.8307 5.19531 10.8307C5.60352 10.8307 5.9375 11.1647 5.9375 11.573C5.9375 11.9813 5.60352 12.3153 5.19531 12.3153ZM21.093 1.47725L20.6254 4.30554L19.8164 5.70113C19.2523 5.61205 18.7402 5.61205 18.1762 5.70113L17.3672 4.30554L16.907 1.47725H21.093ZM25.6797 12.3153H23.9504C23.6238 12.3153 23.3344 12.5306 23.2379 12.8424C23.0301 13.5253 22.6887 14.1266 22.2211 14.6166C21.9984 14.8541 21.9539 15.2104 22.1172 15.4999L22.9781 16.9846L21.6941 17.7269L20.8406 16.2423C20.707 16.0122 20.4621 15.8711 20.1949 15.8711C20.1355 15.8711 20.0836 15.8785 20.0242 15.8934C19.6531 15.9825 19.3117 16.027 19 16.027C18.6883 16.027 18.3469 15.9825 17.9758 15.8934C17.6566 15.8191 17.3227 15.9602 17.1594 16.2423L16.3059 17.7269L15.0219 16.9846L15.8828 15.4999C16.0461 15.2179 16.0016 14.8615 15.7789 14.6166C15.3113 14.1192 14.9699 13.5253 14.7621 12.8424C14.6656 12.5306 14.3762 12.3153 14.0496 12.3153H12.3203V10.8307H14.0496C14.3762 10.8307 14.6656 10.6154 14.7621 10.3036C14.9699 9.62066 15.3113 9.01937 15.7789 8.52942C16.0016 8.29188 16.0461 7.93556 15.8828 7.64605L15.0219 6.16138L16.3059 5.41904L17.1594 6.90371C17.3227 7.1858 17.6566 7.33427 17.9758 7.25261C18.3469 7.16353 18.6883 7.11899 19 7.11899C19.3117 7.11899 19.6531 7.16353 20.0242 7.25261C20.3434 7.32684 20.6773 7.1858 20.8406 6.90371L21.6941 5.41904L22.9781 6.16138L22.1172 7.64605C21.9539 7.92813 21.9984 8.29188 22.2211 8.52942C22.6887 9.02679 23.0301 9.62066 23.2379 10.3036C23.3344 10.6154 23.6238 10.8307 23.9504 10.8307H25.6797V12.3153ZM32.8047 12.3153C32.3965 12.3153 32.0625 11.9813 32.0625 11.573C32.0625 11.1647 32.3965 10.8307 32.8047 10.8307C33.2129 10.8307 33.5469 11.1647 33.5469 11.573C33.5469 11.9813 33.2129 12.3153 32.8047 12.3153Z" />
<path d="M33.5469 27.6594V23.4503C33.5469 23.0421 33.2129 22.708 32.8047 22.708H26.4219C26.0137 22.708 25.6797 23.0421 25.6797 23.4503V27.6074H22.7109V23.4503C22.7109 23.0421 22.377 22.708 21.9688 22.708H16.0312C15.623 22.708 15.2891 23.0421 15.2891 23.4503V27.6074H12.3203V23.4503C12.3203 23.0421 11.9863 22.708 11.5781 22.708H5.19531C4.78711 22.708 4.45312 23.0421 4.45312 23.4503V27.6594C3.34727 27.8153 2.32305 28.3275 1.52148 29.1292C0.541797 30.1091 0 31.4156 0 32.8038C0 35.6692 2.33047 38.0001 5.19531 38.0001H32.8047C34.1926 38.0001 35.4988 37.4582 36.4785 36.4783C37.4582 35.4984 38 34.1919 38 32.8038C38 30.1907 36.0629 28.0231 33.5469 27.6594ZM27.1641 24.1927H32.0625V27.6074H27.1641V24.1927ZM16.7734 24.1927H21.2266V27.6074H16.7734V24.1927ZM5.9375 24.1927H10.8359V27.6074H5.9375V24.1927ZM35.432 35.4316C34.727 36.1294 33.7992 36.5154 32.8047 36.5154H5.19531C3.14687 36.5154 1.48438 34.8526 1.48438 32.8038C1.48438 31.809 1.87031 30.8811 2.56797 30.1759C3.27305 29.4781 4.20078 29.0921 5.19531 29.0921H32.8047C34.8531 29.0921 36.5156 30.7549 36.5156 32.8038C36.5156 33.7985 36.1297 34.7264 35.432 35.4316Z" />
<path d="M24.9375 32.0615H13.0625C12.6543 32.0615 12.3203 32.3956 12.3203 32.8039C12.3203 33.2121 12.6543 33.5462 13.0625 33.5462H24.9375C25.3457 33.5462 25.6797 33.2121 25.6797 32.8039C25.6797 32.3956 25.3457 32.0615 24.9375 32.0615Z" />
</svg>
