<svg width="47" height="47" viewBox="0 0 47 47" xmlns="http://www.w3.org/2000/svg">
<path d="M45.9179 45.9281V8.02487L37.8164 0H3.06119V3.47648L0 0.444226V47H47L45.9179 45.9281ZM38.2649 2.58803L43.3051 7.58065H38.2649V2.58803ZM4.59179 1.51613H36.7343V9.09677H44.3873V44.412L29.3981 29.5645H35.2037V23.5H32.9078V17.4355H35.281C35.6369 19.1631 37.182 20.4677 39.0302 20.4677C41.1401 20.4677 42.8567 18.7674 42.8567 16.6774C42.8567 14.5874 41.1401 12.8871 39.0302 12.8871C37.1828 12.8871 35.6369 14.1917 35.281 15.9194H32.9078V9.85484H35.2037V3.79032H29.0813V6.06452H15.306V3.79032H9.18357V9.541L4.59179 4.99261V1.51613ZM10.7142 8.33871V5.30645H13.7754V8.33871H10.7142ZM11.4795 9.85484V11.8152L9.50041 9.85484H11.4795ZM13.0101 9.85484H15.306V7.58065H29.0813V9.85484H31.3772V15.9194H29.0813V17.4355H31.3772V23.5H29.0813V25.7742H25.5717L13.0101 13.3313V9.85484ZM30.6119 8.33871V5.30645H33.6731V8.33871H30.6119ZM33.6731 25.0161V28.0484H30.6119V25.0161H33.6731ZM29.0813 27.2903V29.2507L27.1023 27.2903H29.0813ZM36.7343 16.6774C36.7343 15.4236 37.7644 14.4032 39.0302 14.4032C40.296 14.4032 41.3261 15.4236 41.3261 16.6774C41.3261 17.9313 40.296 18.9516 39.0302 18.9516C37.7644 18.9516 36.7343 17.9313 36.7343 16.6774ZM38.2649 45.4839V42.4516H36.7343V45.4839H35.2037V42.4516H33.6731V45.4839H32.1425V40.9355H30.6119V45.4839H29.0813V42.4516H27.5507V45.4839H26.0201V42.4516H24.4895V45.4839H22.9589V40.9355H21.4283V45.4839H19.8977V42.4516H18.3671V45.4839H16.8366V42.4516H15.306V45.4839H13.7754V40.9355H12.2448V45.4839H10.7142V42.4516H9.18357V45.4839H7.65298V42.4516H6.12238V45.4839H4.59179V40.9355H3.06119V45.4839H1.5306V4.10416L43.3051 45.4839H38.2649Z" />
<path d="M8.41828 20.9121V38.6614H26.337L8.41828 20.9121ZM9.94888 24.572L22.6421 37.1453H9.94888V24.572Z" />
<path d="M25.9428 17.4351H27.5507V15.919H25.9428C25.587 14.1913 24.0418 12.8867 22.1936 12.8867C20.0837 12.8867 18.3671 14.5871 18.3671 16.677C18.3671 18.767 20.0837 20.4674 22.1936 20.4674C24.0411 20.4674 25.587 19.1627 25.9428 17.4351ZM22.1936 18.9512C20.9278 18.9512 19.8977 17.9309 19.8977 16.677C19.8977 15.4232 20.9278 14.4028 22.1936 14.4028C23.4594 14.4028 24.4895 15.4232 24.4895 16.677C24.4895 17.9309 23.4594 18.9512 22.1936 18.9512Z" />
</svg>
