<svg width="34" height="33" viewBox="0 0 34 33" fill="none" xmlns="http://www.w3.org/2000/svg">
<path d="M32.2442 22.2249C32.5363 21.4112 31.9306 20.6505 31.3448 19.9149C31.1334 19.6493 30.793 19.2219 30.7092 19.0049C30.8611 18.8371 31.3081 18.5634 31.5862 18.3934C32.3972 17.8971 33.2357 17.3841 33.2357 16.5C33.2357 15.6159 32.3972 15.1029 31.5862 14.6066C31.3079 14.4366 30.8609 14.1629 30.7092 13.9951C30.7928 13.7781 31.1334 13.3507 31.3448 13.0847C31.9306 12.3492 32.5363 11.5888 32.2442 10.7751C31.9481 9.95058 30.992 9.76132 30.0673 9.57837C29.7441 9.51431 29.224 9.41134 29.0239 9.30393C29.0305 9.0728 29.204 8.55798 29.3117 8.23796C29.6143 7.33906 29.9272 6.41015 29.3752 5.74348C28.9649 5.24789 28.3192 5.24789 28.107 5.24789C27.7362 5.24789 27.33 5.31236 26.937 5.37494C26.6007 5.42827 26.253 5.48345 25.9988 5.48345C25.9336 5.48345 25.8871 5.47977 25.8549 5.47568C25.7853 5.25532 25.7757 4.71824 25.7697 4.3838C25.7525 3.43082 25.7348 2.44563 24.9883 2.00746C24.7969 1.89524 24.5791 1.8382 24.3411 1.8382C23.7716 1.8382 23.1938 2.16118 22.5821 2.50301C22.2899 2.66637 21.8191 2.92935 21.5921 2.97638C21.4541 2.79524 21.2648 2.29745 21.1468 1.9882C20.8066 1.09411 20.4549 0.170025 19.5992 0.0181666C19.5309 0.00591667 19.4622 0 19.3928 0C18.6507 0 18.0768 0.667814 17.5219 1.31375C17.2963 1.57597 16.9316 2.00041 16.7357 2.11597C16.5398 2.00041 16.1751 1.57597 15.9498 1.31375C15.3947 0.667814 14.8207 0 14.0784 0C14.0092 0 13.9402 0.00591667 13.8719 0.0181666C13.0166 0.170025 12.6648 1.09411 12.3247 1.98782C12.2067 2.29745 12.0173 2.79524 11.8793 2.97638C11.6525 2.92935 11.1815 2.66599 10.8892 2.50267C10.2776 2.1608 9.69967 1.83782 9.13033 1.83782C8.89255 1.83782 8.6749 1.89448 8.48353 2.00671C7.73703 2.44487 7.7193 3.43044 7.70214 4.38342C7.69612 4.71752 7.68643 5.25494 7.61687 5.4753C7.58475 5.47939 7.53819 5.48307 7.47296 5.48307C7.21862 5.48307 6.87093 5.42789 6.53457 5.37456C6.14179 5.31198 5.73546 5.24755 5.36477 5.24755C5.15257 5.24755 4.5069 5.24755 4.09657 5.7431C3.54439 6.4094 3.85737 7.33906 4.15992 8.23758C4.26766 8.55761 4.44115 9.0728 4.44755 9.30393C4.24758 9.41134 3.72715 9.51431 3.40377 9.57837C2.47922 9.76132 1.52329 9.95096 1.22729 10.7751C0.935096 11.5888 1.54079 12.3492 2.12659 13.0847C2.33808 13.3507 2.67862 13.7781 2.76225 13.9951C2.61052 14.1629 2.16332 14.4366 1.88519 14.6066C1.07425 15.1029 0.235718 15.6159 0.235718 16.5C0.235718 17.3841 1.07425 17.8971 1.88519 18.3934C2.16351 18.5634 2.61052 18.8371 2.76225 19.0049C2.67862 19.2219 2.33808 19.6493 2.12659 19.9153C1.54079 20.6508 0.935096 21.4112 1.22729 22.2249C1.52329 23.0494 2.47941 23.2387 3.40396 23.4216C3.72734 23.4857 4.24721 23.5887 4.44736 23.6961C4.44078 23.9272 4.26748 24.442 4.15977 24.762C3.85718 25.6606 3.5442 26.5902 4.09638 27.2565C4.50671 27.7521 5.15242 27.7521 5.36458 27.7521C5.73527 27.7521 6.1416 27.6876 6.53457 27.6251C6.87075 27.5717 7.21843 27.5165 7.47263 27.5165C7.53781 27.5165 7.58437 27.5202 7.6165 27.5243C7.68609 27.7447 7.69574 28.2818 7.7018 28.6162C7.71893 29.5692 7.73666 30.5544 8.48316 30.9925C8.67452 31.1048 8.89236 31.1618 9.13051 31.1618C9.69986 31.1618 10.2776 30.8388 10.8894 30.497C11.1815 30.3336 11.6521 30.0707 11.8793 30.0236C12.0173 30.2048 12.2067 30.7026 12.3247 31.0118C12.6648 31.9059 13.0166 32.83 13.8723 32.9818C13.9406 32.9941 14.0092 33 14.0786 33C14.8207 33 15.3947 32.3322 15.9496 31.6863C16.1751 31.424 16.5398 30.9996 16.7357 30.884C16.9316 30.9996 17.2963 31.424 17.5217 31.6863C18.0768 32.3322 18.6507 33 19.3928 33C19.3928 33 19.393 33 19.3932 33C19.4624 33 19.5312 32.9941 19.5995 32.9818C20.4549 32.83 20.8066 31.9059 21.1468 31.0122C21.2648 30.7026 21.4541 30.2048 21.5921 30.0236C21.819 30.0707 22.2899 30.334 22.5821 30.4974C23.1938 30.8392 23.7718 31.1622 24.3411 31.1622C24.5789 31.1622 24.7965 31.1055 24.9879 30.9933C25.7344 30.5551 25.7521 29.5696 25.7693 28.6166C25.7753 28.2825 25.785 27.7451 25.8546 27.5247C25.8867 27.5206 25.9333 27.5169 25.9985 27.5169C26.2528 27.5169 26.6005 27.5721 26.9369 27.6254C27.3297 27.688 27.736 27.7525 28.1067 27.7525C28.3189 27.7525 28.9645 27.7525 29.3749 27.2569C29.9271 26.5906 29.6141 25.6609 29.3115 24.7624C29.2038 24.4424 29.0303 23.9272 29.0239 23.6961C29.2239 23.5887 29.7443 23.4857 30.0677 23.4216C30.9922 23.2387 31.9481 23.049 32.2442 22.2249ZM27.7117 22.9242C27.3344 23.5853 27.6198 24.4328 27.8957 25.2524C27.992 25.5384 28.1408 25.9802 28.1753 26.2339C28.1551 26.2347 28.1324 26.2354 28.1067 26.2354C27.8525 26.2354 27.5046 26.1802 27.1682 26.1269C26.7755 26.0643 26.3692 25.9999 25.9985 25.9999C25.5176 25.9999 25.1515 26.1124 24.8791 26.3447C24.3053 26.8336 24.2893 27.7258 24.2738 28.5892C24.2683 28.8936 24.2597 29.3659 24.2056 29.617C23.9659 29.5384 23.5638 29.314 23.3043 29.1688C22.6883 28.8243 22.1065 28.4992 21.531 28.4992C21.3683 28.4992 21.2134 28.5258 21.0708 28.5784C20.3714 28.8366 20.0562 29.6647 19.7513 30.4658C19.6419 30.7529 19.4725 31.1981 19.3351 31.4163C19.1392 31.2592 18.8417 30.9133 18.6494 30.6896C18.0834 30.0307 17.4981 29.3495 16.7357 29.3495C15.9733 29.3495 15.3881 30.0307 14.8218 30.6896C14.6295 30.9133 14.3322 31.2592 14.1363 31.4159C13.999 31.1981 13.8295 30.7529 13.7201 30.4655C13.4152 29.6647 13.1 28.8366 12.401 28.5788C12.258 28.5258 12.1032 28.4992 11.9404 28.4992C11.3651 28.4992 10.7833 28.8243 10.1675 29.1684C9.90768 29.3133 9.50539 29.5381 9.26545 29.6166C9.21141 29.3655 9.20299 28.8933 9.19734 28.5884C9.18182 27.7255 9.16574 26.8332 8.5918 26.3443C8.31954 26.1121 7.95341 25.9995 7.47263 25.9995C7.1019 25.9995 6.6958 26.0639 6.30301 26.1265C5.96665 26.1799 5.61896 26.235 5.36458 26.235C5.33885 26.235 5.31619 26.2343 5.29592 26.2336C5.33044 25.9798 5.47928 25.538 5.5755 25.2521C5.85143 24.4324 6.13685 23.585 5.75958 22.9238C5.3856 22.2683 4.52406 22.0979 3.69065 21.9327C3.39446 21.8742 2.93536 21.7831 2.70054 21.6849C2.81849 21.4609 3.10519 21.1009 3.29038 20.8683C3.82925 20.1912 4.38655 19.4916 4.25599 18.7345C4.12798 17.9937 3.38077 17.5363 2.65798 17.0941C2.39156 16.9311 1.97539 16.6767 1.79226 16.5C1.97539 16.3233 2.39156 16.0689 2.65798 15.9055C3.38058 15.4637 4.12779 15.0063 4.25599 14.2655C4.38655 13.5085 3.82925 12.8088 3.29038 12.1317C3.10519 11.8991 2.81849 11.5391 2.70054 11.3151C2.93536 11.2169 3.39427 11.1258 3.69046 11.0673C4.52388 10.9021 5.38579 10.7313 5.75977 10.0758C6.13703 9.41467 5.85161 8.56724 5.57569 7.7476C5.47947 7.46164 5.33062 7.01979 5.2961 6.7661C5.31638 6.76534 5.33904 6.76462 5.36477 6.76462C5.61896 6.76462 5.96684 6.8198 6.30319 6.87313C6.69598 6.93571 7.10228 7.00014 7.47296 7.00014C7.95379 7.00014 8.31991 6.88758 8.59236 6.65535C9.16612 6.16644 9.18216 5.27421 9.19772 4.41084C9.20318 4.10641 9.21174 3.63414 9.26582 3.38303C9.50576 3.46158 9.90749 3.68603 10.1671 3.83121C10.7831 4.17566 11.3649 4.50084 11.9404 4.50084C12.1032 4.50084 12.258 4.47418 12.4006 4.42158C13.1 4.16345 13.4152 3.33528 13.7201 2.53415C13.8295 2.24709 13.999 1.8019 14.1363 1.58412C14.3322 1.7408 14.6295 2.08673 14.822 2.31042C15.3881 2.96932 15.9733 3.65045 16.7357 3.65045C17.4981 3.65045 18.0834 2.96932 18.6494 2.31042C18.8419 2.08673 19.1392 1.7408 19.3351 1.58412C19.4725 1.8019 19.6419 2.24709 19.7513 2.53449C20.0562 3.33528 20.3714 4.16345 21.0704 4.4212C21.2134 4.47418 21.3683 4.50084 21.531 4.50084C22.1064 4.50084 22.6882 4.17566 23.3039 3.83159C23.5638 3.68675 23.966 3.46192 24.206 3.38341C24.26 3.63452 24.2684 4.10675 24.2741 4.4116C24.2896 5.27455 24.3057 6.16682 24.8796 6.65569C25.1519 6.88796 25.518 7.00052 25.9988 7.00052C26.3695 7.00052 26.7756 6.93608 27.1684 6.87385C27.5048 6.82014 27.8527 6.76496 28.107 6.76496C28.1326 6.76496 28.1554 6.76572 28.1755 6.76644C28.141 7.02017 27.9922 7.46201 27.8961 7.7476C27.62 8.56724 27.3346 9.41467 27.7117 10.0762C28.0858 10.7317 28.9474 10.9021 29.7806 11.0673C30.077 11.1258 30.5361 11.2169 30.7709 11.3151C30.6529 11.5391 30.3662 11.8991 30.1811 12.1317C29.6422 12.8088 29.0849 13.5085 29.2154 14.2655C29.3435 15.0063 30.0907 15.4637 30.8135 15.9059C31.0799 16.0689 31.496 16.3233 31.6792 16.5C31.496 16.6767 31.0799 16.9311 30.8135 17.0945C30.0909 17.5363 29.3436 17.9937 29.2154 18.7345C29.0849 19.4912 29.642 20.1912 30.1809 20.8679C30.3662 21.1005 30.6529 21.4609 30.7709 21.6849C30.5361 21.7831 30.0772 21.8742 29.781 21.9327C28.9476 22.0979 28.0857 22.2687 27.7117 22.9242Z" fill="#FDFCFF"/>
<path d="M20.5991 10.5536C20.2527 10.3262 19.7894 10.4262 19.5647 10.7777L13.0149 21.0309C12.7903 21.3827 12.8893 21.8524 13.236 22.0802C13.3617 22.1628 13.5027 22.202 13.642 22.202C13.887 22.202 14.1273 22.0802 14.2705 21.8561L20.8203 11.6029C21.0449 11.251 20.9459 10.7814 20.5991 10.5536Z" fill="#FDFCFF"/>
<path d="M15.0983 13.7537C15.0983 12.3381 13.9581 11.1903 12.5513 11.1903C11.1445 11.1903 10.0041 12.3381 10.0041 13.7537C10.0041 15.1689 11.1445 16.3171 12.5513 16.3171C13.9581 16.3171 15.0983 15.1689 15.0983 13.7537ZM12.5513 14.8C11.9717 14.8 11.5 14.3308 11.5 13.7537C11.5 13.1766 11.9717 12.7074 12.5513 12.7074C13.1309 12.7074 13.6024 13.1766 13.6024 13.7537C13.6024 14.3308 13.1309 14.8 12.5513 14.8Z" fill="#FDFCFF"/>
<path d="M20.9202 16.683C19.5134 16.683 18.3732 17.8312 18.3732 19.2464C18.3732 20.662 19.5134 21.8098 20.9202 21.8098C22.327 21.8098 23.4674 20.662 23.4674 19.2464C23.4674 17.8312 22.327 16.683 20.9202 16.683ZM20.9202 20.2927C20.3406 20.2927 19.8691 19.8234 19.8691 19.2464C19.8691 18.6693 20.3406 18.2001 20.9202 18.2001C21.4998 18.2001 21.9714 18.6693 21.9714 19.2464C21.9714 19.8234 21.4998 20.2927 20.9202 20.2927Z" fill="#FDFCFF"/>
</svg>
