<svg width="38" height="37" viewBox="0 0 38 37" fill="none" xmlns="http://www.w3.org/2000/svg">
<path d="M37.4993 16.7201H36.9988C36.9988 13.1089 34.4947 9.95664 30.9926 9.06384V8.80614C30.9926 7.98803 30.3189 7.32227 29.4911 7.32227H28.49C27.6622 7.32227 26.9885 7.98803 26.9885 8.80614V9.06384C23.4863 9.95664 20.9822 13.1089 20.9822 16.7201H20.4817C20.2054 16.7201 19.9812 16.9417 19.9812 17.2148C19.9812 17.4878 20.2054 17.7094 20.4817 17.7094H21.5063C21.67 20.4773 23.182 22.8649 25.3638 24.1395H24.9864C22.5028 24.1395 20.4817 26.1368 20.4817 28.5911V36.5051C20.4817 36.7782 20.706 36.9998 20.9822 36.9998H24.4859H33.4952H36.9988C37.2751 36.9998 37.4993 36.7782 37.4993 36.5051V28.5911C37.4993 26.1368 35.4783 24.1395 32.9947 24.1395H32.6173C34.799 22.8649 36.3111 20.4773 36.4748 17.7094H37.4993C37.7756 17.7094 37.9999 17.4878 37.9999 17.2148C37.9999 16.9417 37.7756 16.7201 37.4993 16.7201ZM35.9978 16.7201H30.9926V10.0828C33.9266 10.9459 35.9978 13.6456 35.9978 16.7201ZM27.9895 8.80614C27.9895 8.5336 28.2142 8.31152 28.49 8.31152H29.4911C29.7668 8.31152 29.9916 8.5336 29.9916 8.80614V9.44965V16.7201H27.9895V9.44965V8.80614ZM26.9885 10.0828V16.7201H21.9833C21.9833 13.6456 24.0544 10.9459 26.9885 10.0828ZM21.4828 28.5911C21.4828 26.8506 22.7906 25.4097 24.4859 25.1683V28.0965C24.2096 28.0965 23.9853 28.3181 23.9853 28.5911V36.0105H21.4828V28.5911ZM24.9864 36.0105V29.0858H32.9947V36.0105H24.9864ZM36.4983 28.5911V36.0105H33.9957V28.5911C33.9957 28.3181 33.7715 28.0965 33.4952 28.0965V25.1683C35.1905 25.4097 36.4983 26.8506 36.4983 28.5911ZM32.4942 25.1288V28.0965H25.4869V25.1288H32.4942ZM28.9905 24.1395C25.559 24.1395 22.7396 21.2974 22.5003 17.7094H27.489H30.4921H35.4808C35.2415 21.2974 32.4221 24.1395 28.9905 24.1395Z" fill="white"/>
<path d="M30.9929 30.0752H26.9888C26.7125 30.0752 26.4883 30.2968 26.4883 30.5698V32.5483C26.4883 33.912 27.6109 35.0214 28.9909 35.0214C30.3708 35.0214 31.4935 33.912 31.4935 32.5483V30.5698C31.4935 30.2968 31.2692 30.0752 30.9929 30.0752ZM30.4924 32.5483C30.4924 33.3664 29.8187 34.0322 28.9909 34.0322C28.163 34.0322 27.4893 33.3664 27.4893 32.5483V31.0644H30.4924V32.5483Z" fill="white"/>
<path d="M0.876307 0H15.4181C15.902 0 16.2944 0.379864 16.2944 0.847773V11.1932C16.2944 11.6616 15.902 12.0414 15.4181 12.0414H13.7282L14.7909 15.3872L9.80724 12.1751C9.66457 12.0842 9.49722 12.0361 9.32655 12.0361H0.876307C0.392649 12.0361 7.62939e-05 11.6563 7.62939e-05 11.1884V0.847773C7.62939e-05 0.379864 0.392631 0 0.876307 0ZM1.01843 11.0744H9.3265C9.70097 11.0744 10.0639 11.1793 10.381 11.3808L12.9887 13.0613L12.7526 12.3179L12.3595 11.0797H13.7283H15.2762V0.961754H1.01848V11.0744H1.01843ZM13.1415 2.81638H2.97997V3.77804H13.1415V2.81638ZM13.1415 5.55577H2.97997V6.51743H13.1415V5.55577ZM13.1415 8.25235H2.97997V9.21404H13.1415V8.25235Z" fill="white"/>
</svg>
