<svg width="69" height="52" viewBox="0 0 69 52" fill="none" xmlns="http://www.w3.org/2000/svg">
<path fill-rule="evenodd" clip-rule="evenodd" d="M54.8269 3.1367C55.0317 3.31572 55.1338 3.53394 55.1338 3.7898V14.1626L68.5182 22.9219C68.9523 23.2032 69.0935 23.575 68.9401 24.036C68.812 24.4971 68.4929 24.7276 67.9813 24.7276H56.0158V50.8134C56.0158 51.0692 55.9015 51.2997 55.6714 51.5049C55.4927 51.71 55.2749 51.8122 55.0187 51.8122C54.7633 51.8122 54.5332 51.71 54.3292 51.5049C54.1244 51.3258 54.0224 51.0946 54.0224 50.8134V23.7671C54.0224 23.4851 54.1251 23.2416 54.3292 23.0372C54.5339 22.8582 54.7633 22.7683 55.0187 22.7683H64.6839L53.6005 15.5073C53.319 15.3282 53.1786 15.0593 53.1786 14.7005V4.78867H47.1568V9.47642C47.1568 9.83448 46.9781 10.1034 46.6199 10.2832C46.2877 10.4884 45.9556 10.4753 45.6227 10.2448L34.501 2.98379L4.28131 22.769H13.9833C14.2901 22.769 14.5333 22.8582 14.712 23.038C14.8907 23.2431 14.9804 23.4859 14.9804 23.7679V50.8141C14.9804 51.0953 14.8914 51.3266 14.712 51.5056C14.5333 51.7108 14.2901 51.813 13.9833 51.813C13.7279 51.813 13.5108 51.7108 13.3313 51.5056C13.1265 51.3005 13.0245 51.07 13.0245 50.8141V24.7283H0.982367C0.496846 24.7283 0.190039 24.4978 0.0627144 24.0368C-0.0906889 23.5758 0.0374029 23.2047 0.446223 22.9227L33.9641 1.02448C34.3223 0.742491 34.6805 0.742491 35.0379 1.02448L45.2009 7.63236V3.79057C45.2009 3.53471 45.2906 3.31649 45.4693 3.13747C45.6749 2.93231 45.9173 2.83012 46.198 2.83012H54.1374C54.4181 2.82935 54.6482 2.93154 54.8269 3.1367ZM46.8116 18.6575C46.659 19.5281 46.5815 20.527 46.5815 21.6541C46.5815 23.1909 46.7226 25.0349 47.0034 27.1863C47.2596 29.5421 47.3869 31.297 47.3869 32.4496C47.3869 36.8039 46.0063 40.1969 43.2458 42.6303C40.6379 44.8586 37.4295 45.9735 33.6197 45.9735C33.0828 45.9735 32.2383 45.8836 31.0878 45.7038C30.8324 45.6784 30.6276 45.5501 30.4742 45.3196C30.3468 45.0891 30.2954 44.8332 30.3208 44.5512C30.3721 44.2954 30.4995 44.0902 30.7043 43.9365C30.9351 43.7829 31.1775 43.7314 31.4329 43.7829C32.3027 43.9365 33.0314 44.0134 33.6197 44.0134C36.9685 44.0134 39.7428 43.066 41.9418 41.1704C44.2682 39.0705 45.4318 36.1631 45.4318 32.4488C45.4318 31.4499 45.3175 29.7726 45.0866 27.4161C44.7806 25.2132 44.6264 23.2923 44.6264 21.6534V20.5393L44.2045 20.7313C43.0034 21.2692 41.3152 21.8455 39.1414 22.4601C36.5083 23.1517 34.8722 23.6388 34.2333 23.92C30.9351 25.0472 28.3396 26.5063 26.4481 28.2997C24.5305 30.0669 23.5718 31.9878 23.5718 34.0624C23.5718 36.1884 24.2882 38.3652 25.7194 40.5934C28.226 36.3674 31.7029 32.448 36.1516 28.8375C36.3564 28.6324 36.5988 28.5686 36.8803 28.6454C37.1357 28.6708 37.3528 28.786 37.5322 28.9912C37.7117 29.1963 37.7877 29.4269 37.7624 29.6827C37.7117 29.9386 37.5836 30.1691 37.3788 30.3742C32.6494 34.216 29.0828 38.3782 26.679 42.8601L26.6406 42.8985C25.5415 44.8962 24.6978 46.9062 24.1095 48.9301C23.9814 49.365 23.6753 49.5832 23.189 49.5832H22.883C22.6268 49.5064 22.4481 49.3527 22.3461 49.1222C22.218 48.8917 22.1927 48.6228 22.2686 48.3154C22.7802 46.3945 23.5725 44.4483 24.6471 42.4759C22.6268 39.6583 21.6174 36.8538 21.6174 34.0624C21.6174 31.4499 22.7679 29.0419 25.069 26.8398C27.1652 24.9189 29.9909 23.3315 33.5445 22.076C34.389 21.7433 36.0887 21.2308 38.6452 20.5393C40.7414 19.976 42.3391 19.4382 43.439 18.9257C44.1033 18.6437 44.6785 18.2595 45.1648 17.7732C45.523 17.4658 45.9188 17.4274 46.3537 17.6579C46.7602 17.8892 46.9144 18.2219 46.8116 18.6575ZM43.2833 34.601C43.4114 34.8315 43.4367 35.0874 43.36 35.3693C42.0822 39.5185 39.0141 41.7083 34.1558 41.9388H34.0791C33.8237 41.9388 33.6067 41.8358 33.4272 41.6315C33.2224 41.4778 33.1204 41.2726 33.1204 41.0168C33.0951 40.7609 33.184 40.5296 33.3888 40.3253C33.5675 40.0947 33.7861 39.9795 34.0416 39.9795C38.0047 39.8005 40.4975 38.0586 41.52 34.7547C41.5967 34.4988 41.7501 34.3198 41.9802 34.2168C42.2103 34.0885 42.4534 34.0631 42.7088 34.14C42.9896 34.2168 43.1813 34.3697 43.2833 34.601ZM16.2844 18.5807C16.3357 18.2987 16.4761 18.0943 16.7062 17.966L31.6247 8.20786C31.8548 8.05419 32.111 8.00271 32.3917 8.05419C32.6479 8.10567 32.8396 8.24628 32.967 8.47679C33.1204 8.68194 33.1718 8.9378 33.1204 9.24515C33.0697 9.50101 32.9286 9.6931 32.6985 9.82142L17.78 19.5796C17.6519 19.6825 17.4732 19.7332 17.2431 19.7332C16.8596 19.7332 16.5912 19.5919 16.4378 19.3106C16.2844 19.1055 16.2337 18.8619 16.2844 18.5807Z" fill="#289319"/>
</svg>
