<svg width="63" height="63" viewBox="0 0 63 63" fill="none" xmlns="http://www.w3.org/2000/svg">
<path d="M62.1702 28.8309H61.3404C61.3404 22.7796 57.1889 17.4975 51.3827 16.0014V15.5696C51.3827 14.1987 50.2658 13.0831 48.8933 13.0831H47.2337C45.8612 13.0831 44.7442 14.1987 44.7442 15.5696V16.0014C38.9381 17.4975 34.7866 22.7796 34.7866 28.8309H33.9568C33.4987 28.8309 33.127 29.2022 33.127 29.6597C33.127 30.1172 33.4987 30.4886 33.9568 30.4886H35.6554C35.9267 35.1267 38.4336 39.1275 42.0507 41.2634H41.425C37.3075 41.2634 33.9568 44.6102 33.9568 48.7228V61.9841C33.9568 62.4416 34.3285 62.813 34.7866 62.813H40.5952H55.5317H61.3404C61.7984 62.813 62.1702 62.4416 62.1702 61.9841V48.7228C62.1702 44.6102 58.8194 41.2634 54.7019 41.2634H54.0763C57.6934 39.1275 60.2002 35.1267 60.4716 30.4886H62.1702C62.6282 30.4886 63 30.1172 63 29.6597C63 29.2022 62.6282 28.8309 62.1702 28.8309ZM59.6808 28.8309H51.3827V17.7088C56.247 19.1551 59.6808 23.6789 59.6808 28.8309ZM46.4039 15.5696C46.4039 15.1129 46.7764 14.7408 47.2337 14.7408H48.8933C49.3505 14.7408 49.7231 15.1129 49.7231 15.5696V16.6479V28.8309H46.4039V16.6479V15.5696ZM44.7442 17.7088V28.8309H36.4462C36.4462 23.6789 39.8799 19.1551 44.7442 17.7088ZM35.6164 48.7228C35.6164 45.8062 37.7847 43.3918 40.5952 42.9873V47.894C40.1372 47.894 39.7654 48.2653 39.7654 48.7228V61.1553H35.6164V48.7228ZM41.425 61.1553V49.5517H54.7019V61.1553H41.425ZM60.5106 48.7228V61.1553H56.3615V48.7228C56.3615 48.2653 55.9898 47.894 55.5317 47.894V42.9873C58.3423 43.3918 60.5106 45.8062 60.5106 48.7228ZM53.8721 42.921V47.894H42.2548V42.921H53.8721ZM48.0635 41.2634C42.3743 41.2634 37.7 36.5009 37.3034 30.4886H45.5741H50.5529H58.8236C58.4269 36.5009 53.7526 41.2634 48.0635 41.2634Z" fill="#289319"/>
<path d="M51.3827 51.2094H44.7442C44.2862 51.2094 43.9144 51.5807 43.9144 52.0382V55.3535C43.9144 57.6386 45.7757 59.4977 48.0635 59.4977C50.3512 59.4977 52.2125 57.6386 52.2125 55.3535V52.0382C52.2125 51.5807 51.8407 51.2094 51.3827 51.2094ZM50.5529 55.3535C50.5529 56.7244 49.436 57.84 48.0635 57.84C46.691 57.84 45.574 56.7244 45.574 55.3535V52.867H50.5529V55.3535Z" fill="#289319"/>
<path d="M1.45271 0.812988H25.5614C26.3637 0.812988 27.0143 1.44952 27.0143 2.23358V19.5692C27.0143 20.354 26.3637 20.9904 25.5615 20.9904H22.7598L24.5216 26.5969L16.2593 21.2145C16.0227 21.0623 15.7453 20.9816 15.4623 20.9816H1.45271C0.65086 20.9816 1.33514e-05 20.3451 1.33514e-05 19.5611V2.23358C1.33514e-05 1.44952 0.650829 0.812988 1.45271 0.812988ZM1.68833 19.3701H15.4622C16.0831 19.3701 16.6848 19.5459 17.2106 19.8835L21.5338 22.6995L21.1423 21.4538L20.4906 19.379H22.7599H25.3262V2.42458H1.68842V19.3701H1.68833ZM21.787 5.53233H4.94036V7.14376H21.787V5.53233ZM21.787 10.1227H4.94036V11.7341H21.787V10.1227ZM21.787 14.6413H4.94036V16.2527H21.787V14.6413Z" fill="#289319"/>
</svg>
