<svg width="54" height="54" viewBox="0 0 54 54" fill="none" xmlns="http://www.w3.org/2000/svg">
<path d="M0.9 53.813H40.5C40.7387 53.813 40.9676 53.7183 41.1364 53.5499C41.3052 53.3814 41.4 53.1529 41.4 52.9147V1.71129C41.4 1.47305 41.3052 1.24456 41.1364 1.0761C40.9676 0.907631 40.7387 0.812988 40.5 0.812988H0.9C0.661305 0.812988 0.432387 0.907631 0.263604 1.0761C0.0948211 1.24456 0 1.47305 0 1.71129V52.9147C0 53.1529 0.0948211 53.3814 0.263604 53.5499C0.432387 53.7183 0.661305 53.813 0.9 53.813ZM1.8 2.6096H39.6V52.0164H1.8V2.6096Z" fill="#289319"/>
<path d="M16.2 9.79602C15.9613 9.79602 15.7324 9.89066 15.5636 10.0591C15.3948 10.2276 15.3 10.4561 15.3 10.6943C15.3 10.9326 15.3948 11.1611 15.5636 11.3295C15.7324 11.498 15.9613 11.5926 16.2 11.5926H25.2C25.4387 11.5926 25.6676 11.498 25.8364 11.3295C26.0052 11.1611 26.1 10.9326 26.1 10.6943C26.1 10.4561 26.0052 10.2276 25.8364 10.0591C25.6676 9.89066 25.4387 9.79602 25.2 9.79602H16.2Z" fill="#289319"/>
<path d="M8.10001 22.3723H13.5C13.7387 22.3723 13.9676 22.2777 14.1364 22.1092C14.3052 21.9407 14.4 21.7122 14.4 21.474C14.4 21.2357 14.3052 21.0073 14.1364 20.8388C13.9676 20.6703 13.7387 20.5757 13.5 20.5757H8.10001C7.86132 20.5757 7.6324 20.6703 7.46362 20.8388C7.29483 21.0073 7.20001 21.2357 7.20001 21.474C7.20001 21.7122 7.29483 21.9407 7.46362 22.1092C7.6324 22.2777 7.86132 22.3723 8.10001 22.3723Z" fill="#289319"/>
<path d="M36.9 20.5757H17.1C16.8613 20.5757 16.6324 20.6703 16.4636 20.8388C16.2948 21.0073 16.2 21.2357 16.2 21.474C16.2 21.7122 16.2948 21.9407 16.4636 22.1092C16.6324 22.2777 16.8613 22.3723 17.1 22.3723H36.9C37.1387 22.3723 37.3676 22.2777 37.5364 22.1092C37.7052 21.9407 37.8 21.7122 37.8 21.474C37.8 21.2357 37.7052 21.0073 37.5364 20.8388C37.3676 20.6703 37.1387 20.5757 36.9 20.5757Z" fill="#289319"/>
<path d="M36.9 24.1689H4.49998C4.26128 24.1689 4.03236 24.2636 3.86358 24.4321C3.6948 24.6005 3.59998 24.829 3.59998 25.0673C3.59998 25.3055 3.6948 25.534 3.86358 25.7024C4.03236 25.8709 4.26128 25.9656 4.49998 25.9656H36.9C37.1387 25.9656 37.3676 25.8709 37.5364 25.7024C37.7052 25.534 37.8 25.3055 37.8 25.0673C37.8 24.829 37.7052 24.6005 37.5364 24.4321C37.3676 24.2636 37.1387 24.1689 36.9 24.1689Z" fill="#289319"/>
<path d="M4.49998 29.5588H27.9C28.1387 29.5588 28.3676 29.4641 28.5364 29.2956C28.7052 29.1272 28.8 28.8987 28.8 28.6605C28.8 28.4222 28.7052 28.1937 28.5364 28.0253C28.3676 27.8568 28.1387 27.7621 27.9 27.7621H4.49998C4.26128 27.7621 4.03236 27.8568 3.86358 28.0253C3.6948 28.1937 3.59998 28.4222 3.59998 28.6605C3.59998 28.8987 3.6948 29.1272 3.86358 29.2956C4.03236 29.4641 4.26128 29.5588 4.49998 29.5588Z" fill="#289319"/>
<path d="M36.9 27.7621H31.5C31.2613 27.7621 31.0324 27.8568 30.8636 28.0253C30.6948 28.1937 30.6 28.4222 30.6 28.6605C30.6 28.8987 30.6948 29.1272 30.8636 29.2956C31.0324 29.4641 31.2613 29.5588 31.5 29.5588H36.9C37.1387 29.5588 37.3676 29.4641 37.5364 29.2956C37.7052 29.1272 37.8 28.8987 37.8 28.6605C37.8 28.4222 37.7052 28.1937 37.5364 28.0253C37.3676 27.8568 37.1387 27.7621 36.9 27.7621Z" fill="#289319"/>
<path d="M36.9 31.3553H20.7C20.4613 31.3553 20.2324 31.45 20.0636 31.6185C19.8948 31.7869 19.8 32.0154 19.8 32.2537C19.8 32.4919 19.8948 32.7204 20.0636 32.8889C20.2324 33.0573 20.4613 33.152 20.7 33.152H36.9C37.1387 33.152 37.3676 33.0573 37.5364 32.8889C37.7052 32.7204 37.8 32.4919 37.8 32.2537C37.8 32.0154 37.7052 31.7869 37.5364 31.6185C37.3676 31.45 37.1387 31.3553 36.9 31.3553Z" fill="#289319"/>
<path d="M4.49998 33.152H17.1C17.3387 33.152 17.5676 33.0573 17.7364 32.8889C17.9052 32.7204 18 32.4919 18 32.2537C18 32.0154 17.9052 31.7869 17.7364 31.6185C17.5676 31.45 17.3387 31.3553 17.1 31.3553H4.49998C4.26128 31.3553 4.03236 31.45 3.86358 31.6185C3.6948 31.7869 3.59998 32.0154 3.59998 32.2537C3.59998 32.4919 3.6948 32.7204 3.86358 32.8889C4.03236 33.0573 4.26128 33.152 4.49998 33.152Z" fill="#289319"/>
<path d="M36.9 34.9485H33.3C33.0613 34.9485 32.8323 35.0432 32.6636 35.2117C32.4948 35.3801 32.4 35.6086 32.4 35.8469C32.4 36.0851 32.4948 36.3136 32.6636 36.4821C32.8323 36.6505 33.0613 36.7452 33.3 36.7452H36.9C37.1387 36.7452 37.3676 36.6505 37.5364 36.4821C37.7051 36.3136 37.8 36.0851 37.8 35.8469C37.8 35.6086 37.7051 35.3801 37.5364 35.2117C37.3676 35.0432 37.1387 34.9485 36.9 34.9485Z" fill="#289319"/>
<path d="M4.49998 36.7452H8.99998C9.23867 36.7452 9.46759 36.6505 9.63637 36.4821C9.80515 36.3136 9.89998 36.0851 9.89998 35.8469C9.89998 35.6086 9.80515 35.3801 9.63637 35.2117C9.46759 35.0432 9.23867 34.9485 8.99998 34.9485H4.49998C4.26128 34.9485 4.03236 35.0432 3.86358 35.2117C3.6948 35.3801 3.59998 35.6086 3.59998 35.8469C3.59998 36.0851 3.6948 36.3136 3.86358 36.4821C4.03236 36.6505 4.26128 36.7452 4.49998 36.7452Z" fill="#289319"/>
<path d="M11.7 35.8469C11.7 36.0851 11.7948 36.3136 11.9636 36.4821C12.1324 36.6505 12.3613 36.7452 12.6 36.7452H29.7C29.9387 36.7452 30.1676 36.6505 30.3364 36.4821C30.5052 36.3136 30.6 36.0851 30.6 35.8469C30.6 35.6086 30.5052 35.3801 30.3364 35.2117C30.1676 35.0432 29.9387 34.9485 29.7 34.9485H12.6C12.3613 34.9485 12.1324 35.0432 11.9636 35.2117C11.7948 35.3801 11.7 35.6086 11.7 35.8469Z" fill="#289319"/>
<path d="M36 45.7282H23.4C23.1613 45.7282 22.9324 45.8229 22.7636 45.9913C22.5948 46.1598 22.5 46.3883 22.5 46.6265C22.5 46.8648 22.5948 47.0932 22.7636 47.2617C22.9324 47.4302 23.1613 47.5248 23.4 47.5248H36C36.2387 47.5248 36.4676 47.4302 36.6364 47.2617C36.8052 47.0932 36.9 46.8648 36.9 46.6265C36.9 46.3883 36.8052 46.1598 36.6364 45.9913C36.4676 45.8229 36.2387 45.7282 36 45.7282Z" fill="#289319"/>
<path d="M12.6 7.99946H28.8C29.0387 7.99946 29.2676 7.90482 29.4364 7.73635C29.6052 7.56789 29.7 7.3394 29.7 7.10116C29.7 6.86291 29.6052 6.63442 29.4364 6.46596C29.2676 6.29749 29.0387 6.20285 28.8 6.20285H12.6C12.3613 6.20285 12.1324 6.29749 11.9636 6.46596C11.7948 6.63442 11.7 6.86291 11.7 7.10116C11.7 7.3394 11.7948 7.56789 11.9636 7.73635C12.1324 7.90482 12.3613 7.99946 12.6 7.99946Z" fill="#289319"/>
<path d="M53.1 8.89772H50.4C50.4 7.94474 50.0207 7.03079 49.3456 6.35693C48.6704 5.68307 47.7548 5.3045 46.8 5.3045C45.8452 5.3045 44.9295 5.68307 44.2544 6.35693C43.5793 7.03079 43.2 7.94474 43.2 8.89772V41.2367C43.1964 42.4945 43.4429 43.7405 43.9252 44.9026C44.4075 46.0646 45.1161 47.1196 46.0098 48.0063L46.1637 48.1599C46.3325 48.3284 46.5613 48.423 46.8 48.423C47.0386 48.423 47.2675 48.3284 47.4363 48.1599L47.5902 48.0063C48.4839 47.1196 49.1925 46.0646 49.6748 44.9026C50.1571 43.7405 50.4036 42.4945 50.4 41.2367V10.6943H52.2V18.7791H54V9.79603C54 9.55778 53.9052 9.3293 53.7364 9.16083C53.5676 8.99237 53.3387 8.89772 53.1 8.89772ZM46.8 7.10111C47.2774 7.10111 47.7352 7.2904 48.0728 7.62733C48.4103 7.96426 48.6 8.42123 48.6 8.89772H45C45 8.42123 45.1896 7.96426 45.5272 7.62733C45.8648 7.2904 46.3226 7.10111 46.8 7.10111ZM48.6 40.3384H45V10.6943H48.6V40.3384ZM46.8 46.2097C45.8297 45.0518 45.2216 43.6349 45.0513 42.135H48.5487C48.3784 43.6349 47.7703 45.0518 46.8 46.2097Z" fill="#289319"/>
<path d="M36.9 15.1859H26.1C25.8613 15.1859 25.6324 15.2806 25.4636 15.449C25.2948 15.6175 25.2 15.846 25.2 16.0842C25.2 16.3225 25.2948 16.551 25.4636 16.7194C25.6324 16.8879 25.8613 16.9825 26.1 16.9825H36.9C37.1387 16.9825 37.3676 16.8879 37.5364 16.7194C37.7052 16.551 37.8 16.3225 37.8 16.0842C37.8 15.846 37.7052 15.6175 37.5364 15.449C37.3676 15.2806 37.1387 15.1859 36.9 15.1859Z" fill="#289319"/>
<path d="M25.2 39.4401C25.2 39.2019 25.1052 38.9734 24.9364 38.8049C24.7676 38.6365 24.5387 38.5418 24.3 38.5418H4.49998C4.26128 38.5418 4.03236 38.6365 3.86358 38.8049C3.6948 38.9734 3.59998 39.2019 3.59998 39.4401C3.59998 39.6784 3.6948 39.9068 3.86358 40.0753C4.03236 40.2438 4.26128 40.3384 4.49998 40.3384H24.3C24.5387 40.3384 24.7676 40.2438 24.9364 40.0753C25.1052 39.9068 25.2 39.6784 25.2 39.4401Z" fill="#289319"/>
</svg>
