<svg width="67" height="70" viewBox="0 0 67 70" fill="none" xmlns="http://www.w3.org/2000/svg">
<path d="M66.1702 35.8309H65.3404C65.3404 29.7796 61.1889 24.4974 55.3827 23.0014V22.5696C55.3827 21.1987 54.2658 20.0831 52.8933 20.0831H51.2337C49.8612 20.0831 48.7442 21.1987 48.7442 22.5696V23.0014C42.9381 24.4974 38.7866 29.7796 38.7866 35.8309H37.9568C37.4987 35.8309 37.127 36.2022 37.127 36.6597C37.127 37.1172 37.4987 37.4885 37.9568 37.4885H39.6554C39.9267 42.1267 42.4336 46.1274 46.0507 48.2633H45.425C41.3075 48.2633 37.9568 51.6101 37.9568 55.7228V68.9841C37.9568 69.4416 38.3285 69.8129 38.7866 69.8129H44.5952H59.5317H65.3404C65.7984 69.8129 66.1702 69.4416 66.1702 68.9841V55.7228C66.1702 51.6101 62.8194 48.2633 58.7019 48.2633H58.0763C61.6934 46.1274 64.2002 42.1267 64.4716 37.4885H66.1702C66.6282 37.4885 67 37.1172 67 36.6597C67 36.2022 66.6282 35.8309 66.1702 35.8309ZM63.6808 35.8309H55.3827V24.7088C60.247 26.1551 63.6808 30.6788 63.6808 35.8309ZM50.4039 22.5696C50.4039 22.1129 50.7764 21.7407 51.2337 21.7407H52.8933C53.3505 21.7407 53.7231 22.1129 53.7231 22.5696V23.6479V35.8309H50.4039V23.6479V22.5696ZM48.7442 24.7088V35.8309H40.4462C40.4462 30.6788 43.8799 26.1551 48.7442 24.7088ZM39.6164 55.7228C39.6164 52.8061 41.7847 50.3918 44.5952 49.9873V54.894C44.1372 54.894 43.7654 55.2653 43.7654 55.7228V68.1553H39.6164V55.7228ZM45.425 68.1553V56.5516H58.7019V68.1553H45.425ZM64.5106 55.7228V68.1553H60.3615V55.7228C60.3615 55.2653 59.9898 54.894 59.5317 54.894V49.9873C62.3423 50.3918 64.5106 52.8061 64.5106 55.7228ZM57.8721 49.921V54.894H46.2548V49.921H57.8721ZM52.0635 48.2633C46.3743 48.2633 41.7 43.5009 41.3034 37.4885H49.5741H54.5529H62.8236C62.4269 43.5009 57.7526 48.2633 52.0635 48.2633Z" fill="#289319"/>
<path d="M7.12604 7.59559C6.55461 7.85617 6.32542 8.51725 6.24334 8.85565C5.31925 11.2463 4.89213 13.7337 4.97378 16.2497C5.05327 18.6989 5.60912 21.0714 6.626 23.3013C7.64287 25.5313 9.06961 27.5066 10.8667 29.1726C12.7128 30.884 14.871 32.1925 17.2819 33.0624C17.5911 33.2223 18.2405 33.4828 18.8119 33.2222L24.2267 30.753L20.8031 23.2452L16.6776 25.1265L16.597 25.1633C13.2482 22.693 11.4276 18.7004 11.7583 14.5522L11.8389 14.5155L15.9644 12.6342L12.5408 5.12643L7.12604 7.59559ZM7.94734 9.03487L9.09999 8.50926L11.1542 13.0139L10.1802 13.4581L10.1243 13.9299C9.52291 19.0007 11.7726 23.9341 15.9954 26.805L16.3883 27.0722L17.3623 26.6281L19.4164 31.1328L18.2638 31.6584C18.2042 31.6391 17.9506 31.523 17.9506 31.523C13.5543 29.9523 10.0819 26.7819 8.17307 22.5959C6.26421 18.4098 6.14738 13.7093 7.84418 9.36013C7.84418 9.36013 7.92061 9.09797 7.94734 9.03487ZM10.6471 7.80378L11.6784 7.33347L13.7326 11.8381L12.7012 12.3085L10.6471 7.80378ZM21.6901 5.57333L21.0803 7.13391C24.2277 8.25656 26.7131 10.5241 28.0787 13.5188C29.4443 16.5134 29.5267 19.8768 28.3106 22.9892L29.8887 23.5521C31.2676 20.0228 31.1743 16.2091 29.6258 12.8133C28.0773 9.41752 25.259 6.84637 21.6901 5.57333ZM20.0662 9.72972L19.4564 11.2903C23.636 12.7812 25.7225 17.3567 24.1075 21.49L25.6856 22.0529C27.6368 17.0591 25.116 11.531 20.0662 9.72972ZM18.4565 13.8495L17.8467 15.4101C18.7586 15.7354 19.4787 16.3924 19.8743 17.26C20.27 18.1277 20.2939 19.1021 19.9415 20.0039L21.5196 20.5668C22.5832 17.8448 21.2091 14.8314 18.4565 13.8495ZM18.9094 25.9226L19.9407 25.4523L21.9949 29.957L20.9635 30.4273L18.9094 25.9226Z" fill="#289319"/>
<path d="M55.3827 58.2093H48.7442C48.2862 58.2093 47.9144 58.5806 47.9144 59.0381V62.3534C47.9144 64.6385 49.7757 66.4976 52.0634 66.4976C54.3512 66.4976 56.2125 64.6385 56.2125 62.3534V59.0381C56.2125 58.5806 55.8407 58.2093 55.3827 58.2093ZM54.5529 62.3534C54.5529 63.7243 53.4359 64.8399 52.0634 64.8399C50.6909 64.8399 49.574 63.7243 49.574 62.3534V59.867H54.5529V62.3534Z" fill="#289319"/>
</svg>
