<svg width="32" height="36" viewBox="0 0 32 36" xmlns="http://www.w3.org/2000/svg">
<path d="M31.3013 5.97656H28.6183C28.5904 5.92734 28.5555 5.87813 28.5065 5.82891L22.917 0.203906C22.7913 0.0703125 22.6096 0 22.4279 0H3.98253C3.59825 0 3.28384 0.316406 3.28384 0.703125V5.97656H0.69869C0.31441 5.97656 0 6.29297 0 6.67969V28.6875C0 29.0742 0.31441 29.3906 0.69869 29.3906H12.5066V31.7812H9.78166C9.39738 31.7812 9.08297 32.0977 9.08297 32.4844V35.2969C9.08297 35.6836 9.39738 36 9.78166 36H22.2183C22.6026 36 22.917 35.6836 22.917 35.2969V32.4844C22.917 32.0977 22.6026 31.7812 22.2183 31.7812H19.4935V29.3906H31.3013C31.6856 29.3906 32 29.0742 32 28.6875V6.67969C32 6.29297 31.6856 5.97656 31.3013 5.97656ZM23.1266 2.39766L26.3336 5.625H23.1266V2.39766ZM1.39738 7.38281H3.28384V23.9062H1.39738V7.38281ZM21.5197 33.1875V34.5938H10.4803V33.1875H21.5197ZM13.9039 31.7812V29.3906H18.0961V31.7812H13.9039ZM30.6026 27.9844H1.39738V25.3125H30.6026V27.9844ZM30.6026 23.9062H28.7162V17.6836C28.7162 17.2969 28.4017 16.9805 28.0175 16.9805C27.6332 16.9805 27.3188 17.2969 27.3188 17.6836V23.9062H4.68122V22.3594H8.90131C9.28559 22.3594 9.6 22.043 9.6 21.6562C9.6 21.2695 9.28559 20.9531 8.90131 20.9531H4.68122V1.40625H21.7293V6.32812C21.7293 6.71484 22.0437 7.03125 22.4279 7.03125H27.3188V12.0938C27.3188 12.4805 27.6332 12.7969 28.0175 12.7969C28.4017 12.7969 28.7162 12.4805 28.7162 12.0938V7.38281H30.6026V23.9062Z" />
<path d="M28.5131 14.4349C28.3804 14.3013 28.2057 14.231 28.017 14.231C27.8354 14.231 27.6537 14.3083 27.521 14.4349C27.3882 14.5685 27.3184 14.7442 27.3184 14.9341C27.3184 15.1239 27.3952 15.2997 27.521 15.4333C27.6537 15.5669 27.8284 15.6372 28.017 15.6372C28.1987 15.6372 28.3804 15.5599 28.5131 15.4333C28.6459 15.2997 28.7157 15.1239 28.7157 14.9341C28.7157 14.7442 28.6389 14.5685 28.5131 14.4349Z" />
<path d="M16.426 26.1492C16.2932 26.0156 16.1185 25.9453 15.9299 25.9453C15.7412 25.9453 15.5666 26.0227 15.4338 26.1492C15.3011 26.2828 15.2312 26.4586 15.2312 26.6484C15.2312 26.8313 15.3081 27.0141 15.4338 27.1477C15.5666 27.2813 15.7412 27.3516 15.9299 27.3516C16.1185 27.3516 16.2932 27.2742 16.426 27.1477C16.5587 27.0141 16.6286 26.8383 16.6286 26.6484C16.6356 26.4656 16.5587 26.2828 16.426 26.1492Z" />
<path d="M22.7775 8.52187L16.3495 4.78828C16.1329 4.66172 15.8674 4.66172 15.6508 4.78828L9.22288 8.52187C9.00629 8.64844 8.87354 8.88047 8.87354 9.13359V16.6008C8.87354 16.8539 9.00629 17.0859 9.22288 17.2125L15.6508 20.9461C15.7556 21.0094 15.8814 21.0375 16.0002 21.0375C16.1189 21.0375 16.2447 21.0094 16.3495 20.9461L22.7775 17.2125C22.9941 17.0859 23.1268 16.8539 23.1268 16.6008V9.13359C23.1268 8.88047 22.9941 8.64844 22.7775 8.52187ZM15.3015 19.118L10.9696 16.6008L12.332 15.8063C12.6674 15.6094 12.7792 15.1805 12.5906 14.843C12.3949 14.5055 11.9687 14.393 11.6334 14.5828L10.2709 15.3844V10.35L14.6028 12.8672L13.7923 13.3383C13.4569 13.5352 13.3451 13.9641 13.5338 14.3016C13.6665 14.5266 13.8971 14.6531 14.1417 14.6531C14.2604 14.6531 14.3792 14.625 14.491 14.5617L15.3015 14.0906V19.118ZM16.0002 10.0195C15.6159 10.0195 15.3015 10.3359 15.3015 10.7227V11.6508L10.9696 9.13359L15.3015 6.61641V7.98047C15.3015 8.36719 15.6159 8.68359 16.0002 8.68359C16.3845 8.68359 16.6989 8.36719 16.6989 7.98047V6.61641L21.0307 9.13359L16.6989 11.6508V10.7227C16.6989 10.3359 16.3845 10.0195 16.0002 10.0195ZM21.7294 15.3844L20.7303 14.8008C20.3949 14.6039 19.9687 14.7234 19.7731 15.0609C19.5775 15.3984 19.6962 15.8273 20.0316 16.0242L21.0307 16.6078L16.6989 19.125V14.0906L17.8238 14.7445C17.9355 14.8078 18.0543 14.8359 18.1731 14.8359C18.4176 14.8359 18.6482 14.7094 18.781 14.4844C18.9766 14.1469 18.8578 13.718 18.5224 13.5211L17.3976 12.8672L21.7294 10.35V15.3844Z" />
<path d="M11.787 21.157C11.6543 21.0234 11.4796 20.9531 11.291 20.9531C11.1093 20.9531 10.9277 21.0305 10.7949 21.157C10.6622 21.2906 10.5923 21.4664 10.5923 21.6562C10.5923 21.8461 10.6691 22.0219 10.7949 22.1555C10.9277 22.2891 11.1023 22.3594 11.291 22.3594C11.4726 22.3594 11.6543 22.282 11.787 22.1555C11.9198 22.0289 11.9897 21.8461 11.9897 21.6562C11.9897 21.4664 11.9128 21.2906 11.787 21.157Z" />
</svg>
