<svg width="38" height="38" viewBox="0 0 38 38" xmlns="http://www.w3.org/2000/svg">
<path d="M4.08942 10.977C3.94841 10.8359 3.76287 10.7617 3.56248 10.7617C3.3621 10.7617 3.17655 10.8434 3.03554 10.977C2.89453 11.118 2.82031 11.3035 2.82031 11.5039C2.82031 11.6969 2.90195 11.8898 3.03554 12.0309C3.17655 12.1719 3.3621 12.2461 3.56248 12.2461C3.76287 12.2461 3.94841 12.1645 4.08942 12.0309C4.23043 11.8898 4.30465 11.7043 4.30465 11.5039C4.30465 11.3035 4.22301 11.1105 4.08942 10.977Z" />
<path d="M37.9026 22.9262L33.7093 15.4672C33.9839 14.8066 34.1324 14.0793 34.1324 13.3148C34.1324 10.4574 31.9949 8.08984 29.234 7.72617V4.75C29.234 2.13008 27.104 0 24.4842 0H4.74988C2.13003 0 0 2.13008 0 4.75C0 5.1582 0.333976 5.49219 0.742169 5.49219H2.82024V8.08984C2.82024 8.49805 3.15422 8.83203 3.56241 8.83203C3.9706 8.83203 4.30458 8.49805 4.30458 8.08984V5.49219H20.4839C20.8921 5.49219 21.226 5.1582 21.226 4.75C21.226 2.94648 22.6881 1.48438 24.4916 1.48438C26.2951 1.48438 27.7571 2.94648 27.7571 4.75V7.72617C24.9963 8.08984 22.8588 10.4574 22.8588 13.3148C22.8588 14.1238 23.0295 14.8957 23.3412 15.5859L19.1109 22.9113C18.9624 23.1711 18.9847 23.4977 19.1702 23.7352C19.3558 23.9727 19.6675 24.0766 19.9569 23.9949L22.7401 23.2082L23.4525 26.0137C23.5268 26.3031 23.7717 26.5258 24.0685 26.5629C24.1057 26.5703 24.1353 26.5703 24.1724 26.5703C24.4322 26.5703 24.6771 26.4293 24.8107 26.2066L27.7571 21.1746V33.25C27.7571 34.5117 28.2544 35.6621 29.0633 36.5156H7.57012C5.76665 36.5156 4.30458 35.0535 4.30458 33.25V14.6211C4.30458 14.2129 3.9706 13.8789 3.56241 13.8789C3.15422 13.8789 2.82024 14.2129 2.82024 14.6211V33.25C2.82024 35.8699 4.95027 38 7.57012 38C7.57012 38 32.3957 38 32.507 38C35.1269 38 37.2569 35.8699 37.2569 33.25C37.2569 32.8418 36.9229 32.5078 36.5147 32.5078H29.2415V21.1004L32.1953 26.2141C32.3289 26.4441 32.5738 26.5852 32.841 26.5852C32.8781 26.5852 32.9078 26.5852 32.9449 26.5777C33.2418 26.5332 33.4867 26.318 33.5609 26.0285L34.2734 23.223L37.0565 24.0098C37.3459 24.0914 37.6577 23.9875 37.8432 23.7574C38.0287 23.5125 38.051 23.1934 37.9026 22.9262ZM19.8011 4.00781H1.56598C1.89995 2.56055 3.19875 1.48438 4.74988 1.48438H21.0479C20.4022 2.16719 19.9495 3.03555 19.8011 4.00781ZM35.6835 33.9922C35.3495 35.4395 34.0507 36.5156 32.4996 36.5156C30.9559 36.5156 29.6571 35.4395 29.3157 33.9922H35.6835ZM24.4471 23.9059L23.9943 22.1172C23.9424 21.9242 23.8162 21.7609 23.6455 21.657C23.4748 21.5531 23.267 21.5309 23.074 21.5828L21.3077 22.0801L24.2392 17.0035C25.0482 17.9387 26.154 18.5992 27.4083 18.8516L24.4471 23.9059ZM28.4993 17.4785C26.206 17.4785 24.3431 15.6156 24.3431 13.3223C24.3431 11.0289 26.206 9.16602 28.4993 9.16602C30.7926 9.16602 32.6554 11.0289 32.6554 13.3223C32.6554 15.6156 30.7926 17.4785 28.4993 17.4785ZM33.9394 21.5828C33.7464 21.5309 33.5386 21.5531 33.3679 21.657C33.1972 21.7609 33.0711 21.9242 33.0191 22.1172L32.5664 23.891L29.6497 18.8367C30.9188 18.5695 32.032 17.8793 32.8261 16.9219L35.728 22.0875L33.9394 21.5828Z" />
<path d="M14.5984 20.2617H8.1638C7.75561 20.2617 7.42163 20.5957 7.42163 21.0039C7.42163 21.4121 7.75561 21.7461 8.1638 21.7461H14.6058C15.014 21.7461 15.348 21.4121 15.348 21.0039C15.348 20.5957 15.014 20.2617 14.5984 20.2617Z" />
<path d="M14.5984 23.8984H8.1638C7.75561 23.8984 7.42163 24.2324 7.42163 24.6406C7.42163 25.0488 7.75561 25.3828 8.1638 25.3828H14.6058C15.014 25.3828 15.348 25.0488 15.348 24.6406C15.348 24.2324 15.014 23.8984 14.5984 23.8984Z" />
<path d="M11.9785 8.65387H8.1638C7.75561 8.65387 7.42163 8.98785 7.42163 9.39606C7.42163 9.80426 7.75561 10.1382 8.1638 10.1382H11.9785C12.3867 10.1382 12.7207 9.80426 12.7207 9.39606C12.7207 8.98785 12.3867 8.65387 11.9785 8.65387Z" />
<path d="M19.0069 16.2539H8.1638C7.75561 16.2539 7.42163 16.5879 7.42163 16.9961C7.42163 17.4043 7.75561 17.7383 8.1638 17.7383H19.0069C19.4151 17.7383 19.7491 17.4043 19.7491 16.9961C19.7491 16.5879 19.4151 16.2539 19.0069 16.2539Z" />
<path d="M23.2817 30.3035H19.749C19.3408 30.3035 19.0068 30.6375 19.0068 31.0457C19.0068 31.4539 19.3408 31.7879 19.749 31.7879H23.2817C23.6899 31.7879 24.0239 31.4539 24.0239 31.0457C24.0239 30.6375 23.6899 30.3035 23.2817 30.3035Z" />
<path d="M16.1569 30.3035H16.1421C15.7339 30.3035 15.3999 30.6375 15.3999 31.0457C15.3999 31.4539 15.7339 31.7879 16.1421 31.7879H16.1569C16.5651 31.7879 16.8991 31.4539 16.8991 31.0457C16.8991 30.6375 16.5651 30.3035 16.1569 30.3035Z" />
</svg>
