<svg width="47" height="44" viewBox="0 0 47 44" xmlns="http://www.w3.org/2000/svg">
<path d="M2.83355 41.0134H23.8533C24.1624 41.0134 24.3685 40.8109 24.3685 40.5071V13.1648C24.3685 7.18996 19.4227 2.3291 13.3434 2.3291C7.26418 2.3291 2.31836 7.18996 2.31836 13.1648V40.5071C2.31836 40.7603 2.57595 41.0134 2.83355 41.0134ZM13.8586 22.7852H23.3381V30.8866H13.8586V22.7852ZM12.8282 30.8866H3.34874V22.7852H12.8282V30.8866ZM23.3381 21.7725H13.8586V13.6711H23.3381V21.7725ZM13.8586 3.34178C16.1254 3.44305 18.2377 4.30382 19.8348 5.72157L13.8586 11.8989V3.34178ZM12.8282 11.8989L6.80051 5.72157C8.44912 4.35446 10.5099 3.49368 12.7767 3.34178V11.8989H12.8282ZM12.8282 21.7725H3.34874V13.6711H12.8282V21.7725ZM3.34874 31.8993H12.8282V40.0007H3.34874V31.8993ZM23.3381 40.0007H13.8586V31.8993H23.3381V40.0007ZM23.2866 12.6584H14.5284L20.5561 6.43045C22.1532 8.05074 23.1835 10.228 23.2866 12.6584ZM6.07924 6.43045L12.107 12.6584H3.34874C3.5033 10.228 4.48216 8.05074 6.07924 6.43045Z" />
<path d="M0.51519 43.2414H26.0171C26.3262 43.2414 26.5323 43.0388 26.5323 42.735V12.0509C26.3777 8.96221 24.9867 5.92417 22.6683 3.69628C20.1954 1.31648 16.8982 0 13.2919 0C6.02772 0 0.360633 5.16466 0 12.0509V42.6844C0 42.9882 0.257595 43.2414 0.51519 43.2414ZM13.2919 1.01268C19.0105 1.01268 25.1928 5.16466 25.5534 12.1015V42.2287H1.03038V12.1015C1.33949 5.77227 6.59443 1.01268 13.2919 1.01268Z" />
<path d="M46.3941 9.25116L45.8872 8.37237L44.2213 9.33458L41.194 7.58621L44.2213 5.83784L45.8854 6.79884L46.3919 5.92025L45.2364 5.25311L47.0001 4.2331L46.4937 3.35551L44.7257 4.37553V3.03464H43.7127V4.96065L40.6804 6.71182V3.21028L42.3503 2.24628L41.8439 1.36809L40.6804 2.03923V0H39.6659V2.03663L38.5094 1.36849L38.0026 2.24708L39.6659 3.20828V6.70422L36.6389 4.95565V3.03464H35.6244V4.37093L33.8614 3.35251L33.355 4.2307L35.1199 5.25011L33.9602 5.91985L34.4667 6.79804L36.1338 5.83584L39.1651 7.58621L36.1338 9.33758L34.4659 8.37357L33.958 9.25256L35.1199 9.9229L33.3558 10.9417L33.8636 11.8193L35.6244 10.8019V12.138H36.6389V10.2168L39.6659 8.46819V11.9651L38.0038 12.9243L38.5112 13.8029L39.6659 13.1358V15.1724H40.6804V13.1336L41.8417 13.8043L42.3485 12.9253L40.6804 11.9625V8.46139L43.7127 10.2118V12.138H44.7257V10.7975L46.4915 11.8169L46.9993 10.9387L45.2364 9.9203L46.3941 9.25116Z" />
<path d="M40.8886 37.9645V30.3326C40.8886 30.0211 40.5998 29.7485 40.2698 29.7485C39.9398 29.7485 39.651 30.0211 39.651 30.3326V37.9645C38.8259 38.1981 38.2483 38.9379 38.2483 39.7946C38.2483 40.8459 39.1559 41.7415 40.3111 41.7415C41.4662 41.7415 42.3738 40.8848 42.3738 39.7946C42.3326 38.9379 41.7137 38.237 40.8886 37.9645Z" />
<path d="M43.2821 36.7186V24.8425C43.2821 23.285 41.9207 22 40.2705 22C38.6203 22 37.2589 23.285 37.2589 24.8425V36.7186C36.3925 37.4973 35.8149 38.5876 35.8149 39.7947C35.8149 42.131 37.7952 44 40.2705 44C42.7458 44 44.7261 42.131 44.7261 39.7947C44.7261 38.5876 44.1898 37.4973 43.2821 36.7186ZM40.2705 42.8319C38.4965 42.8319 37.0526 41.469 37.0526 39.7947C37.0526 38.9381 37.4239 38.1593 38.084 37.5752L38.4965 37.2248V36.7186V24.8425C38.4965 23.908 39.2804 23.1681 40.2705 23.1681C41.2606 23.1681 42.0445 23.908 42.0445 24.8425V36.7186V37.2248L42.457 37.5752C43.1171 38.1593 43.4884 38.9381 43.4884 39.7947C43.4884 41.508 42.0445 42.8319 40.2705 42.8319Z" />
<path d="M35.8558 24.2192H32.5967V25.3874H35.8558V24.2192Z" />
<path d="M35.856 26.6338H34.2058V27.8019H35.856V26.6338Z" />
<path d="M35.8558 29.0869H32.5967V30.2551H35.8558V29.0869Z" />
<path d="M35.856 31.501H34.2058V32.6691H35.856V31.501Z" />
</svg>
