<?xml version="1.0" encoding="utf-8"?><svg xmlns="http://www.w3.org/2000/svg" xmlns:xlink="http://www.w3.org/1999/xlink"><symbol fill="none" viewBox="0 0 60 44" id="base-10" xmlns="http://www.w3.org/2000/svg"><path clip-rule="evenodd" d="M10.064 1.14H59v32.892a8.935 8.935 0 0 1-2.658 6.344A9.101 9.101 0 0 1 49.936 43H10.064a9.101 9.101 0 0 1-6.406-2.624A8.935 8.935 0 0 1 1 34.032v-23.92a8.936 8.936 0 0 1 2.657-6.346 9.102 9.102 0 0 1 6.407-2.626v0z" stroke="#48B066" stroke-width="1.32"/><path fill-rule="evenodd" clip-rule="evenodd" d="M29.5 42.896h-2.285L1.09 11.533 1.5 9.5l28 33.396zM58.329 27.298L58.5 30.5l-24-29.262h2.122l21.707 26.06z" fill="#48B066"/><path fill-rule="evenodd" clip-rule="evenodd" d="M48.06 1h2.298L42 9l-1-1.5L48.06 1zM59 11l.298 2L52 20l-1-1.5 8-7.5zM56.702 1.5H59L47 14l-1-1.5 10.702-11zM10.238 43H7.94l11.358-12 1 1.5L10.238 43zM1.298 30L1 28l8.298-8 1 1.5-9 8.5zM3.5 39l-1.202-1.5 12-11.5 1 1.5L3.5 39zM22.685 30.053V8.951H18.91l-4.886 2.5.722 3.345 3.608-1.85h.063v17.107h4.267zm14.643-2.484c1.149-1.828 1.723-4.55 1.722-8.164a26.417 26.417 0 0 0-.261-3.83 15.559 15.559 0 0 0-.904-3.377A5.794 5.794 0 0 0 36 9.632a4.858 4.858 0 0 0-3.016-.94c-2.1 0-3.68 1.013-4.74 3.037-1.061 2.023-1.591 4.647-1.591 7.871a22.847 22.847 0 0 0 .327 3.994c.2 1.168.541 2.307 1.018 3.392.412.97 1.08 1.81 1.935 2.434.85.602 1.873.916 2.917.895h.035c1.813 0 3.295-.915 4.444-2.746zm-6.378-8.067c-.023-4.782.643-7.173 1.998-7.174.658 0 1.124.594 1.396 1.784.273 1.19.409 2.986.408 5.39 0 2.469-.143 4.281-.427 5.438-.283 1.16-.741 1.737-1.377 1.737h-.032c-1.378 0-2.033-2.392-1.966-7.175z" fill="#48B066"/></symbol><symbol fill="none" viewBox="0 0 60 44" id="base-16" xmlns="http://www.w3.org/2000/svg"><path clip-rule="evenodd" d="M10.06 1h48.937v32.888a8.902 8.902 0 0 1-.69 3.435 8.968 8.968 0 0 1-1.965 2.91 9.063 9.063 0 0 1-2.94 1.945 9.13 9.13 0 0 1-3.466.682H10.061a9.13 9.13 0 0 1-3.467-.682 9.063 9.063 0 0 1-2.939-1.944 8.97 8.97 0 0 1-1.964-2.911A8.904 8.904 0 0 1 1 33.888V9.968a8.932 8.932 0 0 1 2.655-6.343A9.099 9.099 0 0 1 10.061 1v0z" stroke="#48B066" stroke-width="1.32"/><path fill-rule="evenodd" clip-rule="evenodd" d="M29.5 42.5l-2.104.3L.604 10.644 1 8.5l28.5 34zM58.51 27.202V29.5L34.5 1.142h2.304l21.706 26.06z" fill="#48B066"/><path fill-rule="evenodd" clip-rule="evenodd" d="M48.06 1h2.298L42 9l-1-1.5L48.06 1zM59 11l.298 2L52 20l-1-1.5 8-7.5zM56.702 1.5H59L47 14l-1-1.5 10.702-11zM10.238 43H7.94l11.358-12 1 1.5L10.238 43zM1.298 30L1 28l8.298-8 1 1.5-9 8.5zM3.5 39l-1.202-1.5 12-11.5 1 1.5L3.5 39zM22.541 29.914V8.809h-3.773l-4.886 2.5.722 3.344 3.608-1.85h.066v17.11h4.263zM34.545 8.777a9.245 9.245 0 0 0-5.246 2.856c-2.32 2.447-3.479 5.716-3.478 9.807 0 2.639.58 4.754 1.737 6.346a5.537 5.537 0 0 0 2.07 1.796c.832.417 1.755.62 2.687.59 1.947 0 3.45-.74 4.51-2.222a8.84 8.84 0 0 0 1.591-5.277c0-1.97-.443-3.55-1.33-4.741a4.127 4.127 0 0 0-1.519-1.33 4.17 4.17 0 0 0-1.974-.455 3.992 3.992 0 0 0-1.868.436 3.95 3.95 0 0 0-1.443 1.254h-.13c.677-3.225 2.273-5.097 4.787-5.617a15.62 15.62 0 0 1 1.772-.227V8.55c-1.094.089-1.816.164-2.166.227zM30.74 25.822a8.395 8.395 0 0 1-.557-3.345 6.085 6.085 0 0 1 .197-1.882c.395-.93.983-1.396 1.772-1.396.318-.002.629.092.892.269.263.176.465.428.581.72.358.78.537 1.629.525 2.485 0 2.944-.612 4.416-1.835 4.416h-.032c-.656 0-1.17-.422-1.543-1.267z" fill="#48B066"/></symbol><symbol fill="none" viewBox="0 0 63 47" id="base-40" xmlns="http://www.w3.org/2000/svg"><path clip-rule="evenodd" d="M10.513 1h51.37v35.359a9.72 9.72 0 0 1-2.789 6.82A9.439 9.439 0 0 1 52.37 46H10.513a9.439 9.439 0 0 1-6.724-2.822A9.72 9.72 0 0 1 1 36.358V10.646c0-1.268.247-2.522.725-3.693a9.659 9.659 0 0 1 2.063-3.13 9.5 9.5 0 0 1 3.086-2.09A9.389 9.389 0 0 1 10.514 1z" stroke="#48B066" stroke-width="1.402"/><path fill-rule="evenodd" clip-rule="evenodd" d="M1.317 38.287v-.966h60.249v.966H1.317z" fill="#48B066"/><path fill-rule="evenodd" clip-rule="evenodd" d="M44.126 45.678h-1.904V1.966h1.904v43.712zM54.907 45.678h-1.904V1.966h1.904v43.712zM49.516 38.287h-1.903V1.966h1.903v36.321z" fill="#48B066"/><path fill-rule="evenodd" clip-rule="evenodd" d="M43.49 38.375l-4.12-1.447v2.894l4.12-1.447zM53.64 38.375l4.12-1.447v2.894l-4.12-1.447zM19.542 26.67h2.204v-3.663h-2.204V9.397h-4.339L7.87 23.533v3.138h7.678v5.412h3.994V26.67zm-7.815-3.734l2.376-4.778c.735-1.607 1.25-2.783 1.549-3.528h.138c-.161 1.908-.241 3.155-.241 3.734v4.643h-3.823v-.071zm21.778 6.476c1.205-1.966 1.807-4.891 1.808-8.777a28.628 28.628 0 0 0-.276-4.121 16.979 16.979 0 0 0-.947-3.63 6.209 6.209 0 0 0-1.98-2.755 5.026 5.026 0 0 0-3.168-1.013c-2.204 0-3.863 1.088-4.976 3.264-1.113 2.175-1.67 4.997-1.67 8.465a25.135 25.135 0 0 0 .345 4.29 15.81 15.81 0 0 0 1.068 3.65 6.27 6.27 0 0 0 2.032 2.616 5.037 5.037 0 0 0 3.064.96h.034c1.904 0 3.46-.984 4.665-2.95zm-6.697-8.672c-.023-5.144.677-7.715 2.1-7.713.689 0 1.176.64 1.463 1.918.288 1.279.431 3.21.431 5.795 0 2.65-.15 4.599-.448 5.846-.299 1.247-.78 1.87-1.446 1.867h-.033c-1.448 0-2.136-2.571-2.066-7.713h-.001z" fill="#48B066"/></symbol><symbol fill="none" viewBox="0 0 63 47" id="base-48" xmlns="http://www.w3.org/2000/svg"><path clip-rule="evenodd" d="M10.513 1h51.372v35.355a9.722 9.722 0 0 1-2.79 6.82 9.44 9.44 0 0 1-6.725 2.822H10.513a9.438 9.438 0 0 1-6.724-2.822A9.72 9.72 0 0 1 1 36.355V10.642a9.72 9.72 0 0 1 2.789-6.82A9.438 9.438 0 0 1 10.513 1z" stroke="#48B066" stroke-width="1.402"/><path fill-rule="evenodd" clip-rule="evenodd" d="M1.317 38.284v-.963h60.249v.963H1.317z" fill="#48B066"/><path fill-rule="evenodd" clip-rule="evenodd" d="M44.124 45.678h-1.9V1.962h1.9v43.716zM54.908 45.678h-1.904V1.962h1.904v43.716zM49.518 38.284h-1.904V1.962h1.904v36.322z" fill="#48B066"/><path fill-rule="evenodd" clip-rule="evenodd" d="M43.49 37.803l-4.122-1.447v2.893l4.121-1.447zM53.639 37.803l4.121-1.447v2.893l-4.121-1.447zM19.52 26.67h2.203v-3.663H19.52V9.394h-4.338L7.848 23.53v3.141h7.677v5.409h3.994V26.67zm-7.816-3.734l2.375-4.782c.734-1.606 1.251-2.78 1.55-3.524h.14c-.164 1.908-.245 3.153-.244 3.734v4.643h-3.82v-.071zm13.19-12.18a5.487 5.487 0 0 0-1.394 1.955 5.56 5.56 0 0 0-.433 2.373 5.925 5.925 0 0 0 2.756 4.988v.072c-2.251 1.443-3.376 3.456-3.373 6.038 0 1.86.602 3.355 1.806 4.484 1.205 1.128 2.783 1.693 4.736 1.694a6.78 6.78 0 0 0 4.786-1.782c1.282-1.186 1.925-2.803 1.927-4.85a6.51 6.51 0 0 0-.949-3.49 6.763 6.763 0 0 0-2.528-2.41v-.105c1.974-1.206 2.96-2.881 2.96-5.025a5.276 5.276 0 0 0-.4-2.201 5.208 5.208 0 0 0-1.27-1.829 5.804 5.804 0 0 0-4.115-1.552h-.034a6.446 6.446 0 0 0-4.475 1.64zm2.528 17.504a5.025 5.025 0 0 1-.6-2.566c0-1.745.642-3.071 1.926-3.978 1.723.952 2.585 2.36 2.585 4.222a4.486 4.486 0 0 1-.588 2.407c-.16.29-.395.531-.68.697-.284.166-.608.25-.936.245h-.037a1.842 1.842 0 0 1-.978-.274 1.88 1.88 0 0 1-.692-.753zm3.186-15.22a4.879 4.879 0 0 1 .017 4.05 2.56 2.56 0 0 1-1.119 1.274c-1.47-.793-2.204-1.921-2.204-3.385a3.777 3.777 0 0 1 .484-1.99c.145-.255.357-.466.612-.607.255-.142.544-.21.834-.195h.034c.282-.007.559.07.798.222.238.152.428.371.544.632z" fill="#48B066"/></symbol><symbol fill="none" viewBox="0 0 61 43" id="base-A" xmlns="http://www.w3.org/2000/svg"><mask id="ea" maskUnits="userSpaceOnUse" x="0" y="0" width="61" height="44"><path fill-rule="evenodd" clip-rule="evenodd" d="M9.53 0H61v33.787c-.002 2.445-1.008 4.789-2.795 6.517C56.417 42.03 53.993 43 51.467 43H9.531c-2.526.001-4.95-.969-6.737-2.697C1.007 38.577.002 36.233 0 33.788V9.213c.002-2.445 1.007-4.789 2.794-6.517C4.581.97 7.004 0 9.531 0z" fill="#C4C4C4"/></mask><g mask="url(#ea)"><path d="M9.53.7h0c-2.347 0-4.595.901-6.249 2.5C1.628 4.8.703 6.962.701 9.214v24.572L9.53.701zm0 0H60.3v33.086c-.003 2.252-.929 4.415-2.582 6.014-1.655 1.599-3.903 2.5-6.25 2.5h0M9.53.7l41.936 41.6m0 0H9.531h0m41.936 0H9.531m0 0c-2.348 0-4.596-.901-6.25-2.5m6.25 2.5l-6.25-2.5m0 0C1.628 38.2.703 36.038.701 33.787L3.28 39.8z" stroke="#48B066" stroke-width="1.402"/><path fill-rule="evenodd" clip-rule="evenodd" d="M.688.058l-6.518 11.45L.688 22.9h5.898L-.118 11.508 6.586.058H.688zm9.933 0l-6.518 11.45 6.58 11.392h5.836L9.815 11.508 16.519.058h-5.897zm24.584 42.408h7.946L35.018.743h-9.745l-9.065 41.723h7.884l1.863-9.53h7.512l1.738 9.53zm-6.892-24.574c.083-.333.58-3.49 1.49-9.473h.186c.662 4.954 1.117 8.112 1.366 9.473l1.366 8.727h-5.96l1.552-8.727zM45.82 42.098h5.898l6.518-11.392-6.58-11.454H45.82l6.705 11.454-6.706 11.392zm9.933 0h5.898l6.519-11.392-6.581-11.454h-5.834l6.704 11.454-6.706 11.392z" fill="#48B066"/></g></symbol><symbol fill="none" viewBox="0 0 63 46" id="base-argon" xmlns="http://www.w3.org/2000/svg"><path fill-rule="evenodd" clip-rule="evenodd" d="M14.983 15.319h-3.66v-.037l.717-.838a18.067 18.067 0 0 0 2.041-2.803c.487-.85.741-1.81.736-2.787a3.666 3.666 0 0 0-.827-2.443c-.552-.652-1.429-.98-2.63-.98a4.893 4.893 0 0 0-2.668.729l.442 1.839a3.516 3.516 0 0 1 1.784-.583 1.452 1.452 0 0 1 1.131.437c.278.33.419.753.396 1.183a4.066 4.066 0 0 1-.193 1.22c-.16.478-.383.934-.663 1.355-.313.493-.591.904-.836 1.24-.245.334-.62.82-1.122 1.467L8.453 15.81v1.604h6.53V15.32zm-1.876 12.108l2.317-6.1h-2.409l-.625 2.24c-.062.242-.24.911-.534 2.001h-.036c-.123-.46-.307-1.115-.552-1.965l-.736-2.276H8.03l2.226 5.99-2.318 6.284h2.391l.662-2.224c.074-.265.175-.66.304-1.183.129-.52.217-.868.268-1.037h.055c.16.633.38 1.359.662 2.187l.773 2.257h2.501l-2.447-6.174z" fill="#4AB166"/><path clip-rule="evenodd" d="M10.531 1H62v34.572a9.352 9.352 0 0 1-.727 3.61 9.427 9.427 0 0 1-2.066 3.06 9.53 9.53 0 0 1-3.092 2.043 9.604 9.604 0 0 1-3.646.715H10.53a9.604 9.604 0 0 1-3.646-.715 9.532 9.532 0 0 1-3.091-2.043 9.427 9.427 0 0 1-2.067-3.06A9.353 9.353 0 0 1 1 35.572V10.428a9.388 9.388 0 0 1 2.794-6.669A9.574 9.574 0 0 1 10.531 1v0z" stroke="#48B066" stroke-width="1.388"/><path fill-rule="evenodd" clip-rule="evenodd" d="M1.318 37.458v-.941h60.364v.94H1.318z" fill="#48B066"/><path fill-rule="evenodd" clip-rule="evenodd" d="M52.383 44.652H50.43V1.912h1.952v42.74zM42.257 37.458h-1.908V1.94h1.908v35.517zM32.942 37.458h-1.907V1.94h1.907v35.517zM21.99 43.681h-1.952V1.911h1.952v41.77zM24.3 5.798h.779a.84.84 0 0 1 .591.243.824.824 0 0 1 .245.586v.769c0 .22-.088.43-.245.585a.84.84 0 0 1-.591.243H24.3a.84.84 0 0 1-.592-.243.824.824 0 0 1-.245-.585v-.77c0-.219.088-.43.245-.585a.84.84 0 0 1 .591-.243zM24.3 15.51h.779a.84.84 0 0 1 .591.243.824.824 0 0 1 .245.586v.769c0 .22-.088.43-.245.586a.84.84 0 0 1-.591.242H24.3a.841.841 0 0 1-.592-.242.824.824 0 0 1-.245-.586v-.769c0-.22.088-.43.245-.585a.84.84 0 0 1 .591-.243zM28.222 10.653H29a.84.84 0 0 1 .591.242.824.824 0 0 1 .245.586v.772c0 .22-.088.43-.244.586a.84.84 0 0 1-.592.243h-.778a.841.841 0 0 1-.591-.243.824.824 0 0 1-.245-.586v-.772c0-.22.088-.43.245-.585a.84.84 0 0 1 .591-.243zM28.222 20.366H29a.84.84 0 0 1 .591.242.824.824 0 0 1 .245.586v.772c0 .22-.088.43-.244.586a.84.84 0 0 1-.592.243h-.778a.84.84 0 0 1-.591-.243.824.824 0 0 1-.245-.586v-.772c0-.22.088-.43.245-.586a.841.841 0 0 1 .591-.242z" fill="#48B066"/><path fill-rule="evenodd" clip-rule="evenodd" d="M24.3 15.51h.779a.84.84 0 0 1 .591.243.824.824 0 0 1 .245.586v.769c0 .22-.088.43-.245.586a.84.84 0 0 1-.591.242H24.3a.841.841 0 0 1-.592-.242.824.824 0 0 1-.245-.586v-.769c0-.22.088-.43.245-.585a.84.84 0 0 1 .591-.243zM24.3 25.224h.779a.84.84 0 0 1 .591.242.824.824 0 0 1 .245.586v.769a.818.818 0 0 1-.244.586.837.837 0 0 1-.592.242H24.3a.842.842 0 0 1-.592-.242.825.825 0 0 1-.245-.586v-.769c0-.22.088-.43.245-.586a.841.841 0 0 1 .591-.242zM28.222 20.366H29a.84.84 0 0 1 .591.242.824.824 0 0 1 .245.586v.772c0 .22-.088.43-.244.586a.84.84 0 0 1-.592.243h-.778a.84.84 0 0 1-.591-.243.824.824 0 0 1-.245-.586v-.772c0-.22.088-.43.245-.586a.841.841 0 0 1 .591-.242zM28.222 30.078H29a.84.84 0 0 1 .591.243.824.824 0 0 1 .245.586v.772c0 .22-.088.43-.244.585a.84.84 0 0 1-.592.243h-.778a.841.841 0 0 1-.591-.242.824.824 0 0 1-.245-.586v-.772c0-.22.088-.43.245-.586a.84.84 0 0 1 .591-.243zM47.83 5.798h.778a.84.84 0 0 1 .592.243.824.824 0 0 1 .244.586v.769c0 .22-.088.43-.245.585a.84.84 0 0 1-.591.243h-.778a.84.84 0 0 1-.591-.243.824.824 0 0 1-.245-.585v-.77c0-.219.088-.43.245-.585a.84.84 0 0 1 .591-.243zM47.83 15.51h.778a.84.84 0 0 1 .592.243.824.824 0 0 1 .244.586v.769c0 .22-.088.43-.245.586a.84.84 0 0 1-.591.242h-.778a.841.841 0 0 1-.591-.242.824.824 0 0 1-.245-.586v-.769c0-.22.088-.43.245-.586a.84.84 0 0 1 .591-.242zM43.908 10.653h.78a.84.84 0 0 1 .59.242.824.824 0 0 1 .246.586v.772c0 .22-.089.43-.245.586a.84.84 0 0 1-.592.243h-.778a.841.841 0 0 1-.591-.243.825.825 0 0 1-.245-.586v-.772c0-.22.088-.43.244-.585a.84.84 0 0 1 .591-.243zM43.908 20.366h.78a.84.84 0 0 1 .59.242.825.825 0 0 1 .246.586v.772c0 .22-.089.43-.245.586a.84.84 0 0 1-.592.243h-.778a.84.84 0 0 1-.591-.243.824.824 0 0 1-.245-.586v-.772c0-.22.088-.43.244-.585a.84.84 0 0 1 .591-.243z" fill="#48B066"/><path fill-rule="evenodd" clip-rule="evenodd" d="M47.83 15.511h.778a.84.84 0 0 1 .592.243.824.824 0 0 1 .244.586v.768c0 .22-.088.43-.245.586a.84.84 0 0 1-.591.243h-.778a.841.841 0 0 1-.591-.243.824.824 0 0 1-.245-.586v-.768c0-.22.088-.43.245-.586a.84.84 0 0 1 .591-.243zM47.83 25.224h.778a.84.84 0 0 1 .592.242.824.824 0 0 1 .244.586v.769c0 .22-.088.43-.245.586a.84.84 0 0 1-.591.242h-.778a.842.842 0 0 1-.592-.242.824.824 0 0 1-.245-.586v-.769c0-.22.089-.43.245-.586a.84.84 0 0 1 .592-.242zM43.908 20.366h.779a.84.84 0 0 1 .592.242.824.824 0 0 1 .244.586v.772c0 .22-.088.43-.245.586a.84.84 0 0 1-.591.243h-.778a.84.84 0 0 1-.591-.243.824.824 0 0 1-.245-.586v-.772c0-.22.087-.43.244-.585a.84.84 0 0 1 .591-.243zM43.908 30.079h.779a.84.84 0 0 1 .592.242.824.824 0 0 1 .244.586v.772c0 .22-.088.43-.245.586a.84.84 0 0 1-.591.243h-.778a.841.841 0 0 1-.591-.243.824.824 0 0 1-.245-.586v-.772c0-.22.087-.43.244-.585a.84.84 0 0 1 .591-.243z" fill="#48B066"/></symbol><symbol fill="none" viewBox="0 0 63 46" id="base-outline" xmlns="http://www.w3.org/2000/svg"><path clip-rule="evenodd" d="M10.531 1H62v34.573a9.387 9.387 0 0 1-2.794 6.668A9.574 9.574 0 0 1 52.469 45H10.53a9.574 9.574 0 0 1-6.737-2.759A9.387 9.387 0 0 1 1 35.573V10.43c0-1.239.247-2.465.727-3.61a9.429 9.429 0 0 1 2.066-3.06 9.534 9.534 0 0 1 3.092-2.044A9.608 9.608 0 0 1 10.531 1v0z" stroke="#48B066" stroke-width="1.388"/><path clip-rule="evenodd" d="M18.865 1H61.51v34.573a9.386 9.386 0 0 1-2.794 6.668A9.574 9.574 0 0 1 51.979 45h-23.8a9.574 9.574 0 0 1-6.738-2.759 9.387 9.387 0 0 1-2.794-6.668V10.43L18.865 1z" stroke="#48B066" stroke-width="1.388"/><path fill-rule="evenodd" clip-rule="evenodd" d="M1.318 27.747v-.945h60.364v.945H1.318zM19.056 26.683v-.974h41.662v.974H19.056z" fill="#48B066"/><path fill-rule="evenodd" clip-rule="evenodd" d="M18.565 28.625v-.971h43.132v.97H18.565zM24.937 27.647h-1.966V1.915h1.967v25.732zM56.8 27.647h-1.968V1.915H56.8v25.732zM43.565 27.647h-1.968V1.915h1.968v25.732zM39.153 27.647h-1.968V1.915h1.968v25.732zM47.004 35.603l-4.13-1.415v2.83l4.13-1.415zM52.27 35.603l4.129-1.415v2.83l-4.13-1.415zM49.63 37.24l-1.434 4.089 2.855.003-1.422-4.092zM49.152 33.479l-1.422-4.092 2.854.003-1.432 4.089zM27.396 35.603l-4.13-1.415v2.83l4.13-1.415zM32.172 35.603l4.13-1.415v2.83l-4.13-1.415zM30.021 37.24l-1.432 4.089 2.854.003-1.422-4.092zM29.544 33.479l-1.422-4.092 2.855.003-1.433 4.089zM39.641 42.223l-1.479-3.893 2.947-.003-1.468 3.896zM39.641 29.105l-1.479 3.89 2.947.003-1.468-3.893z" fill="#48B066"/></symbol><symbol fill="none" viewBox="0 0 64 47" id="base-sec" xmlns="http://www.w3.org/2000/svg"><path clip-rule="evenodd" d="M11.082 1h51.827v35.359a9.674 9.674 0 0 1-2.813 6.82A9.564 9.564 0 0 1 53.313 46H11.082a9.567 9.567 0 0 1-6.785-2.822 9.678 9.678 0 0 1-2.815-6.82V10.646a9.678 9.678 0 0 1 2.814-6.822A9.568 9.568 0 0 1 11.082 1v0z" stroke="#48B066" stroke-width="1.408"/><path fill-rule="evenodd" clip-rule="evenodd" d="M1.896 12.868v-1.99h60.71v1.99H1.896zM3.375 42.167v-.996h57.256v.996H3.375zM12 25H2v9h10a4 4 0 0 0 4-4v-1a4 4 0 0 0-4-4zM1 24v11h11a5 5 0 0 0 5-5v-1a5 5 0 0 0-5-5H1z" fill="#48B066"/><path d="M48 34h15v1H48a5 5 0 0 1-5-5c0-2.761 2.5-5.5 5-7l14.5-9v1.5L48 24c-2 1.5-4 3.79-4 6a4 4 0 0 0 4 4z" fill="#48B066"/><path fill-rule="evenodd" clip-rule="evenodd" d="M17 30h-1V12h1v18zM43.99 29.876H43V12h.99v17.876z" fill="#48B066"/></symbol><symbol fill="none" viewBox="0 0 63 46" id="base-sun" xmlns="http://www.w3.org/2000/svg"><path clip-rule="evenodd" d="M10.533 1H62v34.57a9.39 9.39 0 0 1-2.794 6.67A9.576 9.576 0 0 1 52.467 45H10.533a9.576 9.576 0 0 1-6.739-2.76A9.39 9.39 0 0 1 1 35.57V10.427a9.39 9.39 0 0 1 2.795-6.668A9.575 9.575 0 0 1 10.533 1v0z" stroke="#48B066" stroke-width="1.387"/><path d="M1.646 38.595c0-22.92 17.104-19.02 29.99-18.92 12.868.1 28.403-.401 28.059-17.89" stroke="#48B066" stroke-width="1.387"/><path fill-rule="evenodd" clip-rule="evenodd" d="M25.777 15.132a4.8 4.8 0 0 1 2.65.79 4.73 4.73 0 0 1 1.761 2.115c.363.862.46 1.812.277 2.728a4.706 4.706 0 0 1-1.302 2.42 4.78 4.78 0 0 1-2.44 1.295 4.81 4.81 0 0 1-2.755-.266 4.758 4.758 0 0 1-2.141-1.737 4.688 4.688 0 0 1 .586-5.959 4.787 4.787 0 0 1 3.364-1.386z" fill="#48B066"/><path fill-rule="evenodd" clip-rule="evenodd" d="M26 28a9 9 0 0 1-9-9h-2c0 6.075 4.925 11 11 11s11-4.925 11-11h-2a9 9 0 0 1-9 9zm-1 4a1 1 0 0 0-1 1v4a1 1 0 0 0 2 0v-4a1 1 0 0 0-1-1zm-6.8-1.482a1 1 0 1 1 1.733 1l-2 3.464a1 1 0 1 1-1.732-1l2-3.464zm-2.504-4.652a1 1 0 0 0-1.366-.366l-3.464 2a1 1 0 0 0 1 1.732l3.464-2a1 1 0 0 0 .366-1.366zm14.804 6.5a1 1 0 0 1 1.732-1l2 3.464a1 1 0 1 1-1.732 1l-2-3.464zm5-5.634a1 1 0 0 0 .366 1.366l3.464 2a1 1 0 1 0 1-1.732l-3.464-2a1 1 0 0 0-1.366.366z" fill="#48B066"/><path fill-rule="evenodd" clip-rule="evenodd" d="M25 4a1 1 0 0 1 2 0v3.644l3.945-2.278a1 1 0 1 1 1 1.732l-4.579 2.644c-.116.067-.24.108-.366.125V18a1 1 0 0 1-2 0v-7.8l-5.15-3.092a1.002 1.002 0 0 1-.477-.706 1.007 1.007 0 0 1 1.5-1.032l3.577 2.065c.207.12.391.266.55.432V4zm10.155 4.446a1 1 0 0 1 2 0v3.69l2.836-1.636a1 1 0 1 1 1 1.732l-2.947 1.701 3.65 2.108a1 1 0 1 1-1 1.732l-4.578-2.644a1.068 1.068 0 0 1-.069-.043l-7.18 4.146a1 1 0 1 1-1-1.732l7.288-4.209V8.447zm-23.013 9.888a1 1 0 1 1-1-1.732l3.896-2.25-3.672-2.12a1 1 0 1 1 1-1.732l3.316 1.914V8.007a1 1 0 0 1 2 0v5.562L24.49 17.5a1 1 0 0 1-1 1.732l-6.51-3.758c-.072.084-.159.157-.26.216l-4.579 2.644z" fill="#4AB167"/></symbol><symbol viewBox="0 0 43 43" id="clim" xmlns="http://www.w3.org/2000/svg"><path d="M42.773 18.06l-6.924-6.035V2.603a.661.661 0 0 0-.66-.66H29.83a.661.661 0 0 0-.66.66v3.59L22.272.164a.658.658 0 0 0-.872 0L.891 18.061a.658.658 0 0 0-.186.728.67.67 0 0 0 .618.432h5.222v12.452L1.043 36.16A2.747 2.747 0 0 0 .02 37.963a2.66 2.66 0 0 0 .567 1.99l1.634 2.023A2.705 2.705 0 0 0 4.362 43c.592 0 1.185-.186 1.692-.576l.568-.457c.11.22.33.381.592.381h29.244c.364 0 .66-.296.66-.66V19.22h5.223a.662.662 0 1 0 .432-1.16zM30.49 7.345v-4.08h4.038v7.601l-.872-.761-3.166-2.76zM5.233 41.392a1.42 1.42 0 0 1-1.98-.238l-1.634-2.023a1.337 1.337 0 0 1 .254-1.922l9.556-7.796c.068.16.127.313.203.466.339.745.78 1.473 1.312 2.15.254.33.525.635.813.931.093.093.203.178.305.27.186.179.372.357.575.517l-9.404 7.645zm11.14-8.034a6.246 6.246 0 0 1-.305-.203c-.186-.119-.356-.254-.534-.39a9.351 9.351 0 0 1-1.549-1.566 9.264 9.264 0 0 1-1.15-1.88 10.622 10.622 0 0 1-.466-1.218l-.102-.373c-.025-.11-.059-.228-.084-.372-.017-.102-.043-.203-.06-.33a9.402 9.402 0 0 1 3.454-9.134 9.44 9.44 0 0 1 5.849-2.024 9.493 9.493 0 0 1 7.465 3.615c3.225 4.114 2.506 10.09-1.608 13.316a9.466 9.466 0 0 1-10.36.872c-.119-.06-.229-.127-.356-.203a1.202 1.202 0 0 1-.195-.11zM36.457 17.9a.661.661 0 0 0-.66.66v22.46H7.874v-.077l7.88-6.417c.043.025.094.06.136.085.144.093.296.178.432.245a10.726 10.726 0 0 0 5.12 1.295c2.37 0 4.724-.778 6.662-2.302 4.69-3.674 5.51-10.48 1.829-15.17-3.674-4.681-10.48-5.503-15.169-1.82a10.7 10.7 0 0 0-3.944 10.395c.017.136.042.263.076.39.025.144.06.288.093.423l-3.115 2.54V18.56a.661.661 0 0 0-.66-.66H3.092l18.74-16.355 11.47 10.006 1.455 1.27 5.815 5.08h-4.114z"/><path d="M20.242 29.77c-.771 0-1.69-.443-2.813-1.718a.729.729 0 0 1 0-.939.536.536 0 0 1 .826 0c1.832 2.082 2.546 1.348 3.625.237 1.105-1.136 2.618-2.692 5.237.284.228.259.228.679 0 .938a.536.536 0 0 1-.826 0c-1.833-2.083-2.547-1.349-3.627-.238-.63.65-1.395 1.435-2.422 1.435zM18.73 25.34c-.78 0-1.711-.447-2.848-1.738a.73.73 0 0 1 0-.938.536.536 0 0 1 .827 0c1.858 2.112 2.582 1.373 3.679.257 1.101-1.123 2.61-2.66 5.182.263a.73.73 0 0 1 0 .939.536.536 0 0 1-.826 0c-1.79-2.034-2.5-1.31-3.576-.214-.636.647-1.405 1.432-2.439 1.432zM22.264 3.873a.658.658 0 0 0-.872 0L9.6 14.166a.659.659 0 0 0 .432 1.16c.152 0 .313-.05.431-.16l11.368-9.922 7.559 6.603c.279.237.694.212.93-.068a.658.658 0 0 0-.067-.93l-7.99-6.976zM32.54 12.838a.658.658 0 0 0-.932.067.658.658 0 0 0 .068.931l1.523 1.33a.66.66 0 0 0 .931-.068.658.658 0 0 0-.067-.931l-1.524-1.33z"/></symbol><symbol fill="none" viewBox="0 0 55 55" id="dop-1" xmlns="http://www.w3.org/2000/svg"><path fill-rule="evenodd" clip-rule="evenodd" d="M27.5 0C42.69 0 55 12.31 55 27.5S42.69 55 27.5 55C12.31 55.087 0 42.69 0 27.5S12.31 0 27.5 0z" fill="#F19000"/><path d="M27.587 3.754c13.183 0 23.834 10.65 23.834 23.833 0 13.183-10.651 23.833-23.834 23.833-13.095 0-23.833-10.65-23.833-23.833 0-13.182 10.65-23.833 23.833-23.833zm0 0c11 0 20.254 7.42 22.96 17.547-2.88 3.667-7.682 6.199-22.96 6.199-15.277 0-19.468 8.555-20.08 12.746A23.486 23.486 0 0 1 3.755 27.5c0-13.095 10.65-23.746 23.833-23.746z" stroke="#fff" stroke-width="2.128" stroke-miterlimit="2.613" stroke-linecap="round" stroke-linejoin="round"/><path fill-rule="evenodd" clip-rule="evenodd" d="M27.587 20.166c4.016 0 7.246 3.143 7.334 7.072-2.183.175-4.54.262-7.334.262-2.793 0-5.238.262-7.333.785V27.5c-.087-4.016 3.23-7.334 7.333-7.334z" fill="#fff" stroke="#fff" stroke-width="2.128" stroke-miterlimit="2.613" stroke-linecap="round" stroke-linejoin="round"/><path d="M27.5 27.5l13.619-13.532M27.587 8.381V27.5 8.38zm0 28.547v9.865-9.865zm-13.619-22.96L27.5 27.5 13.968 13.968zm20.254 20.254l6.897 6.897-6.897-6.897zM8.381 27.5h38.413H8.38zm5.587 13.619l6.984-6.984-6.984 6.984z" stroke="#fff" stroke-width="2.128" stroke-miterlimit="2.613" stroke-linecap="round" stroke-linejoin="round"/><path d="M51.595 21.04c.087.261.175.61.262.872.087.262.175.611.175.873.262 1.484.436 3.143.436 4.714a24.734 24.734 0 0 1-7.246 17.548c-4.54 4.54-10.738 7.333-17.635 7.333-4.452 0-8.555-1.135-12.135-3.143-.61-.349-1.134-.698-1.746-1.047-2.88-1.92-5.238-4.365-7.158-7.334-.175-.261-.175-.523-.175-.698v-.087c.087-.611.262-1.31.524-2.095.262-.786.61-1.66 1.135-2.445 2.444-4.278 7.944-8.992 19.468-8.992 7.508 0 12.397-.611 15.802-1.659 3.23-1.047 4.976-2.444 6.373-4.103.349-.436 1.047-.524 1.484-.174.262 0 .349.174.436.436zm-1.31 6.46c0-1.397-.087-2.707-.348-4.016-1.397 1.31-3.23 2.444-5.937 3.317-3.58 1.135-8.73 1.833-16.413 1.833-10.476 0-15.452 4.103-17.635 7.945-.436.698-.698 1.484-.96 2.095-.175.524-.262.96-.35 1.397 1.66 2.532 3.842 4.627 6.287 6.373.523.349 1.047.61 1.571.96 3.317 1.833 7.071 2.881 11.087 2.881 6.286 0 11.96-2.532 16.064-6.635 4.103-4.19 6.635-9.865 6.635-16.15z" fill="#fff"/><path d="M32.476 11.873L27.587 16.5l-4.889-4.627m-2.793 1.135l-.262 6.722-6.722.262m-1.135 2.706l4.627 4.89-4.627 4.888m31.428-9.778l-4.627 4.89m-3.405-14.58l.262 6.722 6.723.262" stroke="#fff" stroke-width="2.128" stroke-miterlimit="2.613" stroke-linecap="round" stroke-linejoin="round"/><path fill-rule="evenodd" clip-rule="evenodd" d="M22.175 39.023c.785 0 1.484.699 1.484 1.485 0 .785-.699 1.396-1.484 1.396-.786 0-1.485-.698-1.485-1.484 0-.785.612-1.397 1.485-1.397zM31.865 39.46c.611-.611 1.484-.611 2.095 0 .611.61.611 1.484 0 2.095-.61.611-1.484.611-2.095 0-.611-.611-.611-1.571 0-2.095zM38.937 32.912c0-.785.698-1.484 1.484-1.484.785 0 1.484.699 1.484 1.484 0 .786-.699 1.485-1.484 1.485-.786 0-1.484-.699-1.484-1.485zM15.627 31.865c.611.611.611 1.484 0 2.095-.611.611-1.484.611-2.095 0-.611-.61-.611-1.484 0-2.095.61-.611 1.484-.611 2.095 0z" fill="#fff" stroke="#fff" stroke-width=".189" stroke-miterlimit="2.613"/><path d="M37.016 27.064v.436a9.39 9.39 0 0 1-9.429 9.428c-4.714 0-8.643-3.492-9.341-8.118 2.532-.873 5.587-1.31 9.341-1.31 3.667 0 6.81-.087 9.429-.436z" stroke="#fff" stroke-width="2.128" stroke-miterlimit="2.613" stroke-linecap="round" stroke-linejoin="round"/></symbol><symbol fill="none" viewBox="0 0 55 55" id="dop-2" xmlns="http://www.w3.org/2000/svg"><path fill-rule="evenodd" clip-rule="evenodd" d="M27.5 0C42.69 0 55 12.31 55 27.5S42.69 55 27.5 55C12.31 55.087 0 42.69 0 27.5S12.31 0 27.5 0z" fill="#009B48"/><path d="M50.46 21.301c.524 2.008.873 4.103.873 6.199 0 13.182-10.65 23.833-23.833 23.833-8.468 0-15.889-4.365-20.08-11 .699-4.278 4.802-12.746 20.08-12.746 15.278-.087 20.08-2.62 22.96-6.286z" stroke="#fff" stroke-width="2.128" stroke-miterlimit="2.613" stroke-linecap="round" stroke-linejoin="round"/><path d="M27.5 3.754c11 0 20.254 7.42 22.96 17.547-2.88 3.667-7.682 6.199-22.96 6.199S8.032 36.055 7.42 40.246A23.486 23.486 0 0 1 3.668 27.5C3.754 14.405 14.405 3.754 27.5 3.754z" stroke="#fff" stroke-width="2.128" stroke-miterlimit="2.613" stroke-linecap="round" stroke-linejoin="round"/><path fill-rule="evenodd" clip-rule="evenodd" d="M42.69 26.015c-3.317.873-7.857 1.397-14.404 1.485v-4.104H42.69v2.62z" fill="#fff" stroke="#fff" stroke-width=".189" stroke-miterlimit="2.613"/><path d="M27.5 2.707a24.734 24.734 0 0 1 17.548 7.246A24.889 24.889 0 0 1 52.294 27.5a24.734 24.734 0 0 1-7.246 17.547c-4.453 4.54-10.651 7.334-17.548 7.334a24.734 24.734 0 0 1-17.548-7.246 24.889 24.889 0 0 1-7.246-17.548A24.734 24.734 0 0 1 9.952 10.04C14.405 5.413 20.691 2.707 27.5 2.707zm0 2.095a22.627 22.627 0 0 0-16.063 6.635A22.627 22.627 0 0 0 4.802 27.5c0 6.286 2.531 11.96 6.635 16.063A22.627 22.627 0 0 0 27.5 50.198c6.286 0 11.96-2.532 16.063-6.635A22.626 22.626 0 0 0 50.198 27.5c0-6.286-2.531-11.96-6.635-16.063A22.627 22.627 0 0 0 27.5 4.802z" fill="#fff"/><path fill-rule="evenodd" clip-rule="evenodd" d="M15.19 18.857h2.62l.61 9.952c-1.484.524-2.793 1.048-3.928 1.746l.698-11.698zM22.611 22.262h2.183l.349 5.325c-1.048.087-2.008.175-2.881.35l.35-5.675zM18.77 8.293c1.397 0 2.532.96 2.794 2.183-.35.262-.699.698-.96 1.31-.612 1.484-1.398 1.745-3.056 1.92-.96-.436-1.572-1.397-1.572-2.532-.087-1.571 1.222-2.88 2.794-2.88z" fill="#fff" stroke="#fff" stroke-width=".189" stroke-miterlimit="2.613"/><path d="M16.15 17.373s-.61-3.841 1.485-4.103c2.095-.262 1.746-.786 2.706-2.008.873-1.135 2.62-1.572 3.58-.699.96.873 2.27.786 3.055.262.786-.61.873-1.484 2.62-1.571 1.833-.087 3.753 2.619 5.674.524 1.92-2.095 3.055-1.397 4.103-.088 1.31 1.66 2.794.524 4.19.262 2.008 1.834 3.667 3.929 4.89 6.286-.612 1.222-1.66 2.095-3.056-.087-.611-.611-1.572-2.357-2.532-2.532-2.706-.35-2.706 1.659-4.976 1.833-1.572.088-1.833-2.095-3.056-2.182-1.31-.088-2.182 1.484-3.317 1.484-1.31 0-2.095-1.222-4.016-.96-3.143.523-.698 2.357-5.762 2.008-2.095-.088-5.5-.262-5.587 1.571z" stroke="#fff" stroke-width="1.746" stroke-miterlimit="2.613" stroke-linejoin="round"/><path fill-rule="evenodd" clip-rule="evenodd" d="M22.96 20.952c-.61-1.659-2.444-2.444-1.658-4.452.523-1.31 2.095-.96 3.23-.96 2.008.087.96-2.096 3.055-2.358 1.834-.262 2.707 1.659 4.016 1.659 1.048 0 1.92-1.571 3.318-1.484 1.222.087 1.397 2.27 3.055 2.182 2.183-.087 2.27-2.095 4.976-1.833 1.834.262 1.921 1.397 3.143 1.397.437 0 .873-.35 1.397-.698.873 1.396 1.659 2.793 2.27 4.365-4.54-.175-9.516-1.048-11.087-.699-3.58.786-4.802-.698-7.945.35-2.706.96-6.81-2.445-7.77 2.531z" fill="#fff" stroke="#fff" stroke-width=".189" stroke-miterlimit="2.613"/><path d="M45.833 32.475C43.651 40.77 36.056 46.531 27.5 46.531c-7.42 0-14.056-4.278-17.198-11m27.936.96a13.906 13.906 0 0 1-10.65 4.977c-6.286 0-11.874-4.278-13.445-10.302m17.81 4.016a8.747 8.747 0 0 1-4.453 1.222c-4.278 0-7.944-3.056-8.73-7.333" stroke="#fff" stroke-width="2.128" stroke-miterlimit="2.613" stroke-linecap="round" stroke-linejoin="round"/></symbol><symbol fill="none" viewBox="0 0 55 55" id="dop-3" xmlns="http://www.w3.org/2000/svg"><path fill-rule="evenodd" clip-rule="evenodd" d="M27.5 0C42.69 0 55 12.31 55 27.5S42.69 55 27.5 55C12.31 55.087 0 42.69 0 27.5S12.31 0 27.5 0z" fill="#A43C8A"/><path d="M50.46 21.301c.524 2.008.873 4.103.873 6.199 0 13.182-10.65 23.833-23.833 23.833-8.468 0-15.889-4.365-20.08-11 .699-4.278 4.802-12.746 20.08-12.746 15.278-.087 20.08-2.62 22.96-6.286z" stroke="#fff" stroke-width="2.128" stroke-miterlimit="2.613" stroke-linecap="round" stroke-linejoin="round"/><path d="M27.5 2.707a24.734 24.734 0 0 1 17.548 7.246A24.889 24.889 0 0 1 52.294 27.5a24.734 24.734 0 0 1-7.246 17.547c-4.453 4.54-10.651 7.334-17.548 7.334a24.734 24.734 0 0 1-17.548-7.246 24.889 24.889 0 0 1-7.246-17.548A24.734 24.734 0 0 1 9.952 10.04C14.405 5.413 20.691 2.707 27.5 2.707zm0 2.095a22.627 22.627 0 0 0-16.063 6.635A22.627 22.627 0 0 0 4.802 27.5c0 6.286 2.531 11.96 6.635 16.063A22.627 22.627 0 0 0 27.5 50.198c6.286 0 11.96-2.532 16.063-6.635A22.626 22.626 0 0 0 50.198 27.5c0-6.286-2.531-11.96-6.635-16.063A22.627 22.627 0 0 0 27.5 4.802z" fill="#fff"/><path d="M27.5 3.754c11 0 20.254 7.42 22.96 17.547-2.88 3.667-7.682 6.199-22.96 6.199S8.032 36.055 7.42 40.246A23.486 23.486 0 0 1 3.668 27.5C3.754 14.405 14.405 3.754 27.5 3.754zm5.238 17.81a7.897 7.897 0 0 1 .786 11.174l-.786-11.175zm-20.603 1.483h2.794c.61 0 1.222.524 1.222 1.223v8.992c0 .61-.524 1.222-1.222 1.222h-2.794c-.611 0-1.222-.524-1.222-1.222V24.27c.087-.699.61-1.223 1.222-1.223z" stroke="#fff" stroke-width="2.128" stroke-miterlimit="2.613" stroke-linecap="round" stroke-linejoin="round"/><path fill-rule="evenodd" clip-rule="evenodd" d="M12.135 23.047h2.794c.61 0 1.222.524 1.222 1.223v5.412c-2.183.96-3.841 2.27-5.151 3.58V24.27c0-.699.524-1.223 1.135-1.223z" fill="#fff" stroke="#fff" stroke-width="2.128" stroke-miterlimit="2.613" stroke-linecap="round" stroke-linejoin="round"/><path d="M27.85 10.301c1.047 0 1.92.524 1.92 1.223V45.92c0 .698-.873 1.222-1.92 1.222l-9.255-12.658V23.047l9.254-12.746z" stroke="#fff" stroke-width="2.128" stroke-miterlimit="2.613" stroke-linecap="round" stroke-linejoin="round"/><path fill-rule="evenodd" clip-rule="evenodd" d="M27.85 10.301c1.047 0 1.92.524 1.92 1.223V27.5H27.5c-3.58 0-6.46.436-8.905 1.222v-5.675l9.254-12.746z" fill="#fff" stroke="#fff" stroke-width="2.128" stroke-miterlimit="2.613" stroke-linecap="round" stroke-linejoin="round"/><path d="M34.31 16.413c.349.261.698.523 1.047.873 2.62 2.27 4.103 5.412 4.365 8.73M36.93 12.659c.523.349.96.698 1.484 1.135a16.789 16.789 0 0 1 5.849 11l-7.333-12.135z" stroke="#fff" stroke-width="2.128" stroke-miterlimit="2.613" stroke-linecap="round" stroke-linejoin="round"/></symbol><symbol fill="none" viewBox="0 0 55 55" id="dop-4" xmlns="http://www.w3.org/2000/svg"><path fill-rule="evenodd" clip-rule="evenodd" d="M27.5 0C42.69 0 55 12.31 55 27.5S42.69 55 27.5 55C12.31 55.087 0 42.69 0 27.5S12.31 0 27.5 0z" fill="#C5AA0C"/><path d="M50.373 21.301c.524 2.008.873 4.103.873 6.199 0 13.182-10.65 23.833-23.833 23.833-8.469 0-15.89-4.365-20.08-11 .699-4.278 4.802-12.746 20.08-12.746 15.277-.087 20.08-2.62 22.96-6.286z" stroke="#fff" stroke-width="2.128" stroke-miterlimit="2.613" stroke-linecap="round" stroke-linejoin="round"/><path d="M27.413 2.707c2.095 0 4.103.261 6.024.785 1.396.35 2.793.873 4.103 1.397 6.722 2.968 11.873 8.905 13.88 16.15.088.35 0 .786-.261 1.048-1.572 1.92-3.667 3.58-7.334 4.802-3.579 1.135-8.73 1.833-16.412 1.833-2.096 0-3.929.175-5.588.437-1.658.262-3.142.698-4.365 1.222C11 32.913 8.905 37.8 8.468 40.595c-.087.611-.61.96-1.222.873-.35-.087-.611-.262-.698-.524v-.087c-.35-.524-.611-1.048-.96-1.571a16.278 16.278 0 0 1-.874-1.746c-1.31-3.056-2.095-6.373-2.095-9.953A24.734 24.734 0 0 1 9.865 10.04c4.453-4.627 10.65-7.333 17.548-7.333zm0 2.095a22.627 22.627 0 0 0-16.064 6.635A22.627 22.627 0 0 0 4.714 27.5c0 3.23.699 6.286 1.92 9.08.176.349.263.61.437.872 1.223-3.142 3.929-6.984 9.604-9.254 1.396-.523 2.968-1.047 4.801-1.31 1.746-.348 3.754-.523 5.937-.523 7.508 0 12.396-.611 15.801-1.659 2.968-.96 4.715-2.27 6.024-3.754-1.92-6.285-6.547-11.523-12.571-14.142a27.255 27.255 0 0 0-3.754-1.31 22.597 22.597 0 0 0-5.5-.698z" fill="#fff"/><path d="M27.413 2.707A24.734 24.734 0 0 1 44.96 9.953 24.888 24.888 0 0 1 52.206 27.5a24.734 24.734 0 0 1-7.246 17.547c-4.452 4.54-10.65 7.334-17.547 7.334a24.734 24.734 0 0 1-17.548-7.246A24.889 24.889 0 0 1 2.62 27.587 24.734 24.734 0 0 1 9.865 10.04c4.453-4.627 10.65-7.333 17.548-7.333zm0 2.095a22.627 22.627 0 0 0-16.064 6.635A22.627 22.627 0 0 0 4.714 27.5c0 6.286 2.532 11.96 6.635 16.063a22.627 22.627 0 0 0 16.064 6.635c6.285 0 11.96-2.532 16.063-6.635A22.626 22.626 0 0 0 50.111 27.5c0-6.286-2.532-11.96-6.635-16.063a22.627 22.627 0 0 0-16.063-6.635z" fill="#fff"/><path d="M31.952 10.738L27.5 27.5m-.087-8.992c4.976 0 9.08 4.015 9.08 9.079 0 4.976-4.017 9.08-9.08 9.08-4.977 0-9.08-4.017-9.08-9.08 0-5.064 4.104-9.08 9.08-9.08zm0 26.103v-8.032 8.032zm0-17.111V7.42 27.5zm0 0L22.96 10.738 27.413 27.5zm0 0L18.77 12.484 27.413 27.5zM39.46 39.634l-5.674-5.674 5.674 5.674zM27.325 27.5l-14.23-14.23 14.23 14.23zm0 0L12.31 18.857 27.325 27.5zm-.087 0l-16.587-4.453L27.238 27.5zm20.341.087H7.246h40.333zm-3.317-4.54L27.675 27.5l16.587-4.453zm-31.254 8.381l-2.357.611 2.357-.61zm29.508-12.571L27.5 27.5l15.016-8.643zm-.786-5.587L27.5 27.5l14.23-14.23zM21.04 33.96l-5.588 5.587 5.588-5.587zm15.103-21.476L27.5 27.5l8.643-15.016z" stroke="#fff" stroke-width="2.128" stroke-miterlimit="2.613" stroke-linecap="round" stroke-linejoin="round"/><path fill-rule="evenodd" clip-rule="evenodd" d="M27.413 18.508c4.889 0 8.817 3.841 9.08 8.643-2.533.262-5.5.436-9.08.436-3.318 0-6.111.437-8.469 1.048-.523.174-.436.262-.523-.35V27.5c-.088-4.976 4.015-8.992 8.992-8.992z" fill="#fff" stroke="#fff" stroke-width="2.128" stroke-miterlimit="2.613" stroke-linecap="round" stroke-linejoin="round"/></symbol><symbol fill="none" viewBox="0 0 55 55" id="dop-5" xmlns="http://www.w3.org/2000/svg"><path fill-rule="evenodd" clip-rule="evenodd" d="M27.5 0C42.69 0 55 12.31 55 27.5S42.69 55 27.5 55C12.31 55.087 0 42.69 0 27.5S12.31 0 27.5 0z" fill="#0089AD"/><path d="M27.5 2.707c2.095 0 4.103.261 6.024.785 1.397.35 2.794.873 4.103 1.397a24.49 24.49 0 0 1 13.88 16.15c.088.35 0 .786-.261 1.048-1.571 1.921-3.667 3.58-7.333 4.715-3.58 1.134-8.73 1.833-16.413 1.833-2.095 0-3.929.174-5.587.436-1.659.262-3.143.699-4.365 1.223-6.46 2.531-8.556 7.42-8.992 10.214-.088.61-.612.96-1.223.873-.349-.087-.61-.262-.698-.524v-.087c-.35-.524-.611-1.048-.96-1.572a16.278 16.278 0 0 1-.873-1.746c-1.31-3.055-2.096-6.373-2.096-9.952A24.734 24.734 0 0 1 9.952 9.953c4.453-4.54 10.739-7.246 17.548-7.246zm0 2.095a22.627 22.627 0 0 0-16.063 6.635A22.627 22.627 0 0 0 4.802 27.5c0 3.23.698 6.286 1.92 9.08.175.349.262.61.437.872 1.222-3.142 3.928-6.984 9.603-9.254 1.397-.523 2.968-1.047 4.802-1.31 1.745-.348 3.753-.523 5.936-.523 7.508 0 12.397-.611 15.802-1.659 2.968-.96 4.714-2.27 6.023-3.754-1.92-6.285-6.547-11.523-12.484-14.142a27.25 27.25 0 0 0-3.754-1.31c-1.833-.436-3.666-.698-5.587-.698z" fill="#fff"/><path d="M51.508 21.04c.087.261.174.61.262.872.087.262.174.611.174.873.262 1.484.437 3.143.437 4.714a24.734 24.734 0 0 1-7.246 17.548c-4.54 4.54-10.738 7.333-17.635 7.333-4.452 0-8.556-1.135-12.135-3.143-.611-.349-1.135-.698-1.746-1.047-2.88-1.92-5.238-4.365-7.159-7.334-.174-.261-.174-.523-.174-.698v-.087c.087-.611.262-1.31.524-2.095.261-.786.61-1.66 1.134-2.445 2.445-4.278 7.945-8.992 19.469-8.992 7.508 0 12.396-.611 15.801-1.659 3.23-1.047 4.977-2.444 6.373-4.103.35-.436 1.048-.524 1.484-.174.262 0 .35.174.437.436zm-1.222 6.46c0-1.397-.088-2.707-.35-4.016-1.396 1.31-3.23 2.444-5.936 3.317-3.58 1.135-8.73 1.833-16.413 1.833-10.476 0-15.452 4.103-17.635 7.945-.436.698-.698 1.484-.96 2.095-.175.524-.262.96-.35 1.397 1.66 2.532 3.842 4.627 6.287 6.373.523.349 1.047.61 1.571.96 3.317 1.833 7.071 2.881 11.087 2.881 6.286 0 11.96-2.532 16.064-6.635 4.103-4.19 6.635-9.865 6.635-16.15z" fill="#fff"/><path fill-rule="evenodd" clip-rule="evenodd" d="M27.5 21.913c3.056 0 5.5 2.444 5.587 5.5-1.658.087-3.58.174-5.587.174-2.095 0-3.929.175-5.587.437v-.437c0-3.143 2.532-5.674 5.587-5.674z" fill="#fff" stroke="#fff" stroke-width=".189" stroke-miterlimit="2.613"/><path d="M21.913 27.936v4.19h-4.19v-3.055c1.222-.524 2.618-.873 4.19-1.135z" stroke="#fff" stroke-width="1.746" stroke-miterlimit="2.613" stroke-linejoin="round"/><path d="M27.5 17.81c5.238 0 9.429 4.102 9.69 9.253-2.619.35-5.849.437-9.69.437-3.841 0-6.984.523-9.603 1.396-.087-.436-.087-.96-.087-1.396 0-5.326 4.365-9.69 9.69-9.69z" stroke="#fff" stroke-width="1.746" stroke-miterlimit="2.613"/><path fill-rule="evenodd" clip-rule="evenodd" d="M46.182 24.793c-1.309-8.642-8.817-15.277-17.809-15.277v1.134l4.19 1.485-4.19.524v1.309c7.071 0 12.833 5.413 13.532 12.31a30.218 30.218 0 0 0 4.277-1.485z" fill="#fff" stroke="#fff" stroke-width=".189" stroke-miterlimit="2.613"/><path d="M33.175 27.413h4.19v4.714h-4.19v-4.714z" stroke="#fff" stroke-width="1.746" stroke-miterlimit="2.613" stroke-linejoin="round"/><path d="M39.198 32.127v5.325c0 5.15-4.277 9.428-9.428 9.428h-4.54c-5.15 0-9.428-4.277-9.428-9.428v-4.54-.785h23.396v0z" stroke="#fff" stroke-width="2.128" stroke-miterlimit="2.613" stroke-linejoin="round"/><path fill-rule="evenodd" clip-rule="evenodd" d="M27.5 34.484c1.571 0 2.881 1.31 2.881 2.88 0 .874-.35 1.572-.96 2.096v3.056c0 1.047-.873 1.92-1.921 1.92a1.938 1.938 0 0 1-1.92-1.92V39.46a2.789 2.789 0 0 1-.961-2.095c.087-1.659 1.31-2.881 2.881-2.881zM10.389 20.865A17.954 17.954 0 0 1 22.61 10.04l.262 1.047-3.667 2.532 4.19-.524.35 1.31a13.352 13.352 0 0 0-9.167 8.206l-4.19-1.746z" fill="#fff" stroke="#fff" stroke-width=".189" stroke-miterlimit="2.613"/><path fill-rule="evenodd" clip-rule="evenodd" d="M12.659 14.492l1.484-1.572c.436-.436 1.222-.523 1.659 0l6.634 6.373c-1.309.786-2.357 1.921-3.142 3.143l-6.548-6.285a1.139 1.139 0 0 1-.087-1.66z" fill="#fff" stroke="#fff" stroke-width=".189" stroke-miterlimit="2.613"/></symbol><symbol fill="none" viewBox="0 0 55 55" id="dop-6" xmlns="http://www.w3.org/2000/svg"><path fill-rule="evenodd" clip-rule="evenodd" d="M27.5 0C42.69 0 55 12.31 55 27.5S42.69 55 27.5 55C12.31 55.087 0 42.69 0 27.5S12.31 0 27.5 0z" fill="#E271A8"/><path d="M27.5 3.754c11 0 20.254 7.42 22.96 17.547-2.88 3.667-7.682 6.199-22.96 6.199S8.032 36.055 7.42 40.246A23.486 23.486 0 0 1 3.668 27.5C3.754 14.405 14.405 3.754 27.5 3.754z" stroke="#fff" stroke-width="2.128" stroke-miterlimit="2.613" stroke-linecap="round" stroke-linejoin="round"/><path d="M50.548 21.301c.087.262.174.611.174.873.087.262.087.611.175.873.262 1.484.436 2.968.436 4.54 0 6.635-2.706 12.571-6.984 16.849C39.984 48.8 34.048 51.42 27.5 51.42c-4.278 0-8.206-1.135-11.698-3.056-.524-.349-1.135-.61-1.66-1.047a24.695 24.695 0 0 1-6.809-6.984c.088-.611.262-1.31.524-2.008.262-.699.611-1.484 1.048-2.27 2.357-4.103 7.595-8.468 18.595-8.468 7.595 0 12.659-.611 16.063-1.746 3.405-1.135 5.326-2.62 6.81-4.453l.087-.174.088.087zm.087.873c-.087-.262-.087-.436-.175-.698-1.484 1.746-3.404 3.317-6.81 4.365-3.491 1.135-8.468 1.746-16.15 1.746-10.913 0-16.15 4.365-18.42 8.38a17.07 17.07 0 0 0-1.048 2.27 10.735 10.735 0 0 0-.524 1.921 22.325 22.325 0 0 0 6.81 6.897c.523.35 1.047.698 1.658.96a23.485 23.485 0 0 0 11.611 3.056c6.548 0 12.484-2.62 16.762-6.984 4.278-4.278 6.984-10.215 6.984-16.762 0-1.572-.174-3.056-.436-4.54-.175-.087-.262-.349-.262-.61z" fill="#fff"/><path d="M27.5 2.707a24.734 24.734 0 0 1 17.548 7.246A24.889 24.889 0 0 1 52.294 27.5a24.734 24.734 0 0 1-7.246 17.547c-4.453 4.54-10.651 7.334-17.548 7.334a24.734 24.734 0 0 1-17.548-7.246 24.889 24.889 0 0 1-7.246-17.548A24.734 24.734 0 0 1 9.952 10.04C14.405 5.413 20.691 2.707 27.5 2.707zm0 2.095a22.627 22.627 0 0 0-16.063 6.635A22.627 22.627 0 0 0 4.802 27.5c0 6.286 2.531 11.96 6.635 16.063A22.627 22.627 0 0 0 27.5 50.198c6.286 0 11.96-2.532 16.063-6.635A22.626 22.626 0 0 0 50.198 27.5c0-6.286-2.531-11.96-6.635-16.063A22.627 22.627 0 0 0 27.5 4.802z" fill="#fff"/><path d="M13.444 39.285c3.492 4.104 8.643 6.548 14.056 6.548 5.063 0 9.603-2.095 12.92-5.413.35-.349.786-.785 1.048-1.222M4.365 33c4.54-7.683 14.318-10.913 23.135-10.913 5.063 0 8.73-.262 11.524-.786 4.365-.785 6.024-3.579 9.428-4.976" stroke="#fff" stroke-width="2.128" stroke-miterlimit="2.613" stroke-linecap="round" stroke-linejoin="round"/><path d="M14.929 7.333l.349-.087c3.928-.96 8.206-.873 12.222-.873 2.532 0 4.802-.61 7.071-1.571" stroke="#fff" stroke-width="2.128" stroke-miterlimit="2.613"/><path d="M6.46 16.5c6.024-3.405 13.096-5.064 19.818-5.238h4.452c4.278-.088 6.984-1.659 10.127-3.318" stroke="#fff" stroke-width="2.128" stroke-miterlimit="2.613" stroke-linecap="round" stroke-linejoin="round"/><path fill-rule="evenodd" clip-rule="evenodd" d="M27.5 35.444c1.397 0 2.619 1.135 2.619 2.62v1.222h-5.238v-1.223c0-1.484 1.222-2.619 2.619-2.619zM37.54 26.976c0 .175.087.35.087.524v2.444c0 1.397-1.135 2.62-2.62 2.62-1.396 0-2.618-1.136-2.618-2.62v-2.531c1.92-.088 3.58-.175 5.15-.437zM22.786 27.85v2.182c0 1.396-1.135 2.619-2.62 2.619-1.396 0-2.618-1.135-2.618-2.62v-.96c1.484-.524 3.23-.96 5.238-1.222z" fill="#fff" stroke="#fff" stroke-width=".189" stroke-miterlimit="2.613"/><path d="M3.841 25.055c6.024-5.674 14.754-8.293 22.96-8.38.263 0 .524-.088.786-.088 4.89 0 10.127.35 14.23-2.619 1.048-.786 2.183-1.571 3.58-2.27" stroke="#fff" stroke-width="2.128" stroke-miterlimit="2.613" stroke-linecap="round" stroke-linejoin="round"/><path fill-rule="evenodd" clip-rule="evenodd" d="M31.516 5.937l4.452 9.34-10.214 1.747c.262-6.373.698-7.246 5.762-11.087zM40.42 24.532l-4.452-9.342 10.214-1.746c-.261 6.373-.698 7.246-5.761 11.088z" fill="#fff" stroke="#fff" stroke-width="2.128" stroke-miterlimit="2.613" stroke-linecap="round" stroke-linejoin="round"/></symbol><symbol viewBox="0 0 36 36" id="gost" xmlns="http://www.w3.org/2000/svg"><path d="M18.492.204A.71.71 0 0 0 18 0a.74.74 0 0 0-.5.204.708.708 0 0 0-.203.5.74.74 0 0 0 .204.498c.133.134.31.204.499.204a.74.74 0 0 0 .5-.204.703.703 0 0 0-.007-.998zM13.795 9.668a.696.696 0 0 0-.499-.204.74.74 0 0 0-.5.204.696.696 0 0 0-.203.499.696.696 0 0 0 .703.703.74.74 0 0 0 .5-.204.696.696 0 0 0 .203-.499.68.68 0 0 0-.204-.5zM11.854 11.608a.7.7 0 0 0-.99 0l-6.266 6.265a.7.7 0 0 0 .5 1.196.72.72 0 0 0 .499-.204L11.86 12.6a.707.707 0 0 0-.007-.992z"/><path d="M33.188 33.18h2.109a.705.705 0 0 0 .703-.703V4.641.703A.705.705 0 0 0 35.297 0H21.586a.705.705 0 0 0-.703.703c0 .387.316.703.703.703h13.008v2.532H1.406V1.405h13.261a.705.705 0 0 0 .703-.703.705.705 0 0 0-.703-.703H.703A.705.705 0 0 0 0 .703V32.477c0 .387.316.704.703.704H24.47v1.286c0 .042 0 .085.007.127H10.167a.705.705 0 0 0-.703.703c0 .387.316.703.703.703h25.13a.705.705 0 0 0 .703-.703.705.705 0 0 0-.703-.703H33.18c0-.042.007-.085.007-.127v-1.286zm-15.891-1.406H1.407V30.01L14.504 16.91a.7.7 0 1 0-.99-.991L1.405 28.027V5.344h15.89v26.43zm14.484 2.693c0 .07-.056.127-.126.127h-5.66a.126.126 0 0 1-.127-.127v-6.904h5.906v6.904h.007zm-4.226-8.31h-.625c-.19-.922-.45-1.815-.774-2.666a4.508 4.508 0 0 1 1.4 2.665zm-.83-6.821a5.188 5.188 0 0 1 2.166 4.134c-.112.408-.196.83-.267 1.252a5.768 5.768 0 0 0-.703-1.336 19.713 19.713 0 0 0-1.195-4.05zm3.34 1.315c-.084.147-.168.295-.245.45a6.807 6.807 0 0 0-.345-.724c0-.014.007-.036.007-.05 0-.063.063-1.237.85-2.144a10.267 10.267 0 0 0-.273 2.355c0 .043 0 .078.007.113zm1.569.14c-.507 1.73-.837 3.643-.907 5.365h-.823c.056-1.933.675-3.79 1.73-5.365zm.85 5.365h-.344c.12-2.756.984-6.124 2.11-8.086.006-.014.02-.035.027-.056a.707.707 0 0 0-1.055-.872c-.548.401-1.054.844-1.518 1.33.133-.578.33-1.147.577-1.681a.71.71 0 0 0-.148-.802.696.696 0 0 0-.802-.127l-.752.38c-1.294.647-1.92 1.751-2.222 2.637a6.7 6.7 0 0 0-1.8-1.28l-1.104-.513a.7.7 0 0 0-.816.155.703.703 0 0 0-.105.822l.07.134a17.689 17.689 0 0 1 1.47 3.523c-.091-.05-.183-.099-.274-.141l-.921-.443a.7.7 0 0 0-.816.155.703.703 0 0 0-.105.822l.063.113c.647 1.174 1.146 2.524 1.462 3.937h-.31a.705.705 0 0 0-.702.703v4.915h-5.766V5.344h15.89v26.43h-1.406V26.86a.705.705 0 0 0-.703-.703z"/><path d="M7.397 34.798a.696.696 0 0 0-.5-.204.74.74 0 0 0-.499.204.696.696 0 0 0-.203.499c0 .19.077.366.203.5.134.133.31.203.5.203s.365-.077.499-.204a.696.696 0 0 0 .204-.5c0-.189-.07-.365-.204-.498z"/></symbol><symbol viewBox="0 0 36 36" id="lamination" xmlns="http://www.w3.org/2000/svg"><path d="M35.4 0H5.7A5.707 5.707 0 0 0 0 5.7v29.7a.6.6 0 0 0 .6.6h10.2a.6.6 0 0 0 .6-.6v-8.428l1.214 2.103 3 5.197a.601.601 0 0 0 .82.22l8.833-5.1a.601.601 0 0 0 .22-.82l-3-5.197-1.213-2.1 2.1 1.214 5.196 3a.6.6 0 0 0 .82-.22l5.1-8.834a.6.6 0 0 0-.22-.82l-5.196-3-2.102-1.215H35.4a.6.6 0 0 0 .6-.6V.6a.6.6 0 0 0-.6-.6zM18 1.2h4.8v9H18v-9zm4.156 10.2l-3.896 6.748-4.157-2.4 2.51-4.348h5.543zM12 1.2h4.8v9H12v-9zm3.227 10.2l-2.163 3.748-.464-.268-3.694-2.132.78-1.348h5.541zM6.3 12.63l1.487.857L11.1 15.4l-3.745 2.16-.269-.46-2.131-3.692 1.345-.779zm-1.946-.263l-.746-1.293 1.492.862-.746.431zm2.218-.967h1.727l-.432.748-1.267-.732-.028-.016zM5.7 1.2h5.1v9H5.7a4.5 4.5 0 0 1 0-9zM1.2 9.305l.863 1.495H1.2V9.305zM1.2 12h1.556l.858 1.487.709 1.227L5.527 16.8H1.2V12zm0 6h5.02l.394.683L8.992 22.8H1.2V18zm9 16.8h-9V30h9v4.8zm0-6h-9V24h8.484l.516.893V28.8zm.168-6.049L7.958 18.6l4.342-2.507.683.394 4.117 2.378-6.732 3.886zm.955 1.688l-.36-.644 3.934-2.271L18.3 19.56l.895.516 1.952 3.382-3.9 2.25-3.896 2.25-2.028-3.52zm10.425.057l2.4 4.156-7.794 4.5-2.4-4.156 3.897-2.25 3.897-2.25zm11.404-8.142l-4.5 7.794-4.157-2.4 2.25-3.9 2.25-3.9 4.157 2.406zm-5.196-3l-2.25 3.9-2.25 3.9-3.52-2.033-.636-.366 4.242-7.355h1.03l3.384 1.954zM28.8 10.2H24v-9h4.8v9zm6 0H30v-9h4.8v9z"/><path d="M4.95 7.5a1.95 1.95 0 1 0 0-3.899 1.95 1.95 0 0 0 0 3.899zm0-2.7a.75.75 0 1 1 0 1.499.75.75 0 0 1 0-1.5z"/></symbol><symbol viewBox="0 0 31 39" id="pdf" xmlns="http://www.w3.org/2000/svg"><path d="M24.857 25.392c-.47.14-1.158.155-1.896.047a9.02 9.02 0 0 1-2.396-.717c1.417-.207 2.516-.143 3.456.192.223.079.589.29.836.478zm-7.904-1.305c-.058.016-.115.03-.171.047-.382.104-.753.205-1.11.296l-.482.123c-.97.246-1.96.498-2.94.797.373-.9.718-1.812 1.057-2.702.25-.66.506-1.333.77-1.998.135.223.275.445.421.669a13.002 13.002 0 0 0 2.455 2.768zm-2.467-10.16c.063 1.11-.176 2.18-.526 3.207-.432-1.27-.633-2.67-.093-3.802.138-.29.252-.445.325-.525.114.176.263.57.294 1.12zM9.426 28.01c-.243.435-.49.843-.745 1.228-.612.927-1.613 1.92-2.128 1.92-.05 0-.112-.009-.201-.104-.058-.06-.067-.104-.064-.163.017-.341.467-.948 1.118-1.51.59-.511 1.259-.965 2.02-1.371zm17.07-2.57c-.08-1.136-1.982-1.864-2-1.87-.736-.262-1.535-.39-2.442-.39-.973 0-2.02.142-3.366.458a11.74 11.74 0 0 1-3.005-3.101 18.987 18.987 0 0 1-.915-1.553c.653-1.567 1.24-3.253 1.134-5.14-.086-1.514-.766-2.531-1.69-2.531-.634 0-1.18.471-1.624 1.403-.792 1.66-.584 3.783.618 6.318a88.065 88.065 0 0 0-1.224 3.105c-.485 1.274-.984 2.59-1.547 3.84-1.578.627-2.874 1.387-3.954 2.32-.708.611-1.56 1.544-1.61 2.518-.023.459.133.88.452 1.217.338.358.763.546 1.23.547 1.543 0 3.028-2.13 3.31-2.556a23.17 23.17 0 0 0 1.617-2.92c1.31-.475 2.705-.83 4.058-1.173l.484-.123c.364-.093.743-.196 1.131-.303.411-.111.834-.227 1.263-.337 1.39.887 2.883 1.466 4.34 1.678 1.227.18 2.317.075 3.054-.31.664-.348.7-.884.685-1.098zm2.987 9.757c0 2.079-1.824 2.207-2.192 2.211H3.758c-2.062 0-2.186-1.844-2.19-2.21V3.801c0-2.08 1.827-2.207 2.19-2.211h15.898l.008.008v6.23c0 1.25.753 3.618 3.603 3.618h6.163l.053.053v23.698zm-1.46-25.172h-4.755c-2.062 0-2.187-1.834-2.19-2.197V3.025l6.944 7.001zm2.874 25.172V10.913L21.08 1.012V.966h-.047L20.243.17H3.758C2.512.17.154.93.154 3.802v31.397c0 1.255.754 3.63 3.604 3.63h23.536c1.246 0 3.603-.759 3.603-3.63z"/></symbol><symbol viewBox="0 0 40 40" id="price" xmlns="http://www.w3.org/2000/svg"><path d="M38.008 19.984l-1.813-.226a12.504 12.504 0 0 0-2.328-3.68l1.336-5.656a.78.78 0 0 0-.758-.961h-.172a5.384 5.384 0 0 0-5 3.437 11.76 11.76 0 0 0-1.71-.539.776.776 0 0 0-.938.579.776.776 0 0 0 .578.937 10.78 10.78 0 0 1 5.164 2.875c.055.078.117.14.188.195a10.815 10.815 0 0 1 2.343 3.79.787.787 0 0 0 .641.507l2.281.29c.36.046.625.35.625.71v3.938c0 .359-.265.664-.625.71l-2.11.266a.786.786 0 0 0-.648.54c-.624 2-1.812 3.773-3.445 5.116a.775.775 0 0 0-.281.602v4.32a.7.7 0 0 1-.703.703h-4.531a.7.7 0 0 1-.704-.703v-1.648a.783.783 0 0 0-.78-.781h-6.563a.784.784 0 0 0-.782.78v1.65a.7.7 0 0 1-.703.702h-4.53a.7.7 0 0 1-.704-.703v-3.047A.785.785 0 0 0 10.93 34a10.853 10.853 0 0 1-5.696-9.547c0-5.984 4.868-10.86 10.86-10.86h.976c.43 0 .782-.35.782-.78a.784.784 0 0 0-.782-.782h-.976c-5.797 0-10.68 3.992-12.04 9.375h-.57a1.914 1.914 0 1 1-.007-3.828c.43 0 .78-.351.78-.781a.784.784 0 0 0-.78-.781A3.484 3.484 0 0 0 0 19.492a3.484 3.484 0 0 0 3.477 3.477h.28c-.054.484-.085.976-.085 1.476 0 4.399 2.32 8.453 6.094 10.688v2.601A2.267 2.267 0 0 0 12.03 40h4.531a2.267 2.267 0 0 0 2.266-2.266v-.867h5v.867A2.267 2.267 0 0 0 26.094 40h4.531a2.267 2.267 0 0 0 2.266-2.266v-3.96a12.446 12.446 0 0 0 3.492-5.134l1.625-.203A2.278 2.278 0 0 0 40 26.18v-3.938c0-1.14-.86-2.117-1.992-2.258zm-5.461-5.148a12.417 12.417 0 0 0-1.867-1.258 3.811 3.811 0 0 1 2.742-2.453l-.875 3.71z"/><path d="M31.102 19.836a.774.774 0 0 0-.555-.227.807.807 0 0 0-.555.227.773.773 0 0 0-.226.555c0 .21.086.406.226.554a.773.773 0 0 0 .555.227c.21 0 .406-.086.555-.227a.773.773 0 0 0 .226-.554.807.807 0 0 0-.226-.555zM22.907 4.555a.784.784 0 0 0-.782.78v3.102c0 .43.352.782.782.782.43 0 .78-.352.78-.782V5.336a.778.778 0 0 0-.78-.781zM23.461 1.953a.773.773 0 0 0-.554-.226.822.822 0 0 0-.555.226.773.773 0 0 0-.227.555c0 .203.086.406.227.554a.773.773 0 0 0 .555.227.822.822 0 0 0 .554-.227.773.773 0 0 0 .227-.554.773.773 0 0 0-.227-.555zM16.563 0a.784.784 0 0 0-.782.781V2.11c0 .43.352.782.781.782.43 0 .782-.352.782-.782V.781A.784.784 0 0 0 16.562 0zM8.898 24.453a.783.783 0 0 0-.78-.781.783.783 0 0 0-.782.781v.04c0 .429.351.773.781.773h.008c.43 0 .781-.352.773-.79v-.023zM12.36 30.602a7.203 7.203 0 0 1-2.985-3.578.786.786 0 0 0-1.007-.454.786.786 0 0 0-.454 1.008 8.807 8.807 0 0 0 3.633 4.352.785.785 0 0 0 1.078-.258.784.784 0 0 0-.265-1.07zM16.563 3.758a3.28 3.28 0 1 0-.001 6.562 3.28 3.28 0 0 0 0-6.562zm0 5a1.724 1.724 0 0 1-1.72-1.719c0-.945.774-1.719 1.72-1.719.945 0 1.718.774 1.718 1.719 0 .945-.773 1.719-1.718 1.719zM26.406 16.563h-.703c.313-.5.485-1.086.485-1.72a3.28 3.28 0 1 0-6.563 0c0 .633.18 1.22.484 1.72H16.25a.783.783 0 0 0-.781.78c0 .43.351.782.781.782h10.156c.43 0 .782-.352.782-.781a.784.784 0 0 0-.782-.782zm-3.5 0a1.724 1.724 0 0 1-1.718-1.72c0-.945.773-1.718 1.718-1.718a1.719 1.719 0 1 1 0 3.438z"/></symbol><symbol viewBox="0 0 38 38" id="prod" xmlns="http://www.w3.org/2000/svg"><path d="M27.906 32.062a.744.744 0 0 0-.742.742c0 .408.334.742.742.742a.744.744 0 0 0 .742-.742.744.744 0 0 0-.742-.742zM10.094 32.062a.745.745 0 0 0-.742.742c0 .408.334.742.742.742a.744.744 0 0 0 .742-.742.744.744 0 0 0-.742-.742zM5.195 30.577a2.233 2.233 0 0 0-2.226 2.227 2.233 2.233 0 0 0 2.226 2.227 2.233 2.233 0 0 0 2.227-2.227 2.233 2.233 0 0 0-2.227-2.227zm0 2.969a.744.744 0 0 1-.742-.742c0-.409.334-.743.742-.743.409 0 .742.334.742.743a.744.744 0 0 1-.742.742zM32.805 30.577a2.233 2.233 0 0 0-2.227 2.227 2.233 2.233 0 0 0 2.227 2.227 2.233 2.233 0 0 0 2.226-2.227 2.233 2.233 0 0 0-2.226-2.227zm0 2.969a.744.744 0 0 1-.742-.742c0-.409.334-.743.742-.743s.742.334.742.743a.744.744 0 0 1-.742.742zM19 8.604a2.968 2.968 0 0 0-2.969 2.969 2.968 2.968 0 1 0 5.938 0c0-1.64-1.329-2.97-2.969-2.97zm0 4.454a1.489 1.489 0 0 1-1.484-1.485c0-.817.668-1.485 1.484-1.485s1.484.668 1.484 1.485c0 .816-.668 1.484-1.484 1.484z"/><path d="M36.39 16.153a2.906 2.906 0 0 0-1.544-.816l-.668-2.005c.52-.408.86-1.039.86-1.752a2.233 2.233 0 0 0-2.226-2.227c-.965 0-1.796.624-2.1 1.485h-3.548v-.742a.744.744 0 0 0-.742-.743h-1.945a5.762 5.762 0 0 0-.809-1.41l.965-1.678a.747.747 0 0 0 .074-.564.761.761 0 0 0-.348-.453l-2.182-1.262.52-3.125V.84c0-.015 0-.03.006-.037V.765.742.727.683v-.03c0-.015-.007-.03-.007-.044 0-.008 0-.023-.007-.03 0-.015-.008-.022-.008-.037s-.007-.022-.007-.037a.056.056 0 0 0-.015-.03c-.007-.015-.007-.022-.015-.037-.007-.007-.007-.022-.015-.03-.007-.015-.015-.022-.015-.037-.007-.007-.007-.022-.014-.03-.008-.007-.015-.022-.023-.03-.007-.007-.015-.021-.022-.029-.007-.007-.015-.022-.022-.03-.008-.007-.015-.022-.023-.03L22.489.2c-.007-.007-.022-.014-.03-.03l-.022-.022c-.007-.007-.022-.014-.03-.022-.007-.007-.014-.015-.022-.015-.007-.007-.022-.014-.037-.022-.007-.007-.022-.007-.03-.015-.007-.007-.022-.007-.03-.015-.014-.007-.021-.007-.036-.014-.008-.008-.023-.008-.03-.008-.015-.007-.03-.007-.037-.015-.007 0-.022-.007-.03-.007-.014 0-.03-.008-.044-.008h-.037c-.015 0-.03 0-.038-.007h-6.063c-.015 0-.03 0-.037.007h-.037c-.015 0-.03.008-.045.008-.007 0-.022.007-.03.007-.014.008-.03.008-.037.015a.057.057 0 0 0-.03.015c-.014.007-.022.007-.037.015-.007.007-.022.007-.03.015-.007.007-.021.007-.029.015-.015.007-.022.014-.037.022-.007.007-.015.015-.022.015a.101.101 0 0 0-.03.022l-.022.022c-.008.008-.022.015-.03.03l-.022.022c-.008.008-.015.015-.022.03a.104.104 0 0 0-.023.03c-.007.007-.014.014-.022.03-.007.007-.015.021-.022.029-.008.007-.015.015-.015.03-.008.014-.015.022-.015.037-.007.007-.007.022-.015.03-.007.014-.007.022-.015.037-.007.007-.007.022-.014.03-.008.014-.008.021-.008.036 0 .015-.007.023-.007.037 0 .008-.008.023-.008.03 0 .015-.007.03-.007.045v.148c0 .015 0 .03.007.037V.87l.52 3.125-2.182 1.262a.74.74 0 0 0-.275 1.017l.965 1.677a5.9 5.9 0 0 0-.809 1.41h-1.952a.744.744 0 0 0-.742.743v.742h-3.54a2.23 2.23 0 0 0-2.1-1.499 2.233 2.233 0 0 0-2.227 2.227c0 .713.334 1.351.86 1.752l-.667 2.004a2.979 2.979 0 0 0-1.551 5.026.739.739 0 1 0 1.046-1.047 1.472 1.472 0 0 1 0-2.093c.282-.282.653-.43 1.047-.438.393 0 .764.156 1.046.438a1.472 1.472 0 0 1 0 2.093.74.74 0 0 0 .527 1.262.76.76 0 0 0 .527-.215 2.949 2.949 0 0 0 .876-2.101 2.973 2.973 0 0 0-1.99-2.806l.55-1.648a2.217 2.217 0 0 0 2.056-1.485h3.54v.743c0 .408.334.742.742.742h1.945c.207.512.475.987.809 1.41l-.965 1.678a.747.747 0 0 0-.074.564.761.761 0 0 0 .348.453l2.568 1.485a.743.743 0 0 0 1.017-.275l.965-1.67a5.072 5.072 0 0 0 1.64 0l.965 1.67a.747.747 0 0 0 1.017.275l2.568-1.485a.74.74 0 0 0 .274-1.017l-.98-1.678c.335-.43.602-.898.81-1.41h1.937a.744.744 0 0 0 .742-.742v-.743h3.54A2.224 2.224 0 0 0 32.76 13.8l.55 1.648a3.018 3.018 0 0 0-1.121.705 2.942 2.942 0 0 0-.869 2.101c0 .794.312 1.537.869 2.1a.74.74 0 1 0 1.046-1.046 1.472 1.472 0 0 1 0-2.093c.282-.282.653-.43 1.047-.438.393 0 .764.156 1.046.438a1.472 1.472 0 0 1 0 2.093.74.74 0 0 0 .527 1.262.76.76 0 0 0 .527-.215 2.942 2.942 0 0 0 .868-2.101c0-.794-.304-1.537-.86-2.1zM5.194 12.315a.744.744 0 0 1-.742-.742c0-.408.334-.742.742-.742.409 0 .742.334.742.742a.744.744 0 0 1-.742.742zM21.093 1.477l-.468 2.829-.809 1.395a5.067 5.067 0 0 0-1.64 0l-.809-1.395-.46-2.829h4.186zm4.587 10.838h-1.73a.748.748 0 0 0-.712.527 4.397 4.397 0 0 1-1.017 1.775.75.75 0 0 0-.104.883l.861 1.485-1.284.742-.853-1.485a.745.745 0 0 0-.817-.349c-.37.09-.712.134-1.024.134-.312 0-.653-.045-1.024-.134a.748.748 0 0 0-.817.35l-.853 1.484-1.284-.742.86-1.485a.753.753 0 0 0-.103-.883 4.447 4.447 0 0 1-1.017-1.775.748.748 0 0 0-.712-.527h-1.73v-1.484h1.73a.748.748 0 0 0 .712-.527 4.397 4.397 0 0 1 1.017-1.775.75.75 0 0 0 .104-.883l-.861-1.485 1.284-.742.853 1.485c.164.282.498.43.817.349.37-.09.712-.134 1.024-.134.312 0 .653.045 1.024.134a.749.749 0 0 0 .817-.35l.853-1.484 1.284.742-.86 1.485a.752.752 0 0 0 .103.883 4.447 4.447 0 0 1 1.017 1.775.748.748 0 0 0 .712.527h1.73v1.484zm7.125 0a.744.744 0 0 1-.742-.742c0-.408.334-.742.742-.742s.742.334.742.742a.744.744 0 0 1-.742.742zM33.547 27.66v-4.21a.744.744 0 0 0-.742-.742h-6.383a.744.744 0 0 0-.742.742v4.157h-2.97V23.45a.744.744 0 0 0-.741-.742H16.03a.744.744 0 0 0-.742.742v4.157H12.32V23.45a.744.744 0 0 0-.742-.742H5.195a.744.744 0 0 0-.742.742v4.21a5.157 5.157 0 0 0-2.932 1.47A5.167 5.167 0 0 0 0 32.803 5.202 5.202 0 0 0 5.195 38h27.61a5.164 5.164 0 0 0 3.673-1.522A5.167 5.167 0 0 0 38 32.804a5.206 5.206 0 0 0-4.453-5.145zm-6.383-3.467h4.898v3.414h-4.898v-3.414zm-10.39 0h4.453v3.414h-4.454v-3.414zm-10.837 0h4.899v3.414H5.937v-3.414zm29.495 11.239a3.706 3.706 0 0 1-2.627 1.083H5.195a3.713 3.713 0 0 1-3.71-3.711c0-.995.385-1.923 1.083-2.628a3.706 3.706 0 0 1 2.627-1.084h27.61a3.713 3.713 0 0 1 3.71 3.712c0 .994-.385 1.922-1.083 2.628z"/><path d="M24.938 32.062H13.063a.745.745 0 0 0-.743.742c0 .408.334.742.742.742h11.876a.744.744 0 0 0 .742-.742.745.745 0 0 0-.742-.742z"/></symbol><symbol fill="none" viewBox="0 0 34 33" id="sale" xmlns="http://www.w3.org/2000/svg"><path d="M32.244 22.225c.292-.814-.313-1.575-.9-2.31-.21-.266-.551-.693-.635-.91.152-.168.6-.442.877-.612.811-.496 1.65-1.009 1.65-1.893 0-.884-.839-1.397-1.65-1.893-.278-.17-.725-.444-.877-.612.084-.217.424-.644.636-.91.586-.736 1.191-1.496.9-2.31-.297-.824-1.253-1.014-2.178-1.197-.323-.064-.843-.167-1.043-.274.006-.231.18-.746.288-1.066.302-.899.615-1.828.063-2.495-.41-.495-1.056-.495-1.268-.495-.37 0-.777.064-1.17.127-.336.053-.684.108-.938.108-.065 0-.112-.003-.144-.007-.07-.22-.08-.758-.085-1.092-.017-.953-.035-1.938-.782-2.377a1.262 1.262 0 0 0-.647-.169c-.57 0-1.147.323-1.759.665-.292.163-.763.426-.99.473-.138-.18-.327-.679-.445-.988-.34-.894-.692-1.818-1.548-1.97A1.166 1.166 0 0 0 19.393 0c-.742 0-1.316.668-1.871 1.314-.226.262-.59.686-.786.802-.196-.116-.56-.54-.786-.802C15.395.668 14.82 0 14.078 0c-.069 0-.138.006-.206.018-.855.152-1.207 1.076-1.547 1.97-.118.31-.308.807-.446.988-.226-.047-.697-.31-.99-.473-.611-.342-1.19-.665-1.759-.665a1.26 1.26 0 0 0-.646.169c-.747.438-.765 1.423-.782 2.376-.006.335-.016.872-.085 1.092a1.146 1.146 0 0 1-.144.008c-.254 0-.602-.055-.938-.108-.393-.063-.8-.127-1.17-.127-.212 0-.858 0-1.268.495-.553.666-.24 1.596.063 2.495.108.32.281.835.288 1.066-.2.107-.72.21-1.044.274-.925.183-1.88.373-2.177 1.197-.292.814.314 1.574.9 2.31.211.266.552.693.635.91-.151.168-.599.442-.877.612-.81.496-1.65 1.009-1.65 1.893 0 .884.84 1.397 1.65 1.893.279.17.726.444.877.612-.083.217-.424.644-.635.91-.586.736-1.192 1.496-.9 2.31.296.824 1.252 1.014 2.177 1.197.323.064.843.167 1.043.274-.006.231-.18.746-.287 1.066-.303.899-.616 1.828-.064 2.494.41.496 1.056.496 1.269.496.37 0 .777-.064 1.17-.127.336-.053.683-.108.938-.108.065 0 .111.003.144.007.07.22.079.758.085 1.092.017.953.035 1.938.781 2.377.192.112.41.169.648.169.569 0 1.147-.323 1.758-.665.293-.163.763-.426.99-.473.138.18.328.679.446.988.34.894.692 1.818 1.547 1.97.069.012.137.018.207.018.742 0 1.316-.668 1.87-1.314.226-.262.59-.686.787-.802.196.116.56.54.786.802.555.646 1.129 1.314 1.87 1.314h.001c.07 0 .138-.006.206-.018.856-.152 1.208-1.076 1.548-1.97.118-.31.307-.807.445-.988.227.047.698.31.99.473.612.342 1.19.665 1.76.665.237 0 .455-.056.646-.169.746-.438.764-1.423.781-2.376.006-.335.016-.872.086-1.092.032-.004.078-.008.143-.008.255 0 .602.055.939.108.393.063.799.128 1.17.128.212 0 .858 0 1.268-.496.552-.666.24-1.596-.064-2.495-.107-.32-.28-.835-.287-1.066.2-.107.72-.21 1.044-.274.924-.183 1.88-.373 2.176-1.197zm-4.532.7c-.378.66-.092 1.508.184 2.327.096.286.245.728.28.982a1.7 1.7 0 0 1-.07.001c-.254 0-.601-.055-.938-.108-.392-.063-.799-.127-1.17-.127-.48 0-.847.112-1.119.345-.574.489-.59 1.38-.605 2.244-.006.305-.014.777-.068 1.028-.24-.079-.642-.303-.902-.448-.616-.345-1.197-.67-1.773-.67-.163 0-.318.027-.46.08-.7.258-1.015 1.086-1.32 1.887-.11.287-.279.732-.416.95-.196-.157-.493-.503-.686-.726-.566-.66-1.15-1.34-1.913-1.34-.763 0-1.348.68-1.914 1.34-.192.223-.49.57-.686.726-.137-.218-.306-.663-.416-.95-.305-.801-.62-1.63-1.319-1.887a1.32 1.32 0 0 0-.46-.08c-.576 0-1.158.325-1.774.67-.26.144-.662.37-.902.448-.054-.252-.062-.724-.068-1.029-.015-.863-.031-1.755-.605-2.244-.272-.232-.639-.345-1.12-.345-.37 0-.776.065-1.169.128-.336.053-.684.108-.938.108l-.07-.001c.035-.254.184-.696.28-.982.276-.82.562-1.667.185-2.328-.374-.656-1.236-.826-2.07-.991-.296-.059-.755-.15-.99-.248.118-.224.405-.584.59-.817.54-.677 1.097-1.376.966-2.133-.128-.741-.875-1.199-1.598-1.64-.266-.164-.683-.418-.866-.595.183-.177.6-.431.866-.595.723-.441 1.47-.899 1.598-1.64.13-.757-.427-1.456-.966-2.133-.185-.233-.472-.593-.59-.817.235-.098.694-.19.99-.248.834-.165 1.696-.336 2.07-.991.377-.661.092-1.509-.184-2.328-.097-.286-.245-.728-.28-.982l.069-.001c.254 0 .602.055.938.108.393.063.8.127 1.17.127.48 0 .847-.112 1.12-.345.573-.489.59-1.38.605-2.244.005-.305.014-.777.068-1.028.24.079.641.303.901.448.616.345 1.198.67 1.773.67.163 0 .318-.027.46-.08.7-.258 1.015-1.086 1.32-1.887.11-.287.279-.732.416-.95.196.157.494.503.686.726.566.66 1.151 1.34 1.914 1.34.762 0 1.347-.68 1.913-1.34.193-.223.49-.57.686-.726.137.218.307.663.416.95.305.801.62 1.63 1.32 1.887.142.053.297.08.46.08.575 0 1.157-.325 1.773-.67.26-.144.662-.37.902-.448.054.252.062.724.068 1.029.016.863.032 1.755.606 2.244.272.232.638.345 1.119.345.37 0 .777-.065 1.17-.127.336-.054.684-.109.938-.109l.069.001c-.035.254-.184.696-.28.982-.276.82-.561 1.667-.184 2.328.374.656 1.235.826 2.069.991.296.059.755.15.99.248-.118.224-.405.584-.59.817-.539.677-1.096 1.377-.966 2.133.128.741.876 1.199 1.599 1.64.266.164.682.418.865.595-.183.177-.6.431-.865.595-.723.441-1.47.899-1.599 1.64-.13.756.427 1.456.966 2.133.185.233.472.593.59.817-.235.098-.694.19-.99.248-.833.165-1.695.336-2.07.991z" fill="#FDFCFF"/><path d="M20.6 10.554a.742.742 0 0 0-1.035.224l-6.55 10.253a.765.765 0 0 0 .221 1.05.745.745 0 0 0 1.034-.224l6.55-10.254a.765.765 0 0 0-.22-1.05zM15.098 13.754a2.555 2.555 0 0 0-2.547-2.564 2.555 2.555 0 0 0-2.547 2.564 2.556 2.556 0 0 0 2.547 2.563 2.555 2.555 0 0 0 2.547-2.563zM12.551 14.8a1.05 1.05 0 0 1-1.051-1.046 1.05 1.05 0 0 1 1.051-1.047c.58 0 1.051.47 1.051 1.047a1.05 1.05 0 0 1-1.05 1.046zM20.92 16.683a2.555 2.555 0 0 0-2.547 2.563 2.555 2.555 0 0 0 2.547 2.564 2.555 2.555 0 0 0 2.547-2.564 2.556 2.556 0 0 0-2.547-2.563zm0 3.61a1.05 1.05 0 0 1-1.05-1.047 1.05 1.05 0 0 1 1.05-1.046c.58 0 1.051.47 1.051 1.046a1.05 1.05 0 0 1-1.05 1.047z" fill="#FDFCFF"/></symbol><symbol viewBox="0 0 32 36" id="tech" xmlns="http://www.w3.org/2000/svg"><path d="M31.301 5.977h-2.683a.681.681 0 0 0-.111-.148L22.916.204a.673.673 0 0 0-.49-.204H3.984a.703.703 0 0 0-.7.703v5.274H.7A.703.703 0 0 0 0 6.68v22.008c0 .386.314.703.699.703h11.808v2.39H9.782a.703.703 0 0 0-.699.703v2.813c0 .387.314.703.699.703h12.436a.703.703 0 0 0 .699-.703v-2.813a.703.703 0 0 0-.699-.703h-2.724v-2.39H31.3a.703.703 0 0 0 .699-.703V6.68a.703.703 0 0 0-.699-.703zm-8.174-3.58l3.207 3.228h-3.207V2.398zM1.397 7.384h1.887v16.523H1.397V7.383zM21.52 33.188v1.406H10.48v-1.407h11.04zm-7.616-1.407v-2.39h4.192v2.39h-4.192zm16.699-3.797H1.397v-2.672h29.206v2.672zm0-4.078h-1.887v-6.222a.703.703 0 0 0-.699-.704.703.703 0 0 0-.698.704v6.222H4.68V22.36h4.22a.703.703 0 0 0 0-1.406h-4.22V1.406H21.73v4.922c0 .387.315.703.699.703h4.89v5.063c0 .386.315.703.7.703a.703.703 0 0 0 .698-.703V7.383h1.887v16.523z"/><path d="M28.513 14.435a.69.69 0 0 0-.496-.204.732.732 0 0 0-.496.204.698.698 0 0 0-.203.5c0 .189.077.365.203.498a.69.69 0 0 0 .496.204.732.732 0 0 0 .496-.204.698.698 0 0 0 .203-.499.728.728 0 0 0-.203-.5zM16.426 26.15a.69.69 0 0 0-.496-.205.72.72 0 0 0-.496.204.698.698 0 0 0-.203.5c0 .182.077.365.203.499a.69.69 0 0 0 .496.204.72.72 0 0 0 .496-.204.699.699 0 0 0 .203-.5.682.682 0 0 0-.203-.499zM22.777 8.522L16.35 4.788a.69.69 0 0 0-.698 0L9.223 8.522a.706.706 0 0 0-.35.612V16.6c0 .253.133.485.35.611l6.428 3.734c.105.063.23.091.35.091a.683.683 0 0 0 .348-.09l6.428-3.735a.706.706 0 0 0 .35-.611V9.134a.706.706 0 0 0-.35-.612zm-7.476 10.596l-4.331-2.517 1.362-.795a.713.713 0 0 0 .259-.963.704.704 0 0 0-.958-.26l-1.362.801V10.35l4.332 2.517-.81.471a.713.713 0 0 0-.26.964.702.702 0 0 0 .958.26l.81-.471v5.027zm.7-9.098a.703.703 0 0 0-.7.703v.928L10.97 9.134l4.332-2.518V7.98c0 .387.314.704.698.704a.703.703 0 0 0 .699-.704V6.616l4.332 2.518-4.332 2.517v-.928a.703.703 0 0 0-.699-.704zm5.728 5.364l-.999-.583a.697.697 0 0 0-.957.26.707.707 0 0 0 .259.963l.999.584-4.332 2.517v-5.034l1.125.654a.702.702 0 0 0 .957-.26.707.707 0 0 0-.259-.964l-1.124-.654 4.331-2.517v5.034zM11.787 21.157a.69.69 0 0 0-.496-.204.733.733 0 0 0-.496.204.698.698 0 0 0-.203.5c0 .19.077.365.203.498a.69.69 0 0 0 .496.204.732.732 0 0 0 .496-.204.687.687 0 0 0 .203-.499.728.728 0 0 0-.203-.499z"/></symbol><symbol viewBox="0 0 38 38" id="warranty" xmlns="http://www.w3.org/2000/svg"><path d="M4.09 10.977a.734.734 0 0 0-.528-.215.734.734 0 0 0-.742.742.78.78 0 0 0 .216.527.735.735 0 0 0 .526.215c.2 0 .386-.082.527-.215a.753.753 0 0 0 0-1.054z"/><path d="M37.903 22.926l-4.194-7.459a5.646 5.646 0 0 0-4.475-7.741V4.75c0-2.62-2.13-4.75-4.75-4.75H4.75C2.13 0 0 2.13 0 4.75c0 .408.334.742.742.742H2.82V8.09c0 .408.334.742.742.742a.744.744 0 0 0 .743-.742V5.492h16.179a.744.744 0 0 0 .742-.742 3.266 3.266 0 0 1 6.531 0v2.976a5.646 5.646 0 0 0-4.898 5.589c0 .809.17 1.58.482 2.27l-4.23 7.326a.742.742 0 0 0 .846 1.084l2.783-.787.713 2.806a.738.738 0 0 0 .72.556.75.75 0 0 0 .638-.363l2.946-5.032V33.25c0 1.262.497 2.412 1.306 3.266H7.57a3.266 3.266 0 0 1-3.265-3.266V14.621a.744.744 0 0 0-.743-.742.744.744 0 0 0-.742.742V33.25c0 2.62 2.13 4.75 4.75 4.75h24.937c2.62 0 4.75-2.13 4.75-4.75a.744.744 0 0 0-.742-.742H29.24V21.1l2.954 5.114c.134.23.379.371.646.371.037 0 .067 0 .104-.007a.748.748 0 0 0 .616-.55l.712-2.805 2.783.787a.754.754 0 0 0 .787-.253.754.754 0 0 0 .06-.83zM19.8 4.008H1.566A3.265 3.265 0 0 1 4.75 1.484h16.298A4.707 4.707 0 0 0 19.8 4.008zm15.883 29.984a3.265 3.265 0 0 1-3.184 2.524 3.277 3.277 0 0 1-3.184-2.524h6.368zM24.447 23.906l-.453-1.789a.776.776 0 0 0-.349-.46.733.733 0 0 0-.571-.074l-1.766.497 2.931-5.076a5.663 5.663 0 0 0 3.17 1.848l-2.962 5.054zm4.052-6.427a4.159 4.159 0 0 1-4.156-4.157A4.159 4.159 0 0 1 28.5 9.166a4.159 4.159 0 0 1 4.156 4.156A4.159 4.159 0 0 1 28.5 17.48zm5.44 4.104a.733.733 0 0 0-.571.074.777.777 0 0 0-.349.46l-.453 1.774-2.916-5.054a5.639 5.639 0 0 0 3.176-1.915l2.902 5.165-1.789-.504z"/><path d="M14.598 20.262H8.164a.744.744 0 0 0-.742.742c0 .408.334.742.742.742h6.442a.744.744 0 0 0 .742-.742.746.746 0 0 0-.75-.742zM14.598 23.898H8.164a.744.744 0 0 0-.742.743c0 .408.334.742.742.742h6.442a.744.744 0 0 0 .742-.742.746.746 0 0 0-.75-.743zM11.979 8.654H8.164a.744.744 0 0 0-.742.742c0 .408.334.742.742.742h3.815a.744.744 0 0 0 .742-.742.744.744 0 0 0-.742-.742zM19.007 16.254H8.164a.744.744 0 0 0-.742.742c0 .408.334.742.742.742h10.843a.744.744 0 0 0 .742-.742.744.744 0 0 0-.742-.742zM23.282 30.303h-3.533a.744.744 0 0 0-.742.743c0 .408.334.742.742.742h3.533a.744.744 0 0 0 .742-.742.744.744 0 0 0-.742-.742zM16.157 30.303h-.015a.744.744 0 0 0-.742.743c0 .408.334.742.742.742h.015a.744.744 0 0 0 .742-.742.744.744 0 0 0-.742-.742z"/></symbol><symbol viewBox="0 0 47 44" id="win-ark" xmlns="http://www.w3.org/2000/svg"><path d="M2.834 41.013h21.02c.308 0 .515-.202.515-.506V13.165c0-5.975-4.946-10.836-11.026-10.836-6.079 0-11.025 4.861-11.025 10.836v27.342c0 .253.258.506.516.506zm11.025-18.228h9.48v8.102h-9.48v-8.102zm-1.03 8.102h-9.48v-8.102h9.48v8.102zm10.51-9.114h-9.48V13.67h9.48v8.102zm-9.48-18.431c2.266.101 4.379.962 5.976 2.38l-5.976 6.177V3.342zm-1.03 8.557L6.8 5.722a10.411 10.411 0 0 1 5.976-2.38v8.557h.051zm0 9.874h-9.48V13.67h9.48v8.102zm-9.48 10.126h9.48v8.102h-9.48v-8.102zm19.99 8.102h-9.48v-8.102h9.48v8.102zm-.052-27.343h-8.759l6.028-6.228c1.597 1.62 2.627 3.798 2.73 6.228zM6.079 6.43l6.028 6.228H3.349c.154-2.43 1.133-4.607 2.73-6.228z"/><path d="M.515 43.241h25.502c.31 0 .515-.202.515-.506V12.051c-.154-3.089-1.545-6.127-3.864-8.355C20.195 1.316 16.898 0 13.292 0 6.028 0 .36 5.165 0 12.05v30.634c0 .304.258.557.515.557zM13.292 1.013c5.719 0 11.9 4.152 12.261 11.088V42.23H1.03V12.102c.31-6.33 5.564-11.09 12.262-11.09zM46.394 9.251l-.507-.879-1.666.963-3.027-1.749 3.027-1.748 1.664.96.507-.878-1.156-.667L47 4.233l-.506-.877-1.768 1.02V3.035h-1.013V4.96L40.68 6.71v-3.5l1.67-.965-.506-.878-1.164.671V0h-1.014v2.037l-1.157-.669-.506.88 1.663.96v3.496l-3.027-1.748V3.035h-1.015V4.37l-1.763-1.018-.506.878 1.765 1.02-1.16.669.507.878 1.667-.962 3.031 1.75-3.031 1.752-1.668-.964-.508.879 1.162.67-1.764 1.019.508.877 1.76-1.017v1.336h1.015v-1.921l3.027-1.749v3.497l-1.662.96.507.878 1.155-.667v2.036h1.014v-2.038l1.162.67.507-.879-1.669-.963v-3.5l3.033 1.75v1.926h1.013v-1.34l1.766 1.019.507-.878-1.763-1.019 1.158-.669zM40.889 37.965v-7.632c0-.312-.29-.584-.62-.584s-.618.272-.618.584v7.632a1.908 1.908 0 0 0-1.403 1.83c0 1.05.908 1.947 2.063 1.947 1.155 0 2.063-.857 2.063-1.947-.041-.857-.66-1.558-1.485-1.83z"/><path d="M43.282 36.719V24.842c0-1.557-1.361-2.842-3.011-2.842-1.65 0-3.012 1.285-3.012 2.843v11.876c-.867.778-1.444 1.869-1.444 3.076 0 2.336 1.98 4.205 4.456 4.205 2.475 0 4.455-1.869 4.455-4.205 0-1.207-.536-2.298-1.444-3.076zm-3.011 6.113c-1.775 0-3.218-1.363-3.218-3.037 0-.857.37-1.636 1.031-2.22l.412-.35V24.842c0-.934.784-1.674 1.774-1.674s1.774.74 1.774 1.675v12.382l.413.35c.66.584 1.031 1.363 1.031 2.22 0 1.713-1.444 3.037-3.218 3.037zM35.856 24.22h-3.26v1.167h3.26V24.22zM35.856 26.634h-1.65v1.168h1.65v-1.168zM35.856 29.087h-3.26v1.168h3.26v-1.168zM35.856 31.501h-1.65v1.168h1.65v-1.168z"/></symbol></svg>