<svg width="112" height="54" viewBox="0 0 112 54" fill="none" xmlns="http://www.w3.org/2000/svg">
<mask id="mask0" mask-type="alpha" maskUnits="userSpaceOnUse" x="0" y="0" width="35" height="45">
<path d="M34.4082 35.4431L0 44.6233V0.911682L34.5533 6.9229L34.4082 35.4431Z" fill="white"/>
</mask>
<g mask="url(#mask0)">
</g>
<mask id="mask1" mask-type="alpha" maskUnits="userSpaceOnUse" x="0" y="0" width="35" height="45">
<path d="M34.476 22.1018C34.0665 21.7673 33.5752 21.5294 33.0655 21.4377C31.6329 21.1801 30.1788 21.8099 28.9865 22.6634C28.1692 21.2793 26.0865 21.2311 24.7971 22.1638C23.5076 23.0966 22.8379 24.6744 22.297 26.1947C21.6758 26.0325 21.0301 26.1055 20.4428 26.3476V19.0371C22.0763 18.8558 23.7057 18.6352 25.3292 18.3753C25.6118 17.4049 25.2943 16.2791 24.5508 15.6126C23.807 14.9464 22.6766 14.7753 21.7771 15.1928C21.9065 13.9204 21.3759 12.6078 20.4428 11.7664V4.4681L16.5322 3.78778V11.0762C16.1936 11.2048 15.8728 11.3815 15.5837 11.6053C15.8775 9.9799 14.4508 8.4149 12.8632 8.1292C11.2754 7.8435 9.66377 8.5416 8.34197 9.4877C7.43627 7.9533 5.12793 7.9003 3.69876 8.9339C2.26929 9.9678 1.52701 11.7167 0.92727 13.4018C0.620845 13.3218 0.309061 13.2934 0 13.3101V0.911682L16.5322 3.78778V3H20.4428V4.4681L34.5533 6.9229L34.476 22.1018ZM34.4271 31.7224L34.4082 35.4431L20.4428 39.1691V41H16.5322V40.2125L0 44.6233V19.2573C5.49573 19.7481 11.0292 19.7935 16.5322 19.3954V40.2125L20.4428 39.1691V31.381C25.0876 31.8477 29.766 31.9611 34.4271 31.7224Z" fill="white"/>
</mask>
<g mask="url(#mask1)">
<path fill-rule="evenodd" clip-rule="evenodd" d="M34.4082 35.4431L0 44.6233V0.911682L34.5533 6.9229L34.4082 35.4431Z" fill="url(#paint0_linear)"/>
</g>
<path fill-rule="evenodd" clip-rule="evenodd" d="M42.0004 11.4573C42.0004 12.4593 42.3194 13.2902 42.9581 13.9508C43.5961 14.6113 44.3789 14.9415 45.3054 14.9415C46.2317 14.9415 47.0173 14.6113 47.6614 13.9508C48.3054 13.2902 48.6277 12.4593 48.6277 11.4573C48.6277 10.4896 48.3054 9.67836 47.6614 9.02355C47.0173 8.36907 46.2317 8.04199 45.3054 8.04199C44.3789 8.04199 43.5961 8.36907 42.9581 9.02355C42.3194 9.67836 42.0004 10.4896 42.0004 11.4573ZM40.8139 11.4573C40.8139 10.1935 41.249 9.13467 42.1192 8.28065C42.9889 7.42674 44.0511 7 45.3054 7C46.5595 7 47.6247 7.42674 48.5003 8.28065C49.3759 9.13467 49.8139 10.1935 49.8139 11.4573C49.8139 12.744 49.3759 13.8225 48.5003 14.6934C47.6247 15.5645 46.5595 16 45.3054 16C44.0511 16 42.9889 15.5645 42.1192 14.6934C41.249 13.8225 40.8139 12.744 40.8139 11.4573Z" fill="#193F7E"/>
<path fill-rule="evenodd" clip-rule="evenodd" d="M51.8139 16V7H52.8365V10.8112H54.0395L56.3101 7H57.5131L54.8816 11.2764V11.3118L57.8139 16H56.5659L54.0544 11.8845H52.8365V16H51.8139Z" fill="#193F7E"/>
<path fill-rule="evenodd" clip-rule="evenodd" d="M60.0004 11.4573C60.0004 12.4593 60.3195 13.2902 60.9581 13.9508C61.5961 14.6113 62.3788 14.9415 63.3055 14.9415C64.2317 14.9415 65.0173 14.6113 65.6614 13.9508C66.3055 13.2902 66.6277 12.4593 66.6277 11.4573C66.6277 10.4896 66.3055 9.67836 65.6614 9.02355C65.0173 8.36907 64.2317 8.04199 63.3055 8.04199C62.3788 8.04199 61.5961 8.36907 60.9581 9.02355C60.3195 9.67836 60.0004 10.4896 60.0004 11.4573ZM58.8139 11.4573C58.8139 10.1935 59.2491 9.13467 60.1192 8.28065C60.989 7.42674 62.0512 7 63.3055 7C64.5594 7 65.6247 7.42674 66.5003 8.28065C67.3759 9.13467 67.8139 10.1935 67.8139 11.4573C67.8139 12.744 67.3759 13.8225 66.5003 14.6934C65.6247 15.5645 64.5594 16 63.3055 16C62.0512 16 60.989 15.5645 60.1192 14.6934C59.2491 13.8225 58.8139 12.744 58.8139 11.4573Z" fill="#193F7E"/>
<path fill-rule="evenodd" clip-rule="evenodd" d="M69.8139 16V7H70.9209V10.8466H75.7068V7H76.8139V16H75.7068V11.9206H70.9209V16H69.8139Z" fill="#193F7E"/>
<path fill-rule="evenodd" clip-rule="evenodd" d="M78.8139 16V7H79.9209V10.8466H84.7068V7H85.8139V16H84.7068V11.9206H79.9209V16H78.8139Z" fill="#193F7E"/>
<path fill-rule="evenodd" clip-rule="evenodd" d="M95.7368 16H96.8139V7H95.7368V16ZM89.8912 15.0338H91.4752C92.6794 15.0338 93.2814 14.4315 93.2814 13.2267C93.2814 12.6544 93.1335 12.2066 92.8377 11.8848C92.542 11.5627 92.0933 11.4018 91.4913 11.4018H89.8912V15.0338ZM88.8139 16V7H89.8912V10.4352H91.602C92.4044 10.4352 93.0698 10.6561 93.5982 11.0975C94.126 11.5388 94.3901 12.2546 94.3901 13.2444C94.3901 14.0917 94.1526 14.7627 93.6776 15.2576C93.2023 15.7523 92.4995 16 91.5707 16H88.8139Z" fill="#193F7E"/>
<path fill-rule="evenodd" clip-rule="evenodd" d="M104.823 5.75562C104.4 6.11963 103.893 6.30109 103.305 6.30109C102.719 6.30109 102.212 6.11963 101.788 5.75562C101.364 5.39194 101.152 4.90333 101.152 4.29V4H102.115V4.2559C102.115 4.61948 102.231 4.90602 102.465 5.11683C102.699 5.32688 102.979 5.43186 103.305 5.43186C103.633 5.43186 103.915 5.32688 104.155 5.11683C104.393 4.90602 104.514 4.61365 104.514 4.23864V4H105.46V4.29C105.46 4.90333 105.247 5.39194 104.823 5.75562ZM99.8139 16V7.42612H100.89V13.0512C100.89 13.835 100.874 14.2613 100.841 14.3292H100.874C100.918 14.2499 101.201 13.8243 101.723 13.0512L105.753 7.42612H106.814V16H105.721V10.3578C105.721 10.2104 105.723 10.04 105.729 9.84643C105.734 9.6532 105.743 9.48587 105.753 9.34368C105.764 9.2017 105.769 9.12499 105.769 9.11356H105.738C105.738 9.13632 105.691 9.21583 105.599 9.35188C105.506 9.48857 105.386 9.65903 105.24 9.86369C105.092 10.0682 104.981 10.2332 104.905 10.3578L100.874 16H99.8139Z" fill="#193F7E"/>
<path fill-rule="evenodd" clip-rule="evenodd" d="M40.804 33.9322L42.1557 32.229C42.5289 32.6385 42.9926 32.9817 43.5463 33.259C44.0996 33.5364 44.6664 33.6747 45.2456 33.6747C45.9919 33.6747 46.5845 33.4838 47.0221 33.1007C47.4597 32.7177 47.6788 32.1894 47.6788 31.5162C47.6788 30.9088 47.4824 30.43 47.0899 30.0801C46.6969 29.7306 46.1659 29.5553 45.4968 29.5553H43.8164V27.4955H45.1684C45.7862 27.4955 46.2947 27.3107 46.6941 26.9411C47.0927 26.5711 47.2925 26.1089 47.2925 25.5544C47.2925 24.9869 47.1123 24.5215 46.7519 24.1583C46.3912 23.795 45.8699 23.6134 45.1877 23.6134C44.1448 23.6134 43.1532 24.0095 42.2136 24.8018L41.2096 22.9399C42.4193 21.9101 43.8871 21.3952 45.6125 21.3952C46.7837 21.3952 47.7784 21.7387 48.596 22.425C49.4136 23.1119 49.8225 24.0491 49.8225 25.2375C49.8225 26.6238 49.1914 27.6673 47.9299 28.3666V28.4062C48.6377 28.6312 49.1979 29.0274 49.61 29.5949C50.0217 30.1625 50.2277 30.8558 50.2277 31.6745C50.2277 32.9686 49.774 34.0018 48.8664 34.7743C47.9589 35.5468 46.8291 35.933 45.4775 35.933C44.6017 35.933 43.7489 35.7578 42.9185 35.4079C42.0882 35.0581 41.3832 34.5662 40.804 33.9322Z" fill="#193F7E"/>
<path fill-rule="evenodd" clip-rule="evenodd" d="M56.2144 30.0108H59.787L58.5704 26.2477L58.0298 24.0691H57.9909C57.7849 24.9932 57.605 25.7197 57.4503 26.2477L56.2144 30.0108ZM51.889 35.6951L56.6972 21.633H59.3236L64.1321 35.6951H61.5831L60.4051 32.0904H55.5966L54.4379 35.6951H51.889Z" fill="#193F7E"/>
<path fill-rule="evenodd" clip-rule="evenodd" d="M69.2108 33.4967H71.8759C72.4936 33.4967 72.9795 33.3084 73.334 32.932C73.6878 32.556 73.8649 32.0641 73.8649 31.4564C73.8649 30.8623 73.6878 30.3771 73.334 30.0008C72.9795 29.6245 72.4936 29.4361 71.8759 29.4361H69.2108V33.4967ZM69.2108 27.3763H71.6247C72.1525 27.3763 72.5677 27.2081 72.8702 26.8713C73.1724 26.5346 73.324 26.1024 73.324 25.5744C73.324 25.0592 73.1724 24.6401 72.8702 24.3164C72.5677 23.9931 72.1395 23.8313 71.5861 23.8313H69.2108V27.3763ZM66.7197 35.6951V21.6329H71.6054C72.8799 21.6329 73.9063 21.9531 74.6856 22.5934C75.4643 23.234 75.854 24.1217 75.854 25.2575C75.854 25.9179 75.7058 26.5119 75.4095 27.0396C75.1133 27.5682 74.708 27.9774 74.1933 28.2679V28.3074C74.9141 28.5187 75.4643 28.9347 75.844 29.5552C76.2237 30.1761 76.4139 30.8623 76.4139 31.615C76.4139 32.9486 75.9632 33.9621 75.0622 34.6554C74.1609 35.3484 73.0346 35.6951 71.6826 35.6951H66.7197Z" fill="#193F7E"/>
<path fill-rule="evenodd" clip-rule="evenodd" d="M81.4733 28.565C81.4733 29.9909 81.9109 31.1863 82.7864 32.1497C83.6619 33.114 84.7304 33.5957 85.9924 33.5957C87.2538 33.5957 88.3222 33.114 89.1977 32.1497C90.0732 31.1863 90.5111 29.9909 90.5111 28.565C90.5111 27.2049 90.0732 26.0593 89.1977 25.1285C88.3222 24.1977 87.2538 23.7323 85.9924 23.7323C84.7304 23.7323 83.6619 24.1977 82.7864 25.1285C81.9109 26.0593 81.4733 27.2049 81.4733 28.565ZM78.9051 28.565C78.9051 26.5448 79.5839 24.845 80.9424 23.4648C82.3006 22.0852 83.9837 21.3951 85.9924 21.3951C88.0008 21.3951 89.6836 22.0852 91.0421 23.4648C92.4003 24.845 93.0794 26.5448 93.0794 28.565C93.0794 30.6379 92.4003 32.3846 91.0421 33.8035C89.6836 35.223 88.0008 35.9329 85.9924 35.9329C83.9837 35.9329 82.3006 35.223 80.9424 33.8035C79.5839 32.3846 78.9051 30.6379 78.9051 28.565Z" fill="#193F7E"/>
<path fill-rule="evenodd" clip-rule="evenodd" d="M98.3509 33.4967H103.797V23.8313H100.128V24.8811C100.128 28.6576 99.5359 31.5295 98.3509 33.4967ZM94.3925 33.4967H95.7831C97.1089 31.4369 97.7719 28.5053 97.7719 24.7027V21.6329H106.288V33.4967H107.814V38.468H105.593V35.6951H96.6909V38.468H94.3925V33.4967Z" fill="#193F7E"/>
<path fill-rule="evenodd" clip-rule="evenodd" d="M55.5871 53.9864H51.7857L47.6077 42.2032H51.409L55.5871 53.9864Z" fill="#193F7E"/>
<path fill-rule="evenodd" clip-rule="evenodd" d="M51.0511 53.9864H47.2488L43.9606 44.5621H47.761L51.0511 53.9864Z" fill="#193F7E"/>
<path fill-rule="evenodd" clip-rule="evenodd" d="M43.1611 46.639C43.6405 47.934 45.0373 52.3857 45.3364 53.1936H41.096C41.3984 52.3843 42.6779 47.9326 43.1611 46.639ZM39.9847 54H46.4445L43.1667 44.6461L39.9847 54Z" fill="#193F7E"/>
<path fill-rule="evenodd" clip-rule="evenodd" d="M62.2772 53.9604C59.5047 53.9604 57.841 52.0822 57.841 49.123C57.841 46.0826 59.9331 44.3527 62.5923 44.3527C63.5123 44.3527 64.4574 44.5825 65.3018 44.9743C65.1757 45.3123 65.1001 45.6634 65.037 46.0148L64.9491 46.0283C64.7724 45.7852 63.84 44.8663 62.5419 44.8663C60.2232 44.8663 59.0761 46.8798 59.0761 49.177C59.0761 51.7712 60.4624 53.4336 62.4536 53.4336C63.8146 53.4336 64.8733 52.5686 65.1254 52.3388L65.0624 53.1902C64.2683 53.7578 63.235 53.9604 62.2772 53.9604Z" fill="#193F7E"/>
<path fill-rule="evenodd" clip-rule="evenodd" d="M68.3165 49.5823H71.0889L69.6902 46.123L68.3165 49.5823ZM73.269 53.7578C73.0298 53.7578 72.8153 53.785 72.6013 53.7982C72.2357 52.677 71.782 51.3794 71.278 50.1499H68.0771C67.6357 51.3391 67.1821 52.5278 66.8294 53.7982C66.6531 53.785 66.5144 53.7578 66.363 53.7578C66.1994 53.7578 66.0607 53.785 65.922 53.7982L69.8538 44.3527H70.1439L73.9244 53.7982C73.6851 53.785 73.4834 53.7578 73.269 53.7578Z" fill="#193F7E"/>
<path fill-rule="evenodd" clip-rule="evenodd" d="M77.6536 48.6633C78.6616 49.9065 79.7454 51.0957 80.716 52.3796L81.7368 53.7307V53.7982C81.4848 53.785 81.2578 53.7578 81.0435 53.7578C80.8041 53.7578 80.5647 53.785 80.3378 53.7982C80.0607 53.3658 79.7834 52.9604 79.4683 52.5686L76.7209 49.123C76.6578 49.0687 76.5065 49.0283 76.5065 49.0822V53.7982C76.3051 53.785 76.1285 53.7578 75.9521 53.7578C75.7632 53.7578 75.5742 53.785 75.3975 53.7982V44.5554C75.5742 44.569 75.7632 44.5962 75.9521 44.5962C76.1285 44.5962 76.3051 44.569 76.5065 44.5554V48.7309C76.5192 48.812 76.6958 48.7581 76.8219 48.6498C77.0485 48.4607 77.3132 48.1768 77.4896 47.9878L80.5898 44.5554C80.7538 44.569 80.9174 44.5962 81.0941 44.5962C81.2455 44.5962 81.4091 44.569 81.5855 44.5554L78.7247 47.5014L77.6536 48.6633Z" fill="#193F7E"/>
<path fill-rule="evenodd" clip-rule="evenodd" d="M86.7278 53.9604C83.955 53.9604 82.2916 52.0822 82.2916 49.123C82.2916 46.0826 84.3837 44.3527 87.0428 44.3527C87.9629 44.3527 88.9079 44.5825 89.7523 44.9743C89.6263 45.3123 89.5506 45.6634 89.4876 46.0148L89.3996 46.0283C89.223 45.7852 88.2905 44.8663 86.9925 44.8663C84.6737 44.8663 83.5266 46.8798 83.5266 49.177C83.5266 51.7712 84.9131 53.4336 86.9042 53.4336C88.2653 53.4336 89.324 52.5686 89.576 52.3388L89.513 53.1902C88.719 53.7578 87.6855 53.9604 86.7278 53.9604Z" fill="#193F7E"/>
<path fill-rule="evenodd" clip-rule="evenodd" d="M93.7602 44.8663C92.4621 44.8663 91.5295 45.7852 91.3531 46.0283L91.2647 46.015C91.2017 45.6637 91.1264 45.3123 91.0001 44.9746C91.8445 44.5824 92.7898 44.3527 93.7099 44.3527C96.3687 44.3527 98.4608 46.0826 98.4608 49.1229C98.4608 52.0821 96.7974 53.9604 94.0245 53.9604C93.0668 53.9604 92.0335 53.7577 91.2398 53.1901L91.1765 52.3391C91.4288 52.5685 92.4872 53.4335 93.8482 53.4335C95.8397 53.4335 97.2257 51.7715 97.2257 49.1769H93.7099C93.3316 49.1769 92.9661 49.2444 92.5882 49.2444C92.5882 49.0957 92.6259 48.9742 92.6259 48.8663C92.6259 48.7443 92.5882 48.6228 92.5882 48.5149C92.9661 48.5149 93.3316 48.5824 93.7099 48.5824H97.2008C97.0367 46.5419 95.8773 44.8663 93.7602 44.8663Z" fill="#193F7E"/>
<path fill-rule="evenodd" clip-rule="evenodd" d="M103.855 53.9604C101.082 53.9604 99.4185 52.0822 99.4185 49.123C99.4185 46.0826 101.511 44.3527 104.17 44.3527C105.09 44.3527 106.035 44.5825 106.88 44.9743C106.753 45.3123 106.678 45.6634 106.615 46.0148L106.527 46.0283C106.35 45.7852 105.417 44.8663 104.119 44.8663C101.801 44.8663 100.654 46.8798 100.654 49.177C100.654 51.7712 102.04 53.4336 104.031 53.4336C105.392 53.4336 106.451 52.5686 106.703 52.3388L106.64 53.1902C105.846 53.7578 104.812 53.9604 103.855 53.9604Z" fill="#193F7E"/>
<path fill-rule="evenodd" clip-rule="evenodd" d="M109.672 42.4251H109.143V43.826H108.945V42.4251H108.416V42.2374H109.672V42.4251Z" fill="#193F7E"/>
<path fill-rule="evenodd" clip-rule="evenodd" d="M111.293 43.8264H111.096V42.4572L110.683 43.3891H110.566L110.157 42.4572V43.8264H109.973V42.2367H110.242L110.637 43.1223L111.019 42.2367H111.293V43.8264Z" fill="#193F7E"/>
<defs>
<linearGradient id="paint0_linear" x1="0.0001" y1="22.7676" x2="34.5532" y2="22.7676" gradientUnits="userSpaceOnUse">
<stop stop-color="#183F7D"/>
<stop offset="1" stop-color="#02A3D9"/>
</linearGradient>
</defs>
</svg>
