<?xml version="1.0" encoding="UTF-8" standalone="no"?>
<svg
   xmlns:dc="http://purl.org/dc/elements/1.1/"
   xmlns:cc="http://creativecommons.org/ns#"
   xmlns:rdf="http://www.w3.org/1999/02/22-rdf-syntax-ns#"
   xmlns:svg="http://www.w3.org/2000/svg"
   xmlns="http://www.w3.org/2000/svg"
   xmlns:sodipodi="http://sodipodi.sourceforge.net/DTD/sodipodi-0.dtd"
   xmlns:inkscape="http://www.inkscape.org/namespaces/inkscape"
   width="166"
   height="24"
   viewBox="0 0 166 24"
   version="1.1"
   id="svg839"
   sodipodi:docname="riverstart.svg"
   inkscape:version="0.92.3 (2405546, 2018-03-11)">
  <metadata
     id="metadata845">
    <rdf:RDF>
      <cc:Work
         rdf:about="">
        <dc:format>image/svg+xml</dc:format>
        <dc:type
           rdf:resource="http://purl.org/dc/dcmitype/StillImage" />
        <dc:title></dc:title>
      </cc:Work>
    </rdf:RDF>
  </metadata>
  <defs
     id="defs843" />
  <sodipodi:namedview
     pagecolor="#ffffff"
     bordercolor="#666666"
     borderopacity="1"
     objecttolerance="10"
     gridtolerance="10"
     guidetolerance="10"
     inkscape:pageopacity="0"
     inkscape:pageshadow="2"
     inkscape:window-width="1920"
     inkscape:window-height="996"
     id="namedview841"
     showgrid="false"
     inkscape:zoom="7.560241"
     inkscape:cx="83.661355"
     inkscape:cy="12"
     inkscape:window-x="-8"
     inkscape:window-y="-8"
     inkscape:window-maximized="1"
     inkscape:current-layer="svg839" />
  <path
     fill-rule="evenodd"
     clip-rule="evenodd"
     d="M73.9817 3.13086L75.6422 4.79178H86.3218L87.9824 3.13086H73.9817ZM92.3424 11.1475V22.3397H86.4826V24.0003H94.003V9.48692L92.3424 11.1475ZM73.1343 24.0003H82.4737L80.8132 22.3397H74.7951V16.3213L73.1343 14.6607V24.0003Z"
     id="path831"
     style="fill:#0e0e0e;fill-opacity:1" />
  <path
     d="M94.003 0L84.822 8.97863V16.4891L94.003 7.51015V0ZM73.1343 12.5702L84.822 23.9999V16.4894L73.1343 5.06V12.5702Z"
     id="path833"
     clip-rule="evenodd"
     fill-rule="evenodd"
     style="fill:#0e0e0e;fill-opacity:1" />
  <path
     fill-rule="evenodd"
     clip-rule="evenodd"
     d="M100.351 10.0988L100.434 11.1207C100.769 10.7067 101.132 10.4114 101.523 10.2346C101.914 10.0578 102.36 9.96942 102.863 9.96942C103.347 9.96942 103.751 10.0363 104.077 10.1699C104.403 10.3036 104.714 10.5472 105.012 10.9008L104.133 11.6381C103.937 11.4139 103.719 11.2479 103.477 11.1401C103.235 11.0323 102.984 10.9784 102.723 10.9784C102.202 10.9784 101.779 11.0733 101.453 11.263C101.128 11.4527 100.816 11.7416 100.518 12.1297V16.5666H99.2202V10.0988H100.351ZM107.371 10.0988V16.5666H106.073V10.0988H107.371ZM106.729 7.30469C107.017 7.30469 107.24 7.38446 107.398 7.544C107.557 7.70354 107.636 7.89541 107.636 8.11963C107.636 8.33522 107.557 8.52494 107.398 8.6888C107.24 8.85265 107.017 8.93457 106.729 8.93457C106.44 8.93457 106.217 8.85265 106.059 8.6888C105.901 8.52494 105.821 8.33522 105.821 8.11963C105.821 7.89541 105.901 7.70354 106.059 7.544C106.217 7.38446 106.44 7.30469 106.729 7.30469ZM110.036 10.0988L112.465 15.5447H112.52L115.032 10.0988H116.372L113.19 16.5666H111.683L108.627 10.0988H110.036ZM118.619 13.6302C118.647 13.9838 118.735 14.2921 118.884 14.5551C119.033 14.8181 119.229 15.0337 119.47 15.2019C119.712 15.37 119.989 15.4951 120.301 15.577C120.613 15.6589 120.936 15.6999 121.271 15.6999C121.764 15.6999 122.199 15.6632 122.576 15.5899C122.953 15.5166 123.322 15.3851 123.685 15.1954L124.062 16.1785C123.829 16.282 123.608 16.3661 123.399 16.4308C123.19 16.4954 122.973 16.5472 122.75 16.586C122.527 16.6248 122.287 16.6528 122.031 16.6701C121.776 16.6873 121.494 16.6959 121.187 16.6959C120.554 16.6959 119.996 16.6183 119.512 16.4631C119.029 16.3079 118.621 16.0837 118.291 15.7904C117.961 15.4972 117.71 15.1437 117.538 14.7297C117.365 14.3158 117.279 13.8544 117.279 13.3456C117.279 12.8454 117.375 12.3862 117.565 11.968C117.756 11.5497 118.024 11.194 118.368 10.9008C118.712 10.6076 119.115 10.3791 119.575 10.2152C120.036 10.0513 120.54 9.96942 121.089 9.96942C121.648 9.96942 122.131 10.0363 122.541 10.1699C122.95 10.3036 123.29 10.489 123.56 10.7262C123.829 10.9633 124.029 11.2457 124.16 11.5734C124.29 11.9011 124.355 12.259 124.355 12.6471C124.355 12.8282 124.346 12.9942 124.327 13.1451C124.309 13.296 124.276 13.4577 124.229 13.6302H118.619ZM123.099 12.6988C123.09 12.0607 122.918 11.6079 122.583 11.3406C122.248 11.0733 121.703 10.9396 120.95 10.9396C120.671 10.9396 120.394 10.9762 120.119 11.0495C119.845 11.1228 119.601 11.2328 119.387 11.3794C119.173 11.526 118.994 11.7093 118.849 11.9292C118.705 12.1491 118.619 12.4056 118.591 12.6988H123.099ZM126.951 10.0988L127.035 11.1207C127.37 10.7067 127.732 10.4114 128.123 10.2346C128.514 10.0578 128.961 9.96942 129.463 9.96942C129.947 9.96942 130.352 10.0363 130.677 10.1699C131.003 10.3036 131.315 10.5472 131.612 10.9008L130.733 11.6381C130.538 11.4139 130.319 11.2479 130.077 11.1401C129.835 11.0323 129.584 10.9784 129.323 10.9784C128.802 10.9784 128.379 11.0733 128.053 11.263C127.728 11.4527 127.416 11.7416 127.118 12.1297V16.5666H125.82V10.0988H126.951ZM137.432 11.3018C137.069 11.1466 136.723 11.0409 136.392 10.9849C136.062 10.9288 135.706 10.9008 135.325 10.9008C134.711 10.9008 134.266 10.9806 133.992 11.1401C133.717 11.2996 133.58 11.5044 133.58 11.7545C133.58 12.0736 133.736 12.2914 134.048 12.4078C134.359 12.5242 134.822 12.6126 135.436 12.673C136.311 12.7592 136.988 12.9554 137.467 13.2615C137.946 13.5677 138.186 14.0528 138.186 14.7168C138.186 15.3894 137.888 15.8875 137.292 16.2108C136.697 16.5342 135.887 16.6959 134.864 16.6959C134.352 16.6959 133.903 16.6636 133.517 16.5989C133.131 16.5342 132.733 16.42 132.324 16.2561L132.645 15.273C133.334 15.5749 134.055 15.7258 134.808 15.7258C136.25 15.7258 136.971 15.3851 136.971 14.7039C136.971 14.54 136.939 14.402 136.874 14.2899C136.809 14.1778 136.702 14.0851 136.553 14.0118C136.404 13.9385 136.208 13.8781 135.967 13.8307C135.725 13.7833 135.422 13.7423 135.059 13.7078C134.148 13.6216 133.468 13.4362 133.022 13.1516C132.575 12.867 132.352 12.4315 132.352 11.8451C132.352 11.5864 132.412 11.3428 132.533 11.1142C132.654 10.8857 132.838 10.6873 133.085 10.5192C133.331 10.351 133.643 10.2174 134.02 10.1182C134.397 10.019 134.836 9.96942 135.339 9.96942C135.59 9.96942 135.82 9.97589 136.029 9.98882C136.239 10.0018 136.441 10.0233 136.636 10.0535C136.832 10.0837 137.027 10.1246 137.223 10.1764C137.418 10.2281 137.623 10.2928 137.837 10.3704L137.432 11.3018ZM138.981 10.4998L139.93 9.94355L140.949 8.48183L141.382 8.5465V10.0988H144.159L144.117 11.0948L141.382 10.9784V14.3805C141.382 14.872 141.502 15.2213 141.744 15.4282C141.986 15.6352 142.298 15.7387 142.679 15.7387C142.986 15.7387 143.263 15.6999 143.51 15.6223C143.756 15.5447 144.01 15.4326 144.27 15.286L144.689 16.1526C144.401 16.3424 144.087 16.4803 143.747 16.5666C143.407 16.6528 143.005 16.6959 142.54 16.6959C141.74 16.6959 141.128 16.5019 140.705 16.1138C140.281 15.7258 140.07 15.1523 140.07 14.3934V11.0948L138.981 10.9525V10.4998ZM145.931 10.5386C146.452 10.3402 146.934 10.1958 147.376 10.1052C147.818 10.0147 148.327 9.96942 148.904 9.96942C149.937 9.96942 150.697 10.1462 151.186 10.4998C151.674 10.8534 151.918 11.4268 151.918 12.2202V14.9238C151.918 15.2342 151.974 15.4433 152.086 15.5511C152.197 15.6589 152.43 15.7128 152.784 15.7128V16.5666C152.625 16.6097 152.479 16.642 152.344 16.6636C152.209 16.6852 152.049 16.6959 151.863 16.6959C151.574 16.6959 151.346 16.6011 151.179 16.4114C151.011 16.2216 150.914 15.9629 150.886 15.6352C150.244 16.3424 149.285 16.6959 148.011 16.6959C147.192 16.6959 146.571 16.5191 146.148 16.1656C145.724 15.812 145.513 15.3291 145.513 14.7168C145.513 14.4236 145.561 14.1562 145.659 13.9148C145.757 13.6733 145.927 13.4275 146.168 13.1775C146.485 13.0912 146.803 13.0136 147.124 12.9446C147.445 12.8756 147.787 12.8196 148.15 12.7764C148.513 12.7333 148.899 12.6988 149.309 12.673C149.718 12.6471 150.169 12.6298 150.662 12.6212V12.259C150.662 11.8106 150.53 11.4829 150.265 11.2759C149.999 11.0689 149.527 10.9655 148.848 10.9655C147.973 10.9655 147.094 11.1422 146.21 11.4958L145.931 10.5386ZM150.662 13.4879C149.853 13.5052 149.171 13.5461 148.618 13.6108C148.064 13.6755 147.559 13.7639 147.104 13.876C146.917 14.0829 146.824 14.3417 146.824 14.6521C146.824 15.0057 146.943 15.2709 147.18 15.4476C147.418 15.6244 147.755 15.7128 148.192 15.7128C148.657 15.7128 149.088 15.6482 149.483 15.5188C149.878 15.3894 150.272 15.1695 150.662 14.8591V13.4879ZM155.268 10.0988L155.352 11.1207C155.686 10.7067 156.049 10.4114 156.44 10.2346C156.831 10.0578 157.277 9.96942 157.78 9.96942C158.264 9.96942 158.668 10.0363 158.994 10.1699C159.32 10.3036 159.631 10.5472 159.929 10.9008L159.05 11.6381C158.855 11.4139 158.636 11.2479 158.394 11.1401C158.152 11.0323 157.901 10.9784 157.64 10.9784C157.119 10.9784 156.696 11.0733 156.37 11.263C156.045 11.4527 155.733 11.7416 155.435 12.1297V16.5666H154.137V10.0988H155.268ZM160.292 10.4998L161.241 9.94355L162.26 8.48183L162.692 8.5465V10.0988H165.47L165.428 11.0948L162.692 10.9784V14.3805C162.692 14.872 162.813 15.2213 163.055 15.4282C163.297 15.6352 163.609 15.7387 163.99 15.7387C164.297 15.7387 164.574 15.6999 164.821 15.6223C165.067 15.5447 165.321 15.4326 165.581 15.286L166 16.1526C165.712 16.3424 165.398 16.4803 165.058 16.5666C164.718 16.6528 164.316 16.6959 163.851 16.6959C163.051 16.6959 162.439 16.5019 162.016 16.1138C161.592 15.7258 161.381 15.1523 161.381 14.3934V11.0948L160.292 10.9525V10.4998Z"
     id="path835"
     style="fill:#0e0e0e;fill-opacity:1" />
  <path
     fill-rule="evenodd"
     clip-rule="evenodd"
     d="M0.861877 10.4342L0.964134 11.7782C1.37316 11.2036 1.82357 10.8116 2.31538 10.6022C2.80719 10.3928 3.30629 10.2881 3.81271 10.2881C4.43599 10.2881 4.94727 10.405 5.34656 10.6387C5.74585 10.8725 6.07209 11.2377 6.3253 11.7344C6.74407 11.2182 7.20178 10.8481 7.69846 10.6241C8.19514 10.4001 8.73563 10.2881 9.31996 10.2881C10.3036 10.2881 11.0267 10.5511 11.4893 11.077C11.9518 11.6029 12.1831 12.4015 12.1831 13.4728V17.7385H11.1314V13.502C11.1314 12.7424 10.9901 12.1678 10.7077 11.7782C10.4253 11.3886 9.96272 11.1938 9.31996 11.1938C8.73563 11.1938 8.22192 11.3205 7.7788 11.5737C7.33569 11.8269 6.94371 12.1872 6.60285 12.6547C6.62233 12.7911 6.63937 12.9201 6.65398 13.0418C6.66859 13.1636 6.67589 13.3072 6.67589 13.4728V17.7385H5.62411V13.4874C5.62411 12.757 5.4829 12.1921 5.20048 11.7928C4.91805 11.3935 4.45547 11.1938 3.81271 11.1938C3.17969 11.1938 2.63676 11.3326 2.18391 11.6102C1.73106 11.8878 1.35368 12.2749 1.05178 12.7716V17.7385H0V10.4342H0.861877ZM14.4766 10.8871C14.9733 10.6728 15.4529 10.5194 15.9155 10.4269C16.3781 10.3344 16.8967 10.2881 17.4713 10.2881C18.5328 10.2881 19.3119 10.4829 19.8086 10.8725C20.3052 11.262 20.5536 11.8999 20.5536 12.7862V15.9563C20.5536 16.3458 20.6217 16.6112 20.7581 16.7524C20.8944 16.8936 21.1525 16.974 21.5323 16.9935V17.7385C21.4154 17.7872 21.2937 17.8237 21.1671 17.8481C21.0405 17.8724 20.8944 17.8846 20.7289 17.8846C20.4367 17.8846 20.2078 17.7921 20.0423 17.607C19.8767 17.422 19.7745 17.0957 19.7355 16.6282C19.307 17.086 18.8128 17.4098 18.2528 17.5997C17.6928 17.7896 17.1061 17.8846 16.4925 17.8846C15.616 17.8846 14.9757 17.6874 14.5716 17.2929C14.1674 16.8985 13.9653 16.3702 13.9653 15.7079C13.9653 15.3768 14.0116 15.0797 14.1041 14.8168C14.1966 14.5538 14.3597 14.286 14.5935 14.0133C14.9246 13.9159 15.2654 13.8283 15.616 13.7504C15.9666 13.6724 16.3391 13.6091 16.7336 13.5604C17.128 13.5117 17.554 13.4728 18.0118 13.4436C18.4695 13.4144 18.971 13.39 19.5164 13.3705V12.83C19.5164 12.5476 19.4823 12.3041 19.4141 12.0996C19.346 11.8951 19.2291 11.7271 19.0635 11.5956C18.898 11.4641 18.6789 11.3667 18.4062 11.3034C18.1335 11.2401 17.7975 11.2085 17.3982 11.2085C16.9405 11.2085 16.5047 11.2523 16.0908 11.3399C15.6769 11.4276 15.2314 11.5688 14.7542 11.7636L14.4766 10.8871ZM19.5164 14.1448C18.562 14.1643 17.7659 14.2154 17.128 14.2982C16.4901 14.381 15.9228 14.4857 15.4261 14.6123C15.2898 14.7778 15.1924 14.941 15.134 15.1016C15.0755 15.2623 15.0463 15.4352 15.0463 15.6203C15.0463 16.5163 15.5625 16.9642 16.5948 16.9642C17.1499 16.9642 17.666 16.8839 18.1432 16.7232C18.6204 16.5625 19.0782 16.2679 19.5164 15.8394V14.1448ZM29.8443 7.07422V17.4317C29.5522 17.5194 29.2722 17.59 29.0044 17.6435C28.7365 17.6971 28.4614 17.7434 28.179 17.7823C27.8966 17.8213 27.5971 17.8481 27.2806 17.8627C26.9641 17.8773 26.6159 17.8846 26.2361 17.8846C25.6615 17.8846 25.1405 17.8067 24.6731 17.6508C24.2056 17.495 23.8063 17.2589 23.4752 16.9423C23.1441 16.6258 22.8884 16.2314 22.7083 15.759C22.5281 15.2867 22.438 14.734 22.438 14.101C22.438 13.5361 22.5354 13.0175 22.7302 12.5451C22.925 12.0728 23.1976 11.6711 23.5482 11.3399C23.8988 11.0088 24.3127 10.7507 24.7899 10.5657C25.2671 10.3806 25.7833 10.2881 26.3384 10.2881C26.8545 10.2881 27.2976 10.3465 27.6677 10.4634C28.0378 10.5803 28.4127 10.7653 28.7925 11.0185V7.07422H29.8443ZM28.7925 12.085C28.4517 11.8025 28.0938 11.5834 27.7188 11.4276C27.3439 11.2718 26.9227 11.1938 26.4552 11.1938C26.056 11.1938 25.6786 11.2547 25.3231 11.3765C24.9676 11.4982 24.656 11.6808 24.3882 11.9243C24.1204 12.1678 23.9086 12.4697 23.7527 12.83C23.5969 13.1904 23.519 13.6091 23.519 14.0863C23.519 14.583 23.5945 15.0116 23.7454 15.3719C23.8964 15.7323 24.1082 16.0293 24.3809 16.263C24.6536 16.4968 24.9725 16.6696 25.3377 16.7816C25.7029 16.8936 26.1046 16.9496 26.5429 16.9496C26.9811 16.9496 27.3707 16.9302 27.7115 16.8912C28.0524 16.8522 28.4127 16.7792 28.7925 16.6721V12.085ZM32.3715 14.3201C32.4007 14.7778 32.5005 15.1747 32.671 15.5107C32.8414 15.8467 33.0654 16.1218 33.343 16.3361C33.6205 16.5503 33.937 16.7086 34.2925 16.8109C34.6479 16.9131 35.0253 16.9642 35.4246 16.9642C35.931 16.9642 36.3887 16.9229 36.7978 16.8401C37.2068 16.7573 37.5963 16.6185 37.9664 16.4237L38.2732 17.3441C37.8252 17.5486 37.3821 17.6898 36.9438 17.7677C36.5056 17.8456 35.9797 17.8846 35.3662 17.8846C34.7137 17.8846 34.1342 17.7969 33.6278 17.6216C33.1214 17.4463 32.6978 17.1931 32.3569 16.862C32.016 16.5309 31.7555 16.1316 31.5754 15.6641C31.3952 15.1966 31.3051 14.6756 31.3051 14.101C31.3051 13.5361 31.4049 13.0175 31.6046 12.5451C31.8042 12.0728 32.0818 11.6711 32.4373 11.3399C32.7927 11.0088 33.2115 10.7507 33.6935 10.5657C34.1756 10.3806 34.6991 10.2881 35.2639 10.2881C35.8385 10.2881 36.3352 10.3636 36.7539 10.5145C37.1727 10.6655 37.5209 10.8725 37.7984 11.1354C38.076 11.3984 38.2829 11.7124 38.4193 12.0777C38.5556 12.4429 38.6238 12.8446 38.6238 13.2829C38.6238 13.4777 38.6165 13.6554 38.6019 13.8161C38.5872 13.9768 38.5556 14.1448 38.5069 14.3201H32.3715ZM37.6158 13.429C37.6158 12.6206 37.4186 12.046 37.0242 11.7051C36.6298 11.3643 36.0041 11.1938 35.147 11.1938C34.8159 11.1938 34.4946 11.2425 34.1829 11.3399C33.8713 11.4373 33.5889 11.5785 33.3356 11.7636C33.0824 11.9486 32.8706 12.1824 32.7002 12.4648C32.5298 12.7472 32.4251 13.0686 32.3861 13.429H37.6158ZM45.4458 7.07422V11.0332C45.884 10.7605 46.3174 10.5681 46.7459 10.4561C47.1744 10.3441 47.6613 10.2881 48.2067 10.2881C49.3559 10.2881 50.2445 10.5925 50.8727 11.2011C51.5008 11.8098 51.8149 12.7277 51.8149 13.9549C51.8149 14.5587 51.7077 15.1016 51.4935 15.5837C51.2792 16.0658 50.9798 16.4773 50.5951 16.8182C50.2104 17.159 49.7551 17.422 49.2292 17.607C48.7033 17.7921 48.1288 17.8846 47.5055 17.8846C47.1744 17.8846 46.8725 17.8724 46.5998 17.8481C46.3271 17.8237 46.0666 17.7823 45.8183 17.7239C45.5699 17.6655 45.3313 17.59 45.1025 17.4975C44.8736 17.4049 44.6374 17.2954 44.394 17.1688V7.07422H45.4458ZM45.4458 16.5114C45.621 16.599 45.789 16.6696 45.9497 16.7232C46.1104 16.7768 46.2711 16.8206 46.4318 16.8547C46.5925 16.8888 46.7605 16.9131 46.9358 16.9277C47.1111 16.9423 47.3058 16.9496 47.5201 16.9496C47.9973 16.9496 48.4355 16.8815 48.8348 16.7451C49.2341 16.6088 49.575 16.414 49.8574 16.1608C50.1398 15.9076 50.3589 15.5935 50.5148 15.2185C50.6706 14.8436 50.7485 14.4175 50.7485 13.9403C50.7485 13.0248 50.5221 12.3358 50.0692 11.8731C49.6164 11.4105 48.9517 11.1792 48.0752 11.1792C47.5493 11.1792 47.077 11.2474 46.6582 11.3838C46.2395 11.5201 45.8353 11.7246 45.4458 11.9973V16.5114ZM53.9477 10.4342L56.9277 16.6282H57.0154L59.4257 10.4342H60.5943L57.0007 19.1848C56.806 19.662 56.5041 20.0296 56.095 20.2877C55.686 20.5458 55.2478 20.6748 54.7803 20.6748C54.5076 20.6748 54.2301 20.6213 53.9477 20.5141L54.1229 19.6522C54.2982 19.7009 54.4979 19.7253 54.7219 19.7253C55.092 19.7253 55.3987 19.6376 55.6422 19.4623C55.8857 19.287 56.0756 18.9948 56.2119 18.5858L56.4602 17.87L52.7644 10.4342H53.9477Z"
     id="path837"
     style="fill:#0e0e0e;fill-opacity:1" />
</svg>
