<svg width="85" height="34" viewBox="0 0 85 34" fill="none" xmlns="http://www.w3.org/2000/svg">
<path d="M0.0196746 22.3324V22.276C-0.0915636 21.2057 0.297772 17.544 0.464629 15.854L0.520247 15.2343C0.9652 10.615 3.18997 6.55894 6.52711 3.85492C9.80864 1.09457 14.1469 -0.3701 18.7077 0.0805688C21.1549 0.305903 23.4353 1.09457 25.4376 2.27758C25.9382 2.55925 26.3831 2.89725 26.8281 3.23525C28.7191 4.64359 30.3321 6.38994 31.5001 8.47428C31.8338 8.13628 32.2231 7.74195 32.6125 7.29128C33.0018 6.89694 33.7805 5.6576 34.281 5.8266C35.449 6.27727 34.726 12.5866 34.6147 13.4316C34.3923 15.1217 34.0029 16.8117 33.5024 18.4453C30.9439 26.9517 24.8814 33.7118 15.8155 33.9934C11.3103 34.1061 8.2513 32.7541 7.02768 31.1767C3.63492 26.9517 7.0833 21.938 11.4216 20.1917C17.929 17.6003 23.9915 22.7267 20.5987 21.9944C18.8189 21.6 17.3172 21.4874 15.9824 21.6C7.52825 22.276 6.74959 31.4584 15.8155 31.2331C23.5465 31.0077 28.7747 25.0364 30.9995 17.6003C31.4445 16.1357 31.7782 14.5583 32.0006 13.0373C32.0563 12.5866 32.1119 12.136 32.1675 11.6853C31.1107 12.5303 30.054 13.15 28.4966 13.488C25.9938 14.1076 22.4342 14.0513 15.4262 13.8823C3.35682 13.657 2.80063 22.3887 2.80063 22.3887C2.74501 23.121 2.07758 23.6844 1.35453 23.628C0.575866 23.5154 0.0752936 22.952 0.0196746 22.3324ZM17.8734 2.72825V11.0656C23.1016 11.1783 25.9938 11.122 27.8848 10.6713C28.441 10.5586 28.9416 10.3333 29.3866 10.108C28.3854 8.24895 26.9949 6.61527 25.2707 5.37593C24.8814 5.09426 24.4921 4.8126 24.1027 4.58726C22.4342 3.62959 20.5431 2.95358 18.4852 2.72825C18.2627 2.78458 18.0403 2.72825 17.8734 2.72825ZM15.1481 11.0656V2.89725C12.5896 3.29159 10.198 4.36193 8.2513 5.9956C5.19225 8.98129 4.80292 11.122 4.58044 14.0513C6.80521 12.305 10.1424 11.0093 15.1481 11.0656Z" fill="#5DCB4E"/>
<path d="M39.8212 19.741C40.4887 20.248 41.323 20.586 42.2685 20.586C44.382 20.586 46.1062 18.9524 46.1062 16.9244C46.1062 14.8963 44.382 13.2627 42.2685 13.2627C41.323 13.2627 40.4887 13.5443 39.8212 14.0513L40.7111 14.8963C41.1005 14.6147 41.6567 14.4457 42.2129 14.4457C43.3809 14.4457 44.3264 15.1217 44.6045 16.192H41.4898V17.3187H44.6045C44.382 18.5017 43.4365 19.234 42.2129 19.234C41.6567 19.234 41.1005 19.065 40.7111 18.7834L39.8212 19.741ZM48.7203 13.4317H47.3854V20.417H48.7203V17.375C48.9428 17.3187 49.2209 17.3187 49.4433 17.3187C50.9451 17.3187 51.7793 18.051 51.7793 19.3467V20.417H53.1142V19.3467C53.1142 18.051 52.7249 16.8117 51.2231 16.4737C51.3344 15.7413 52.0574 14.7837 53.1142 14.6147V13.4317C51.0563 13.657 50.1664 15.178 49.9439 16.2483C49.5546 16.192 49.2765 16.192 48.6647 16.192V13.4317H48.7203ZM57.7306 14.502C59.1767 14.502 60.1222 15.516 60.1222 16.9244C60.1222 18.3327 59.2323 19.3467 57.7306 19.3467C56.2845 19.3467 55.339 18.389 55.339 16.9244C55.339 15.516 56.2845 14.502 57.7306 14.502ZM57.7306 13.319C55.6171 13.319 54.0041 14.9527 54.0041 16.9807C54.0041 19.0087 55.6171 20.6424 57.7306 20.6424C59.8441 20.6424 61.4571 19.0087 61.4571 16.9807C61.4571 14.8963 59.8441 13.319 57.7306 13.319ZM42.9042 26.1121C44.3503 26.1121 45.2958 27.1261 45.2958 28.5344C45.2958 29.9428 44.4059 30.9568 42.9042 30.9568C41.4581 30.9568 40.5126 29.9991 40.5126 28.5344C40.5682 27.0697 41.5137 26.1121 42.9042 26.1121ZM42.9042 24.8727C40.7907 24.8727 39.1777 26.5064 39.1777 28.5344C39.1777 30.5624 40.7907 32.1961 42.9042 32.1961C45.0177 32.1961 46.6307 30.5624 46.6307 28.5344C46.6863 26.5064 45.0734 24.8727 42.9042 24.8727ZM49.3004 24.9854H47.9655V31.9708H49.3004V28.9287C49.5229 28.8724 49.801 28.8724 50.0235 28.8724C51.5252 28.8724 52.3595 29.6048 52.3595 30.9004V31.9708H53.6943V30.9004C53.6943 29.6048 53.305 28.3654 51.8033 28.0274C51.9145 27.2951 52.6376 26.3374 53.6943 26.1684V24.9854C51.6364 25.2107 50.7465 26.7317 50.524 27.8021C50.1347 27.7457 49.8566 27.7457 49.2448 27.7457V24.9854H49.3004ZM55.0292 24.9854V31.9708H56.364V28.7597H59.868V31.9708H61.2029V24.9854H59.868V27.5767H56.364V24.9854H55.0292ZM67.0429 27.9147C66.5423 27.7457 66.0974 27.6894 65.5968 27.6894C64.0395 27.6894 62.7602 28.3654 62.7602 29.8301C62.7602 31.2948 63.9282 31.9708 65.5968 31.9708H68.9896V27.6894C68.9896 25.9431 67.8772 24.9854 65.9305 24.9854H63.4277V26.2247H65.8749C66.9873 26.2247 67.7103 26.7317 67.7103 27.9711V30.7314H65.708C65.0962 30.7314 64.2063 30.5624 64.2063 29.7738C64.2063 29.0977 64.7625 28.7597 65.708 28.7597C66.153 28.7597 66.6536 28.8161 67.1541 29.1541V27.9147H67.0429Z" fill="#5DCB4E"/>
<path d="M39.7261 1.8779V8.86328H41.0609V3.11724H42.7851C44.3981 3.11724 44.4537 4.30025 44.4537 4.97625V8.91961H45.8442V4.97625C45.8442 3.96225 45.7886 3.06091 44.843 2.44124C44.12 1.93424 43.1745 1.8779 42.3958 1.8779H39.7261ZM47.4015 12.187H48.792V5.37059C48.792 3.90591 49.7375 2.94824 51.1836 2.94824C52.6297 2.94824 53.5752 3.96225 53.5752 5.37059C53.5752 6.77893 52.6853 7.79294 51.128 7.79294C50.5162 7.79294 49.9044 7.62394 49.3482 7.28593V8.58161C49.9044 8.86328 50.5162 9.03228 51.1836 9.03228C53.2971 9.03228 54.9101 7.3986 54.9101 5.37059C54.9101 3.34258 53.2971 1.7089 51.1836 1.7089C49.0701 1.7089 47.4571 3.34258 47.4571 5.37059V12.187H47.4015ZM59.7489 2.94824C61.195 2.94824 62.1406 3.96225 62.1406 5.37059C62.1406 6.77893 61.2507 7.79294 59.7489 7.79294C58.3029 7.79294 57.3573 6.83526 57.3573 5.37059C57.4129 3.90591 58.3585 2.94824 59.7489 2.94824ZM59.7489 1.7089C57.6354 1.7089 56.0225 3.34258 56.0225 5.37059C56.0225 7.3986 57.6354 9.03228 59.7489 9.03228C61.8625 9.03228 63.4754 7.3986 63.4754 5.37059C63.531 3.34258 61.9181 1.7089 59.7489 1.7089ZM68.3699 1.7089C65.9227 1.65257 64.5322 3.28624 64.5322 5.48326C64.5322 7.51127 65.9783 8.97594 68.3699 8.97594C69.3154 8.97594 70.2053 8.69428 70.8728 8.13094L69.9272 7.28593C69.5379 7.5676 68.9261 7.7366 68.3699 7.7366C66.9238 7.7366 65.9783 6.77893 65.9783 5.31426C65.9783 4.01858 66.8126 2.83558 68.3143 2.83558C68.9817 2.83558 69.5935 3.11724 69.5935 3.73691C69.5935 4.63825 69.1486 5.03259 67.7581 5.03259H67.035V6.15926H67.6469C69.6491 6.15926 70.984 5.48326 70.984 3.73691C70.984 2.32857 69.9829 1.76524 68.3699 1.7089ZM73.8206 1.8779H72.4857V8.86328H73.8206V5.82126C74.0431 5.76493 74.3211 5.76493 74.5436 5.76493C76.0453 5.76493 76.8796 6.49726 76.8796 7.79294V8.86328H78.2145V7.79294C78.2145 6.49726 77.8252 5.25792 76.3234 4.91992C76.4347 4.18758 77.1577 3.22991 78.2145 3.06091V1.8779C76.1566 2.10324 75.2667 3.62425 75.0442 4.69459C74.6549 4.63825 74.3768 4.63825 73.765 4.63825V1.8779H73.8206ZM78.9932 1.8779V3.11724H81.3292V8.86328H82.664V3.11724H85V1.8779H78.9932Z" fill="#5DCB4E"/>
</svg>
