<?xml version="1.0" encoding="UTF-8" standalone="no"?>
<svg
   xmlns:dc="http://purl.org/dc/elements/1.1/"
   xmlns:cc="http://creativecommons.org/ns#"
   xmlns:rdf="http://www.w3.org/1999/02/22-rdf-syntax-ns#"
   xmlns:svg="http://www.w3.org/2000/svg"
   xmlns="http://www.w3.org/2000/svg"
   style="fill:none"
   id="svg903"
   version="1.1"
   viewBox="0 0 577.46857 432.79117"
   height="432.79117"
   width="577.46857">
  <metadata
     id="metadata907">
    <rdf:RDF>
      <cc:Work
         rdf:about="">
        <dc:format>image/svg+xml</dc:format>
        <dc:type
           rdf:resource="http://purl.org/dc/dcmitype/StillImage" />
        <dc:title></dc:title>
      </cc:Work>
    </rdf:RDF>
  </metadata>
  <circle
     style="opacity:0.11000001;fill:#219d02"
     id="circle862"
     r="148.5"
     cy="205.29117"
     cx="236.88087" />
  <circle
     style="opacity:0.12000002;fill:#127ac5"
     id="circle864"
     r="98"
     cy="334.79117"
     cx="287.38086" />
  <circle
     style="opacity:0.15;fill:#127ac5"
     cy="-363.79117"
     cx="160.38087"
     id="circle872"
     transform="scale(1,-1)"
     r="10" />
  <circle
     style="opacity:0.2;fill:#127ac5"
     id="circle874"
     r="58"
     cy="78.791168"
     cx="321.38086" />
  <circle
     style="opacity:0.25;fill:#127ac5"
     cy="-70.791168"
     cx="409.38086"
     id="circle876"
     transform="scale(1,-1)"
     r="10" />
  <path
     style="fill:#9fbed5"
     id="path882"
     d="m 548.72487,163.63417 0.4,0.299 z m -140.34,43.974 c -0.254,0.108 -0.373,0.401 -0.266,0.655 l 1.75,4.146 c 0.108,0.254 0.401,0.373 0.655,0.266 0.255,-0.107 0.374,-0.401 0.267,-0.655 l -1.556,-3.685 3.685,-1.556 c 0.254,-0.107 0.373,-0.401 0.266,-0.655 -0.108,-0.254 -0.401,-0.374 -0.655,-0.266 z m 148.885,-196.0842 c -0.416,0.2773 -0.416,0.2774 -0.416,0.2777 10e-4,5e-4 10e-4,0.0012 0.002,0.0022 10e-4,0.002 0.003,0.0051 0.006,0.0093 0.006,0.0085 0.014,0.0215 0.026,0.0389 0.022,0.0349 0.057,0.0876 0.102,0.158 0.091,0.1407 0.225,0.3517 0.397,0.631 0.346,0.5584 0.847,1.3897 1.465,2.4764 1.235,2.1734 2.937,5.3682 4.8,9.4459 3.725,8.1562 8.09,19.8395 10.644,33.9433 5.108,28.198 2.984,66.0775 -25.972,104.8275 l 0.801,0.599 c 29.153,-39.013 31.302,-77.1886 26.155,-105.6047 -2.572,-14.2032 -6.967,-25.9667 -10.719,-34.1806 -1.876,-4.1074 -3.592,-7.3284 -4.84,-9.5246 -0.624,-1.0981 -1.131,-1.94 -1.483,-2.5086 -0.176,-0.2843 -0.313,-0.5002 -0.407,-0.6456 -0.047,-0.0727 -0.083,-0.1278 -0.107,-0.1649 -0.012,-0.0186 -0.021,-0.0327 -0.028,-0.0423 -0.003,-0.0048 -0.005,-0.0085 -0.007,-0.0111 -10e-4,-0.0012 -0.002,-0.0023 -0.002,-0.0029 -10e-4,-8e-4 -10e-4,-0.0013 -0.417,0.2761 z m -8.946,151.8102 c -28.952,38.745 -63.84,49.797 -91.488,51.179 -13.831,0.692 -25.856,-1.038 -34.422,-2.94 -4.282,-0.951 -7.699,-1.945 -10.043,-2.7 -1.171,-0.378 -2.075,-0.695 -2.684,-0.918 -0.305,-0.112 -0.536,-0.2 -0.69,-0.259 -0.077,-0.03 -0.135,-0.053 -0.173,-0.068 -0.02,-0.008 -0.034,-0.014 -0.043,-0.017 -0.005,-0.002 -0.008,-0.003 -0.01,-0.004 -0.002,-0.001 -0.002,-0.001 -0.003,-0.001 0,0 0,0 -0.188,0.463 -0.189,0.463 -0.188,0.463 -0.187,0.464 10e-4,0 0.002,0 0.003,10e-4 0.003,0.001 0.007,0.003 0.012,0.005 0.011,0.004 0.026,0.01 0.047,0.018 0.041,0.017 0.102,0.04 0.181,0.071 0.16,0.062 0.397,0.152 0.707,0.266 0.621,0.227 1.537,0.549 2.722,0.931 2.369,0.763 5.816,1.766 10.132,2.724 8.632,1.917 20.748,3.66 34.689,2.963 27.897,-1.395 63.082,-12.56 92.239,-51.579 z" />
  <path
     style="fill:#9fbed5"
     id="path884"
     d="m 7.9032704,78.03287 -0.458,0.2006 z m 61.2736996,43.9153 c 0.1749,-0.214 0.1434,-0.529 -0.0704,-0.704 l -3.4827,-2.85 c -0.2137,-0.174 -0.5287,-0.143 -0.7036,0.071 -0.1749,0.214 -0.1434,0.529 0.0703,0.703 l 3.0958,2.533 -2.533,3.096 c -0.1749,0.214 -0.1434,0.529 0.0704,0.704 0.2137,0.175 0.5287,0.143 0.7036,-0.071 z M 16.86227,0.35122962 c -0.3551,-0.35194000281 -0.3554,-0.35163000281 -0.3558,-0.351200002812 -3e-4,2.90000002e-4 -9e-4,8.30000002e-4 -0.0015,0.0014300028 -0.0011,0.00118 -0.0027,0.00282 -0.0048,0.00492 -0.0041,0.00421 -0.01,0.01024 -0.0177,0.01811 -0.0153,0.01573 -0.0376,0.03877 -0.0666,0.06908 -0.0579,0.06063 -0.1425,0.15032 -0.2513,0.2687 -0.2177,0.23675 -0.5323,0.58828 -0.9241,1.05153998 -0.7836,0.92646 -1.8765,2.30012 -3.1209,4.0965 -2.4884996,3.59226 -5.5852996,8.8783604 -8.0255996,15.6619604 -4.88439997,13.5772 -7.1299,33.1309 3.3513,57.0612 l 0.916,-0.4012 c -10.3678,-23.6712 -8.13379997,-42.9583 -3.3264,-56.3215 2.4055,-6.6867 5.4576996,-11.8957004 7.9066996,-15.4310204 1.2244,-1.7674 2.2973,-3.11564 3.0624,-4.02014 0.3825,-0.45222 0.688,-0.79343 0.8968,-1.02055 0.1044,-0.11354998 0.1846,-0.19857998 0.2382,-0.25468998 0.0268,-0.02806 0.047,-0.04888 0.0601,-0.06243 0.0066,-0.00678 0.0115,-0.01173 0.0146,-0.01486 0.0015,-0.00157 0.0026,-0.00268 0.0032,-0.00333 3e-4,-3.2e-4 5e-4,-4.7e-4 7e-4,-6.3e-4 0,-3e-5 -10e-5,5e-5 -0.3553,-0.35189 z M 7.4452704,78.23347 c 10.4800996,23.9277 25.8042996,34.9187 38.5370996,39.9147 6.36,2.495 12.064,3.491 16.181,3.863 2.0587,0.186 3.7217,0.216 4.8728,0.199 0.5756,-0.008 1.0233,-0.028 1.3287,-0.047 0.1527,-0.009 0.2698,-0.017 0.3496,-0.024 0.0398,-0.003 0.0704,-0.005 0.0913,-0.007 0.0105,-0.001 0.0186,-0.002 0.0243,-0.002 0.0028,-0.001 0.005,-0.001 0.0066,-0.001 8e-4,0 0.0016,0 0.002,0 6e-4,0 0.0011,0 -0.0487,-0.498 -0.0497,-0.497 -0.0496,-0.497 -0.0496,-0.497 -2e-4,0 -3e-4,0 -8e-4,0 -8e-4,0 -0.0022,0 -0.0042,0 -0.0041,0 -0.0105,0.001 -0.0194,0.002 -0.0177,10e-4 -0.0449,0.004 -0.0814,0.007 -0.073,0.006 -0.1833,0.014 -0.3289,0.022 -0.2913,0.018 -0.7241,0.037 -1.284,0.045 -1.12,0.016 -2.7478,-0.013 -4.7684,-0.195 -4.0416,-0.365 -9.65,-1.344 -15.9056,-3.798 -12.4983,-4.903 -27.6175,-15.711 -37.9863996,-39.3849 z" />
  <defs
     id="defs901">
    <filter
       style="color-interpolation-filters:sRGB"
       filterUnits="userSpaceOnUse"
       height="120"
       width="393"
       y="315"
       x="258"
       id="filter0_d">
      <feFlood
         id="feFlood886"
         result="BackgroundImageFix"
         flood-opacity="0" />
      <feColorMatrix
         id="feColorMatrix888"
         values="0 0 0 0 0 0 0 0 0 0 0 0 0 0 0 0 0 0 127 0"
         type="matrix"
         in="SourceAlpha" />
      <feOffset
         id="feOffset890" />
      <feGaussianBlur
         id="feGaussianBlur892"
         stdDeviation="15" />
      <feColorMatrix
         id="feColorMatrix894"
         values="0 0 0 0 0.00784314 0 0 0 0 0.615686 0 0 0 0 0.278431 0 0 0 0.5 0"
         type="matrix" />
      <feBlend
         id="feBlend896"
         result="effect1_dropShadow"
         in2="BackgroundImageFix"
         mode="normal" />
      <feBlend
         id="feBlend898"
         result="shape"
         in2="effect1_dropShadow"
         in="SourceGraphic"
         mode="normal" />
    </filter>
  </defs>
</svg>
