<svg width="19" height="25" viewBox="0 0 19 25" fill="none" xmlns="http://www.w3.org/2000/svg">
<mask id="mask0" mask-type="alpha" maskUnits="userSpaceOnUse" x="0" y="0" width="19" height="25">
<path d="M18.9202 19.7496L0 25V0L19 3.438L18.9202 19.7496Z" fill="white"/>
</mask>
<g mask="url(#mask0)">
</g>
<mask id="mask1" mask-type="alpha" maskUnits="userSpaceOnUse" x="0" y="0" width="19" height="25">
<path d="M18.9575 12.1193C18.7323 11.9279 18.4622 11.7919 18.1819 11.7395C17.3941 11.5921 16.5946 11.9523 15.939 12.4405C15.4895 11.6489 14.3443 11.6213 13.6353 12.1547C12.9262 12.6882 12.558 13.5906 12.2606 14.4601C11.919 14.3674 11.5639 14.4091 11.241 14.5476V10.3664C12.1392 10.2628 13.0352 10.1366 13.9279 9.98797C14.0833 9.43297 13.9087 8.78909 13.4999 8.4079C13.0909 8.02688 12.4693 7.92902 11.9747 8.1678C12.0459 7.4401 11.7541 6.68939 11.241 6.20817V2.03402L9.09064 1.64493V5.8134C8.90444 5.88695 8.72808 5.988 8.56908 6.11601C8.73063 5.18639 7.94613 4.29132 7.07314 4.12792C6.20005 3.96452 5.31387 4.36378 4.58705 4.90489C4.08902 4.02732 2.81972 3.997 2.03386 4.58815C1.24783 5.17947 0.839666 6.17972 0.509883 7.14348C0.341388 7.0977 0.169945 7.08145 0 7.09105V0L9.09064 1.64493V1.19437H11.241V2.03402L19 3.438L18.9575 12.1193ZM18.9306 17.6216L18.9202 19.7496L11.241 21.8806V22.9277H9.09064V22.4773L0 25V10.4924C3.02197 10.7731 6.06471 10.7991 9.09064 10.5714V22.4773L11.241 21.8806V17.4263C13.795 17.6933 16.3676 17.7581 18.9306 17.6216Z" fill="white"/>
</mask>
<g mask="url(#mask1)">
<path fill-rule="evenodd" clip-rule="evenodd" d="M18.9202 19.7496L0 25V0L19 3.438L18.9202 19.7496Z" fill="url(#paint0_linear)"/>
</g>
<defs>
<linearGradient id="paint0_linear" x1="5.49876e-05" y1="12.5001" x2="18.9999" y2="12.5001" gradientUnits="userSpaceOnUse">
<stop stop-color="#183F7D"/>
<stop offset="1" stop-color="#02A3D9"/>
</linearGradient>
</defs>
</svg>
