<svg width="92" height="44" viewBox="0 0 92 44" fill="none" xmlns="http://www.w3.org/2000/svg">
<mask id="mask0" mask-type="alpha" maskUnits="userSpaceOnUse" x="0" y="0" width="29" height="37">
<path d="M28.4434 28.6199L0 36.2285V0L28.5633 4.98214L28.4434 28.6199Z" fill="white"/>
</mask>
<g mask="url(#mask0)">
</g>
<mask id="mask1" mask-type="alpha" maskUnits="userSpaceOnUse" x="0" y="0" width="29" height="37">
<path d="M28.4995 17.5625C28.161 17.2853 27.7548 17.0881 27.3334 17.0121C26.1492 16.7986 24.9472 17.3206 23.9616 18.028C23.2859 16.8808 21.5643 16.8409 20.4984 17.6139C19.4324 18.387 18.8788 19.6947 18.4317 20.9548C17.9182 20.8203 17.3845 20.8808 16.8989 21.0815V15.0224C18.2493 14.8722 19.5962 14.6894 20.9383 14.474C21.1719 13.6697 20.9094 12.7366 20.2948 12.1842C19.6799 11.6321 18.7455 11.4903 18.0019 11.8363C18.1089 10.7818 17.6703 9.69387 16.8989 8.99651V2.94759L13.6663 2.38373V8.42443C13.3863 8.53102 13.1212 8.67745 12.8822 8.86295C13.1251 7.51581 11.9457 6.21873 10.6333 5.98194C9.32074 5.74514 7.98852 6.32374 6.89586 7.10787C6.14716 5.83615 4.23898 5.79222 3.05757 6.64888C1.8759 7.50578 1.2623 8.95528 0.766524 10.3519C0.513219 10.2856 0.255484 10.262 0 10.2759V0L13.6663 2.38373V1.73081H16.8989V2.94759L28.5633 4.98214L28.4995 17.5625ZM28.459 25.5362L28.4434 28.6199L16.8989 31.708V33.2255H13.6663V32.5728L0 36.2285V15.205C4.54302 15.6117 9.11728 15.6494 13.6663 15.3194V32.5728L16.8989 31.708V25.2532C20.7385 25.64 24.6059 25.734 28.459 25.5362Z" fill="white"/>
</mask>
<g mask="url(#mask1)">
<path fill-rule="evenodd" clip-rule="evenodd" d="M28.4434 28.6199L0 36.2285V0L28.5633 4.98214L28.4434 28.6199Z" fill="url(#paint0_linear)"/>
</g>
<path fill-rule="evenodd" clip-rule="evenodd" d="M34.7194 8.7403C34.7194 9.57076 34.9832 10.2594 35.5112 10.807C36.0385 11.3543 36.6856 11.628 37.4515 11.628C38.2172 11.628 38.8666 11.3543 39.3991 10.807C39.9315 10.2594 40.1979 9.57076 40.1979 8.7403C40.1979 7.93824 39.9315 7.2659 39.3991 6.72319C38.8666 6.18074 38.2172 5.90966 37.4515 5.90966C36.6856 5.90966 36.0385 6.18074 35.5112 6.72319C34.9832 7.2659 34.7194 7.93824 34.7194 8.7403ZM33.7386 8.7403C33.7386 7.69286 34.0983 6.81528 34.8177 6.10746C35.5366 5.39974 36.4147 5.04605 37.4515 5.04605C38.4882 5.04605 39.3688 5.39974 40.0926 6.10746C40.8164 6.81528 41.1784 7.69286 41.1784 8.7403C41.1784 9.80673 40.8164 10.7006 40.0926 11.4224C39.3688 12.1444 38.4882 12.5053 37.4515 12.5053C36.4147 12.5053 35.5366 12.1444 34.8177 11.4224C34.0983 10.7006 33.7386 9.80673 33.7386 8.7403Z" fill="#193F7E"/>
<path fill-rule="evenodd" clip-rule="evenodd" d="M42.8317 12.5053V5.04605H43.677V8.20483H44.6715L46.5485 5.04605H47.543L45.3677 8.5904V8.61969L47.7916 12.5053H46.76L44.6838 9.09434H43.677V12.5053H42.8317Z" fill="#193F7E"/>
<path fill-rule="evenodd" clip-rule="evenodd" d="M49.5991 8.7403C49.5991 9.57076 49.8629 10.2594 50.3908 10.807C50.9182 11.3543 51.5652 11.628 52.3312 11.628C53.0969 11.628 53.7463 11.3543 54.2787 10.807C54.8111 10.2594 55.0775 9.57076 55.0775 8.7403C55.0775 7.93824 54.8111 7.2659 54.2787 6.72319C53.7463 6.18074 53.0969 5.90966 52.3312 5.90966C51.5652 5.90966 50.9182 6.18074 50.3908 6.72319C49.8629 7.2659 49.5991 7.93824 49.5991 8.7403ZM48.6183 8.7403C48.6183 7.69286 48.9781 6.81528 49.6973 6.10746C50.4163 5.39974 51.2944 5.04605 52.3312 5.04605C53.3678 5.04605 54.2484 5.39974 54.9722 6.10746C55.696 6.81528 56.0581 7.69286 56.0581 8.7403C56.0581 9.80673 55.696 10.7006 54.9722 11.4224C54.2484 12.1444 53.3678 12.5053 52.3312 12.5053C51.2944 12.5053 50.4163 12.1444 49.6973 11.4224C48.9781 10.7006 48.6183 9.80673 48.6183 8.7403Z" fill="#193F7E"/>
<path fill-rule="evenodd" clip-rule="evenodd" d="M57.7114 12.5053V5.04605H58.6265V8.23411H62.5828V5.04605H63.4979V12.5053H62.5828V9.12428H58.6265V12.5053H57.7114Z" fill="#193F7E"/>
<path fill-rule="evenodd" clip-rule="evenodd" d="M65.1512 12.5053V5.04605H66.0663V8.23411H70.0226V5.04605H70.9377V12.5053H70.0226V9.12428H66.0663V12.5053H65.1512Z" fill="#193F7E"/>
<path fill-rule="evenodd" clip-rule="evenodd" d="M79.1405 12.5053H80.0308V5.04605H79.1405V12.5053ZM74.3082 11.7045H75.6177C76.6131 11.7045 77.1107 11.2054 77.1107 10.2068C77.1107 9.7325 76.9885 9.36128 76.744 9.09462C76.4995 8.82768 76.1286 8.69431 75.6309 8.69431H74.3082V11.7045ZM73.4177 12.5053V5.04605H74.3082V7.89321H75.7225C76.3857 7.89321 76.9358 8.07624 77.3726 8.44211C77.8089 8.80788 78.0272 9.40108 78.0272 10.2214C78.0272 10.9237 77.8309 11.4798 77.4383 11.89C77.0453 12.3 76.4644 12.5053 75.6966 12.5053H73.4177Z" fill="#193F7E"/>
<path fill-rule="evenodd" clip-rule="evenodd" d="M86.6519 4.0147C86.3016 4.31639 85.883 4.46679 85.397 4.46679C84.9119 4.46679 84.4933 4.31639 84.1431 4.0147C83.7919 3.71328 83.6168 3.30831 83.6168 2.79998V2.55963H84.4128V2.77173C84.4128 3.07306 84.5091 3.31055 84.7026 3.48527C84.8961 3.65936 85.1273 3.74636 85.397 3.74636C85.6676 3.74636 85.9005 3.65936 86.0993 3.48527C86.2964 3.31055 86.3962 3.06823 86.3962 2.75742V2.55963H87.1782V2.79998C87.1782 3.30831 87.0022 3.71328 86.6519 4.0147ZM82.5108 12.5053V5.39923H83.4005V10.0613C83.4005 10.7109 83.3873 11.0643 83.3602 11.1205H83.3873C83.4232 11.0548 83.657 10.7021 84.0888 10.0613L87.4207 5.39923H88.2973V12.5053H87.3936V7.82903C87.3936 7.70688 87.3953 7.56561 87.4006 7.40519C87.405 7.24505 87.412 7.10636 87.4207 6.98851C87.4295 6.87084 87.4339 6.80727 87.4339 6.79779H87.4076C87.4076 6.81665 87.3691 6.88255 87.2929 6.99531C87.2158 7.1086 87.1169 7.24988 86.996 7.4195C86.8743 7.58903 86.7824 7.72575 86.7193 7.82903L83.3873 12.5053H82.5108Z" fill="#193F7E"/>
<path fill-rule="evenodd" clip-rule="evenodd" d="M33.7304 27.3677L34.8478 25.956C35.1563 26.2954 35.5396 26.5799 35.9973 26.8097C36.4547 27.0396 36.9232 27.1542 37.402 27.1542C38.019 27.1542 38.5088 26.996 38.8706 26.6785C39.2323 26.3611 39.4134 25.9232 39.4134 25.3653C39.4134 24.8618 39.2511 24.465 38.9266 24.175C38.6018 23.8853 38.1628 23.7401 37.6097 23.7401H36.2206V22.0329H37.3382C37.8489 22.0329 38.2693 21.8797 38.5994 21.5734C38.9289 21.2667 39.0941 20.8836 39.0941 20.4241C39.0941 19.9537 38.9451 19.568 38.6472 19.267C38.349 18.9659 37.9181 18.8154 37.3542 18.8154C36.4921 18.8154 35.6724 19.1436 34.8956 19.8003L34.0657 18.2572C35.0657 17.4037 36.279 16.9769 37.7053 16.9769C38.6735 16.9769 39.4958 17.2616 40.1716 17.8304C40.8475 18.3997 41.1855 19.1765 41.1855 20.1614C41.1855 21.3104 40.6638 22.1753 39.621 22.7548V22.7877C40.2061 22.9741 40.6692 23.3025 41.0099 23.7729C41.3502 24.2433 41.5205 24.8179 41.5205 25.4965C41.5205 26.569 41.1454 27.4253 40.3952 28.0656C39.645 28.7059 38.711 29.0259 37.5937 29.0259C36.8698 29.0259 36.1648 28.8807 35.4783 28.5907C34.792 28.3008 34.2092 27.8931 33.7304 27.3677Z" fill="#193F7E"/>
<path fill-rule="evenodd" clip-rule="evenodd" d="M46.4694 24.1176H49.4226L48.417 20.9987L47.9701 19.193H47.9379C47.7676 19.9589 47.6189 20.5611 47.491 20.9987L46.4694 24.1176ZM42.8938 28.8288L46.8685 17.174H49.0396L53.0145 28.8288H50.9074L49.9336 25.8412H45.9587L45.0008 28.8288H42.8938Z" fill="#193F7E"/>
<path fill-rule="evenodd" clip-rule="evenodd" d="M57.2128 27.0067H59.4159C59.9265 27.0067 60.3282 26.8506 60.6213 26.5387C60.9137 26.227 61.0601 25.8193 61.0601 25.3157C61.0601 24.8233 60.9137 24.4211 60.6213 24.1093C60.3282 23.7974 59.9265 23.6412 59.4159 23.6412H57.2128V27.0067ZM57.2128 21.9341H59.2083C59.6446 21.9341 59.9878 21.7947 60.2379 21.5155C60.4877 21.2365 60.613 20.8782 60.613 20.4406C60.613 20.0136 60.4877 19.6663 60.2379 19.398C59.9878 19.13 59.6338 18.9959 59.1764 18.9959H57.2128V21.9341ZM55.1536 28.8287V17.1739H59.1923C60.2459 17.1739 61.0943 17.4393 61.7385 17.97C62.3823 18.5009 62.7044 19.2366 62.7044 20.178C62.7044 20.7253 62.5819 21.2176 62.337 21.655C62.0921 22.0931 61.7571 22.4323 61.3316 22.673V22.7058C61.9274 22.8809 62.3823 23.2257 62.6961 23.74C63.01 24.2546 63.1672 24.8233 63.1672 25.4471C63.1672 26.5524 62.7947 27.3924 62.0499 27.967C61.3048 28.5414 60.3738 28.8287 59.2561 28.8287H55.1536Z" fill="#193F7E"/>
<path fill-rule="evenodd" clip-rule="evenodd" d="M67.3496 22.9193C67.3496 24.1011 67.7113 25.0919 68.4351 25.8903C69.1588 26.6896 70.0421 27.0888 71.0853 27.0888C72.128 27.0888 73.0112 26.6896 73.7349 25.8903C74.4587 25.0919 74.8206 24.1011 74.8206 22.9193C74.8206 21.792 74.4587 20.8426 73.7349 20.0711C73.0112 19.2997 72.128 18.9139 71.0853 18.9139C70.0421 18.9139 69.1588 19.2997 68.4351 20.0711C67.7113 20.8426 67.3496 21.792 67.3496 22.9193ZM65.2266 22.9193C65.2266 21.2449 65.7877 19.8361 66.9107 18.6922C68.0335 17.5488 69.4248 16.9768 71.0853 16.9768C72.7455 16.9768 74.1366 17.5488 75.2596 18.6922C76.3823 19.8361 76.9437 21.2449 76.9437 22.9193C76.9437 24.6373 76.3823 26.085 75.2596 27.261C74.1366 28.4375 72.7455 29.0259 71.0853 29.0259C69.4248 29.0259 68.0335 28.4375 66.9107 27.261C65.7877 26.085 65.2266 24.6373 65.2266 22.9193Z" fill="#193F7E"/>
<path fill-rule="evenodd" clip-rule="evenodd" d="M81.3014 27.0067H85.8033V18.9959H82.7703V19.866C82.7703 22.996 82.281 25.3763 81.3014 27.0067ZM78.0292 27.0067H79.1787C80.2747 25.2995 80.8227 22.8698 80.8227 19.7182V17.1739H87.8625V27.0067H89.1239V31.1269H87.2879V28.8287H79.9291V31.1269H78.0292V27.0067Z" fill="#193F7E"/>
<path fill-rule="evenodd" clip-rule="evenodd" d="M45.9509 43.9887H42.8085L39.3547 34.2228H42.4971L45.9509 43.9887Z" fill="#193F7E"/>
<path fill-rule="evenodd" clip-rule="evenodd" d="M42.2012 43.9887H39.0581L36.3399 36.1778H39.4814L42.2012 43.9887Z" fill="#193F7E"/>
<path fill-rule="evenodd" clip-rule="evenodd" d="M35.679 37.8991C36.0753 38.9725 37.2299 42.662 37.4771 43.3316H33.9718C34.2218 42.6609 35.2795 38.9713 35.679 37.8991ZM33.0532 44H38.3932L35.6836 36.2474L33.0532 44Z" fill="#193F7E"/>
<path fill-rule="evenodd" clip-rule="evenodd" d="M51.4813 43.9672C49.1894 43.9672 47.8141 42.4105 47.8141 39.9579C47.8141 37.438 49.5435 36.0042 51.7417 36.0042C52.5022 36.0042 53.2835 36.1947 53.9815 36.5194C53.8773 36.7996 53.8148 37.0906 53.7627 37.3818L53.6899 37.393C53.5439 37.1915 52.7731 36.4299 51.7 36.4299C49.7833 36.4299 48.835 38.0987 48.835 40.0027C48.835 42.1527 49.9811 43.5306 51.6271 43.5306C52.7521 43.5306 53.6273 42.8137 53.8357 42.6232L53.7836 43.3289C53.1272 43.7993 52.273 43.9672 51.4813 43.9672Z" fill="#193F7E"/>
<path fill-rule="evenodd" clip-rule="evenodd" d="M56.4736 40.3385H58.7654L57.6091 37.4715L56.4736 40.3385ZM60.5676 43.7993C60.3698 43.7993 60.1925 43.8218 60.0156 43.8327C59.7133 42.9034 59.3383 41.828 58.9217 40.809H56.2757C55.9108 41.7946 55.5358 42.7798 55.2443 43.8327C55.0985 43.8218 54.9839 43.7993 54.8587 43.7993C54.7234 43.7993 54.6088 43.8218 54.4942 43.8327L57.7444 36.0042H57.9842L61.1094 43.8327C60.9115 43.8218 60.7447 43.7993 60.5676 43.7993Z" fill="#193F7E"/>
<path fill-rule="evenodd" clip-rule="evenodd" d="M64.1921 39.5769C65.0253 40.6073 65.9212 41.5929 66.7236 42.657L67.5674 43.7768V43.8327C67.3591 43.8218 67.1715 43.7993 66.9943 43.7993C66.7964 43.7993 66.5985 43.8218 66.4109 43.8327C66.1819 43.4743 65.9526 43.1384 65.6922 42.8137L63.421 39.9579C63.3689 39.9129 63.2438 39.8794 63.2438 39.9241V43.8327C63.0774 43.8218 62.9313 43.7993 62.7856 43.7993C62.6293 43.7993 62.4731 43.8218 62.3271 43.8327V36.1722C62.4731 36.1835 62.6293 36.206 62.7856 36.206C62.9313 36.206 63.0774 36.1835 63.2438 36.1722V39.6329C63.2543 39.7001 63.4003 39.6555 63.5045 39.5657C63.6919 39.409 63.9107 39.1737 64.0565 39.017L66.6192 36.1722C66.7548 36.1835 66.8901 36.206 67.0361 36.206C67.1613 36.206 67.2965 36.1835 67.4423 36.1722L65.0774 38.6139L64.1921 39.5769Z" fill="#193F7E"/>
<path fill-rule="evenodd" clip-rule="evenodd" d="M71.6932 43.9672C69.4011 43.9672 68.026 42.4105 68.026 39.9579C68.026 37.438 69.7555 36.0042 71.9537 36.0042C72.7142 36.0042 73.4954 36.1947 74.1934 36.5194C74.0892 36.7996 74.0267 37.0906 73.9746 37.3818L73.9019 37.393C73.7559 37.1915 72.985 36.4299 71.9121 36.4299C69.9952 36.4299 69.047 38.0987 69.047 40.0027C69.047 42.1527 70.1931 43.5306 71.839 43.5306C72.9642 43.5306 73.8394 42.8137 74.0477 42.6232L73.9956 43.3289C73.3392 43.7993 72.4849 43.9672 71.6932 43.9672Z" fill="#193F7E"/>
<path fill-rule="evenodd" clip-rule="evenodd" d="M77.5065 36.4299C76.4335 36.4299 75.6625 37.1915 75.5167 37.393L75.4436 37.382C75.3915 37.0908 75.3293 36.7996 75.2249 36.5197C75.9229 36.1946 76.7043 36.0042 77.4649 36.0042C79.6628 36.0042 81.3922 37.438 81.3922 39.9578C81.3922 42.4104 80.0172 43.9672 77.725 43.9672C76.9333 43.9672 76.0791 43.7992 75.423 43.3288L75.3707 42.6234C75.5792 42.8136 76.4542 43.5305 77.5792 43.5305C79.2255 43.5305 80.3713 42.153 80.3713 40.0026H77.4649C77.1522 40.0026 76.8501 40.0585 76.5377 40.0585C76.5377 39.9353 76.5688 39.8346 76.5688 39.7451C76.5688 39.6441 76.5377 39.5433 76.5377 39.4539C76.8501 39.4539 77.1522 39.5099 77.4649 39.5099H80.3506C80.215 37.8187 79.2566 36.4299 77.5065 36.4299Z" fill="#193F7E"/>
<path fill-rule="evenodd" clip-rule="evenodd" d="M85.8511 43.9672C83.5592 43.9672 82.1839 42.4105 82.1839 39.9579C82.1839 37.438 83.9133 36.0042 86.1115 36.0042C86.8721 36.0042 87.6536 36.1947 88.3516 36.5194C88.2471 36.7996 88.1846 37.0906 88.1328 37.3818L88.0598 37.393C87.914 37.1915 87.1429 36.4299 86.0699 36.4299C84.1531 36.4299 83.2051 38.0987 83.2051 40.0027C83.2051 42.1527 84.3509 43.5306 85.9972 43.5306C87.122 43.5306 87.9972 42.8137 88.2056 42.6232L88.1535 43.3289C87.4973 43.7993 86.6428 43.9672 85.8511 43.9672Z" fill="#193F7E"/>
<path fill-rule="evenodd" clip-rule="evenodd" d="M90.6601 34.4067H90.2225V35.5677H90.0591V34.4067H89.6215V34.2511H90.6601V34.4067Z" fill="#193F7E"/>
<path fill-rule="evenodd" clip-rule="evenodd" d="M92 35.5681H91.8373V34.4332L91.4961 35.2056H91.3988L91.0609 34.4332V35.5681H90.9086V34.2505H91.1313L91.4579 34.9845L91.7734 34.2505H92V35.5681Z" fill="#193F7E"/>
<defs>
<linearGradient id="paint0_linear" x1="8.26646e-05" y1="18.1144" x2="28.5632" y2="18.1144" gradientUnits="userSpaceOnUse">
<stop stop-color="#183F7D"/>
<stop offset="1" stop-color="#02A3D9"/>
</linearGradient>
</defs>
</svg>
