<?xml version="1.0" standalone="no"?>
<!DOCTYPE svg PUBLIC "-//W3C//DTD SVG 20010904//EN"
 "http://www.w3.org/TR/2001/REC-SVG-20010904/DTD/svg10.dtd">
<svg version="1.0" xmlns="http://www.w3.org/2000/svg"
 width="369.000000pt" height="369.000000pt" viewBox="0 0 369.000000 369.000000"
 preserveAspectRatio="xMidYMid meet">
<metadata>
Created by potrace 1.11, written by Peter Selinger 2001-2013
</metadata>
<g transform="translate(0.000000,369.000000) scale(0.100000,-0.100000)"
fill="#000000" stroke="none">
<path d="M1807 3274 c-3 -4 -1 -16 5 -28 7 -11 13 -25 14 -31 1 -5 41 -122 89
-260 48 -137 127 -365 175 -505 48 -140 127 -367 175 -505 47 -137 88 -254 89
-260 2 -5 6 -17 9 -25 4 -8 29 -80 56 -160 27 -80 86 -251 131 -380 45 -129
90 -260 100 -290 10 -30 46 -133 79 -229 34 -95 61 -174 61 -175 0 -3 881 0
893 3 4 0 1 17 -7 36 -9 20 -16 39 -17 43 -1 4 -3 12 -5 17 -2 6 -22 64 -44
130 -23 66 -45 129 -49 140 -5 11 -25 70 -46 130 -20 61 -61 180 -90 265 -54
158 -80 233 -225 650 -45 129 -90 260 -100 290 -10 30 -51 147 -90 260 -39
113 -91 264 -116 335 -24 72 -77 225 -118 340 l-73 210 -445 3 c-244 1 -447
-1 -451 -4z"/>
<path d="M946 2703 c-2 -2 23 -81 56 -176 32 -95 81 -237 108 -317 27 -80 108
-318 180 -530 72 -212 158 -464 191 -560 32 -96 99 -292 148 -435 l88 -260
447 -1 c315 0 446 3 446 11 0 6 -41 130 -90 275 -50 146 -113 330 -140 410
-113 334 -151 446 -157 460 -3 8 -7 20 -9 25 -1 6 -34 102 -73 215 -39 113
-73 212 -75 220 -4 15 -106 314 -185 545 -22 65 -41 120 -41 120 0 4 -890 1
-894 -2z"/>
<path d="M746 2669 c-3 -8 -79 -237 -169 -509 -239 -720 -569 -1713 -574
-1727 -4 -10 152 -13 760 -13 l766 0 -31 88 c-87 250 -241 701 -248 727 -5 17
-16 50 -25 75 -10 25 -50 142 -90 260 -41 118 -97 283 -125 365 -29 83 -53
155 -55 160 -1 6 -5 17 -8 25 -3 8 -33 94 -66 190 -138 409 -128 381 -135 359z
m104 -761 c50 -156 103 -319 117 -363 14 -44 34 -105 44 -135 9 -30 41 -129
69 -220 29 -91 73 -228 98 -305 25 -77 47 -144 48 -150 1 -5 9 -32 18 -58 9
-26 16 -51 16 -55 0 -4 -224 -7 -498 -7 l-499 0 23 70 c31 95 62 197 214 710
157 527 241 795 252 795 4 0 48 -127 98 -282z"/>
</g>
</svg>
